%TF.GenerationSoftware,KiCad,Pcbnew,7.0.5-0*%
%TF.CreationDate,2023-09-25T22:43:47+01:00*%
%TF.ProjectId,INCLINOMETER_BOARD,494e434c-494e-44f4-9d45-5445525f424f,rev?*%
%TF.SameCoordinates,Original*%
%TF.FileFunction,Legend,Top*%
%TF.FilePolarity,Positive*%
%FSLAX46Y46*%
G04 Gerber Fmt 4.6, Leading zero omitted, Abs format (unit mm)*
G04 Created by KiCad (PCBNEW 7.0.5-0) date 2023-09-25 22:43:47*
%MOMM*%
%LPD*%
G01*
G04 APERTURE LIST*
G04 Aperture macros list*
%AMRoundRect*
0 Rectangle with rounded corners*
0 $1 Rounding radius*
0 $2 $3 $4 $5 $6 $7 $8 $9 X,Y pos of 4 corners*
0 Add a 4 corners polygon primitive as box body*
4,1,4,$2,$3,$4,$5,$6,$7,$8,$9,$2,$3,0*
0 Add four circle primitives for the rounded corners*
1,1,$1+$1,$2,$3*
1,1,$1+$1,$4,$5*
1,1,$1+$1,$6,$7*
1,1,$1+$1,$8,$9*
0 Add four rect primitives between the rounded corners*
20,1,$1+$1,$2,$3,$4,$5,0*
20,1,$1+$1,$4,$5,$6,$7,0*
20,1,$1+$1,$6,$7,$8,$9,0*
20,1,$1+$1,$8,$9,$2,$3,0*%
G04 Aperture macros list end*
%ADD10C,0.203200*%
%ADD11C,0.152400*%
%ADD12C,0.203000*%
%ADD13C,0.230300*%
%ADD14C,0.120000*%
%ADD15RoundRect,0.325000X-0.325000X-0.425000X0.325000X-0.425000X0.325000X0.425000X-0.325000X0.425000X0*%
%ADD16C,0.800000*%
%ADD17C,6.400000*%
%ADD18RoundRect,0.325000X0.425000X-0.325000X0.425000X0.325000X-0.425000X0.325000X-0.425000X-0.325000X0*%
%ADD19RoundRect,0.350000X0.350000X-0.350000X0.350000X0.350000X-0.350000X0.350000X-0.350000X-0.350000X0*%
%ADD20RoundRect,0.325000X-0.425000X0.325000X-0.425000X-0.325000X0.425000X-0.325000X0.425000X0.325000X0*%
%ADD21RoundRect,0.600000X0.600000X1.000000X-0.600000X1.000000X-0.600000X-1.000000X0.600000X-1.000000X0*%
%ADD22RoundRect,0.450000X0.000000X1.050000X0.000000X1.050000X0.000000X-1.050000X0.000000X-1.050000X0*%
%ADD23RoundRect,1.000000X-0.750000X0.000000X0.750000X0.000000X0.750000X0.000000X-0.750000X0.000000X0*%
%ADD24RoundRect,0.375000X0.375000X-0.375000X0.375000X0.375000X-0.375000X0.375000X-0.375000X-0.375000X0*%
%ADD25RoundRect,0.425000X-2.425000X0.425000X-2.425000X-0.425000X2.425000X-0.425000X2.425000X0.425000X0*%
%ADD26RoundRect,0.517500X-0.832500X0.517500X-0.832500X-0.517500X0.832500X-0.517500X0.832500X0.517500X0*%
%ADD27C,2.100000*%
%ADD28C,3.000000*%
%ADD29C,1.800000*%
%ADD30RoundRect,0.400000X0.500000X0.000000X-0.500000X0.000000X-0.500000X0.000000X0.500000X0.000000X0*%
%ADD31RoundRect,0.300000X0.000000X0.450000X0.000000X-0.450000X0.000000X-0.450000X0.000000X0.450000X0*%
%ADD32RoundRect,0.400000X0.000000X0.975000X0.000000X-0.975000X0.000000X-0.975000X0.000000X0.975000X0*%
G04 APERTURE END LIST*
D10*
X188341000Y-82169000D02*
G75*
G03*
X188976000Y-82804000I635000J0D01*
G01*
X189928500Y-83439000D02*
X189928500Y-93980000D01*
X208661000Y-73660000D02*
X209931000Y-73660000D01*
X192278000Y-82804000D02*
G75*
G03*
X192913000Y-82169000I0J635000D01*
G01*
X98679000Y-71120000D02*
X100711000Y-71120000D01*
X97594979Y-70670995D02*
G75*
G03*
X97145974Y-70485000I-448979J-448905D01*
G01*
X100711000Y-77343000D02*
G75*
G03*
X101346000Y-76708000I0J635000D01*
G01*
X84709000Y-78105000D02*
G75*
G03*
X85344000Y-78740000I635000J0D01*
G01*
X100711000Y-77343000D02*
X98679000Y-77343000D01*
X89408000Y-70993000D02*
X89730013Y-70670987D01*
X90179026Y-70484977D02*
G75*
G03*
X89730013Y-70670987I74J-635123D01*
G01*
X93345000Y-77597000D02*
X93794013Y-78046013D01*
X192913000Y-78105000D02*
X192913000Y-82169000D01*
X101346000Y-71755000D02*
G75*
G03*
X100711000Y-71120000I-635000J0D01*
G01*
X216154000Y-75311000D02*
X211201000Y-75311000D01*
X88646000Y-78740000D02*
G75*
G03*
X89281000Y-78105000I0J635000D01*
G01*
X100515987Y-78417987D02*
X100965000Y-78867000D01*
X84709000Y-71755000D02*
X84709000Y-71755000D01*
X89281000Y-71755000D02*
X89281000Y-71755000D01*
X85344000Y-71120000D02*
G75*
G03*
X84709000Y-71755000I0J-635000D01*
G01*
X216789000Y-72644000D02*
G75*
G03*
X216154000Y-72009000I-635000J0D01*
G01*
X85344000Y-78740000D02*
X88646000Y-78740000D01*
X210566000Y-74676000D02*
G75*
G03*
X211201000Y-75311000I635000J0D01*
G01*
X97594987Y-70670987D02*
X97917000Y-70993000D01*
X89281000Y-71755000D02*
G75*
G03*
X88646000Y-71120000I-635000J0D01*
G01*
X98796974Y-78232000D02*
X100066974Y-78232000D01*
X211201000Y-72009000D02*
G75*
G03*
X210566000Y-72644000I0J-635000D01*
G01*
X90179026Y-70485000D02*
X97145974Y-70485000D01*
X188976000Y-77470000D02*
X192278000Y-77470000D01*
X100779013Y-85911036D02*
X100330000Y-85462023D01*
X98044000Y-76708000D02*
G75*
G03*
X98679000Y-77343000I635000J0D01*
G01*
X89281000Y-78105000D02*
X89281000Y-78105000D01*
X210566000Y-74676000D02*
X210566000Y-72644000D01*
X94243026Y-78232000D02*
X98796974Y-78232000D01*
X84709000Y-78105000D02*
X84709000Y-78105000D01*
X98044000Y-76708000D02*
X98044000Y-71755000D01*
X100965000Y-87630049D02*
X100965000Y-86360049D01*
X101346000Y-71755000D02*
X101346000Y-76708000D01*
X88646000Y-71120000D02*
X85344000Y-71120000D01*
X93794000Y-78046026D02*
G75*
G03*
X94243026Y-78232000I449000J449026D01*
G01*
X100515979Y-78417995D02*
G75*
G03*
X100066974Y-78232000I-448979J-448905D01*
G01*
X216154000Y-75311000D02*
G75*
G03*
X216789000Y-74676000I0J635000D01*
G01*
X216789000Y-72644000D02*
X216789000Y-74676000D01*
X188341000Y-82169000D02*
X188341000Y-78105000D01*
X100964994Y-86360049D02*
G75*
G03*
X100779012Y-85911037I-634894J49D01*
G01*
X192278000Y-82804000D02*
X188976000Y-82804000D01*
X192913000Y-78105000D02*
G75*
G03*
X192278000Y-77470000I-635000J0D01*
G01*
X98679000Y-71120000D02*
G75*
G03*
X98044000Y-71755000I0J-635000D01*
G01*
X211201000Y-72009000D02*
X216154000Y-72009000D01*
X188976000Y-77470000D02*
G75*
G03*
X188341000Y-78105000I0J-635000D01*
G01*
D11*
X107775951Y-96567194D02*
X107775951Y-97281479D01*
X107775951Y-97281479D02*
X107728332Y-97424336D01*
X107728332Y-97424336D02*
X107633094Y-97519575D01*
X107633094Y-97519575D02*
X107490237Y-97567194D01*
X107490237Y-97567194D02*
X107394999Y-97567194D01*
X108728332Y-97567194D02*
X108252142Y-97567194D01*
X108252142Y-97567194D02*
X108252142Y-96567194D01*
X109633094Y-97471955D02*
X109585475Y-97519575D01*
X109585475Y-97519575D02*
X109442618Y-97567194D01*
X109442618Y-97567194D02*
X109347380Y-97567194D01*
X109347380Y-97567194D02*
X109204523Y-97519575D01*
X109204523Y-97519575D02*
X109109285Y-97424336D01*
X109109285Y-97424336D02*
X109061666Y-97329098D01*
X109061666Y-97329098D02*
X109014047Y-97138622D01*
X109014047Y-97138622D02*
X109014047Y-96995765D01*
X109014047Y-96995765D02*
X109061666Y-96805289D01*
X109061666Y-96805289D02*
X109109285Y-96710051D01*
X109109285Y-96710051D02*
X109204523Y-96614813D01*
X109204523Y-96614813D02*
X109347380Y-96567194D01*
X109347380Y-96567194D02*
X109442618Y-96567194D01*
X109442618Y-96567194D02*
X109585475Y-96614813D01*
X109585475Y-96614813D02*
X109633094Y-96662432D01*
X110347380Y-96567194D02*
X110347380Y-97281479D01*
X110347380Y-97281479D02*
X110299761Y-97424336D01*
X110299761Y-97424336D02*
X110204523Y-97519575D01*
X110204523Y-97519575D02*
X110061666Y-97567194D01*
X110061666Y-97567194D02*
X109966428Y-97567194D01*
X111299761Y-97567194D02*
X110823571Y-97567194D01*
X110823571Y-97567194D02*
X110823571Y-96567194D01*
X112204523Y-97471955D02*
X112156904Y-97519575D01*
X112156904Y-97519575D02*
X112014047Y-97567194D01*
X112014047Y-97567194D02*
X111918809Y-97567194D01*
X111918809Y-97567194D02*
X111775952Y-97519575D01*
X111775952Y-97519575D02*
X111680714Y-97424336D01*
X111680714Y-97424336D02*
X111633095Y-97329098D01*
X111633095Y-97329098D02*
X111585476Y-97138622D01*
X111585476Y-97138622D02*
X111585476Y-96995765D01*
X111585476Y-96995765D02*
X111633095Y-96805289D01*
X111633095Y-96805289D02*
X111680714Y-96710051D01*
X111680714Y-96710051D02*
X111775952Y-96614813D01*
X111775952Y-96614813D02*
X111918809Y-96567194D01*
X111918809Y-96567194D02*
X112014047Y-96567194D01*
X112014047Y-96567194D02*
X112156904Y-96614813D01*
X112156904Y-96614813D02*
X112204523Y-96662432D01*
X112918809Y-96567194D02*
X112918809Y-97281479D01*
X112918809Y-97281479D02*
X112871190Y-97424336D01*
X112871190Y-97424336D02*
X112775952Y-97519575D01*
X112775952Y-97519575D02*
X112633095Y-97567194D01*
X112633095Y-97567194D02*
X112537857Y-97567194D01*
X113871190Y-97567194D02*
X113395000Y-97567194D01*
X113395000Y-97567194D02*
X113395000Y-96567194D01*
X114775952Y-97471955D02*
X114728333Y-97519575D01*
X114728333Y-97519575D02*
X114585476Y-97567194D01*
X114585476Y-97567194D02*
X114490238Y-97567194D01*
X114490238Y-97567194D02*
X114347381Y-97519575D01*
X114347381Y-97519575D02*
X114252143Y-97424336D01*
X114252143Y-97424336D02*
X114204524Y-97329098D01*
X114204524Y-97329098D02*
X114156905Y-97138622D01*
X114156905Y-97138622D02*
X114156905Y-96995765D01*
X114156905Y-96995765D02*
X114204524Y-96805289D01*
X114204524Y-96805289D02*
X114252143Y-96710051D01*
X114252143Y-96710051D02*
X114347381Y-96614813D01*
X114347381Y-96614813D02*
X114490238Y-96567194D01*
X114490238Y-96567194D02*
X114585476Y-96567194D01*
X114585476Y-96567194D02*
X114728333Y-96614813D01*
X114728333Y-96614813D02*
X114775952Y-96662432D01*
X115490238Y-96567194D02*
X115490238Y-97281479D01*
X115490238Y-97281479D02*
X115442619Y-97424336D01*
X115442619Y-97424336D02*
X115347381Y-97519575D01*
X115347381Y-97519575D02*
X115204524Y-97567194D01*
X115204524Y-97567194D02*
X115109286Y-97567194D01*
X116442619Y-97567194D02*
X115966429Y-97567194D01*
X115966429Y-97567194D02*
X115966429Y-96567194D01*
X117347381Y-97471955D02*
X117299762Y-97519575D01*
X117299762Y-97519575D02*
X117156905Y-97567194D01*
X117156905Y-97567194D02*
X117061667Y-97567194D01*
X117061667Y-97567194D02*
X116918810Y-97519575D01*
X116918810Y-97519575D02*
X116823572Y-97424336D01*
X116823572Y-97424336D02*
X116775953Y-97329098D01*
X116775953Y-97329098D02*
X116728334Y-97138622D01*
X116728334Y-97138622D02*
X116728334Y-96995765D01*
X116728334Y-96995765D02*
X116775953Y-96805289D01*
X116775953Y-96805289D02*
X116823572Y-96710051D01*
X116823572Y-96710051D02*
X116918810Y-96614813D01*
X116918810Y-96614813D02*
X117061667Y-96567194D01*
X117061667Y-96567194D02*
X117156905Y-96567194D01*
X117156905Y-96567194D02*
X117299762Y-96614813D01*
X117299762Y-96614813D02*
X117347381Y-96662432D01*
%TO.C,C6*%
X190478833Y-79198648D02*
X190418357Y-79259125D01*
X190418357Y-79259125D02*
X190236928Y-79319601D01*
X190236928Y-79319601D02*
X190115976Y-79319601D01*
X190115976Y-79319601D02*
X189934547Y-79259125D01*
X189934547Y-79259125D02*
X189813595Y-79138172D01*
X189813595Y-79138172D02*
X189753118Y-79017220D01*
X189753118Y-79017220D02*
X189692642Y-78775315D01*
X189692642Y-78775315D02*
X189692642Y-78593886D01*
X189692642Y-78593886D02*
X189753118Y-78351982D01*
X189753118Y-78351982D02*
X189813595Y-78231029D01*
X189813595Y-78231029D02*
X189934547Y-78110077D01*
X189934547Y-78110077D02*
X190115976Y-78049601D01*
X190115976Y-78049601D02*
X190236928Y-78049601D01*
X190236928Y-78049601D02*
X190418357Y-78110077D01*
X190418357Y-78110077D02*
X190478833Y-78170553D01*
X191567404Y-78049601D02*
X191325499Y-78049601D01*
X191325499Y-78049601D02*
X191204547Y-78110077D01*
X191204547Y-78110077D02*
X191144071Y-78170553D01*
X191144071Y-78170553D02*
X191023118Y-78351982D01*
X191023118Y-78351982D02*
X190962642Y-78593886D01*
X190962642Y-78593886D02*
X190962642Y-79077696D01*
X190962642Y-79077696D02*
X191023118Y-79198648D01*
X191023118Y-79198648D02*
X191083595Y-79259125D01*
X191083595Y-79259125D02*
X191204547Y-79319601D01*
X191204547Y-79319601D02*
X191446452Y-79319601D01*
X191446452Y-79319601D02*
X191567404Y-79259125D01*
X191567404Y-79259125D02*
X191627880Y-79198648D01*
X191627880Y-79198648D02*
X191688357Y-79077696D01*
X191688357Y-79077696D02*
X191688357Y-78775315D01*
X191688357Y-78775315D02*
X191627880Y-78654363D01*
X191627880Y-78654363D02*
X191567404Y-78593886D01*
X191567404Y-78593886D02*
X191446452Y-78533410D01*
X191446452Y-78533410D02*
X191204547Y-78533410D01*
X191204547Y-78533410D02*
X191083595Y-78593886D01*
X191083595Y-78593886D02*
X191023118Y-78654363D01*
X191023118Y-78654363D02*
X190962642Y-78775315D01*
%TO.C,R2*%
X94403333Y-72969601D02*
X93979999Y-72364839D01*
X93677618Y-72969601D02*
X93677618Y-71699601D01*
X93677618Y-71699601D02*
X94161428Y-71699601D01*
X94161428Y-71699601D02*
X94282380Y-71760077D01*
X94282380Y-71760077D02*
X94342857Y-71820553D01*
X94342857Y-71820553D02*
X94403333Y-71941505D01*
X94403333Y-71941505D02*
X94403333Y-72122934D01*
X94403333Y-72122934D02*
X94342857Y-72243886D01*
X94342857Y-72243886D02*
X94282380Y-72304363D01*
X94282380Y-72304363D02*
X94161428Y-72364839D01*
X94161428Y-72364839D02*
X93677618Y-72364839D01*
X94887142Y-71820553D02*
X94947618Y-71760077D01*
X94947618Y-71760077D02*
X95068571Y-71699601D01*
X95068571Y-71699601D02*
X95370952Y-71699601D01*
X95370952Y-71699601D02*
X95491904Y-71760077D01*
X95491904Y-71760077D02*
X95552380Y-71820553D01*
X95552380Y-71820553D02*
X95612857Y-71941505D01*
X95612857Y-71941505D02*
X95612857Y-72062458D01*
X95612857Y-72062458D02*
X95552380Y-72243886D01*
X95552380Y-72243886D02*
X94826666Y-72969601D01*
X94826666Y-72969601D02*
X95612857Y-72969601D01*
%TO.C,C4*%
X95962648Y-91016666D02*
X96023125Y-91077142D01*
X96023125Y-91077142D02*
X96083601Y-91258571D01*
X96083601Y-91258571D02*
X96083601Y-91379523D01*
X96083601Y-91379523D02*
X96023125Y-91560952D01*
X96023125Y-91560952D02*
X95902172Y-91681904D01*
X95902172Y-91681904D02*
X95781220Y-91742381D01*
X95781220Y-91742381D02*
X95539315Y-91802857D01*
X95539315Y-91802857D02*
X95357886Y-91802857D01*
X95357886Y-91802857D02*
X95115982Y-91742381D01*
X95115982Y-91742381D02*
X94995029Y-91681904D01*
X94995029Y-91681904D02*
X94874077Y-91560952D01*
X94874077Y-91560952D02*
X94813601Y-91379523D01*
X94813601Y-91379523D02*
X94813601Y-91258571D01*
X94813601Y-91258571D02*
X94874077Y-91077142D01*
X94874077Y-91077142D02*
X94934553Y-91016666D01*
X95236934Y-89928095D02*
X96083601Y-89928095D01*
X94753125Y-90230476D02*
X95660267Y-90532857D01*
X95660267Y-90532857D02*
X95660267Y-89746666D01*
%TO.C,D5*%
X216225601Y-74597381D02*
X214955601Y-74597381D01*
X214955601Y-74597381D02*
X214955601Y-74295000D01*
X214955601Y-74295000D02*
X215016077Y-74113571D01*
X215016077Y-74113571D02*
X215137029Y-73992619D01*
X215137029Y-73992619D02*
X215257982Y-73932142D01*
X215257982Y-73932142D02*
X215499886Y-73871666D01*
X215499886Y-73871666D02*
X215681315Y-73871666D01*
X215681315Y-73871666D02*
X215923220Y-73932142D01*
X215923220Y-73932142D02*
X216044172Y-73992619D01*
X216044172Y-73992619D02*
X216165125Y-74113571D01*
X216165125Y-74113571D02*
X216225601Y-74295000D01*
X216225601Y-74295000D02*
X216225601Y-74597381D01*
X214955601Y-72722619D02*
X214955601Y-73327381D01*
X214955601Y-73327381D02*
X215560363Y-73387857D01*
X215560363Y-73387857D02*
X215499886Y-73327381D01*
X215499886Y-73327381D02*
X215439410Y-73206428D01*
X215439410Y-73206428D02*
X215439410Y-72904047D01*
X215439410Y-72904047D02*
X215499886Y-72783095D01*
X215499886Y-72783095D02*
X215560363Y-72722619D01*
X215560363Y-72722619D02*
X215681315Y-72662142D01*
X215681315Y-72662142D02*
X215983696Y-72662142D01*
X215983696Y-72662142D02*
X216104648Y-72722619D01*
X216104648Y-72722619D02*
X216165125Y-72783095D01*
X216165125Y-72783095D02*
X216225601Y-72904047D01*
X216225601Y-72904047D02*
X216225601Y-73206428D01*
X216225601Y-73206428D02*
X216165125Y-73327381D01*
X216165125Y-73327381D02*
X216104648Y-73387857D01*
%TO.C,C9*%
X210770648Y-95527666D02*
X210831125Y-95588142D01*
X210831125Y-95588142D02*
X210891601Y-95769571D01*
X210891601Y-95769571D02*
X210891601Y-95890523D01*
X210891601Y-95890523D02*
X210831125Y-96071952D01*
X210831125Y-96071952D02*
X210710172Y-96192904D01*
X210710172Y-96192904D02*
X210589220Y-96253381D01*
X210589220Y-96253381D02*
X210347315Y-96313857D01*
X210347315Y-96313857D02*
X210165886Y-96313857D01*
X210165886Y-96313857D02*
X209923982Y-96253381D01*
X209923982Y-96253381D02*
X209803029Y-96192904D01*
X209803029Y-96192904D02*
X209682077Y-96071952D01*
X209682077Y-96071952D02*
X209621601Y-95890523D01*
X209621601Y-95890523D02*
X209621601Y-95769571D01*
X209621601Y-95769571D02*
X209682077Y-95588142D01*
X209682077Y-95588142D02*
X209742553Y-95527666D01*
X210891601Y-94922904D02*
X210891601Y-94681000D01*
X210891601Y-94681000D02*
X210831125Y-94560047D01*
X210831125Y-94560047D02*
X210770648Y-94499571D01*
X210770648Y-94499571D02*
X210589220Y-94378619D01*
X210589220Y-94378619D02*
X210347315Y-94318142D01*
X210347315Y-94318142D02*
X209863505Y-94318142D01*
X209863505Y-94318142D02*
X209742553Y-94378619D01*
X209742553Y-94378619D02*
X209682077Y-94439095D01*
X209682077Y-94439095D02*
X209621601Y-94560047D01*
X209621601Y-94560047D02*
X209621601Y-94801952D01*
X209621601Y-94801952D02*
X209682077Y-94922904D01*
X209682077Y-94922904D02*
X209742553Y-94983381D01*
X209742553Y-94983381D02*
X209863505Y-95043857D01*
X209863505Y-95043857D02*
X210165886Y-95043857D01*
X210165886Y-95043857D02*
X210286839Y-94983381D01*
X210286839Y-94983381D02*
X210347315Y-94922904D01*
X210347315Y-94922904D02*
X210407791Y-94801952D01*
X210407791Y-94801952D02*
X210407791Y-94560047D01*
X210407791Y-94560047D02*
X210347315Y-94439095D01*
X210347315Y-94439095D02*
X210286839Y-94378619D01*
X210286839Y-94378619D02*
X210165886Y-94318142D01*
%TO.C,R6*%
X208351601Y-95527666D02*
X207746839Y-95951000D01*
X208351601Y-96253381D02*
X207081601Y-96253381D01*
X207081601Y-96253381D02*
X207081601Y-95769571D01*
X207081601Y-95769571D02*
X207142077Y-95648619D01*
X207142077Y-95648619D02*
X207202553Y-95588142D01*
X207202553Y-95588142D02*
X207323505Y-95527666D01*
X207323505Y-95527666D02*
X207504934Y-95527666D01*
X207504934Y-95527666D02*
X207625886Y-95588142D01*
X207625886Y-95588142D02*
X207686363Y-95648619D01*
X207686363Y-95648619D02*
X207746839Y-95769571D01*
X207746839Y-95769571D02*
X207746839Y-96253381D01*
X207081601Y-94439095D02*
X207081601Y-94681000D01*
X207081601Y-94681000D02*
X207142077Y-94801952D01*
X207142077Y-94801952D02*
X207202553Y-94862428D01*
X207202553Y-94862428D02*
X207383982Y-94983381D01*
X207383982Y-94983381D02*
X207625886Y-95043857D01*
X207625886Y-95043857D02*
X208109696Y-95043857D01*
X208109696Y-95043857D02*
X208230648Y-94983381D01*
X208230648Y-94983381D02*
X208291125Y-94922904D01*
X208291125Y-94922904D02*
X208351601Y-94801952D01*
X208351601Y-94801952D02*
X208351601Y-94560047D01*
X208351601Y-94560047D02*
X208291125Y-94439095D01*
X208291125Y-94439095D02*
X208230648Y-94378619D01*
X208230648Y-94378619D02*
X208109696Y-94318142D01*
X208109696Y-94318142D02*
X207807315Y-94318142D01*
X207807315Y-94318142D02*
X207686363Y-94378619D01*
X207686363Y-94378619D02*
X207625886Y-94439095D01*
X207625886Y-94439095D02*
X207565410Y-94560047D01*
X207565410Y-94560047D02*
X207565410Y-94801952D01*
X207565410Y-94801952D02*
X207625886Y-94922904D01*
X207625886Y-94922904D02*
X207686363Y-94983381D01*
X207686363Y-94983381D02*
X207807315Y-95043857D01*
%TO.C,R3*%
X91384601Y-94191666D02*
X90779839Y-94615000D01*
X91384601Y-94917381D02*
X90114601Y-94917381D01*
X90114601Y-94917381D02*
X90114601Y-94433571D01*
X90114601Y-94433571D02*
X90175077Y-94312619D01*
X90175077Y-94312619D02*
X90235553Y-94252142D01*
X90235553Y-94252142D02*
X90356505Y-94191666D01*
X90356505Y-94191666D02*
X90537934Y-94191666D01*
X90537934Y-94191666D02*
X90658886Y-94252142D01*
X90658886Y-94252142D02*
X90719363Y-94312619D01*
X90719363Y-94312619D02*
X90779839Y-94433571D01*
X90779839Y-94433571D02*
X90779839Y-94917381D01*
X90114601Y-93768333D02*
X90114601Y-92982142D01*
X90114601Y-92982142D02*
X90598410Y-93405476D01*
X90598410Y-93405476D02*
X90598410Y-93224047D01*
X90598410Y-93224047D02*
X90658886Y-93103095D01*
X90658886Y-93103095D02*
X90719363Y-93042619D01*
X90719363Y-93042619D02*
X90840315Y-92982142D01*
X90840315Y-92982142D02*
X91142696Y-92982142D01*
X91142696Y-92982142D02*
X91263648Y-93042619D01*
X91263648Y-93042619D02*
X91324125Y-93103095D01*
X91324125Y-93103095D02*
X91384601Y-93224047D01*
X91384601Y-93224047D02*
X91384601Y-93586904D01*
X91384601Y-93586904D02*
X91324125Y-93707857D01*
X91324125Y-93707857D02*
X91263648Y-93768333D01*
%TO.C,R5*%
X203144601Y-78951666D02*
X202539839Y-79375000D01*
X203144601Y-79677381D02*
X201874601Y-79677381D01*
X201874601Y-79677381D02*
X201874601Y-79193571D01*
X201874601Y-79193571D02*
X201935077Y-79072619D01*
X201935077Y-79072619D02*
X201995553Y-79012142D01*
X201995553Y-79012142D02*
X202116505Y-78951666D01*
X202116505Y-78951666D02*
X202297934Y-78951666D01*
X202297934Y-78951666D02*
X202418886Y-79012142D01*
X202418886Y-79012142D02*
X202479363Y-79072619D01*
X202479363Y-79072619D02*
X202539839Y-79193571D01*
X202539839Y-79193571D02*
X202539839Y-79677381D01*
X201874601Y-77802619D02*
X201874601Y-78407381D01*
X201874601Y-78407381D02*
X202479363Y-78467857D01*
X202479363Y-78467857D02*
X202418886Y-78407381D01*
X202418886Y-78407381D02*
X202358410Y-78286428D01*
X202358410Y-78286428D02*
X202358410Y-77984047D01*
X202358410Y-77984047D02*
X202418886Y-77863095D01*
X202418886Y-77863095D02*
X202479363Y-77802619D01*
X202479363Y-77802619D02*
X202600315Y-77742142D01*
X202600315Y-77742142D02*
X202902696Y-77742142D01*
X202902696Y-77742142D02*
X203023648Y-77802619D01*
X203023648Y-77802619D02*
X203084125Y-77863095D01*
X203084125Y-77863095D02*
X203144601Y-77984047D01*
X203144601Y-77984047D02*
X203144601Y-78286428D01*
X203144601Y-78286428D02*
X203084125Y-78407381D01*
X203084125Y-78407381D02*
X203023648Y-78467857D01*
%TO.C,C2*%
X99483333Y-76658648D02*
X99422857Y-76719125D01*
X99422857Y-76719125D02*
X99241428Y-76779601D01*
X99241428Y-76779601D02*
X99120476Y-76779601D01*
X99120476Y-76779601D02*
X98939047Y-76719125D01*
X98939047Y-76719125D02*
X98818095Y-76598172D01*
X98818095Y-76598172D02*
X98757618Y-76477220D01*
X98757618Y-76477220D02*
X98697142Y-76235315D01*
X98697142Y-76235315D02*
X98697142Y-76053886D01*
X98697142Y-76053886D02*
X98757618Y-75811982D01*
X98757618Y-75811982D02*
X98818095Y-75691029D01*
X98818095Y-75691029D02*
X98939047Y-75570077D01*
X98939047Y-75570077D02*
X99120476Y-75509601D01*
X99120476Y-75509601D02*
X99241428Y-75509601D01*
X99241428Y-75509601D02*
X99422857Y-75570077D01*
X99422857Y-75570077D02*
X99483333Y-75630553D01*
X99967142Y-75630553D02*
X100027618Y-75570077D01*
X100027618Y-75570077D02*
X100148571Y-75509601D01*
X100148571Y-75509601D02*
X100450952Y-75509601D01*
X100450952Y-75509601D02*
X100571904Y-75570077D01*
X100571904Y-75570077D02*
X100632380Y-75630553D01*
X100632380Y-75630553D02*
X100692857Y-75751505D01*
X100692857Y-75751505D02*
X100692857Y-75872458D01*
X100692857Y-75872458D02*
X100632380Y-76053886D01*
X100632380Y-76053886D02*
X99906666Y-76779601D01*
X99906666Y-76779601D02*
X100692857Y-76779601D01*
%TO.C,R4*%
X93924601Y-94191666D02*
X93319839Y-94615000D01*
X93924601Y-94917381D02*
X92654601Y-94917381D01*
X92654601Y-94917381D02*
X92654601Y-94433571D01*
X92654601Y-94433571D02*
X92715077Y-94312619D01*
X92715077Y-94312619D02*
X92775553Y-94252142D01*
X92775553Y-94252142D02*
X92896505Y-94191666D01*
X92896505Y-94191666D02*
X93077934Y-94191666D01*
X93077934Y-94191666D02*
X93198886Y-94252142D01*
X93198886Y-94252142D02*
X93259363Y-94312619D01*
X93259363Y-94312619D02*
X93319839Y-94433571D01*
X93319839Y-94433571D02*
X93319839Y-94917381D01*
X93077934Y-93103095D02*
X93924601Y-93103095D01*
X92594125Y-93405476D02*
X93501267Y-93707857D01*
X93501267Y-93707857D02*
X93501267Y-92921666D01*
%TO.C,D2*%
X94947618Y-93924601D02*
X94947618Y-92654601D01*
X94947618Y-92654601D02*
X95249999Y-92654601D01*
X95249999Y-92654601D02*
X95431428Y-92715077D01*
X95431428Y-92715077D02*
X95552380Y-92836029D01*
X95552380Y-92836029D02*
X95612857Y-92956982D01*
X95612857Y-92956982D02*
X95673333Y-93198886D01*
X95673333Y-93198886D02*
X95673333Y-93380315D01*
X95673333Y-93380315D02*
X95612857Y-93622220D01*
X95612857Y-93622220D02*
X95552380Y-93743172D01*
X95552380Y-93743172D02*
X95431428Y-93864125D01*
X95431428Y-93864125D02*
X95249999Y-93924601D01*
X95249999Y-93924601D02*
X94947618Y-93924601D01*
X96157142Y-92775553D02*
X96217618Y-92715077D01*
X96217618Y-92715077D02*
X96338571Y-92654601D01*
X96338571Y-92654601D02*
X96640952Y-92654601D01*
X96640952Y-92654601D02*
X96761904Y-92715077D01*
X96761904Y-92715077D02*
X96822380Y-92775553D01*
X96822380Y-92775553D02*
X96882857Y-92896505D01*
X96882857Y-92896505D02*
X96882857Y-93017458D01*
X96882857Y-93017458D02*
X96822380Y-93198886D01*
X96822380Y-93198886D02*
X96096666Y-93924601D01*
X96096666Y-93924601D02*
X96882857Y-93924601D01*
%TO.C,R7*%
X214574601Y-94191666D02*
X213969839Y-94615000D01*
X214574601Y-94917381D02*
X213304601Y-94917381D01*
X213304601Y-94917381D02*
X213304601Y-94433571D01*
X213304601Y-94433571D02*
X213365077Y-94312619D01*
X213365077Y-94312619D02*
X213425553Y-94252142D01*
X213425553Y-94252142D02*
X213546505Y-94191666D01*
X213546505Y-94191666D02*
X213727934Y-94191666D01*
X213727934Y-94191666D02*
X213848886Y-94252142D01*
X213848886Y-94252142D02*
X213909363Y-94312619D01*
X213909363Y-94312619D02*
X213969839Y-94433571D01*
X213969839Y-94433571D02*
X213969839Y-94917381D01*
X213304601Y-93768333D02*
X213304601Y-92921666D01*
X213304601Y-92921666D02*
X214574601Y-93465952D01*
%TO.C,C5*%
X98502648Y-91016666D02*
X98563125Y-91077142D01*
X98563125Y-91077142D02*
X98623601Y-91258571D01*
X98623601Y-91258571D02*
X98623601Y-91379523D01*
X98623601Y-91379523D02*
X98563125Y-91560952D01*
X98563125Y-91560952D02*
X98442172Y-91681904D01*
X98442172Y-91681904D02*
X98321220Y-91742381D01*
X98321220Y-91742381D02*
X98079315Y-91802857D01*
X98079315Y-91802857D02*
X97897886Y-91802857D01*
X97897886Y-91802857D02*
X97655982Y-91742381D01*
X97655982Y-91742381D02*
X97535029Y-91681904D01*
X97535029Y-91681904D02*
X97414077Y-91560952D01*
X97414077Y-91560952D02*
X97353601Y-91379523D01*
X97353601Y-91379523D02*
X97353601Y-91258571D01*
X97353601Y-91258571D02*
X97414077Y-91077142D01*
X97414077Y-91077142D02*
X97474553Y-91016666D01*
X97353601Y-89867619D02*
X97353601Y-90472381D01*
X97353601Y-90472381D02*
X97958363Y-90532857D01*
X97958363Y-90532857D02*
X97897886Y-90472381D01*
X97897886Y-90472381D02*
X97837410Y-90351428D01*
X97837410Y-90351428D02*
X97837410Y-90049047D01*
X97837410Y-90049047D02*
X97897886Y-89928095D01*
X97897886Y-89928095D02*
X97958363Y-89867619D01*
X97958363Y-89867619D02*
X98079315Y-89807142D01*
X98079315Y-89807142D02*
X98381696Y-89807142D01*
X98381696Y-89807142D02*
X98502648Y-89867619D01*
X98502648Y-89867619D02*
X98563125Y-89928095D01*
X98563125Y-89928095D02*
X98623601Y-90049047D01*
X98623601Y-90049047D02*
X98623601Y-90351428D01*
X98623601Y-90351428D02*
X98563125Y-90472381D01*
X98563125Y-90472381D02*
X98502648Y-90532857D01*
%TO.C,L2*%
X208351601Y-84270694D02*
X208351601Y-84875456D01*
X208351601Y-84875456D02*
X207081601Y-84875456D01*
X207202553Y-83907837D02*
X207142077Y-83847361D01*
X207142077Y-83847361D02*
X207081601Y-83726408D01*
X207081601Y-83726408D02*
X207081601Y-83424027D01*
X207081601Y-83424027D02*
X207142077Y-83303075D01*
X207142077Y-83303075D02*
X207202553Y-83242599D01*
X207202553Y-83242599D02*
X207323505Y-83182122D01*
X207323505Y-83182122D02*
X207444458Y-83182122D01*
X207444458Y-83182122D02*
X207625886Y-83242599D01*
X207625886Y-83242599D02*
X208351601Y-83968313D01*
X208351601Y-83968313D02*
X208351601Y-83182122D01*
%TO.C,D6*%
X215597618Y-93924601D02*
X215597618Y-92654601D01*
X215597618Y-92654601D02*
X215899999Y-92654601D01*
X215899999Y-92654601D02*
X216081428Y-92715077D01*
X216081428Y-92715077D02*
X216202380Y-92836029D01*
X216202380Y-92836029D02*
X216262857Y-92956982D01*
X216262857Y-92956982D02*
X216323333Y-93198886D01*
X216323333Y-93198886D02*
X216323333Y-93380315D01*
X216323333Y-93380315D02*
X216262857Y-93622220D01*
X216262857Y-93622220D02*
X216202380Y-93743172D01*
X216202380Y-93743172D02*
X216081428Y-93864125D01*
X216081428Y-93864125D02*
X215899999Y-93924601D01*
X215899999Y-93924601D02*
X215597618Y-93924601D01*
X217411904Y-92654601D02*
X217169999Y-92654601D01*
X217169999Y-92654601D02*
X217049047Y-92715077D01*
X217049047Y-92715077D02*
X216988571Y-92775553D01*
X216988571Y-92775553D02*
X216867618Y-92956982D01*
X216867618Y-92956982D02*
X216807142Y-93198886D01*
X216807142Y-93198886D02*
X216807142Y-93682696D01*
X216807142Y-93682696D02*
X216867618Y-93803648D01*
X216867618Y-93803648D02*
X216928095Y-93864125D01*
X216928095Y-93864125D02*
X217049047Y-93924601D01*
X217049047Y-93924601D02*
X217290952Y-93924601D01*
X217290952Y-93924601D02*
X217411904Y-93864125D01*
X217411904Y-93864125D02*
X217472380Y-93803648D01*
X217472380Y-93803648D02*
X217532857Y-93682696D01*
X217532857Y-93682696D02*
X217532857Y-93380315D01*
X217532857Y-93380315D02*
X217472380Y-93259363D01*
X217472380Y-93259363D02*
X217411904Y-93198886D01*
X217411904Y-93198886D02*
X217290952Y-93138410D01*
X217290952Y-93138410D02*
X217049047Y-93138410D01*
X217049047Y-93138410D02*
X216928095Y-93198886D01*
X216928095Y-93198886D02*
X216867618Y-93259363D01*
X216867618Y-93259363D02*
X216807142Y-93380315D01*
%TO.C,L1*%
X101544601Y-89111666D02*
X101544601Y-89716428D01*
X101544601Y-89716428D02*
X100274601Y-89716428D01*
X101544601Y-88023094D02*
X101544601Y-88748809D01*
X101544601Y-88385952D02*
X100274601Y-88385952D01*
X100274601Y-88385952D02*
X100456029Y-88506904D01*
X100456029Y-88506904D02*
X100576982Y-88627856D01*
X100576982Y-88627856D02*
X100637458Y-88748809D01*
%TO.C,C8*%
X192228648Y-81491666D02*
X192289125Y-81552142D01*
X192289125Y-81552142D02*
X192349601Y-81733571D01*
X192349601Y-81733571D02*
X192349601Y-81854523D01*
X192349601Y-81854523D02*
X192289125Y-82035952D01*
X192289125Y-82035952D02*
X192168172Y-82156904D01*
X192168172Y-82156904D02*
X192047220Y-82217381D01*
X192047220Y-82217381D02*
X191805315Y-82277857D01*
X191805315Y-82277857D02*
X191623886Y-82277857D01*
X191623886Y-82277857D02*
X191381982Y-82217381D01*
X191381982Y-82217381D02*
X191261029Y-82156904D01*
X191261029Y-82156904D02*
X191140077Y-82035952D01*
X191140077Y-82035952D02*
X191079601Y-81854523D01*
X191079601Y-81854523D02*
X191079601Y-81733571D01*
X191079601Y-81733571D02*
X191140077Y-81552142D01*
X191140077Y-81552142D02*
X191200553Y-81491666D01*
X191623886Y-80765952D02*
X191563410Y-80886904D01*
X191563410Y-80886904D02*
X191502934Y-80947381D01*
X191502934Y-80947381D02*
X191381982Y-81007857D01*
X191381982Y-81007857D02*
X191321505Y-81007857D01*
X191321505Y-81007857D02*
X191200553Y-80947381D01*
X191200553Y-80947381D02*
X191140077Y-80886904D01*
X191140077Y-80886904D02*
X191079601Y-80765952D01*
X191079601Y-80765952D02*
X191079601Y-80524047D01*
X191079601Y-80524047D02*
X191140077Y-80403095D01*
X191140077Y-80403095D02*
X191200553Y-80342619D01*
X191200553Y-80342619D02*
X191321505Y-80282142D01*
X191321505Y-80282142D02*
X191381982Y-80282142D01*
X191381982Y-80282142D02*
X191502934Y-80342619D01*
X191502934Y-80342619D02*
X191563410Y-80403095D01*
X191563410Y-80403095D02*
X191623886Y-80524047D01*
X191623886Y-80524047D02*
X191623886Y-80765952D01*
X191623886Y-80765952D02*
X191684363Y-80886904D01*
X191684363Y-80886904D02*
X191744839Y-80947381D01*
X191744839Y-80947381D02*
X191865791Y-81007857D01*
X191865791Y-81007857D02*
X192107696Y-81007857D01*
X192107696Y-81007857D02*
X192228648Y-80947381D01*
X192228648Y-80947381D02*
X192289125Y-80886904D01*
X192289125Y-80886904D02*
X192349601Y-80765952D01*
X192349601Y-80765952D02*
X192349601Y-80524047D01*
X192349601Y-80524047D02*
X192289125Y-80403095D01*
X192289125Y-80403095D02*
X192228648Y-80342619D01*
X192228648Y-80342619D02*
X192107696Y-80282142D01*
X192107696Y-80282142D02*
X191865791Y-80282142D01*
X191865791Y-80282142D02*
X191744839Y-80342619D01*
X191744839Y-80342619D02*
X191684363Y-80403095D01*
X191684363Y-80403095D02*
X191623886Y-80524047D01*
%TO.C,D1*%
X87327618Y-93924601D02*
X87327618Y-92654601D01*
X87327618Y-92654601D02*
X87629999Y-92654601D01*
X87629999Y-92654601D02*
X87811428Y-92715077D01*
X87811428Y-92715077D02*
X87932380Y-92836029D01*
X87932380Y-92836029D02*
X87992857Y-92956982D01*
X87992857Y-92956982D02*
X88053333Y-93198886D01*
X88053333Y-93198886D02*
X88053333Y-93380315D01*
X88053333Y-93380315D02*
X87992857Y-93622220D01*
X87992857Y-93622220D02*
X87932380Y-93743172D01*
X87932380Y-93743172D02*
X87811428Y-93864125D01*
X87811428Y-93864125D02*
X87629999Y-93924601D01*
X87629999Y-93924601D02*
X87327618Y-93924601D01*
X89262857Y-93924601D02*
X88537142Y-93924601D01*
X88899999Y-93924601D02*
X88899999Y-92654601D01*
X88899999Y-92654601D02*
X88779047Y-92836029D01*
X88779047Y-92836029D02*
X88658095Y-92956982D01*
X88658095Y-92956982D02*
X88537142Y-93017458D01*
%TO.C,C1*%
X99483333Y-74753648D02*
X99422857Y-74814125D01*
X99422857Y-74814125D02*
X99241428Y-74874601D01*
X99241428Y-74874601D02*
X99120476Y-74874601D01*
X99120476Y-74874601D02*
X98939047Y-74814125D01*
X98939047Y-74814125D02*
X98818095Y-74693172D01*
X98818095Y-74693172D02*
X98757618Y-74572220D01*
X98757618Y-74572220D02*
X98697142Y-74330315D01*
X98697142Y-74330315D02*
X98697142Y-74148886D01*
X98697142Y-74148886D02*
X98757618Y-73906982D01*
X98757618Y-73906982D02*
X98818095Y-73786029D01*
X98818095Y-73786029D02*
X98939047Y-73665077D01*
X98939047Y-73665077D02*
X99120476Y-73604601D01*
X99120476Y-73604601D02*
X99241428Y-73604601D01*
X99241428Y-73604601D02*
X99422857Y-73665077D01*
X99422857Y-73665077D02*
X99483333Y-73725553D01*
X100692857Y-74874601D02*
X99967142Y-74874601D01*
X100329999Y-74874601D02*
X100329999Y-73604601D01*
X100329999Y-73604601D02*
X100209047Y-73786029D01*
X100209047Y-73786029D02*
X100088095Y-73906982D01*
X100088095Y-73906982D02*
X99967142Y-73967458D01*
%TO.C,C7*%
X190069648Y-81491666D02*
X190130125Y-81552142D01*
X190130125Y-81552142D02*
X190190601Y-81733571D01*
X190190601Y-81733571D02*
X190190601Y-81854523D01*
X190190601Y-81854523D02*
X190130125Y-82035952D01*
X190130125Y-82035952D02*
X190009172Y-82156904D01*
X190009172Y-82156904D02*
X189888220Y-82217381D01*
X189888220Y-82217381D02*
X189646315Y-82277857D01*
X189646315Y-82277857D02*
X189464886Y-82277857D01*
X189464886Y-82277857D02*
X189222982Y-82217381D01*
X189222982Y-82217381D02*
X189102029Y-82156904D01*
X189102029Y-82156904D02*
X188981077Y-82035952D01*
X188981077Y-82035952D02*
X188920601Y-81854523D01*
X188920601Y-81854523D02*
X188920601Y-81733571D01*
X188920601Y-81733571D02*
X188981077Y-81552142D01*
X188981077Y-81552142D02*
X189041553Y-81491666D01*
X188920601Y-81068333D02*
X188920601Y-80221666D01*
X188920601Y-80221666D02*
X190190601Y-80765952D01*
%TO.C,R1*%
X99483333Y-72969601D02*
X99059999Y-72364839D01*
X98757618Y-72969601D02*
X98757618Y-71699601D01*
X98757618Y-71699601D02*
X99241428Y-71699601D01*
X99241428Y-71699601D02*
X99362380Y-71760077D01*
X99362380Y-71760077D02*
X99422857Y-71820553D01*
X99422857Y-71820553D02*
X99483333Y-71941505D01*
X99483333Y-71941505D02*
X99483333Y-72122934D01*
X99483333Y-72122934D02*
X99422857Y-72243886D01*
X99422857Y-72243886D02*
X99362380Y-72304363D01*
X99362380Y-72304363D02*
X99241428Y-72364839D01*
X99241428Y-72364839D02*
X98757618Y-72364839D01*
X100692857Y-72969601D02*
X99967142Y-72969601D01*
X100329999Y-72969601D02*
X100329999Y-71699601D01*
X100329999Y-71699601D02*
X100209047Y-71881029D01*
X100209047Y-71881029D02*
X100088095Y-72001982D01*
X100088095Y-72001982D02*
X99967142Y-72062458D01*
%TO.C,D4*%
X214320601Y-74597381D02*
X213050601Y-74597381D01*
X213050601Y-74597381D02*
X213050601Y-74295000D01*
X213050601Y-74295000D02*
X213111077Y-74113571D01*
X213111077Y-74113571D02*
X213232029Y-73992619D01*
X213232029Y-73992619D02*
X213352982Y-73932142D01*
X213352982Y-73932142D02*
X213594886Y-73871666D01*
X213594886Y-73871666D02*
X213776315Y-73871666D01*
X213776315Y-73871666D02*
X214018220Y-73932142D01*
X214018220Y-73932142D02*
X214139172Y-73992619D01*
X214139172Y-73992619D02*
X214260125Y-74113571D01*
X214260125Y-74113571D02*
X214320601Y-74295000D01*
X214320601Y-74295000D02*
X214320601Y-74597381D01*
X213473934Y-72783095D02*
X214320601Y-72783095D01*
X212990125Y-73085476D02*
X213897267Y-73387857D01*
X213897267Y-73387857D02*
X213897267Y-72601666D01*
%TO.C,C3*%
X96978648Y-76411666D02*
X97039125Y-76472142D01*
X97039125Y-76472142D02*
X97099601Y-76653571D01*
X97099601Y-76653571D02*
X97099601Y-76774523D01*
X97099601Y-76774523D02*
X97039125Y-76955952D01*
X97039125Y-76955952D02*
X96918172Y-77076904D01*
X96918172Y-77076904D02*
X96797220Y-77137381D01*
X96797220Y-77137381D02*
X96555315Y-77197857D01*
X96555315Y-77197857D02*
X96373886Y-77197857D01*
X96373886Y-77197857D02*
X96131982Y-77137381D01*
X96131982Y-77137381D02*
X96011029Y-77076904D01*
X96011029Y-77076904D02*
X95890077Y-76955952D01*
X95890077Y-76955952D02*
X95829601Y-76774523D01*
X95829601Y-76774523D02*
X95829601Y-76653571D01*
X95829601Y-76653571D02*
X95890077Y-76472142D01*
X95890077Y-76472142D02*
X95950553Y-76411666D01*
X95829601Y-75988333D02*
X95829601Y-75202142D01*
X95829601Y-75202142D02*
X96313410Y-75625476D01*
X96313410Y-75625476D02*
X96313410Y-75444047D01*
X96313410Y-75444047D02*
X96373886Y-75323095D01*
X96373886Y-75323095D02*
X96434363Y-75262619D01*
X96434363Y-75262619D02*
X96555315Y-75202142D01*
X96555315Y-75202142D02*
X96857696Y-75202142D01*
X96857696Y-75202142D02*
X96978648Y-75262619D01*
X96978648Y-75262619D02*
X97039125Y-75323095D01*
X97039125Y-75323095D02*
X97099601Y-75444047D01*
X97099601Y-75444047D02*
X97099601Y-75806904D01*
X97099601Y-75806904D02*
X97039125Y-75927857D01*
X97039125Y-75927857D02*
X96978648Y-75988333D01*
%TO.C,IC1*%
X101544601Y-81884762D02*
X100274601Y-81884762D01*
X101423648Y-80554285D02*
X101484125Y-80614761D01*
X101484125Y-80614761D02*
X101544601Y-80796190D01*
X101544601Y-80796190D02*
X101544601Y-80917142D01*
X101544601Y-80917142D02*
X101484125Y-81098571D01*
X101484125Y-81098571D02*
X101363172Y-81219523D01*
X101363172Y-81219523D02*
X101242220Y-81280000D01*
X101242220Y-81280000D02*
X101000315Y-81340476D01*
X101000315Y-81340476D02*
X100818886Y-81340476D01*
X100818886Y-81340476D02*
X100576982Y-81280000D01*
X100576982Y-81280000D02*
X100456029Y-81219523D01*
X100456029Y-81219523D02*
X100335077Y-81098571D01*
X100335077Y-81098571D02*
X100274601Y-80917142D01*
X100274601Y-80917142D02*
X100274601Y-80796190D01*
X100274601Y-80796190D02*
X100335077Y-80614761D01*
X100335077Y-80614761D02*
X100395553Y-80554285D01*
X101544601Y-79344761D02*
X101544601Y-80070476D01*
X101544601Y-79707619D02*
X100274601Y-79707619D01*
X100274601Y-79707619D02*
X100456029Y-79828571D01*
X100456029Y-79828571D02*
X100576982Y-79949523D01*
X100576982Y-79949523D02*
X100637458Y-80070476D01*
%TO.C,D3*%
X212415601Y-74597381D02*
X211145601Y-74597381D01*
X211145601Y-74597381D02*
X211145601Y-74295000D01*
X211145601Y-74295000D02*
X211206077Y-74113571D01*
X211206077Y-74113571D02*
X211327029Y-73992619D01*
X211327029Y-73992619D02*
X211447982Y-73932142D01*
X211447982Y-73932142D02*
X211689886Y-73871666D01*
X211689886Y-73871666D02*
X211871315Y-73871666D01*
X211871315Y-73871666D02*
X212113220Y-73932142D01*
X212113220Y-73932142D02*
X212234172Y-73992619D01*
X212234172Y-73992619D02*
X212355125Y-74113571D01*
X212355125Y-74113571D02*
X212415601Y-74295000D01*
X212415601Y-74295000D02*
X212415601Y-74597381D01*
X211145601Y-73448333D02*
X211145601Y-72662142D01*
X211145601Y-72662142D02*
X211629410Y-73085476D01*
X211629410Y-73085476D02*
X211629410Y-72904047D01*
X211629410Y-72904047D02*
X211689886Y-72783095D01*
X211689886Y-72783095D02*
X211750363Y-72722619D01*
X211750363Y-72722619D02*
X211871315Y-72662142D01*
X211871315Y-72662142D02*
X212173696Y-72662142D01*
X212173696Y-72662142D02*
X212294648Y-72722619D01*
X212294648Y-72722619D02*
X212355125Y-72783095D01*
X212355125Y-72783095D02*
X212415601Y-72904047D01*
X212415601Y-72904047D02*
X212415601Y-73266904D01*
X212415601Y-73266904D02*
X212355125Y-73387857D01*
X212355125Y-73387857D02*
X212294648Y-73448333D01*
%TO.C,BT1*%
X190922363Y-75292856D02*
X190982839Y-75111428D01*
X190982839Y-75111428D02*
X191043315Y-75050951D01*
X191043315Y-75050951D02*
X191164267Y-74990475D01*
X191164267Y-74990475D02*
X191345696Y-74990475D01*
X191345696Y-74990475D02*
X191466648Y-75050951D01*
X191466648Y-75050951D02*
X191527125Y-75111428D01*
X191527125Y-75111428D02*
X191587601Y-75232380D01*
X191587601Y-75232380D02*
X191587601Y-75716190D01*
X191587601Y-75716190D02*
X190317601Y-75716190D01*
X190317601Y-75716190D02*
X190317601Y-75292856D01*
X190317601Y-75292856D02*
X190378077Y-75171904D01*
X190378077Y-75171904D02*
X190438553Y-75111428D01*
X190438553Y-75111428D02*
X190559505Y-75050951D01*
X190559505Y-75050951D02*
X190680458Y-75050951D01*
X190680458Y-75050951D02*
X190801410Y-75111428D01*
X190801410Y-75111428D02*
X190861886Y-75171904D01*
X190861886Y-75171904D02*
X190922363Y-75292856D01*
X190922363Y-75292856D02*
X190922363Y-75716190D01*
X190317601Y-74627618D02*
X190317601Y-73901904D01*
X191587601Y-74264761D02*
X190317601Y-74264761D01*
X191587601Y-72813332D02*
X191587601Y-73539047D01*
X191587601Y-73176190D02*
X190317601Y-73176190D01*
X190317601Y-73176190D02*
X190499029Y-73297142D01*
X190499029Y-73297142D02*
X190619982Y-73418094D01*
X190619982Y-73418094D02*
X190680458Y-73539047D01*
%TO.C,C6*%
X189738000Y-94615000D02*
X190119000Y-94615000D01*
X190119000Y-95885000D02*
X189738000Y-95885000D01*
%TO.C,R2*%
X91249500Y-71755000D02*
X91630500Y-71755000D01*
X91630500Y-73025000D02*
X91249500Y-73025000D01*
%TO.C,C4*%
X94869000Y-87820500D02*
X94869000Y-87439500D01*
X96139000Y-87439500D02*
X96139000Y-87820500D01*
D10*
%TO.C,D5*%
X206310000Y-74660000D02*
X206310000Y-72660000D01*
X207710000Y-74660000D02*
X207710000Y-72660000D01*
D11*
X207010000Y-74410000D02*
X207010000Y-74010000D01*
X207010000Y-74010000D02*
X206610000Y-74010000D01*
X207010000Y-74010000D02*
X207410000Y-74010000D01*
X207010000Y-74010000D02*
X206610000Y-73410000D01*
X206610000Y-73410000D02*
X207410000Y-73410000D01*
X207010000Y-73410000D02*
X207010000Y-72910000D01*
X207410000Y-73410000D02*
X207010000Y-74010000D01*
%TO.C,C9*%
X210947000Y-91884500D02*
X210947000Y-92265500D01*
X209677000Y-92265500D02*
X209677000Y-91884500D01*
%TO.C,R6*%
X208407000Y-91884500D02*
X208407000Y-92265500D01*
X207137000Y-92265500D02*
X207137000Y-91884500D01*
D10*
%TO.C,J2*%
X168915000Y-101600000D02*
X168915000Y-97100000D01*
X169915000Y-94850000D02*
X169915000Y-97100000D01*
X169915000Y-94850000D02*
X184415000Y-94850000D01*
X169915000Y-97100000D02*
X168915000Y-97100000D01*
X177165000Y-101600000D02*
X168915000Y-101600000D01*
X177165000Y-101600000D02*
X185415000Y-101600000D01*
X184415000Y-94850000D02*
X184415000Y-97100000D01*
X184415000Y-97100000D02*
X185415000Y-97100000D01*
X185415000Y-101600000D02*
X185415000Y-97100000D01*
%TO.C,IC4*%
X146825000Y-88970000D02*
X146825000Y-71730000D01*
X148705000Y-69850000D02*
X162445000Y-69850000D01*
X151105000Y-68850000D02*
X160045000Y-68850000D01*
X151105000Y-69850000D02*
X151105000Y-68850000D01*
X160045000Y-68850000D02*
X160045000Y-69850000D01*
X162445000Y-90850000D02*
X148705000Y-90850000D01*
X164325000Y-71730000D02*
X164325000Y-88970000D01*
X148705000Y-69850000D02*
G75*
G03*
X146825000Y-71730000I-1J-1879999D01*
G01*
X146825000Y-88970000D02*
G75*
G03*
X148705000Y-90850000I1879999J-1D01*
G01*
X164325000Y-71730000D02*
G75*
G03*
X162445000Y-69850000I-1880000J0D01*
G01*
X162445000Y-90850000D02*
G75*
G03*
X164325000Y-88970000I0J1880000D01*
G01*
D11*
%TO.C,R3*%
X90170000Y-97345500D02*
X90170000Y-96964500D01*
X91440000Y-96964500D02*
X91440000Y-97345500D01*
%TO.C,R5*%
X205105000Y-78549500D02*
X205105000Y-78930500D01*
X203835000Y-78930500D02*
X203835000Y-78549500D01*
D10*
%TO.C,IC2*%
X103645000Y-88970000D02*
X103645000Y-71730000D01*
X105525000Y-69850000D02*
X119265000Y-69850000D01*
X107925000Y-68850000D02*
X116865000Y-68850000D01*
X107925000Y-69850000D02*
X107925000Y-68850000D01*
X116865000Y-68850000D02*
X116865000Y-69850000D01*
X119265000Y-90850000D02*
X105525000Y-90850000D01*
X121145000Y-71730000D02*
X121145000Y-88970000D01*
X105525000Y-69850000D02*
G75*
G03*
X103645000Y-71730000I-1J-1879999D01*
G01*
X103645000Y-88970000D02*
G75*
G03*
X105525000Y-90850000I1879999J-1D01*
G01*
X121145000Y-71730000D02*
G75*
G03*
X119265000Y-69850000I-1880000J0D01*
G01*
X119265000Y-90850000D02*
G75*
G03*
X121145000Y-88970000I0J1880000D01*
G01*
D11*
%TO.C,C2*%
X86804500Y-76835000D02*
X87185500Y-76835000D01*
X87185500Y-78105000D02*
X86804500Y-78105000D01*
%TO.C,R4*%
X92710000Y-97345500D02*
X92710000Y-96964500D01*
X93980000Y-96964500D02*
X93980000Y-97345500D01*
D10*
%TO.C,D2*%
X95085000Y-98105000D02*
X95085000Y-96205000D01*
X96685000Y-98055000D02*
X96685000Y-96255000D01*
D11*
X95485000Y-97405000D02*
X95885000Y-96805000D01*
X95885000Y-97405000D02*
X95885000Y-97905000D01*
X96285000Y-97405000D02*
X95485000Y-97405000D01*
X95885000Y-96805000D02*
X96285000Y-97405000D01*
X95885000Y-96805000D02*
X95485000Y-96805000D01*
X95885000Y-96805000D02*
X96285000Y-96805000D01*
X95885000Y-96405000D02*
X95885000Y-96805000D01*
%TO.C,R7*%
X213360000Y-97345500D02*
X213360000Y-96964500D01*
X214630000Y-96964500D02*
X214630000Y-97345500D01*
D10*
%TO.C,IC3*%
X125235000Y-88970000D02*
X125235000Y-71730000D01*
X127115000Y-69850000D02*
X140855000Y-69850000D01*
X129515000Y-68850000D02*
X138455000Y-68850000D01*
X129515000Y-69850000D02*
X129515000Y-68850000D01*
X138455000Y-68850000D02*
X138455000Y-69850000D01*
X140855000Y-90850000D02*
X127115000Y-90850000D01*
X142735000Y-71730000D02*
X142735000Y-88970000D01*
X127115000Y-69850000D02*
G75*
G03*
X125235000Y-71730000I-1J-1879999D01*
G01*
X125235000Y-88970000D02*
G75*
G03*
X127115000Y-90850000I1879999J-1D01*
G01*
X142735000Y-71730000D02*
G75*
G03*
X140855000Y-69850000I-1880000J0D01*
G01*
X140855000Y-90850000D02*
G75*
G03*
X142735000Y-88970000I0J1880000D01*
G01*
D11*
%TO.C,C5*%
X97409000Y-87820500D02*
X97409000Y-87439500D01*
X98679000Y-87439500D02*
X98679000Y-87820500D01*
%TO.C,L2*%
X207137000Y-87358528D02*
X207137000Y-86977528D01*
X208407000Y-86977528D02*
X208407000Y-87358528D01*
D10*
%TO.C,D6*%
X215735000Y-98105000D02*
X215735000Y-96205000D01*
X217335000Y-98055000D02*
X217335000Y-96255000D01*
D11*
X216135000Y-97405000D02*
X216535000Y-96805000D01*
X216535000Y-97405000D02*
X216535000Y-97905000D01*
X216935000Y-97405000D02*
X216135000Y-97405000D01*
X216535000Y-96805000D02*
X216935000Y-97405000D01*
X216535000Y-96805000D02*
X216135000Y-96805000D01*
X216535000Y-96805000D02*
X216935000Y-96805000D01*
X216535000Y-96405000D02*
X216535000Y-96805000D01*
D10*
%TO.C,L1*%
X99774000Y-78915000D02*
X99774000Y-84915000D01*
X93774000Y-78915000D02*
X93774000Y-84915000D01*
%TO.C,J1*%
X125735000Y-101600000D02*
X125735000Y-97100000D01*
X126735000Y-94850000D02*
X126735000Y-97100000D01*
X126735000Y-94850000D02*
X141235000Y-94850000D01*
X126735000Y-97100000D02*
X125735000Y-97100000D01*
X133985000Y-101600000D02*
X125735000Y-101600000D01*
X133985000Y-101600000D02*
X142235000Y-101600000D01*
X141235000Y-94850000D02*
X141235000Y-97100000D01*
X141235000Y-97100000D02*
X142235000Y-97100000D01*
X142235000Y-101600000D02*
X142235000Y-97100000D01*
D11*
%TO.C,C8*%
X190373000Y-98665500D02*
X190373000Y-98284500D01*
X191643000Y-98284500D02*
X191643000Y-98665500D01*
%TO.C,kibuzzard-64F4D513*%
G36*
X86677103Y-96693037D02*
G01*
X86677103Y-97890806D01*
X86677103Y-98869500D01*
X86677103Y-98869698D01*
X86658809Y-99055445D01*
X86604629Y-99234052D01*
X86516645Y-99398659D01*
X86398239Y-99542937D01*
X86253960Y-99661343D01*
X86089354Y-99749327D01*
X85910746Y-99803507D01*
X85725000Y-99821802D01*
X85539254Y-99803507D01*
X85360646Y-99749327D01*
X85196040Y-99661343D01*
X85051761Y-99542937D01*
X84933355Y-99398659D01*
X84845371Y-99234052D01*
X84791191Y-99055445D01*
X84772897Y-98869698D01*
X84772897Y-98869500D01*
X84772897Y-98383725D01*
X85004672Y-98383725D01*
X85097541Y-98486119D01*
X85183266Y-98612325D01*
X85257084Y-98745675D01*
X85311853Y-98869500D01*
X85554741Y-98774250D01*
X85496400Y-98628994D01*
X85411866Y-98476594D01*
X86235778Y-98476594D01*
X86235778Y-98786156D01*
X86478666Y-98786156D01*
X86478666Y-97890806D01*
X86235778Y-97890806D01*
X86235778Y-98183700D01*
X85004672Y-98183700D01*
X85004672Y-98383725D01*
X84772897Y-98383725D01*
X84772897Y-97221675D01*
X84971334Y-97221675D01*
X84983241Y-97345798D01*
X85018959Y-97470516D01*
X85079681Y-97588090D01*
X85166597Y-97690781D01*
X85371384Y-97545525D01*
X85259466Y-97395506D01*
X85226128Y-97250250D01*
X85274944Y-97112137D01*
X85414247Y-97057369D01*
X85540453Y-97101422D01*
X85669041Y-97213341D01*
X85737204Y-97283587D01*
X85808344Y-97358597D01*
X85883948Y-97433606D01*
X85965506Y-97503853D01*
X86053910Y-97565766D01*
X86150053Y-97615772D01*
X86254828Y-97648812D01*
X86369128Y-97659825D01*
X86419134Y-97661016D01*
X86478666Y-97655062D01*
X86478666Y-96693037D01*
X86235778Y-96693037D01*
X86235778Y-97326450D01*
X86157197Y-97301447D01*
X86072663Y-97240725D01*
X85991700Y-97164525D01*
X85923834Y-97093087D01*
X85804772Y-96971644D01*
X85676184Y-96864487D01*
X85539263Y-96788287D01*
X85392816Y-96759712D01*
X85208269Y-96797812D01*
X85076109Y-96900206D01*
X84997528Y-97047844D01*
X84971334Y-97221675D01*
X84772897Y-97221675D01*
X84772897Y-96571594D01*
X85004672Y-96571594D01*
X85138022Y-96544209D01*
X85304709Y-96504919D01*
X85429460Y-96473433D01*
X85559239Y-96439302D01*
X85694044Y-96402525D01*
X85831495Y-96363631D01*
X85969210Y-96323150D01*
X86107191Y-96281081D01*
X86303644Y-96218573D01*
X86478666Y-96159637D01*
X86478666Y-95857219D01*
X86351798Y-95811710D01*
X86222020Y-95767260D01*
X86089331Y-95723869D01*
X85955981Y-95682197D01*
X85824219Y-95642906D01*
X85694044Y-95605997D01*
X85504437Y-95555395D01*
X85323759Y-95510747D01*
X85155881Y-95472349D01*
X85004672Y-95440500D01*
X85004672Y-95747681D01*
X85128497Y-95769112D01*
X85271372Y-95795306D01*
X85425855Y-95825072D01*
X85584506Y-95857219D01*
X85744050Y-95891747D01*
X85901212Y-95928656D01*
X86048552Y-95966756D01*
X86178628Y-96004856D01*
X86046766Y-96043254D01*
X85898831Y-96082247D01*
X85741669Y-96120347D01*
X85582125Y-96156066D01*
X85423772Y-96189105D01*
X85270181Y-96219169D01*
X85128199Y-96244172D01*
X85004672Y-96262031D01*
X85004672Y-96571594D01*
X84772897Y-96571594D01*
X84772897Y-95440500D01*
X84772897Y-95440302D01*
X84791191Y-95254555D01*
X84845371Y-95075947D01*
X84933355Y-94911341D01*
X85051761Y-94767063D01*
X85196040Y-94648657D01*
X85360646Y-94560673D01*
X85539254Y-94506493D01*
X85725000Y-94488198D01*
X85910746Y-94506493D01*
X86089354Y-94560673D01*
X86253960Y-94648657D01*
X86398239Y-94767063D01*
X86516645Y-94911341D01*
X86604629Y-95075947D01*
X86658809Y-95254555D01*
X86677103Y-95440302D01*
X86677103Y-95440500D01*
X86677103Y-96159637D01*
X86677103Y-96693037D01*
G37*
D10*
%TO.C,J3*%
X104145000Y-101600000D02*
X104145000Y-97100000D01*
X105145000Y-94850000D02*
X105145000Y-97100000D01*
X105145000Y-94850000D02*
X119645000Y-94850000D01*
X105145000Y-97100000D02*
X104145000Y-97100000D01*
X112395000Y-101600000D02*
X104145000Y-101600000D01*
X112395000Y-101600000D02*
X120645000Y-101600000D01*
X119645000Y-94850000D02*
X119645000Y-97100000D01*
X119645000Y-97100000D02*
X120645000Y-97100000D01*
X120645000Y-101600000D02*
X120645000Y-97100000D01*
%TO.C,D1*%
X87465000Y-98105000D02*
X87465000Y-96205000D01*
X89065000Y-98055000D02*
X89065000Y-96255000D01*
D11*
X87865000Y-97405000D02*
X88265000Y-96805000D01*
X88265000Y-97405000D02*
X88265000Y-97905000D01*
X88665000Y-97405000D02*
X87865000Y-97405000D01*
X88265000Y-96805000D02*
X88665000Y-97405000D01*
X88265000Y-96805000D02*
X87865000Y-96805000D01*
X88265000Y-96805000D02*
X88665000Y-96805000D01*
X88265000Y-96405000D02*
X88265000Y-96805000D01*
%TO.C,C1*%
X86804500Y-74295000D02*
X87185500Y-74295000D01*
X87185500Y-75565000D02*
X86804500Y-75565000D01*
%TO.C,kibuzzard-64F4D629*%
G36*
X218928851Y-98151553D02*
G01*
X219004753Y-98205131D01*
X219046723Y-98293833D01*
X219060713Y-98417062D01*
X219060713Y-98536125D01*
X218584463Y-98536125D01*
X218578509Y-98463497D01*
X218577319Y-98390869D01*
X218590713Y-98285796D01*
X218630897Y-98203941D01*
X218703227Y-98151255D01*
X218813063Y-98133694D01*
X218928851Y-98151553D01*
G37*
G36*
X218928851Y-96960928D02*
G01*
X219004753Y-97014506D01*
X219046723Y-97103208D01*
X219060713Y-97226437D01*
X219060713Y-97345500D01*
X218584463Y-97345500D01*
X218578509Y-97272872D01*
X218577319Y-97200244D01*
X218590713Y-97095171D01*
X218630897Y-97013316D01*
X218703227Y-96960630D01*
X218813063Y-96943069D01*
X218928851Y-96960928D01*
G37*
G36*
X220042581Y-97345500D02*
G01*
X220042581Y-98536125D01*
X220042581Y-98829019D01*
X220042581Y-98829217D01*
X220023989Y-99017983D01*
X219968929Y-99199494D01*
X219879514Y-99366777D01*
X219759183Y-99513400D01*
X219612559Y-99633732D01*
X219445277Y-99723146D01*
X219263766Y-99778207D01*
X219075000Y-99796798D01*
X218886234Y-99778207D01*
X218704723Y-99723146D01*
X218537441Y-99633732D01*
X218390817Y-99513400D01*
X218270486Y-99366777D01*
X218181071Y-99199494D01*
X218126011Y-99017983D01*
X218107419Y-98829217D01*
X218107419Y-98829019D01*
X218107419Y-98424206D01*
X218322525Y-98424206D01*
X218324906Y-98517075D01*
X218330859Y-98624231D01*
X218341575Y-98732578D01*
X218358244Y-98829019D01*
X219813188Y-98829019D01*
X219813188Y-98536125D01*
X219315506Y-98536125D01*
X219315506Y-98431350D01*
X219302409Y-98255270D01*
X219263119Y-98108029D01*
X219197634Y-97989628D01*
X219102781Y-97902977D01*
X218975384Y-97850986D01*
X218815444Y-97833656D01*
X218657091Y-97850854D01*
X218531281Y-97902448D01*
X218438016Y-97988437D01*
X218373854Y-98105648D01*
X218335357Y-98250904D01*
X218322525Y-98424206D01*
X218107419Y-98424206D01*
X218107419Y-97233581D01*
X218322525Y-97233581D01*
X218324906Y-97326450D01*
X218330859Y-97433606D01*
X218341575Y-97541953D01*
X218358244Y-97638394D01*
X219813188Y-97638394D01*
X219813188Y-97345500D01*
X219315506Y-97345500D01*
X219315506Y-97240725D01*
X219302409Y-97064645D01*
X219263119Y-96917404D01*
X219197634Y-96799003D01*
X219102781Y-96712352D01*
X218975384Y-96660361D01*
X218815444Y-96643031D01*
X218657091Y-96660229D01*
X218531281Y-96711823D01*
X218438016Y-96797812D01*
X218373854Y-96915023D01*
X218335357Y-97060279D01*
X218322525Y-97233581D01*
X218107419Y-97233581D01*
X218107419Y-95954850D01*
X218305856Y-95954850D01*
X218318821Y-96100768D01*
X218357715Y-96224196D01*
X218422538Y-96325134D01*
X218561841Y-96426040D01*
X218746388Y-96459675D01*
X218921409Y-96421575D01*
X219039281Y-96325134D01*
X219117863Y-96195356D01*
X219172631Y-96057244D01*
X219214303Y-95957231D01*
X219264309Y-95866744D01*
X219327413Y-95800069D01*
X219408375Y-95773875D01*
X219478622Y-95784591D01*
X219540534Y-95823881D01*
X219583397Y-95901272D01*
X219598875Y-96023906D01*
X219590541Y-96142671D01*
X219565538Y-96241791D01*
X219494100Y-96395381D01*
X219732225Y-96481106D01*
X219804853Y-96316800D01*
X219834321Y-96188808D01*
X219844144Y-96023906D01*
X219831576Y-95856822D01*
X219793873Y-95720694D01*
X219731034Y-95615522D01*
X219594410Y-95514616D01*
X219410756Y-95480981D01*
X219299730Y-95491102D01*
X219209541Y-95521462D01*
X219076191Y-95625047D01*
X218990466Y-95763159D01*
X218932125Y-95907225D01*
X218896406Y-95998903D01*
X218852353Y-96082247D01*
X218795203Y-96142969D01*
X218720194Y-96166781D01*
X218626267Y-96140852D01*
X218569910Y-96063065D01*
X218551125Y-95933419D01*
X218574938Y-95765541D01*
X218632088Y-95633381D01*
X218405869Y-95547656D01*
X218336813Y-95717916D01*
X218313595Y-95827751D01*
X218305856Y-95954850D01*
X218107419Y-95954850D01*
X218107419Y-95480981D01*
X218107419Y-95480783D01*
X218126011Y-95292017D01*
X218181072Y-95110505D01*
X218270486Y-94943223D01*
X218390817Y-94796600D01*
X218537441Y-94676268D01*
X218704723Y-94586854D01*
X218886234Y-94531793D01*
X219075000Y-94513202D01*
X219263766Y-94531793D01*
X219445277Y-94586854D01*
X219612559Y-94676268D01*
X219759183Y-94796600D01*
X219879514Y-94943223D01*
X219968928Y-95110505D01*
X220023989Y-95292017D01*
X220042581Y-95480783D01*
X220042581Y-95480981D01*
X220042581Y-96023906D01*
X220042581Y-97345500D01*
G37*
%TO.C,C7*%
X188214000Y-98665500D02*
X188214000Y-98284500D01*
X189484000Y-98284500D02*
X189484000Y-98665500D01*
%TO.C,R1*%
X86804500Y-71755000D02*
X87185500Y-71755000D01*
X87185500Y-73025000D02*
X86804500Y-73025000D01*
D12*
%TO.C,J7*%
X219710000Y-82237500D02*
X209710000Y-82237500D01*
X209710000Y-82237500D02*
X209710000Y-89212500D01*
X209710000Y-89212500D02*
X219710000Y-89212500D01*
X219710000Y-89212500D02*
X219710000Y-82237500D01*
D10*
%TO.C,D4*%
X203770000Y-74660000D02*
X203770000Y-72660000D01*
X205170000Y-74660000D02*
X205170000Y-72660000D01*
D11*
X204470000Y-74410000D02*
X204470000Y-74010000D01*
X204470000Y-74010000D02*
X204070000Y-74010000D01*
X204470000Y-74010000D02*
X204870000Y-74010000D01*
X204470000Y-74010000D02*
X204070000Y-73410000D01*
X204070000Y-73410000D02*
X204870000Y-73410000D01*
X204470000Y-73410000D02*
X204470000Y-72910000D01*
X204870000Y-73410000D02*
X204470000Y-74010000D01*
%TO.C,C3*%
X93980000Y-76390500D02*
X93980000Y-76009500D01*
X95250000Y-76009500D02*
X95250000Y-76390500D01*
D13*
%TO.C,J9*%
X93065000Y-79400000D02*
X91465000Y-79400000D01*
X93065000Y-79400000D02*
X93065000Y-92050000D01*
X91465000Y-79400000D02*
X85255000Y-79400000D01*
X85255000Y-79400000D02*
X83155000Y-81225000D01*
X83155000Y-81225000D02*
X83155000Y-90225000D01*
X93065000Y-92050000D02*
X91465000Y-92050000D01*
X91465000Y-92050000D02*
X85255000Y-92050000D01*
X85255000Y-92050000D02*
X83155000Y-90225000D01*
D10*
%TO.C,IC6*%
X205490000Y-99625000D02*
X193290000Y-99625000D01*
X205490000Y-91375000D02*
X205490000Y-89675000D01*
X205490000Y-83625000D02*
X193290000Y-83625000D01*
X203780000Y-99625000D02*
X203780000Y-83625000D01*
X193290000Y-91375000D02*
X193290000Y-89675000D01*
X203780000Y-99625000D02*
X202670000Y-99625000D01*
X203780000Y-98515000D01*
X203780000Y-99625000D01*
G36*
X203780000Y-99625000D02*
G01*
X202670000Y-99625000D01*
X203780000Y-98515000D01*
X203780000Y-99625000D01*
G37*
%TO.C,kibuzzard-64F4D53D*%
G36*
X99392581Y-97297875D02*
G01*
X99392581Y-98424206D01*
X99392581Y-98833781D01*
X99392581Y-98833980D01*
X99373989Y-99022745D01*
X99318929Y-99204257D01*
X99229514Y-99371539D01*
X99109183Y-99518163D01*
X98962559Y-99638494D01*
X98795277Y-99727908D01*
X98613766Y-99782969D01*
X98425000Y-99801561D01*
X98236234Y-99782969D01*
X98054723Y-99727908D01*
X97887441Y-99638494D01*
X97740817Y-99518163D01*
X97620486Y-99371539D01*
X97531071Y-99204257D01*
X97476011Y-99022745D01*
X97457419Y-98833980D01*
X97457419Y-98833781D01*
X97457419Y-98398012D01*
X97655856Y-98398012D01*
X97666870Y-98524516D01*
X97699909Y-98637328D01*
X97786825Y-98807587D01*
X98001138Y-98702812D01*
X97933272Y-98561128D01*
X97905888Y-98395631D01*
X97952322Y-98261091D01*
X98079719Y-98212275D01*
X98170206Y-98234897D01*
X98227356Y-98293237D01*
X98258313Y-98374200D01*
X98267838Y-98464688D01*
X98267838Y-98574225D01*
X98510725Y-98574225D01*
X98510725Y-98483738D01*
X98522334Y-98353364D01*
X98557159Y-98247994D01*
X98621155Y-98178342D01*
X98720275Y-98155125D01*
X98879819Y-98215847D01*
X98928039Y-98298893D01*
X98944113Y-98426587D01*
X98937564Y-98539399D01*
X98917919Y-98634947D01*
X98867913Y-98776631D01*
X99113181Y-98833781D01*
X99139375Y-98759962D01*
X99165569Y-98656378D01*
X99185809Y-98539697D01*
X99194144Y-98424206D01*
X99185512Y-98286689D01*
X99159616Y-98169412D01*
X99117944Y-98071781D01*
X99061984Y-97993200D01*
X98913156Y-97890806D01*
X98725038Y-97857469D01*
X98605380Y-97873245D01*
X98503581Y-97920572D01*
X98422023Y-97996474D01*
X98363088Y-98097975D01*
X98239263Y-97964625D01*
X98070194Y-97914619D01*
X97905888Y-97943194D01*
X97773728Y-98031300D01*
X97686813Y-98182509D01*
X97663595Y-98282224D01*
X97655856Y-98398012D01*
X97457419Y-98398012D01*
X97457419Y-97709831D01*
X97689194Y-97709831D01*
X97822544Y-97682447D01*
X97989231Y-97643156D01*
X98113982Y-97611671D01*
X98243760Y-97577540D01*
X98378566Y-97540762D01*
X98516017Y-97501869D01*
X98653732Y-97461387D01*
X98791713Y-97419319D01*
X98988166Y-97356811D01*
X99163188Y-97297875D01*
X99163188Y-96995456D01*
X99036320Y-96949948D01*
X98906542Y-96905498D01*
X98773853Y-96862106D01*
X98640503Y-96820434D01*
X98508741Y-96781144D01*
X98378566Y-96744234D01*
X98188959Y-96693633D01*
X98008281Y-96648984D01*
X97840403Y-96610587D01*
X97689194Y-96578738D01*
X97689194Y-96885919D01*
X97813019Y-96907350D01*
X97955894Y-96933544D01*
X98110377Y-96963309D01*
X98269028Y-96995456D01*
X98428572Y-97029984D01*
X98585734Y-97066894D01*
X98733074Y-97104994D01*
X98863150Y-97143094D01*
X98731288Y-97181491D01*
X98583353Y-97220484D01*
X98426191Y-97258584D01*
X98266647Y-97294303D01*
X98108294Y-97327343D01*
X97954703Y-97357406D01*
X97812721Y-97382409D01*
X97689194Y-97400269D01*
X97689194Y-97709831D01*
X97457419Y-97709831D01*
X97457419Y-96016762D01*
X97655856Y-96016762D01*
X97666870Y-96143266D01*
X97699909Y-96256078D01*
X97786825Y-96426337D01*
X98001138Y-96321562D01*
X97933272Y-96179878D01*
X97905888Y-96014381D01*
X97952322Y-95879841D01*
X98079719Y-95831025D01*
X98170206Y-95853647D01*
X98227356Y-95911987D01*
X98258313Y-95992950D01*
X98267838Y-96083437D01*
X98267838Y-96192975D01*
X98510725Y-96192975D01*
X98510725Y-96102487D01*
X98522334Y-95972114D01*
X98557159Y-95866744D01*
X98621155Y-95797092D01*
X98720275Y-95773875D01*
X98879819Y-95834597D01*
X98928039Y-95917643D01*
X98944113Y-96045337D01*
X98937564Y-96158149D01*
X98917919Y-96253697D01*
X98867913Y-96395381D01*
X99113181Y-96452531D01*
X99139375Y-96378712D01*
X99165569Y-96275128D01*
X99185809Y-96158447D01*
X99194144Y-96042956D01*
X99185512Y-95905439D01*
X99159616Y-95788162D01*
X99117944Y-95690531D01*
X99061984Y-95611950D01*
X98913156Y-95509556D01*
X98725038Y-95476219D01*
X98605380Y-95491995D01*
X98503581Y-95539322D01*
X98422023Y-95615224D01*
X98363088Y-95716725D01*
X98239263Y-95583375D01*
X98070194Y-95533369D01*
X97905888Y-95561944D01*
X97773728Y-95650050D01*
X97686813Y-95801259D01*
X97663595Y-95900974D01*
X97655856Y-96016762D01*
X97457419Y-96016762D01*
X97457419Y-95476219D01*
X97457419Y-95476020D01*
X97476011Y-95287255D01*
X97531071Y-95105743D01*
X97620486Y-94938461D01*
X97740817Y-94791837D01*
X97887441Y-94671506D01*
X98054723Y-94582092D01*
X98236234Y-94527031D01*
X98425000Y-94508439D01*
X98613766Y-94527031D01*
X98795277Y-94582092D01*
X98962559Y-94671506D01*
X99109183Y-94791837D01*
X99229514Y-94938461D01*
X99318929Y-95105743D01*
X99373989Y-95287255D01*
X99392581Y-95476020D01*
X99392581Y-95476219D01*
X99392581Y-96042956D01*
X99392581Y-97297875D01*
G37*
%TO.C,J4*%
X147325000Y-101600000D02*
X147325000Y-97100000D01*
X148325000Y-94850000D02*
X148325000Y-97100000D01*
X148325000Y-94850000D02*
X162825000Y-94850000D01*
X148325000Y-97100000D02*
X147325000Y-97100000D01*
X155575000Y-101600000D02*
X147325000Y-101600000D01*
X155575000Y-101600000D02*
X163825000Y-101600000D01*
X162825000Y-94850000D02*
X162825000Y-97100000D01*
X162825000Y-97100000D02*
X163825000Y-97100000D01*
X163825000Y-101600000D02*
X163825000Y-97100000D01*
%TO.C,IC5*%
X168415000Y-88970000D02*
X168415000Y-71730000D01*
X170295000Y-69850000D02*
X184035000Y-69850000D01*
X172695000Y-68850000D02*
X181635000Y-68850000D01*
X172695000Y-69850000D02*
X172695000Y-68850000D01*
X181635000Y-68850000D02*
X181635000Y-69850000D01*
X184035000Y-90850000D02*
X170295000Y-90850000D01*
X185915000Y-71730000D02*
X185915000Y-88970000D01*
X170295000Y-69850000D02*
G75*
G03*
X168415000Y-71730000I-1J-1879999D01*
G01*
X168415000Y-88970000D02*
G75*
G03*
X170295000Y-90850000I1879999J-1D01*
G01*
X185915000Y-71730000D02*
G75*
G03*
X184035000Y-69850000I-1880000J0D01*
G01*
X184035000Y-90850000D02*
G75*
G03*
X185915000Y-88970000I0J1880000D01*
G01*
%TO.C,IC1*%
X92840000Y-74900000D02*
X92840000Y-77500000D01*
X90040000Y-74900000D02*
X90040000Y-77500000D01*
X92840000Y-75781000D02*
X90040000Y-75781000D01*
X92390000Y-75781000D02*
X92840000Y-76231000D01*
X92615000Y-76006000D02*
X92840000Y-75781000D01*
%TO.C,D3*%
X201230000Y-74660000D02*
X201230000Y-72660000D01*
X202630000Y-74660000D02*
X202630000Y-72660000D01*
D11*
X201930000Y-74410000D02*
X201930000Y-74010000D01*
X201930000Y-74010000D02*
X201530000Y-74010000D01*
X201930000Y-74010000D02*
X202330000Y-74010000D01*
X201930000Y-74010000D02*
X201530000Y-73410000D01*
X201530000Y-73410000D02*
X202330000Y-73410000D01*
X201930000Y-73410000D02*
X201930000Y-72910000D01*
X202330000Y-73410000D02*
X201930000Y-74010000D01*
D14*
%TO.C,BT1*%
X199110000Y-74295000D02*
G75*
G03*
X199110000Y-74295000I-3530000J0D01*
G01*
%TD*%
%LPC*%
D15*
%TO.C,C6*%
X188978500Y-95250000D03*
X190878500Y-95250000D03*
%TD*%
%TO.C,R2*%
X90490000Y-72390000D03*
X92390000Y-72390000D03*
%TD*%
D16*
%TO.C,H4*%
X78245000Y-97155000D03*
X78947944Y-95457944D03*
X78947944Y-98852056D03*
X80645000Y-94755000D03*
D17*
X80645000Y-97155000D03*
D16*
X80645000Y-99555000D03*
X82342056Y-95457944D03*
X82342056Y-98852056D03*
X83045000Y-97155000D03*
%TD*%
%TO.C,H1*%
X221755000Y-74295000D03*
X222457944Y-72597944D03*
X222457944Y-75992056D03*
X224155000Y-71895000D03*
D17*
X224155000Y-74295000D03*
D16*
X224155000Y-76695000D03*
X225852056Y-72597944D03*
X225852056Y-75992056D03*
X226555000Y-74295000D03*
%TD*%
D18*
%TO.C,C4*%
X95504000Y-88580000D03*
X95504000Y-86680000D03*
%TD*%
D16*
%TO.C,H2*%
X221755000Y-97155000D03*
X222457944Y-95457944D03*
X222457944Y-98852056D03*
X224155000Y-94755000D03*
D17*
X224155000Y-97155000D03*
D16*
X224155000Y-99555000D03*
X225852056Y-95457944D03*
X225852056Y-98852056D03*
X226555000Y-97155000D03*
%TD*%
D19*
%TO.C,D5*%
X207010000Y-75410000D03*
X207010000Y-71910000D03*
%TD*%
D20*
%TO.C,C9*%
X210312000Y-91125000D03*
X210312000Y-93025000D03*
%TD*%
%TO.C,R6*%
X207772000Y-91125000D03*
X207772000Y-93025000D03*
%TD*%
D21*
%TO.C,J2*%
X168715000Y-99350000D03*
X185615000Y-99350000D03*
D22*
X171915000Y-94200000D03*
X173415000Y-94200000D03*
X174915000Y-94200000D03*
X176415000Y-94200000D03*
X177915000Y-94200000D03*
X179415000Y-94200000D03*
X180915000Y-94200000D03*
X182415000Y-94200000D03*
%TD*%
D23*
%TO.C,IC4*%
X147075000Y-72730000D03*
X147075000Y-75270000D03*
X147075000Y-77810000D03*
X147075000Y-80350000D03*
X147075000Y-82890000D03*
X147075000Y-85430000D03*
X147075000Y-87970000D03*
X164075000Y-87970000D03*
X164075000Y-85430000D03*
X164075000Y-82890000D03*
X164075000Y-80350000D03*
X164075000Y-77810000D03*
X164075000Y-75270000D03*
X164075000Y-72730000D03*
%TD*%
D18*
%TO.C,R3*%
X90805000Y-98105000D03*
X90805000Y-96205000D03*
%TD*%
D20*
%TO.C,R5*%
X204470000Y-77790000D03*
X204470000Y-79690000D03*
%TD*%
D23*
%TO.C,IC2*%
X103895000Y-72730000D03*
X103895000Y-75270000D03*
X103895000Y-77810000D03*
X103895000Y-80350000D03*
X103895000Y-82890000D03*
X103895000Y-85430000D03*
X103895000Y-87970000D03*
X120895000Y-87970000D03*
X120895000Y-85430000D03*
X120895000Y-82890000D03*
X120895000Y-80350000D03*
X120895000Y-77810000D03*
X120895000Y-75270000D03*
X120895000Y-72730000D03*
%TD*%
D15*
%TO.C,C2*%
X86045000Y-77470000D03*
X87945000Y-77470000D03*
%TD*%
D18*
%TO.C,R4*%
X93345000Y-98105000D03*
X93345000Y-96205000D03*
%TD*%
D24*
%TO.C,D2*%
X95885000Y-95405000D03*
X95885000Y-98905000D03*
%TD*%
D18*
%TO.C,R7*%
X213995000Y-98105000D03*
X213995000Y-96205000D03*
%TD*%
D23*
%TO.C,IC3*%
X125485000Y-72730000D03*
X125485000Y-75270000D03*
X125485000Y-77810000D03*
X125485000Y-80350000D03*
X125485000Y-82890000D03*
X125485000Y-85430000D03*
X125485000Y-87970000D03*
X142485000Y-87970000D03*
X142485000Y-85430000D03*
X142485000Y-82890000D03*
X142485000Y-80350000D03*
X142485000Y-77810000D03*
X142485000Y-75270000D03*
X142485000Y-72730000D03*
%TD*%
D18*
%TO.C,C5*%
X98044000Y-88580000D03*
X98044000Y-86680000D03*
%TD*%
%TO.C,L2*%
X207772000Y-88118028D03*
X207772000Y-86218028D03*
%TD*%
D24*
%TO.C,D6*%
X216535000Y-95405000D03*
X216535000Y-98905000D03*
%TD*%
D25*
%TO.C,L1*%
X96774000Y-79665000D03*
X96774000Y-84165000D03*
%TD*%
D21*
%TO.C,J1*%
X125535000Y-99350000D03*
X142435000Y-99350000D03*
D22*
X128735000Y-94200000D03*
X130235000Y-94200000D03*
X131735000Y-94200000D03*
X133235000Y-94200000D03*
X134735000Y-94200000D03*
X136235000Y-94200000D03*
X137735000Y-94200000D03*
X139235000Y-94200000D03*
%TD*%
D18*
%TO.C,C8*%
X191008000Y-99425000D03*
X191008000Y-97525000D03*
%TD*%
D21*
%TO.C,J3*%
X103945000Y-99350000D03*
X120845000Y-99350000D03*
D22*
X107145000Y-94200000D03*
X108645000Y-94200000D03*
X110145000Y-94200000D03*
X111645000Y-94200000D03*
X113145000Y-94200000D03*
X114645000Y-94200000D03*
X116145000Y-94200000D03*
X117645000Y-94200000D03*
%TD*%
D24*
%TO.C,D1*%
X88265000Y-95405000D03*
X88265000Y-98905000D03*
%TD*%
D15*
%TO.C,C1*%
X86045000Y-74930000D03*
X87945000Y-74930000D03*
%TD*%
D18*
%TO.C,C7*%
X188849000Y-99425000D03*
X188849000Y-97525000D03*
%TD*%
D15*
%TO.C,R1*%
X86045000Y-72390000D03*
X87945000Y-72390000D03*
%TD*%
D26*
%TO.C,J7*%
X218060000Y-85725000D03*
D27*
X217410000Y-82725000D03*
X212410000Y-82725000D03*
X217410000Y-88725000D03*
X212410000Y-88725000D03*
%TD*%
D19*
%TO.C,D4*%
X204470000Y-75410000D03*
X204470000Y-71910000D03*
%TD*%
D18*
%TO.C,C3*%
X94615000Y-77150000D03*
X94615000Y-75250000D03*
%TD*%
D28*
%TO.C,J9*%
X87755000Y-85725000D03*
D29*
X92075000Y-82725000D03*
X92075000Y-85725000D03*
X92075000Y-88725000D03*
%TD*%
D30*
%TO.C,IC6*%
X205390000Y-98625000D03*
X205390000Y-97525000D03*
X205390000Y-96425000D03*
X205390000Y-95325000D03*
X205390000Y-94225000D03*
X205390000Y-93125000D03*
X205390000Y-92025000D03*
X205390000Y-89025000D03*
X205390000Y-87925000D03*
X205390000Y-86825000D03*
X205390000Y-85725000D03*
X205390000Y-84625000D03*
X193390000Y-84625000D03*
X193390000Y-85725000D03*
X193390000Y-86825000D03*
X193390000Y-87925000D03*
X193390000Y-89025000D03*
X193390000Y-92025000D03*
X193390000Y-93125000D03*
X193390000Y-94225000D03*
X193390000Y-95325000D03*
X193390000Y-96425000D03*
X193390000Y-97525000D03*
X193390000Y-98625000D03*
%TD*%
D21*
%TO.C,J4*%
X147125000Y-99350000D03*
X164025000Y-99350000D03*
D22*
X150325000Y-94200000D03*
X151825000Y-94200000D03*
X153325000Y-94200000D03*
X154825000Y-94200000D03*
X156325000Y-94200000D03*
X157825000Y-94200000D03*
X159325000Y-94200000D03*
X160825000Y-94200000D03*
%TD*%
D23*
%TO.C,IC5*%
X168665000Y-72730000D03*
X168665000Y-75270000D03*
X168665000Y-77810000D03*
X168665000Y-80350000D03*
X168665000Y-82890000D03*
X168665000Y-85430000D03*
X168665000Y-87970000D03*
X185665000Y-87970000D03*
X185665000Y-85430000D03*
X185665000Y-82890000D03*
X185665000Y-80350000D03*
X185665000Y-77810000D03*
X185665000Y-75270000D03*
X185665000Y-72730000D03*
%TD*%
D31*
%TO.C,IC1*%
X92390000Y-74900000D03*
X91440000Y-74900000D03*
X90490000Y-74900000D03*
X90490000Y-77500000D03*
X91440000Y-77500000D03*
X92390000Y-77500000D03*
%TD*%
D19*
%TO.C,D3*%
X201930000Y-75410000D03*
X201930000Y-71910000D03*
%TD*%
D32*
%TO.C,BT1*%
X196330000Y-79395000D03*
X194830000Y-79395000D03*
%TD*%
D16*
%TO.C,H3*%
X78245000Y-74295000D03*
X78947944Y-72597944D03*
X78947944Y-75992056D03*
X80645000Y-71895000D03*
D17*
X80645000Y-74295000D03*
D16*
X80645000Y-76695000D03*
X82342056Y-72597944D03*
X82342056Y-75992056D03*
X83045000Y-74295000D03*
%TD*%
%LPD*%
M02*
