%TF.GenerationSoftware,KiCad,Pcbnew,7.0.5-0*%
%TF.CreationDate,2023-09-25T22:43:47+01:00*%
%TF.ProjectId,INCLINOMETER_BOARD,494e434c-494e-44f4-9d45-5445525f424f,rev?*%
%TF.SameCoordinates,Original*%
%TF.FileFunction,Soldermask,Top*%
%TF.FilePolarity,Negative*%
%FSLAX46Y46*%
G04 Gerber Fmt 4.6, Leading zero omitted, Abs format (unit mm)*
G04 Created by KiCad (PCBNEW 7.0.5-0) date 2023-09-25 22:43:47*
%MOMM*%
%LPD*%
G01*
G04 APERTURE LIST*
G04 Aperture macros list*
%AMRoundRect*
0 Rectangle with rounded corners*
0 $1 Rounding radius*
0 $2 $3 $4 $5 $6 $7 $8 $9 X,Y pos of 4 corners*
0 Add a 4 corners polygon primitive as box body*
4,1,4,$2,$3,$4,$5,$6,$7,$8,$9,$2,$3,0*
0 Add four circle primitives for the rounded corners*
1,1,$1+$1,$2,$3*
1,1,$1+$1,$4,$5*
1,1,$1+$1,$6,$7*
1,1,$1+$1,$8,$9*
0 Add four rect primitives between the rounded corners*
20,1,$1+$1,$2,$3,$4,$5,0*
20,1,$1+$1,$4,$5,$6,$7,0*
20,1,$1+$1,$6,$7,$8,$9,0*
20,1,$1+$1,$8,$9,$2,$3,0*%
G04 Aperture macros list end*
%ADD10RoundRect,0.325000X-0.325000X-0.425000X0.325000X-0.425000X0.325000X0.425000X-0.325000X0.425000X0*%
%ADD11C,0.800000*%
%ADD12C,6.400000*%
%ADD13RoundRect,0.325000X0.425000X-0.325000X0.425000X0.325000X-0.425000X0.325000X-0.425000X-0.325000X0*%
%ADD14RoundRect,0.350000X0.350000X-0.350000X0.350000X0.350000X-0.350000X0.350000X-0.350000X-0.350000X0*%
%ADD15RoundRect,0.325000X-0.425000X0.325000X-0.425000X-0.325000X0.425000X-0.325000X0.425000X0.325000X0*%
%ADD16RoundRect,0.600000X0.600000X1.000000X-0.600000X1.000000X-0.600000X-1.000000X0.600000X-1.000000X0*%
%ADD17RoundRect,0.450000X0.000000X1.050000X0.000000X1.050000X0.000000X-1.050000X0.000000X-1.050000X0*%
%ADD18RoundRect,1.000000X-0.750000X0.000000X0.750000X0.000000X0.750000X0.000000X-0.750000X0.000000X0*%
%ADD19RoundRect,0.375000X0.375000X-0.375000X0.375000X0.375000X-0.375000X0.375000X-0.375000X-0.375000X0*%
%ADD20RoundRect,0.425000X-2.425000X0.425000X-2.425000X-0.425000X2.425000X-0.425000X2.425000X0.425000X0*%
%ADD21RoundRect,0.517500X-0.832500X0.517500X-0.832500X-0.517500X0.832500X-0.517500X0.832500X0.517500X0*%
%ADD22C,2.100000*%
%ADD23C,3.000000*%
%ADD24C,1.800000*%
%ADD25RoundRect,0.400000X0.500000X0.000000X-0.500000X0.000000X-0.500000X0.000000X0.500000X0.000000X0*%
%ADD26RoundRect,0.300000X0.000000X0.450000X0.000000X-0.450000X0.000000X-0.450000X0.000000X0.450000X0*%
%ADD27RoundRect,0.400000X0.000000X0.975000X0.000000X-0.975000X0.000000X-0.975000X0.000000X0.975000X0*%
G04 APERTURE END LIST*
D10*
%TO.C,C6*%
X188978500Y-95250000D03*
X190878500Y-95250000D03*
%TD*%
%TO.C,R2*%
X90490000Y-72390000D03*
X92390000Y-72390000D03*
%TD*%
D11*
%TO.C,H4*%
X78245000Y-97155000D03*
X78947944Y-95457944D03*
X78947944Y-98852056D03*
X80645000Y-94755000D03*
D12*
X80645000Y-97155000D03*
D11*
X80645000Y-99555000D03*
X82342056Y-95457944D03*
X82342056Y-98852056D03*
X83045000Y-97155000D03*
%TD*%
%TO.C,H1*%
X221755000Y-74295000D03*
X222457944Y-72597944D03*
X222457944Y-75992056D03*
X224155000Y-71895000D03*
D12*
X224155000Y-74295000D03*
D11*
X224155000Y-76695000D03*
X225852056Y-72597944D03*
X225852056Y-75992056D03*
X226555000Y-74295000D03*
%TD*%
D13*
%TO.C,C4*%
X95504000Y-88580000D03*
X95504000Y-86680000D03*
%TD*%
D11*
%TO.C,H2*%
X221755000Y-97155000D03*
X222457944Y-95457944D03*
X222457944Y-98852056D03*
X224155000Y-94755000D03*
D12*
X224155000Y-97155000D03*
D11*
X224155000Y-99555000D03*
X225852056Y-95457944D03*
X225852056Y-98852056D03*
X226555000Y-97155000D03*
%TD*%
D14*
%TO.C,D5*%
X207010000Y-75410000D03*
X207010000Y-71910000D03*
%TD*%
D15*
%TO.C,C9*%
X210312000Y-91125000D03*
X210312000Y-93025000D03*
%TD*%
%TO.C,R6*%
X207772000Y-91125000D03*
X207772000Y-93025000D03*
%TD*%
D16*
%TO.C,J2*%
X168715000Y-99350000D03*
X185615000Y-99350000D03*
D17*
X171915000Y-94200000D03*
X173415000Y-94200000D03*
X174915000Y-94200000D03*
X176415000Y-94200000D03*
X177915000Y-94200000D03*
X179415000Y-94200000D03*
X180915000Y-94200000D03*
X182415000Y-94200000D03*
%TD*%
D18*
%TO.C,IC4*%
X147075000Y-72730000D03*
X147075000Y-75270000D03*
X147075000Y-77810000D03*
X147075000Y-80350000D03*
X147075000Y-82890000D03*
X147075000Y-85430000D03*
X147075000Y-87970000D03*
X164075000Y-87970000D03*
X164075000Y-85430000D03*
X164075000Y-82890000D03*
X164075000Y-80350000D03*
X164075000Y-77810000D03*
X164075000Y-75270000D03*
X164075000Y-72730000D03*
%TD*%
D13*
%TO.C,R3*%
X90805000Y-98105000D03*
X90805000Y-96205000D03*
%TD*%
D15*
%TO.C,R5*%
X204470000Y-77790000D03*
X204470000Y-79690000D03*
%TD*%
D18*
%TO.C,IC2*%
X103895000Y-72730000D03*
X103895000Y-75270000D03*
X103895000Y-77810000D03*
X103895000Y-80350000D03*
X103895000Y-82890000D03*
X103895000Y-85430000D03*
X103895000Y-87970000D03*
X120895000Y-87970000D03*
X120895000Y-85430000D03*
X120895000Y-82890000D03*
X120895000Y-80350000D03*
X120895000Y-77810000D03*
X120895000Y-75270000D03*
X120895000Y-72730000D03*
%TD*%
D10*
%TO.C,C2*%
X86045000Y-77470000D03*
X87945000Y-77470000D03*
%TD*%
D13*
%TO.C,R4*%
X93345000Y-98105000D03*
X93345000Y-96205000D03*
%TD*%
D19*
%TO.C,D2*%
X95885000Y-95405000D03*
X95885000Y-98905000D03*
%TD*%
D13*
%TO.C,R7*%
X213995000Y-98105000D03*
X213995000Y-96205000D03*
%TD*%
D18*
%TO.C,IC3*%
X125485000Y-72730000D03*
X125485000Y-75270000D03*
X125485000Y-77810000D03*
X125485000Y-80350000D03*
X125485000Y-82890000D03*
X125485000Y-85430000D03*
X125485000Y-87970000D03*
X142485000Y-87970000D03*
X142485000Y-85430000D03*
X142485000Y-82890000D03*
X142485000Y-80350000D03*
X142485000Y-77810000D03*
X142485000Y-75270000D03*
X142485000Y-72730000D03*
%TD*%
D13*
%TO.C,C5*%
X98044000Y-88580000D03*
X98044000Y-86680000D03*
%TD*%
%TO.C,L2*%
X207772000Y-88118028D03*
X207772000Y-86218028D03*
%TD*%
D19*
%TO.C,D6*%
X216535000Y-95405000D03*
X216535000Y-98905000D03*
%TD*%
D20*
%TO.C,L1*%
X96774000Y-79665000D03*
X96774000Y-84165000D03*
%TD*%
D16*
%TO.C,J1*%
X125535000Y-99350000D03*
X142435000Y-99350000D03*
D17*
X128735000Y-94200000D03*
X130235000Y-94200000D03*
X131735000Y-94200000D03*
X133235000Y-94200000D03*
X134735000Y-94200000D03*
X136235000Y-94200000D03*
X137735000Y-94200000D03*
X139235000Y-94200000D03*
%TD*%
D13*
%TO.C,C8*%
X191008000Y-99425000D03*
X191008000Y-97525000D03*
%TD*%
D16*
%TO.C,J3*%
X103945000Y-99350000D03*
X120845000Y-99350000D03*
D17*
X107145000Y-94200000D03*
X108645000Y-94200000D03*
X110145000Y-94200000D03*
X111645000Y-94200000D03*
X113145000Y-94200000D03*
X114645000Y-94200000D03*
X116145000Y-94200000D03*
X117645000Y-94200000D03*
%TD*%
D19*
%TO.C,D1*%
X88265000Y-95405000D03*
X88265000Y-98905000D03*
%TD*%
D10*
%TO.C,C1*%
X86045000Y-74930000D03*
X87945000Y-74930000D03*
%TD*%
D13*
%TO.C,C7*%
X188849000Y-99425000D03*
X188849000Y-97525000D03*
%TD*%
D10*
%TO.C,R1*%
X86045000Y-72390000D03*
X87945000Y-72390000D03*
%TD*%
D21*
%TO.C,J7*%
X218060000Y-85725000D03*
D22*
X217410000Y-82725000D03*
X212410000Y-82725000D03*
X217410000Y-88725000D03*
X212410000Y-88725000D03*
%TD*%
D14*
%TO.C,D4*%
X204470000Y-75410000D03*
X204470000Y-71910000D03*
%TD*%
D13*
%TO.C,C3*%
X94615000Y-77150000D03*
X94615000Y-75250000D03*
%TD*%
D23*
%TO.C,J9*%
X87755000Y-85725000D03*
D24*
X92075000Y-82725000D03*
X92075000Y-85725000D03*
X92075000Y-88725000D03*
%TD*%
D25*
%TO.C,IC6*%
X205390000Y-98625000D03*
X205390000Y-97525000D03*
X205390000Y-96425000D03*
X205390000Y-95325000D03*
X205390000Y-94225000D03*
X205390000Y-93125000D03*
X205390000Y-92025000D03*
X205390000Y-89025000D03*
X205390000Y-87925000D03*
X205390000Y-86825000D03*
X205390000Y-85725000D03*
X205390000Y-84625000D03*
X193390000Y-84625000D03*
X193390000Y-85725000D03*
X193390000Y-86825000D03*
X193390000Y-87925000D03*
X193390000Y-89025000D03*
X193390000Y-92025000D03*
X193390000Y-93125000D03*
X193390000Y-94225000D03*
X193390000Y-95325000D03*
X193390000Y-96425000D03*
X193390000Y-97525000D03*
X193390000Y-98625000D03*
%TD*%
D16*
%TO.C,J4*%
X147125000Y-99350000D03*
X164025000Y-99350000D03*
D17*
X150325000Y-94200000D03*
X151825000Y-94200000D03*
X153325000Y-94200000D03*
X154825000Y-94200000D03*
X156325000Y-94200000D03*
X157825000Y-94200000D03*
X159325000Y-94200000D03*
X160825000Y-94200000D03*
%TD*%
D18*
%TO.C,IC5*%
X168665000Y-72730000D03*
X168665000Y-75270000D03*
X168665000Y-77810000D03*
X168665000Y-80350000D03*
X168665000Y-82890000D03*
X168665000Y-85430000D03*
X168665000Y-87970000D03*
X185665000Y-87970000D03*
X185665000Y-85430000D03*
X185665000Y-82890000D03*
X185665000Y-80350000D03*
X185665000Y-77810000D03*
X185665000Y-75270000D03*
X185665000Y-72730000D03*
%TD*%
D26*
%TO.C,IC1*%
X92390000Y-74900000D03*
X91440000Y-74900000D03*
X90490000Y-74900000D03*
X90490000Y-77500000D03*
X91440000Y-77500000D03*
X92390000Y-77500000D03*
%TD*%
D14*
%TO.C,D3*%
X201930000Y-75410000D03*
X201930000Y-71910000D03*
%TD*%
D27*
%TO.C,BT1*%
X196330000Y-79395000D03*
X194830000Y-79395000D03*
%TD*%
D11*
%TO.C,H3*%
X78245000Y-74295000D03*
X78947944Y-72597944D03*
X78947944Y-75992056D03*
X80645000Y-71895000D03*
D12*
X80645000Y-74295000D03*
D11*
X80645000Y-76695000D03*
X82342056Y-72597944D03*
X82342056Y-75992056D03*
X83045000Y-74295000D03*
%TD*%
M02*
