%TF.GenerationSoftware,KiCad,Pcbnew,7.0.5-0*%
%TF.CreationDate,2023-09-25T22:44:35+01:00*%
%TF.ProjectId,INCLINOMETER_BOARD,494e434c-494e-44f4-9d45-5445525f424f,rev?*%
%TF.SameCoordinates,Original*%
%TF.FileFunction,Drillmap*%
%TF.FilePolarity,Positive*%
%FSLAX45Y45*%
G04 Gerber Fmt 4.5, Leading zero omitted, Abs format (unit mm)*
G04 Created by KiCad (PCBNEW 7.0.5-0) date 2023-09-25 22:44:35*
%MOMM*%
%LPD*%
G01*
G04 APERTURE LIST*
%ADD10C,0.100000*%
%ADD11C,0.200000*%
%ADD12C,0.300000*%
G04 APERTURE END LIST*
D10*
X22415500Y-7874000D02*
G75*
G03*
X22860000Y-7429500I0J444500D01*
G01*
X22860000Y-7429500D02*
X22860000Y-7429500D01*
X22415500Y-7874000D02*
X22193250Y-7874000D01*
X8064500Y-9271000D02*
X8286750Y-9271000D01*
X7620000Y-9715500D02*
G75*
G03*
X8064500Y-10160000I444500J0D01*
G01*
X8286750Y-7874000D02*
X8064500Y-7874000D01*
X8064500Y-6985000D02*
G75*
G03*
X7620000Y-7429500I0J-444500D01*
G01*
X21971000Y-9048750D02*
G75*
G03*
X22193250Y-9271000I222250J0D01*
G01*
X22193250Y-9271000D02*
X22415500Y-9271000D01*
X7620000Y-7429500D02*
G75*
G03*
X8064500Y-7874000I444500J0D01*
G01*
X8509000Y-8096250D02*
X8509000Y-9048750D01*
X22415500Y-10160000D02*
G75*
G03*
X22860000Y-9715500I0J444500D01*
G01*
X7620000Y-9715500D02*
X7620000Y-9715500D01*
X8064500Y-9271000D02*
G75*
G03*
X7620000Y-9715500I0J-444500D01*
G01*
X22860000Y-9715500D02*
G75*
G03*
X22415500Y-9271000I-444500J0D01*
G01*
X8509000Y-8096250D02*
G75*
G03*
X8286750Y-7874000I-222250J0D01*
G01*
X8064500Y-6985000D02*
X22415500Y-6985000D01*
X21971000Y-8096250D02*
X21971000Y-9048750D01*
X22860000Y-9715500D02*
X22860000Y-9715500D01*
X7620000Y-7429500D02*
X7620000Y-7429500D01*
X22860000Y-7429500D02*
G75*
G03*
X22415500Y-6985000I-444500J0D01*
G01*
X22415500Y-10160000D02*
X8064500Y-10160000D01*
X8286750Y-9271000D02*
G75*
G03*
X8509000Y-9048750I0J222250D01*
G01*
X22193250Y-7874000D02*
G75*
G03*
X21971000Y-8096250I0J-222250D01*
G01*
D11*
D12*
X8625500Y-8422500D02*
X8925500Y-8722500D01*
X8925500Y-8422500D02*
X8625500Y-8722500D01*
D11*
X7875777Y-10476484D02*
X7875777Y-10276484D01*
X7875777Y-10276484D02*
X7923396Y-10276484D01*
X7923396Y-10276484D02*
X7951967Y-10286008D01*
X7951967Y-10286008D02*
X7971015Y-10305055D01*
X7971015Y-10305055D02*
X7980539Y-10324103D01*
X7980539Y-10324103D02*
X7990062Y-10362198D01*
X7990062Y-10362198D02*
X7990062Y-10390770D01*
X7990062Y-10390770D02*
X7980539Y-10428865D01*
X7980539Y-10428865D02*
X7971015Y-10447912D01*
X7971015Y-10447912D02*
X7951967Y-10466960D01*
X7951967Y-10466960D02*
X7923396Y-10476484D01*
X7923396Y-10476484D02*
X7875777Y-10476484D01*
X8075777Y-10476484D02*
X8075777Y-10343150D01*
X8075777Y-10381246D02*
X8085301Y-10362198D01*
X8085301Y-10362198D02*
X8094824Y-10352674D01*
X8094824Y-10352674D02*
X8113872Y-10343150D01*
X8113872Y-10343150D02*
X8132920Y-10343150D01*
X8199586Y-10476484D02*
X8199586Y-10343150D01*
X8199586Y-10276484D02*
X8190062Y-10286008D01*
X8190062Y-10286008D02*
X8199586Y-10295531D01*
X8199586Y-10295531D02*
X8209110Y-10286008D01*
X8209110Y-10286008D02*
X8199586Y-10276484D01*
X8199586Y-10276484D02*
X8199586Y-10295531D01*
X8323396Y-10476484D02*
X8304348Y-10466960D01*
X8304348Y-10466960D02*
X8294824Y-10447912D01*
X8294824Y-10447912D02*
X8294824Y-10276484D01*
X8428158Y-10476484D02*
X8409110Y-10466960D01*
X8409110Y-10466960D02*
X8399586Y-10447912D01*
X8399586Y-10447912D02*
X8399586Y-10276484D01*
X8656729Y-10476484D02*
X8656729Y-10276484D01*
X8656729Y-10276484D02*
X8723396Y-10419341D01*
X8723396Y-10419341D02*
X8790063Y-10276484D01*
X8790063Y-10276484D02*
X8790063Y-10476484D01*
X8971015Y-10476484D02*
X8971015Y-10371722D01*
X8971015Y-10371722D02*
X8961491Y-10352674D01*
X8961491Y-10352674D02*
X8942444Y-10343150D01*
X8942444Y-10343150D02*
X8904348Y-10343150D01*
X8904348Y-10343150D02*
X8885301Y-10352674D01*
X8971015Y-10466960D02*
X8951967Y-10476484D01*
X8951967Y-10476484D02*
X8904348Y-10476484D01*
X8904348Y-10476484D02*
X8885301Y-10466960D01*
X8885301Y-10466960D02*
X8875777Y-10447912D01*
X8875777Y-10447912D02*
X8875777Y-10428865D01*
X8875777Y-10428865D02*
X8885301Y-10409817D01*
X8885301Y-10409817D02*
X8904348Y-10400293D01*
X8904348Y-10400293D02*
X8951967Y-10400293D01*
X8951967Y-10400293D02*
X8971015Y-10390770D01*
X9066253Y-10343150D02*
X9066253Y-10543150D01*
X9066253Y-10352674D02*
X9085301Y-10343150D01*
X9085301Y-10343150D02*
X9123396Y-10343150D01*
X9123396Y-10343150D02*
X9142444Y-10352674D01*
X9142444Y-10352674D02*
X9151967Y-10362198D01*
X9151967Y-10362198D02*
X9161491Y-10381246D01*
X9161491Y-10381246D02*
X9161491Y-10438389D01*
X9161491Y-10438389D02*
X9151967Y-10457436D01*
X9151967Y-10457436D02*
X9142444Y-10466960D01*
X9142444Y-10466960D02*
X9123396Y-10476484D01*
X9123396Y-10476484D02*
X9085301Y-10476484D01*
X9085301Y-10476484D02*
X9066253Y-10466960D01*
X9247205Y-10457436D02*
X9256729Y-10466960D01*
X9256729Y-10466960D02*
X9247205Y-10476484D01*
X9247205Y-10476484D02*
X9237682Y-10466960D01*
X9237682Y-10466960D02*
X9247205Y-10457436D01*
X9247205Y-10457436D02*
X9247205Y-10476484D01*
X9247205Y-10352674D02*
X9256729Y-10362198D01*
X9256729Y-10362198D02*
X9247205Y-10371722D01*
X9247205Y-10371722D02*
X9237682Y-10362198D01*
X9237682Y-10362198D02*
X9247205Y-10352674D01*
X9247205Y-10352674D02*
X9247205Y-10371722D01*
X7415000Y-10705000D02*
X7615000Y-10905000D01*
X7615000Y-10705000D02*
X7415000Y-10905000D01*
X7856729Y-10696484D02*
X7980539Y-10696484D01*
X7980539Y-10696484D02*
X7913872Y-10772674D01*
X7913872Y-10772674D02*
X7942443Y-10772674D01*
X7942443Y-10772674D02*
X7961491Y-10782198D01*
X7961491Y-10782198D02*
X7971015Y-10791722D01*
X7971015Y-10791722D02*
X7980539Y-10810770D01*
X7980539Y-10810770D02*
X7980539Y-10858389D01*
X7980539Y-10858389D02*
X7971015Y-10877436D01*
X7971015Y-10877436D02*
X7961491Y-10886960D01*
X7961491Y-10886960D02*
X7942443Y-10896484D01*
X7942443Y-10896484D02*
X7885301Y-10896484D01*
X7885301Y-10896484D02*
X7866253Y-10886960D01*
X7866253Y-10886960D02*
X7856729Y-10877436D01*
X8066253Y-10877436D02*
X8075777Y-10886960D01*
X8075777Y-10886960D02*
X8066253Y-10896484D01*
X8066253Y-10896484D02*
X8056729Y-10886960D01*
X8056729Y-10886960D02*
X8066253Y-10877436D01*
X8066253Y-10877436D02*
X8066253Y-10896484D01*
X8199586Y-10696484D02*
X8218634Y-10696484D01*
X8218634Y-10696484D02*
X8237682Y-10706008D01*
X8237682Y-10706008D02*
X8247205Y-10715531D01*
X8247205Y-10715531D02*
X8256729Y-10734579D01*
X8256729Y-10734579D02*
X8266253Y-10772674D01*
X8266253Y-10772674D02*
X8266253Y-10820293D01*
X8266253Y-10820293D02*
X8256729Y-10858389D01*
X8256729Y-10858389D02*
X8247205Y-10877436D01*
X8247205Y-10877436D02*
X8237682Y-10886960D01*
X8237682Y-10886960D02*
X8218634Y-10896484D01*
X8218634Y-10896484D02*
X8199586Y-10896484D01*
X8199586Y-10896484D02*
X8180539Y-10886960D01*
X8180539Y-10886960D02*
X8171015Y-10877436D01*
X8171015Y-10877436D02*
X8161491Y-10858389D01*
X8161491Y-10858389D02*
X8151967Y-10820293D01*
X8151967Y-10820293D02*
X8151967Y-10772674D01*
X8151967Y-10772674D02*
X8161491Y-10734579D01*
X8161491Y-10734579D02*
X8171015Y-10715531D01*
X8171015Y-10715531D02*
X8180539Y-10706008D01*
X8180539Y-10706008D02*
X8199586Y-10696484D01*
X8390063Y-10696484D02*
X8409110Y-10696484D01*
X8409110Y-10696484D02*
X8428158Y-10706008D01*
X8428158Y-10706008D02*
X8437682Y-10715531D01*
X8437682Y-10715531D02*
X8447205Y-10734579D01*
X8447205Y-10734579D02*
X8456729Y-10772674D01*
X8456729Y-10772674D02*
X8456729Y-10820293D01*
X8456729Y-10820293D02*
X8447205Y-10858389D01*
X8447205Y-10858389D02*
X8437682Y-10877436D01*
X8437682Y-10877436D02*
X8428158Y-10886960D01*
X8428158Y-10886960D02*
X8409110Y-10896484D01*
X8409110Y-10896484D02*
X8390063Y-10896484D01*
X8390063Y-10896484D02*
X8371015Y-10886960D01*
X8371015Y-10886960D02*
X8361491Y-10877436D01*
X8361491Y-10877436D02*
X8351967Y-10858389D01*
X8351967Y-10858389D02*
X8342443Y-10820293D01*
X8342443Y-10820293D02*
X8342443Y-10772674D01*
X8342443Y-10772674D02*
X8351967Y-10734579D01*
X8351967Y-10734579D02*
X8361491Y-10715531D01*
X8361491Y-10715531D02*
X8371015Y-10706008D01*
X8371015Y-10706008D02*
X8390063Y-10696484D01*
X8580539Y-10696484D02*
X8599586Y-10696484D01*
X8599586Y-10696484D02*
X8618634Y-10706008D01*
X8618634Y-10706008D02*
X8628158Y-10715531D01*
X8628158Y-10715531D02*
X8637682Y-10734579D01*
X8637682Y-10734579D02*
X8647205Y-10772674D01*
X8647205Y-10772674D02*
X8647205Y-10820293D01*
X8647205Y-10820293D02*
X8637682Y-10858389D01*
X8637682Y-10858389D02*
X8628158Y-10877436D01*
X8628158Y-10877436D02*
X8618634Y-10886960D01*
X8618634Y-10886960D02*
X8599586Y-10896484D01*
X8599586Y-10896484D02*
X8580539Y-10896484D01*
X8580539Y-10896484D02*
X8561491Y-10886960D01*
X8561491Y-10886960D02*
X8551967Y-10877436D01*
X8551967Y-10877436D02*
X8542444Y-10858389D01*
X8542444Y-10858389D02*
X8532920Y-10820293D01*
X8532920Y-10820293D02*
X8532920Y-10772674D01*
X8532920Y-10772674D02*
X8542444Y-10734579D01*
X8542444Y-10734579D02*
X8551967Y-10715531D01*
X8551967Y-10715531D02*
X8561491Y-10706008D01*
X8561491Y-10706008D02*
X8580539Y-10696484D01*
X8732920Y-10896484D02*
X8732920Y-10763150D01*
X8732920Y-10782198D02*
X8742444Y-10772674D01*
X8742444Y-10772674D02*
X8761491Y-10763150D01*
X8761491Y-10763150D02*
X8790063Y-10763150D01*
X8790063Y-10763150D02*
X8809110Y-10772674D01*
X8809110Y-10772674D02*
X8818634Y-10791722D01*
X8818634Y-10791722D02*
X8818634Y-10896484D01*
X8818634Y-10791722D02*
X8828158Y-10772674D01*
X8828158Y-10772674D02*
X8847205Y-10763150D01*
X8847205Y-10763150D02*
X8875777Y-10763150D01*
X8875777Y-10763150D02*
X8894825Y-10772674D01*
X8894825Y-10772674D02*
X8904348Y-10791722D01*
X8904348Y-10791722D02*
X8904348Y-10896484D01*
X8999586Y-10896484D02*
X8999586Y-10763150D01*
X8999586Y-10782198D02*
X9009110Y-10772674D01*
X9009110Y-10772674D02*
X9028158Y-10763150D01*
X9028158Y-10763150D02*
X9056729Y-10763150D01*
X9056729Y-10763150D02*
X9075777Y-10772674D01*
X9075777Y-10772674D02*
X9085301Y-10791722D01*
X9085301Y-10791722D02*
X9085301Y-10896484D01*
X9085301Y-10791722D02*
X9094825Y-10772674D01*
X9094825Y-10772674D02*
X9113872Y-10763150D01*
X9113872Y-10763150D02*
X9142444Y-10763150D01*
X9142444Y-10763150D02*
X9161491Y-10772674D01*
X9161491Y-10772674D02*
X9171015Y-10791722D01*
X9171015Y-10791722D02*
X9171015Y-10896484D01*
X9561491Y-10686960D02*
X9390063Y-10944103D01*
X9818634Y-10696484D02*
X9837682Y-10696484D01*
X9837682Y-10696484D02*
X9856729Y-10706008D01*
X9856729Y-10706008D02*
X9866253Y-10715531D01*
X9866253Y-10715531D02*
X9875777Y-10734579D01*
X9875777Y-10734579D02*
X9885301Y-10772674D01*
X9885301Y-10772674D02*
X9885301Y-10820293D01*
X9885301Y-10820293D02*
X9875777Y-10858389D01*
X9875777Y-10858389D02*
X9866253Y-10877436D01*
X9866253Y-10877436D02*
X9856729Y-10886960D01*
X9856729Y-10886960D02*
X9837682Y-10896484D01*
X9837682Y-10896484D02*
X9818634Y-10896484D01*
X9818634Y-10896484D02*
X9799587Y-10886960D01*
X9799587Y-10886960D02*
X9790063Y-10877436D01*
X9790063Y-10877436D02*
X9780539Y-10858389D01*
X9780539Y-10858389D02*
X9771015Y-10820293D01*
X9771015Y-10820293D02*
X9771015Y-10772674D01*
X9771015Y-10772674D02*
X9780539Y-10734579D01*
X9780539Y-10734579D02*
X9790063Y-10715531D01*
X9790063Y-10715531D02*
X9799587Y-10706008D01*
X9799587Y-10706008D02*
X9818634Y-10696484D01*
X9971015Y-10877436D02*
X9980539Y-10886960D01*
X9980539Y-10886960D02*
X9971015Y-10896484D01*
X9971015Y-10896484D02*
X9961491Y-10886960D01*
X9961491Y-10886960D02*
X9971015Y-10877436D01*
X9971015Y-10877436D02*
X9971015Y-10896484D01*
X10171015Y-10896484D02*
X10056729Y-10896484D01*
X10113872Y-10896484D02*
X10113872Y-10696484D01*
X10113872Y-10696484D02*
X10094825Y-10725055D01*
X10094825Y-10725055D02*
X10075777Y-10744103D01*
X10075777Y-10744103D02*
X10056729Y-10753627D01*
X10361491Y-10896484D02*
X10247206Y-10896484D01*
X10304348Y-10896484D02*
X10304348Y-10696484D01*
X10304348Y-10696484D02*
X10285301Y-10725055D01*
X10285301Y-10725055D02*
X10266253Y-10744103D01*
X10266253Y-10744103D02*
X10247206Y-10753627D01*
X10475777Y-10782198D02*
X10456729Y-10772674D01*
X10456729Y-10772674D02*
X10447206Y-10763150D01*
X10447206Y-10763150D02*
X10437682Y-10744103D01*
X10437682Y-10744103D02*
X10437682Y-10734579D01*
X10437682Y-10734579D02*
X10447206Y-10715531D01*
X10447206Y-10715531D02*
X10456729Y-10706008D01*
X10456729Y-10706008D02*
X10475777Y-10696484D01*
X10475777Y-10696484D02*
X10513872Y-10696484D01*
X10513872Y-10696484D02*
X10532920Y-10706008D01*
X10532920Y-10706008D02*
X10542444Y-10715531D01*
X10542444Y-10715531D02*
X10551968Y-10734579D01*
X10551968Y-10734579D02*
X10551968Y-10744103D01*
X10551968Y-10744103D02*
X10542444Y-10763150D01*
X10542444Y-10763150D02*
X10532920Y-10772674D01*
X10532920Y-10772674D02*
X10513872Y-10782198D01*
X10513872Y-10782198D02*
X10475777Y-10782198D01*
X10475777Y-10782198D02*
X10456729Y-10791722D01*
X10456729Y-10791722D02*
X10447206Y-10801246D01*
X10447206Y-10801246D02*
X10437682Y-10820293D01*
X10437682Y-10820293D02*
X10437682Y-10858389D01*
X10437682Y-10858389D02*
X10447206Y-10877436D01*
X10447206Y-10877436D02*
X10456729Y-10886960D01*
X10456729Y-10886960D02*
X10475777Y-10896484D01*
X10475777Y-10896484D02*
X10513872Y-10896484D01*
X10513872Y-10896484D02*
X10532920Y-10886960D01*
X10532920Y-10886960D02*
X10542444Y-10877436D01*
X10542444Y-10877436D02*
X10551968Y-10858389D01*
X10551968Y-10858389D02*
X10551968Y-10820293D01*
X10551968Y-10820293D02*
X10542444Y-10801246D01*
X10542444Y-10801246D02*
X10532920Y-10791722D01*
X10532920Y-10791722D02*
X10513872Y-10782198D01*
X10742444Y-10896484D02*
X10628158Y-10896484D01*
X10685301Y-10896484D02*
X10685301Y-10696484D01*
X10685301Y-10696484D02*
X10666253Y-10725055D01*
X10666253Y-10725055D02*
X10647206Y-10744103D01*
X10647206Y-10744103D02*
X10628158Y-10753627D01*
X10818634Y-10696484D02*
X10818634Y-10734579D01*
X10894825Y-10696484D02*
X10894825Y-10734579D01*
X11190063Y-10972674D02*
X11180539Y-10963150D01*
X11180539Y-10963150D02*
X11161491Y-10934579D01*
X11161491Y-10934579D02*
X11151968Y-10915531D01*
X11151968Y-10915531D02*
X11142444Y-10886960D01*
X11142444Y-10886960D02*
X11132920Y-10839341D01*
X11132920Y-10839341D02*
X11132920Y-10801246D01*
X11132920Y-10801246D02*
X11142444Y-10753627D01*
X11142444Y-10753627D02*
X11151968Y-10725055D01*
X11151968Y-10725055D02*
X11161491Y-10706008D01*
X11161491Y-10706008D02*
X11180539Y-10677436D01*
X11180539Y-10677436D02*
X11190063Y-10667912D01*
X11371015Y-10896484D02*
X11256729Y-10896484D01*
X11313872Y-10896484D02*
X11313872Y-10696484D01*
X11313872Y-10696484D02*
X11294825Y-10725055D01*
X11294825Y-10725055D02*
X11275777Y-10744103D01*
X11275777Y-10744103D02*
X11256729Y-10753627D01*
X11609110Y-10896484D02*
X11609110Y-10696484D01*
X11694825Y-10896484D02*
X11694825Y-10791722D01*
X11694825Y-10791722D02*
X11685301Y-10772674D01*
X11685301Y-10772674D02*
X11666253Y-10763150D01*
X11666253Y-10763150D02*
X11637682Y-10763150D01*
X11637682Y-10763150D02*
X11618634Y-10772674D01*
X11618634Y-10772674D02*
X11609110Y-10782198D01*
X11818634Y-10896484D02*
X11799587Y-10886960D01*
X11799587Y-10886960D02*
X11790063Y-10877436D01*
X11790063Y-10877436D02*
X11780539Y-10858389D01*
X11780539Y-10858389D02*
X11780539Y-10801246D01*
X11780539Y-10801246D02*
X11790063Y-10782198D01*
X11790063Y-10782198D02*
X11799587Y-10772674D01*
X11799587Y-10772674D02*
X11818634Y-10763150D01*
X11818634Y-10763150D02*
X11847206Y-10763150D01*
X11847206Y-10763150D02*
X11866253Y-10772674D01*
X11866253Y-10772674D02*
X11875777Y-10782198D01*
X11875777Y-10782198D02*
X11885301Y-10801246D01*
X11885301Y-10801246D02*
X11885301Y-10858389D01*
X11885301Y-10858389D02*
X11875777Y-10877436D01*
X11875777Y-10877436D02*
X11866253Y-10886960D01*
X11866253Y-10886960D02*
X11847206Y-10896484D01*
X11847206Y-10896484D02*
X11818634Y-10896484D01*
X11999587Y-10896484D02*
X11980539Y-10886960D01*
X11980539Y-10886960D02*
X11971015Y-10867912D01*
X11971015Y-10867912D02*
X11971015Y-10696484D01*
X12151968Y-10886960D02*
X12132920Y-10896484D01*
X12132920Y-10896484D02*
X12094825Y-10896484D01*
X12094825Y-10896484D02*
X12075777Y-10886960D01*
X12075777Y-10886960D02*
X12066253Y-10867912D01*
X12066253Y-10867912D02*
X12066253Y-10791722D01*
X12066253Y-10791722D02*
X12075777Y-10772674D01*
X12075777Y-10772674D02*
X12094825Y-10763150D01*
X12094825Y-10763150D02*
X12132920Y-10763150D01*
X12132920Y-10763150D02*
X12151968Y-10772674D01*
X12151968Y-10772674D02*
X12161491Y-10791722D01*
X12161491Y-10791722D02*
X12161491Y-10810770D01*
X12161491Y-10810770D02*
X12066253Y-10829817D01*
X12228158Y-10972674D02*
X12237682Y-10963150D01*
X12237682Y-10963150D02*
X12256730Y-10934579D01*
X12256730Y-10934579D02*
X12266253Y-10915531D01*
X12266253Y-10915531D02*
X12275777Y-10886960D01*
X12275777Y-10886960D02*
X12285301Y-10839341D01*
X12285301Y-10839341D02*
X12285301Y-10801246D01*
X12285301Y-10801246D02*
X12275777Y-10753627D01*
X12275777Y-10753627D02*
X12266253Y-10725055D01*
X12266253Y-10725055D02*
X12256730Y-10706008D01*
X12256730Y-10706008D02*
X12237682Y-10677436D01*
X12237682Y-10677436D02*
X12228158Y-10667912D01*
X12590063Y-10972674D02*
X12580539Y-10963150D01*
X12580539Y-10963150D02*
X12561491Y-10934579D01*
X12561491Y-10934579D02*
X12551968Y-10915531D01*
X12551968Y-10915531D02*
X12542444Y-10886960D01*
X12542444Y-10886960D02*
X12532920Y-10839341D01*
X12532920Y-10839341D02*
X12532920Y-10801246D01*
X12532920Y-10801246D02*
X12542444Y-10753627D01*
X12542444Y-10753627D02*
X12551968Y-10725055D01*
X12551968Y-10725055D02*
X12561491Y-10706008D01*
X12561491Y-10706008D02*
X12580539Y-10677436D01*
X12580539Y-10677436D02*
X12590063Y-10667912D01*
X12666253Y-10763150D02*
X12666253Y-10896484D01*
X12666253Y-10782198D02*
X12675777Y-10772674D01*
X12675777Y-10772674D02*
X12694825Y-10763150D01*
X12694825Y-10763150D02*
X12723396Y-10763150D01*
X12723396Y-10763150D02*
X12742444Y-10772674D01*
X12742444Y-10772674D02*
X12751968Y-10791722D01*
X12751968Y-10791722D02*
X12751968Y-10896484D01*
X12875777Y-10896484D02*
X12856730Y-10886960D01*
X12856730Y-10886960D02*
X12847206Y-10877436D01*
X12847206Y-10877436D02*
X12837682Y-10858389D01*
X12837682Y-10858389D02*
X12837682Y-10801246D01*
X12837682Y-10801246D02*
X12847206Y-10782198D01*
X12847206Y-10782198D02*
X12856730Y-10772674D01*
X12856730Y-10772674D02*
X12875777Y-10763150D01*
X12875777Y-10763150D02*
X12904349Y-10763150D01*
X12904349Y-10763150D02*
X12923396Y-10772674D01*
X12923396Y-10772674D02*
X12932920Y-10782198D01*
X12932920Y-10782198D02*
X12942444Y-10801246D01*
X12942444Y-10801246D02*
X12942444Y-10858389D01*
X12942444Y-10858389D02*
X12932920Y-10877436D01*
X12932920Y-10877436D02*
X12923396Y-10886960D01*
X12923396Y-10886960D02*
X12904349Y-10896484D01*
X12904349Y-10896484D02*
X12875777Y-10896484D01*
X12999587Y-10763150D02*
X13075777Y-10763150D01*
X13028158Y-10696484D02*
X13028158Y-10867912D01*
X13028158Y-10867912D02*
X13037682Y-10886960D01*
X13037682Y-10886960D02*
X13056730Y-10896484D01*
X13056730Y-10896484D02*
X13075777Y-10896484D01*
X13294825Y-10763150D02*
X13294825Y-10963150D01*
X13294825Y-10772674D02*
X13313872Y-10763150D01*
X13313872Y-10763150D02*
X13351968Y-10763150D01*
X13351968Y-10763150D02*
X13371015Y-10772674D01*
X13371015Y-10772674D02*
X13380539Y-10782198D01*
X13380539Y-10782198D02*
X13390063Y-10801246D01*
X13390063Y-10801246D02*
X13390063Y-10858389D01*
X13390063Y-10858389D02*
X13380539Y-10877436D01*
X13380539Y-10877436D02*
X13371015Y-10886960D01*
X13371015Y-10886960D02*
X13351968Y-10896484D01*
X13351968Y-10896484D02*
X13313872Y-10896484D01*
X13313872Y-10896484D02*
X13294825Y-10886960D01*
X13504349Y-10896484D02*
X13485301Y-10886960D01*
X13485301Y-10886960D02*
X13475777Y-10867912D01*
X13475777Y-10867912D02*
X13475777Y-10696484D01*
X13666253Y-10896484D02*
X13666253Y-10791722D01*
X13666253Y-10791722D02*
X13656730Y-10772674D01*
X13656730Y-10772674D02*
X13637682Y-10763150D01*
X13637682Y-10763150D02*
X13599587Y-10763150D01*
X13599587Y-10763150D02*
X13580539Y-10772674D01*
X13666253Y-10886960D02*
X13647206Y-10896484D01*
X13647206Y-10896484D02*
X13599587Y-10896484D01*
X13599587Y-10896484D02*
X13580539Y-10886960D01*
X13580539Y-10886960D02*
X13571015Y-10867912D01*
X13571015Y-10867912D02*
X13571015Y-10848865D01*
X13571015Y-10848865D02*
X13580539Y-10829817D01*
X13580539Y-10829817D02*
X13599587Y-10820293D01*
X13599587Y-10820293D02*
X13647206Y-10820293D01*
X13647206Y-10820293D02*
X13666253Y-10810770D01*
X13732920Y-10763150D02*
X13809111Y-10763150D01*
X13761492Y-10696484D02*
X13761492Y-10867912D01*
X13761492Y-10867912D02*
X13771015Y-10886960D01*
X13771015Y-10886960D02*
X13790063Y-10896484D01*
X13790063Y-10896484D02*
X13809111Y-10896484D01*
X13951968Y-10886960D02*
X13932920Y-10896484D01*
X13932920Y-10896484D02*
X13894825Y-10896484D01*
X13894825Y-10896484D02*
X13875777Y-10886960D01*
X13875777Y-10886960D02*
X13866253Y-10867912D01*
X13866253Y-10867912D02*
X13866253Y-10791722D01*
X13866253Y-10791722D02*
X13875777Y-10772674D01*
X13875777Y-10772674D02*
X13894825Y-10763150D01*
X13894825Y-10763150D02*
X13932920Y-10763150D01*
X13932920Y-10763150D02*
X13951968Y-10772674D01*
X13951968Y-10772674D02*
X13961492Y-10791722D01*
X13961492Y-10791722D02*
X13961492Y-10810770D01*
X13961492Y-10810770D02*
X13866253Y-10829817D01*
X14132920Y-10896484D02*
X14132920Y-10696484D01*
X14132920Y-10886960D02*
X14113873Y-10896484D01*
X14113873Y-10896484D02*
X14075777Y-10896484D01*
X14075777Y-10896484D02*
X14056730Y-10886960D01*
X14056730Y-10886960D02*
X14047206Y-10877436D01*
X14047206Y-10877436D02*
X14037682Y-10858389D01*
X14037682Y-10858389D02*
X14037682Y-10801246D01*
X14037682Y-10801246D02*
X14047206Y-10782198D01*
X14047206Y-10782198D02*
X14056730Y-10772674D01*
X14056730Y-10772674D02*
X14075777Y-10763150D01*
X14075777Y-10763150D02*
X14113873Y-10763150D01*
X14113873Y-10763150D02*
X14132920Y-10772674D01*
X14209111Y-10972674D02*
X14218634Y-10963150D01*
X14218634Y-10963150D02*
X14237682Y-10934579D01*
X14237682Y-10934579D02*
X14247206Y-10915531D01*
X14247206Y-10915531D02*
X14256730Y-10886960D01*
X14256730Y-10886960D02*
X14266253Y-10839341D01*
X14266253Y-10839341D02*
X14266253Y-10801246D01*
X14266253Y-10801246D02*
X14256730Y-10753627D01*
X14256730Y-10753627D02*
X14247206Y-10725055D01*
X14247206Y-10725055D02*
X14237682Y-10706008D01*
X14237682Y-10706008D02*
X14218634Y-10677436D01*
X14218634Y-10677436D02*
X14209111Y-10667912D01*
M02*
