%TF.GenerationSoftware,KiCad,Pcbnew,7.0.5-0*%
%TF.CreationDate,2023-09-25T22:44:35+01:00*%
%TF.ProjectId,INCLINOMETER_BOARD,494e434c-494e-44f4-9d45-5445525f424f,rev?*%
%TF.SameCoordinates,Original*%
%TF.FileFunction,Drillmap*%
%TF.FilePolarity,Positive*%
%FSLAX45Y45*%
G04 Gerber Fmt 4.5, Leading zero omitted, Abs format (unit mm)*
G04 Created by KiCad (PCBNEW 7.0.5-0) date 2023-09-25 22:44:35*
%MOMM*%
%LPD*%
G01*
G04 APERTURE LIST*
%ADD10C,0.100000*%
%ADD11C,0.200000*%
%ADD12C,0.030000*%
%ADD13C,0.035000*%
%ADD14C,0.050000*%
%ADD15C,0.160000*%
%ADD16C,0.320000*%
G04 APERTURE END LIST*
D10*
X22415500Y-7874000D02*
G75*
G03*
X22860000Y-7429500I0J444500D01*
G01*
X22860000Y-7429500D02*
X22860000Y-7429500D01*
X22415500Y-7874000D02*
X22193250Y-7874000D01*
X8064500Y-9271000D02*
X8286750Y-9271000D01*
X7620000Y-9715500D02*
G75*
G03*
X8064500Y-10160000I444500J0D01*
G01*
X8286750Y-7874000D02*
X8064500Y-7874000D01*
X8064500Y-6985000D02*
G75*
G03*
X7620000Y-7429500I0J-444500D01*
G01*
X21971000Y-9048750D02*
G75*
G03*
X22193250Y-9271000I222250J0D01*
G01*
X22193250Y-9271000D02*
X22415500Y-9271000D01*
X7620000Y-7429500D02*
G75*
G03*
X8064500Y-7874000I444500J0D01*
G01*
X8509000Y-8096250D02*
X8509000Y-9048750D01*
X22415500Y-10160000D02*
G75*
G03*
X22860000Y-9715500I0J444500D01*
G01*
X7620000Y-9715500D02*
X7620000Y-9715500D01*
X8064500Y-9271000D02*
G75*
G03*
X7620000Y-9715500I0J-444500D01*
G01*
X22860000Y-9715500D02*
G75*
G03*
X22415500Y-9271000I-444500J0D01*
G01*
X8509000Y-8096250D02*
G75*
G03*
X8286750Y-7874000I-222250J0D01*
G01*
X8064500Y-6985000D02*
X22415500Y-6985000D01*
X21971000Y-8096250D02*
X21971000Y-9048750D01*
X22860000Y-9715500D02*
X22860000Y-9715500D01*
X7620000Y-7429500D02*
X7620000Y-7429500D01*
X22860000Y-7429500D02*
G75*
G03*
X22415500Y-6985000I-444500J0D01*
G01*
X22415500Y-10160000D02*
X8064500Y-10160000D01*
X8286750Y-9271000D02*
G75*
G03*
X8509000Y-9048750I0J222250D01*
G01*
X22193250Y-7874000D02*
G75*
G03*
X21971000Y-8096250I0J-222250D01*
G01*
D11*
D12*
X10884000Y-8782000D02*
X10914000Y-8812000D01*
X10914000Y-8782000D02*
X10884000Y-8812000D01*
X12941400Y-8845500D02*
X12971400Y-8875500D01*
X12971400Y-8845500D02*
X12941400Y-8875500D01*
X12992200Y-8909000D02*
X13022200Y-8939000D01*
X13022200Y-8909000D02*
X12992200Y-8939000D01*
X13424000Y-8782000D02*
X13454000Y-8812000D01*
X13454000Y-8782000D02*
X13424000Y-8812000D01*
X15202000Y-8782000D02*
X15232000Y-8812000D01*
X15232000Y-8782000D02*
X15202000Y-8812000D01*
X15583000Y-8782000D02*
X15613000Y-8812000D01*
X15613000Y-8782000D02*
X15583000Y-8812000D01*
X17361000Y-8782000D02*
X17391000Y-8812000D01*
X17391000Y-8782000D02*
X17361000Y-8812000D01*
X17742000Y-8782000D02*
X17772000Y-8812000D01*
X17772000Y-8782000D02*
X17742000Y-8812000D01*
X17869000Y-8845500D02*
X17899000Y-8875500D01*
X17899000Y-8845500D02*
X17869000Y-8875500D01*
X18977850Y-9832500D02*
X19007850Y-9862500D01*
X19007850Y-9832500D02*
X18977850Y-9862500D01*
X19098500Y-9383000D02*
X19128500Y-9413000D01*
X19128500Y-9383000D02*
X19098500Y-9413000D01*
X19733500Y-7922500D02*
X19763500Y-7952500D01*
X19763500Y-7922500D02*
X19733500Y-7952500D01*
X20368500Y-8777500D02*
X20398500Y-8807500D01*
X20398500Y-8777500D02*
X20368500Y-8807500D01*
X20559000Y-7351000D02*
X20589000Y-7381000D01*
X20589000Y-7351000D02*
X20559000Y-7381000D01*
X20762200Y-9446500D02*
X20792200Y-9476500D01*
X20792200Y-9446500D02*
X20762200Y-9476500D01*
D13*
X8844000Y-9398000D02*
G75*
G03*
X8844000Y-9398000I-17500J0D01*
G01*
X8950680Y-7493000D02*
G75*
G03*
X8950680Y-7493000I-17500J0D01*
G01*
X8950680Y-7556500D02*
G75*
G03*
X8950680Y-7556500I-17500J0D01*
G01*
X8950680Y-7620000D02*
G75*
G03*
X8950680Y-7620000I-17500J0D01*
G01*
X8950680Y-8001000D02*
G75*
G03*
X8950680Y-8001000I-17500J0D01*
G01*
X9014180Y-8001000D02*
G75*
G03*
X9014180Y-8001000I-17500J0D01*
G01*
X9077680Y-8001000D02*
G75*
G03*
X9077680Y-8001000I-17500J0D01*
G01*
X9098000Y-9461500D02*
G75*
G03*
X9098000Y-9461500I-17500J0D01*
G01*
X9129750Y-7620000D02*
G75*
G03*
X9129750Y-7620000I-17500J0D01*
G01*
X9193250Y-7620000D02*
G75*
G03*
X9193250Y-7620000I-17500J0D01*
G01*
X9352000Y-9461500D02*
G75*
G03*
X9352000Y-9461500I-17500J0D01*
G01*
X9415500Y-7346950D02*
G75*
G03*
X9415500Y-7346950I-17500J0D01*
G01*
X9479000Y-7346950D02*
G75*
G03*
X9479000Y-7346950I-17500J0D01*
G01*
X9542500Y-7346950D02*
G75*
G03*
X9542500Y-7346950I-17500J0D01*
G01*
X9606000Y-9398000D02*
G75*
G03*
X9606000Y-9398000I-17500J0D01*
G01*
X11632000Y-9207500D02*
G75*
G03*
X11632000Y-9207500I-17500J0D01*
G01*
X11782000Y-8699500D02*
G75*
G03*
X11782000Y-8699500I-17500J0D01*
G01*
X11828500Y-7527000D02*
G75*
G03*
X11828500Y-7527000I-17500J0D01*
G01*
X11828500Y-7781000D02*
G75*
G03*
X11828500Y-7781000I-17500J0D01*
G01*
X13491000Y-9652000D02*
G75*
G03*
X13491000Y-9652000I-17500J0D01*
G01*
X13791000Y-9207500D02*
G75*
G03*
X13791000Y-9207500I-17500J0D01*
G01*
X13941000Y-9207500D02*
G75*
G03*
X13941000Y-9207500I-17500J0D01*
G01*
X13987500Y-7527000D02*
G75*
G03*
X13987500Y-7527000I-17500J0D01*
G01*
X13987500Y-7781000D02*
G75*
G03*
X13987500Y-7781000I-17500J0D01*
G01*
X15650000Y-9652000D02*
G75*
G03*
X15650000Y-9652000I-17500J0D01*
G01*
X15950000Y-9207500D02*
G75*
G03*
X15950000Y-9207500I-17500J0D01*
G01*
X16100000Y-9207500D02*
G75*
G03*
X16100000Y-9207500I-17500J0D01*
G01*
X16146500Y-7527000D02*
G75*
G03*
X16146500Y-7527000I-17500J0D01*
G01*
X16146500Y-7781000D02*
G75*
G03*
X16146500Y-7781000I-17500J0D01*
G01*
X17809000Y-9652000D02*
G75*
G03*
X17809000Y-9652000I-17500J0D01*
G01*
X18109000Y-9207500D02*
G75*
G03*
X18109000Y-9207500I-17500J0D01*
G01*
X18259000Y-9207500D02*
G75*
G03*
X18259000Y-9207500I-17500J0D01*
G01*
X18305500Y-7527000D02*
G75*
G03*
X18305500Y-7527000I-17500J0D01*
G01*
X18305500Y-7781000D02*
G75*
G03*
X18305500Y-7781000I-17500J0D01*
G01*
X19500500Y-8153400D02*
G75*
G03*
X19500500Y-8153400I-17500J0D01*
G01*
X19512000Y-8462500D02*
G75*
G03*
X19512000Y-8462500I-17500J0D01*
G01*
X19512000Y-8682500D02*
G75*
G03*
X19512000Y-8682500I-17500J0D01*
G01*
X19512000Y-8902500D02*
G75*
G03*
X19512000Y-8902500I-17500J0D01*
G01*
X19512000Y-9642500D02*
G75*
G03*
X19512000Y-9642500I-17500J0D01*
G01*
X19512000Y-9862500D02*
G75*
G03*
X19512000Y-9862500I-17500J0D01*
G01*
X19689800Y-8462500D02*
G75*
G03*
X19689800Y-8462500I-17500J0D01*
G01*
X19689800Y-8682500D02*
G75*
G03*
X19689800Y-8682500I-17500J0D01*
G01*
X19689800Y-8902500D02*
G75*
G03*
X19689800Y-8902500I-17500J0D01*
G01*
X19689800Y-9202500D02*
G75*
G03*
X19689800Y-9202500I-17500J0D01*
G01*
X19689800Y-9422500D02*
G75*
G03*
X19689800Y-9422500I-17500J0D01*
G01*
X19689800Y-9642500D02*
G75*
G03*
X19689800Y-9642500I-17500J0D01*
G01*
X19689800Y-9862500D02*
G75*
G03*
X19689800Y-9862500I-17500J0D01*
G01*
X19867600Y-8462500D02*
G75*
G03*
X19867600Y-8462500I-17500J0D01*
G01*
X19867600Y-8682500D02*
G75*
G03*
X19867600Y-8682500I-17500J0D01*
G01*
X19867600Y-8902500D02*
G75*
G03*
X19867600Y-8902500I-17500J0D01*
G01*
X19867600Y-9202500D02*
G75*
G03*
X19867600Y-9202500I-17500J0D01*
G01*
X19867600Y-9422500D02*
G75*
G03*
X19867600Y-9422500I-17500J0D01*
G01*
X19867600Y-9642500D02*
G75*
G03*
X19867600Y-9642500I-17500J0D01*
G01*
X19867600Y-9862500D02*
G75*
G03*
X19867600Y-9862500I-17500J0D01*
G01*
X20045400Y-8462500D02*
G75*
G03*
X20045400Y-8462500I-17500J0D01*
G01*
X20045400Y-8682500D02*
G75*
G03*
X20045400Y-8682500I-17500J0D01*
G01*
X20045400Y-8902500D02*
G75*
G03*
X20045400Y-8902500I-17500J0D01*
G01*
X20045400Y-9202500D02*
G75*
G03*
X20045400Y-9202500I-17500J0D01*
G01*
X20045400Y-9422500D02*
G75*
G03*
X20045400Y-9422500I-17500J0D01*
G01*
X20045400Y-9642500D02*
G75*
G03*
X20045400Y-9642500I-17500J0D01*
G01*
X20045400Y-9862500D02*
G75*
G03*
X20045400Y-9862500I-17500J0D01*
G01*
X20223200Y-8462500D02*
G75*
G03*
X20223200Y-8462500I-17500J0D01*
G01*
X20223200Y-8682500D02*
G75*
G03*
X20223200Y-8682500I-17500J0D01*
G01*
X20223200Y-8902500D02*
G75*
G03*
X20223200Y-8902500I-17500J0D01*
G01*
X20223200Y-9202500D02*
G75*
G03*
X20223200Y-9202500I-17500J0D01*
G01*
X20223200Y-9422500D02*
G75*
G03*
X20223200Y-9422500I-17500J0D01*
G01*
X20223200Y-9642500D02*
G75*
G03*
X20223200Y-9642500I-17500J0D01*
G01*
X20223200Y-9862500D02*
G75*
G03*
X20223200Y-9862500I-17500J0D01*
G01*
X20337500Y-7175500D02*
G75*
G03*
X20337500Y-7175500I-17500J0D01*
G01*
X20401000Y-8462500D02*
G75*
G03*
X20401000Y-8462500I-17500J0D01*
G01*
X20401000Y-8572500D02*
G75*
G03*
X20401000Y-8572500I-17500J0D01*
G01*
X20401000Y-8682500D02*
G75*
G03*
X20401000Y-8682500I-17500J0D01*
G01*
X20401000Y-8902500D02*
G75*
G03*
X20401000Y-8902500I-17500J0D01*
G01*
X20401000Y-9202500D02*
G75*
G03*
X20401000Y-9202500I-17500J0D01*
G01*
X20401000Y-9422500D02*
G75*
G03*
X20401000Y-9422500I-17500J0D01*
G01*
X20401000Y-9642500D02*
G75*
G03*
X20401000Y-9642500I-17500J0D01*
G01*
X20401000Y-9862500D02*
G75*
G03*
X20401000Y-9862500I-17500J0D01*
G01*
X20718500Y-8470900D02*
G75*
G03*
X20718500Y-8470900I-17500J0D01*
G01*
X20845500Y-8470900D02*
G75*
G03*
X20845500Y-8470900I-17500J0D01*
G01*
X20972500Y-8470900D02*
G75*
G03*
X20972500Y-8470900I-17500J0D01*
G01*
X20972500Y-8674100D02*
G75*
G03*
X20972500Y-8674100I-17500J0D01*
G01*
X21099500Y-8470900D02*
G75*
G03*
X21099500Y-8470900I-17500J0D01*
G01*
X21099500Y-8674100D02*
G75*
G03*
X21099500Y-8674100I-17500J0D01*
G01*
X21226500Y-8470900D02*
G75*
G03*
X21226500Y-8470900I-17500J0D01*
G01*
X21226500Y-8674100D02*
G75*
G03*
X21226500Y-8674100I-17500J0D01*
G01*
X21353500Y-8470900D02*
G75*
G03*
X21353500Y-8470900I-17500J0D01*
G01*
X21353500Y-8674100D02*
G75*
G03*
X21353500Y-8674100I-17500J0D01*
G01*
X21480500Y-8470900D02*
G75*
G03*
X21480500Y-8470900I-17500J0D01*
G01*
X21480500Y-8674100D02*
G75*
G03*
X21480500Y-8674100I-17500J0D01*
G01*
X21607500Y-8470900D02*
G75*
G03*
X21607500Y-8470900I-17500J0D01*
G01*
X21607500Y-8674100D02*
G75*
G03*
X21607500Y-8674100I-17500J0D01*
G01*
D14*
X7824500Y-7404500D02*
X7824500Y-7454500D01*
X7799500Y-7429500D02*
X7849500Y-7429500D01*
X7824500Y-9690500D02*
X7824500Y-9740500D01*
X7799500Y-9715500D02*
X7849500Y-9715500D01*
X7894794Y-7234794D02*
X7894794Y-7284794D01*
X7869794Y-7259794D02*
X7919794Y-7259794D01*
X7894794Y-7574206D02*
X7894794Y-7624206D01*
X7869794Y-7599206D02*
X7919794Y-7599206D01*
X7894794Y-9520794D02*
X7894794Y-9570794D01*
X7869794Y-9545794D02*
X7919794Y-9545794D01*
X7894794Y-9860206D02*
X7894794Y-9910206D01*
X7869794Y-9885206D02*
X7919794Y-9885206D01*
X8064500Y-7164500D02*
X8064500Y-7214500D01*
X8039500Y-7189500D02*
X8089500Y-7189500D01*
X8064500Y-7644500D02*
X8064500Y-7694500D01*
X8039500Y-7669500D02*
X8089500Y-7669500D01*
X8064500Y-9450500D02*
X8064500Y-9500500D01*
X8039500Y-9475500D02*
X8089500Y-9475500D01*
X8064500Y-9930500D02*
X8064500Y-9980500D01*
X8039500Y-9955500D02*
X8089500Y-9955500D01*
X8234206Y-7234794D02*
X8234206Y-7284794D01*
X8209206Y-7259794D02*
X8259206Y-7259794D01*
X8234206Y-7574206D02*
X8234206Y-7624206D01*
X8209206Y-7599206D02*
X8259206Y-7599206D01*
X8234206Y-9520794D02*
X8234206Y-9570794D01*
X8209206Y-9545794D02*
X8259206Y-9545794D01*
X8234206Y-9860206D02*
X8234206Y-9910206D01*
X8209206Y-9885206D02*
X8259206Y-9885206D01*
X8304500Y-7404500D02*
X8304500Y-7454500D01*
X8279500Y-7429500D02*
X8329500Y-7429500D01*
X8304500Y-9690500D02*
X8304500Y-9740500D01*
X8279500Y-9715500D02*
X8329500Y-9715500D01*
X22175500Y-7404500D02*
X22175500Y-7454500D01*
X22150500Y-7429500D02*
X22200500Y-7429500D01*
X22175500Y-9690500D02*
X22175500Y-9740500D01*
X22150500Y-9715500D02*
X22200500Y-9715500D01*
X22245794Y-7234794D02*
X22245794Y-7284794D01*
X22220794Y-7259794D02*
X22270794Y-7259794D01*
X22245794Y-7574206D02*
X22245794Y-7624206D01*
X22220794Y-7599206D02*
X22270794Y-7599206D01*
X22245794Y-9520794D02*
X22245794Y-9570794D01*
X22220794Y-9545794D02*
X22270794Y-9545794D01*
X22245794Y-9860206D02*
X22245794Y-9910206D01*
X22220794Y-9885206D02*
X22270794Y-9885206D01*
X22415500Y-7164500D02*
X22415500Y-7214500D01*
X22390500Y-7189500D02*
X22440500Y-7189500D01*
X22415500Y-7644500D02*
X22415500Y-7694500D01*
X22390500Y-7669500D02*
X22440500Y-7669500D01*
X22415500Y-9450500D02*
X22415500Y-9500500D01*
X22390500Y-9475500D02*
X22440500Y-9475500D01*
X22415500Y-9930500D02*
X22415500Y-9980500D01*
X22390500Y-9955500D02*
X22440500Y-9955500D01*
X22585206Y-7234794D02*
X22585206Y-7284794D01*
X22560206Y-7259794D02*
X22610206Y-7259794D01*
X22585206Y-7574206D02*
X22585206Y-7624206D01*
X22560206Y-7599206D02*
X22610206Y-7599206D01*
X22585206Y-9520794D02*
X22585206Y-9570794D01*
X22560206Y-9545794D02*
X22610206Y-9545794D01*
X22585206Y-9860206D02*
X22585206Y-9910206D01*
X22560206Y-9885206D02*
X22610206Y-9885206D01*
X22655500Y-7404500D02*
X22655500Y-7454500D01*
X22630500Y-7429500D02*
X22680500Y-7429500D01*
X22655500Y-9690500D02*
X22655500Y-9740500D01*
X22630500Y-9715500D02*
X22680500Y-9715500D01*
D10*
X9242856Y-8307856D02*
X9242856Y-8237144D01*
X9172144Y-8237144D01*
X9172144Y-8307856D01*
X9242856Y-8307856D01*
X9242856Y-8607856D02*
X9242856Y-8537144D01*
X9172144Y-8537144D01*
X9172144Y-8607856D01*
X9242856Y-8607856D01*
X9242856Y-8907856D02*
X9242856Y-8837144D01*
X9172144Y-8837144D01*
X9172144Y-8907856D01*
X9242856Y-8907856D01*
D15*
X21241000Y-8352500D02*
X21321000Y-8272500D01*
X21241000Y-8192500D01*
X21161000Y-8272500D01*
X21241000Y-8352500D01*
X21241000Y-8952500D02*
X21321000Y-8872500D01*
X21241000Y-8792500D01*
X21161000Y-8872500D01*
X21241000Y-8952500D01*
X21741000Y-8352500D02*
X21821000Y-8272500D01*
X21741000Y-8192500D01*
X21661000Y-8272500D01*
X21741000Y-8352500D01*
X21741000Y-8952500D02*
X21821000Y-8872500D01*
X21741000Y-8792500D01*
X21661000Y-8872500D01*
X21741000Y-8952500D01*
D16*
X7904500Y-7269500D02*
X8224500Y-7589500D01*
X8224500Y-7269500D02*
X7904500Y-7589500D01*
X8224500Y-7429500D02*
G75*
G03*
X8224500Y-7429500I-160000J0D01*
G01*
X7904500Y-9555500D02*
X8224500Y-9875500D01*
X8224500Y-9555500D02*
X7904500Y-9875500D01*
X8224500Y-9715500D02*
G75*
G03*
X8224500Y-9715500I-160000J0D01*
G01*
X22255500Y-7269500D02*
X22575500Y-7589500D01*
X22575500Y-7269500D02*
X22255500Y-7589500D01*
X22575500Y-7429500D02*
G75*
G03*
X22575500Y-7429500I-160000J0D01*
G01*
X22255500Y-9555500D02*
X22575500Y-9875500D01*
X22575500Y-9555500D02*
X22255500Y-9875500D01*
X22575500Y-9715500D02*
G75*
G03*
X22575500Y-9715500I-160000J0D01*
G01*
D11*
X7875777Y-10476484D02*
X7875777Y-10276484D01*
X7875777Y-10276484D02*
X7923396Y-10276484D01*
X7923396Y-10276484D02*
X7951967Y-10286008D01*
X7951967Y-10286008D02*
X7971015Y-10305055D01*
X7971015Y-10305055D02*
X7980539Y-10324103D01*
X7980539Y-10324103D02*
X7990062Y-10362198D01*
X7990062Y-10362198D02*
X7990062Y-10390770D01*
X7990062Y-10390770D02*
X7980539Y-10428865D01*
X7980539Y-10428865D02*
X7971015Y-10447912D01*
X7971015Y-10447912D02*
X7951967Y-10466960D01*
X7951967Y-10466960D02*
X7923396Y-10476484D01*
X7923396Y-10476484D02*
X7875777Y-10476484D01*
X8075777Y-10476484D02*
X8075777Y-10343150D01*
X8075777Y-10381246D02*
X8085301Y-10362198D01*
X8085301Y-10362198D02*
X8094824Y-10352674D01*
X8094824Y-10352674D02*
X8113872Y-10343150D01*
X8113872Y-10343150D02*
X8132920Y-10343150D01*
X8199586Y-10476484D02*
X8199586Y-10343150D01*
X8199586Y-10276484D02*
X8190062Y-10286008D01*
X8190062Y-10286008D02*
X8199586Y-10295531D01*
X8199586Y-10295531D02*
X8209110Y-10286008D01*
X8209110Y-10286008D02*
X8199586Y-10276484D01*
X8199586Y-10276484D02*
X8199586Y-10295531D01*
X8323396Y-10476484D02*
X8304348Y-10466960D01*
X8304348Y-10466960D02*
X8294824Y-10447912D01*
X8294824Y-10447912D02*
X8294824Y-10276484D01*
X8428158Y-10476484D02*
X8409110Y-10466960D01*
X8409110Y-10466960D02*
X8399586Y-10447912D01*
X8399586Y-10447912D02*
X8399586Y-10276484D01*
X8656729Y-10476484D02*
X8656729Y-10276484D01*
X8656729Y-10276484D02*
X8723396Y-10419341D01*
X8723396Y-10419341D02*
X8790063Y-10276484D01*
X8790063Y-10276484D02*
X8790063Y-10476484D01*
X8971015Y-10476484D02*
X8971015Y-10371722D01*
X8971015Y-10371722D02*
X8961491Y-10352674D01*
X8961491Y-10352674D02*
X8942444Y-10343150D01*
X8942444Y-10343150D02*
X8904348Y-10343150D01*
X8904348Y-10343150D02*
X8885301Y-10352674D01*
X8971015Y-10466960D02*
X8951967Y-10476484D01*
X8951967Y-10476484D02*
X8904348Y-10476484D01*
X8904348Y-10476484D02*
X8885301Y-10466960D01*
X8885301Y-10466960D02*
X8875777Y-10447912D01*
X8875777Y-10447912D02*
X8875777Y-10428865D01*
X8875777Y-10428865D02*
X8885301Y-10409817D01*
X8885301Y-10409817D02*
X8904348Y-10400293D01*
X8904348Y-10400293D02*
X8951967Y-10400293D01*
X8951967Y-10400293D02*
X8971015Y-10390770D01*
X9066253Y-10343150D02*
X9066253Y-10543150D01*
X9066253Y-10352674D02*
X9085301Y-10343150D01*
X9085301Y-10343150D02*
X9123396Y-10343150D01*
X9123396Y-10343150D02*
X9142444Y-10352674D01*
X9142444Y-10352674D02*
X9151967Y-10362198D01*
X9151967Y-10362198D02*
X9161491Y-10381246D01*
X9161491Y-10381246D02*
X9161491Y-10438389D01*
X9161491Y-10438389D02*
X9151967Y-10457436D01*
X9151967Y-10457436D02*
X9142444Y-10466960D01*
X9142444Y-10466960D02*
X9123396Y-10476484D01*
X9123396Y-10476484D02*
X9085301Y-10476484D01*
X9085301Y-10476484D02*
X9066253Y-10466960D01*
X9247205Y-10457436D02*
X9256729Y-10466960D01*
X9256729Y-10466960D02*
X9247205Y-10476484D01*
X9247205Y-10476484D02*
X9237682Y-10466960D01*
X9237682Y-10466960D02*
X9247205Y-10457436D01*
X9247205Y-10457436D02*
X9247205Y-10476484D01*
X9247205Y-10352674D02*
X9256729Y-10362198D01*
X9256729Y-10362198D02*
X9247205Y-10371722D01*
X9247205Y-10371722D02*
X9237682Y-10362198D01*
X9237682Y-10362198D02*
X9247205Y-10352674D01*
X9247205Y-10352674D02*
X9247205Y-10371722D01*
D12*
X7585000Y-10790000D02*
X7615000Y-10820000D01*
X7615000Y-10790000D02*
X7585000Y-10820000D01*
D11*
X7913872Y-10696484D02*
X7932920Y-10696484D01*
X7932920Y-10696484D02*
X7951967Y-10706008D01*
X7951967Y-10706008D02*
X7961491Y-10715531D01*
X7961491Y-10715531D02*
X7971015Y-10734579D01*
X7971015Y-10734579D02*
X7980539Y-10772674D01*
X7980539Y-10772674D02*
X7980539Y-10820293D01*
X7980539Y-10820293D02*
X7971015Y-10858389D01*
X7971015Y-10858389D02*
X7961491Y-10877436D01*
X7961491Y-10877436D02*
X7951967Y-10886960D01*
X7951967Y-10886960D02*
X7932920Y-10896484D01*
X7932920Y-10896484D02*
X7913872Y-10896484D01*
X7913872Y-10896484D02*
X7894824Y-10886960D01*
X7894824Y-10886960D02*
X7885301Y-10877436D01*
X7885301Y-10877436D02*
X7875777Y-10858389D01*
X7875777Y-10858389D02*
X7866253Y-10820293D01*
X7866253Y-10820293D02*
X7866253Y-10772674D01*
X7866253Y-10772674D02*
X7875777Y-10734579D01*
X7875777Y-10734579D02*
X7885301Y-10715531D01*
X7885301Y-10715531D02*
X7894824Y-10706008D01*
X7894824Y-10706008D02*
X7913872Y-10696484D01*
X8066253Y-10877436D02*
X8075777Y-10886960D01*
X8075777Y-10886960D02*
X8066253Y-10896484D01*
X8066253Y-10896484D02*
X8056729Y-10886960D01*
X8056729Y-10886960D02*
X8066253Y-10877436D01*
X8066253Y-10877436D02*
X8066253Y-10896484D01*
X8142443Y-10696484D02*
X8266253Y-10696484D01*
X8266253Y-10696484D02*
X8199586Y-10772674D01*
X8199586Y-10772674D02*
X8228158Y-10772674D01*
X8228158Y-10772674D02*
X8247205Y-10782198D01*
X8247205Y-10782198D02*
X8256729Y-10791722D01*
X8256729Y-10791722D02*
X8266253Y-10810770D01*
X8266253Y-10810770D02*
X8266253Y-10858389D01*
X8266253Y-10858389D02*
X8256729Y-10877436D01*
X8256729Y-10877436D02*
X8247205Y-10886960D01*
X8247205Y-10886960D02*
X8228158Y-10896484D01*
X8228158Y-10896484D02*
X8171015Y-10896484D01*
X8171015Y-10896484D02*
X8151967Y-10886960D01*
X8151967Y-10886960D02*
X8142443Y-10877436D01*
X8390063Y-10696484D02*
X8409110Y-10696484D01*
X8409110Y-10696484D02*
X8428158Y-10706008D01*
X8428158Y-10706008D02*
X8437682Y-10715531D01*
X8437682Y-10715531D02*
X8447205Y-10734579D01*
X8447205Y-10734579D02*
X8456729Y-10772674D01*
X8456729Y-10772674D02*
X8456729Y-10820293D01*
X8456729Y-10820293D02*
X8447205Y-10858389D01*
X8447205Y-10858389D02*
X8437682Y-10877436D01*
X8437682Y-10877436D02*
X8428158Y-10886960D01*
X8428158Y-10886960D02*
X8409110Y-10896484D01*
X8409110Y-10896484D02*
X8390063Y-10896484D01*
X8390063Y-10896484D02*
X8371015Y-10886960D01*
X8371015Y-10886960D02*
X8361491Y-10877436D01*
X8361491Y-10877436D02*
X8351967Y-10858389D01*
X8351967Y-10858389D02*
X8342443Y-10820293D01*
X8342443Y-10820293D02*
X8342443Y-10772674D01*
X8342443Y-10772674D02*
X8351967Y-10734579D01*
X8351967Y-10734579D02*
X8361491Y-10715531D01*
X8361491Y-10715531D02*
X8371015Y-10706008D01*
X8371015Y-10706008D02*
X8390063Y-10696484D01*
X8580539Y-10696484D02*
X8599586Y-10696484D01*
X8599586Y-10696484D02*
X8618634Y-10706008D01*
X8618634Y-10706008D02*
X8628158Y-10715531D01*
X8628158Y-10715531D02*
X8637682Y-10734579D01*
X8637682Y-10734579D02*
X8647205Y-10772674D01*
X8647205Y-10772674D02*
X8647205Y-10820293D01*
X8647205Y-10820293D02*
X8637682Y-10858389D01*
X8637682Y-10858389D02*
X8628158Y-10877436D01*
X8628158Y-10877436D02*
X8618634Y-10886960D01*
X8618634Y-10886960D02*
X8599586Y-10896484D01*
X8599586Y-10896484D02*
X8580539Y-10896484D01*
X8580539Y-10896484D02*
X8561491Y-10886960D01*
X8561491Y-10886960D02*
X8551967Y-10877436D01*
X8551967Y-10877436D02*
X8542444Y-10858389D01*
X8542444Y-10858389D02*
X8532920Y-10820293D01*
X8532920Y-10820293D02*
X8532920Y-10772674D01*
X8532920Y-10772674D02*
X8542444Y-10734579D01*
X8542444Y-10734579D02*
X8551967Y-10715531D01*
X8551967Y-10715531D02*
X8561491Y-10706008D01*
X8561491Y-10706008D02*
X8580539Y-10696484D01*
X8732920Y-10896484D02*
X8732920Y-10763150D01*
X8732920Y-10782198D02*
X8742444Y-10772674D01*
X8742444Y-10772674D02*
X8761491Y-10763150D01*
X8761491Y-10763150D02*
X8790063Y-10763150D01*
X8790063Y-10763150D02*
X8809110Y-10772674D01*
X8809110Y-10772674D02*
X8818634Y-10791722D01*
X8818634Y-10791722D02*
X8818634Y-10896484D01*
X8818634Y-10791722D02*
X8828158Y-10772674D01*
X8828158Y-10772674D02*
X8847205Y-10763150D01*
X8847205Y-10763150D02*
X8875777Y-10763150D01*
X8875777Y-10763150D02*
X8894825Y-10772674D01*
X8894825Y-10772674D02*
X8904348Y-10791722D01*
X8904348Y-10791722D02*
X8904348Y-10896484D01*
X8999586Y-10896484D02*
X8999586Y-10763150D01*
X8999586Y-10782198D02*
X9009110Y-10772674D01*
X9009110Y-10772674D02*
X9028158Y-10763150D01*
X9028158Y-10763150D02*
X9056729Y-10763150D01*
X9056729Y-10763150D02*
X9075777Y-10772674D01*
X9075777Y-10772674D02*
X9085301Y-10791722D01*
X9085301Y-10791722D02*
X9085301Y-10896484D01*
X9085301Y-10791722D02*
X9094825Y-10772674D01*
X9094825Y-10772674D02*
X9113872Y-10763150D01*
X9113872Y-10763150D02*
X9142444Y-10763150D01*
X9142444Y-10763150D02*
X9161491Y-10772674D01*
X9161491Y-10772674D02*
X9171015Y-10791722D01*
X9171015Y-10791722D02*
X9171015Y-10896484D01*
X9561491Y-10686960D02*
X9390063Y-10944103D01*
X9818634Y-10696484D02*
X9837682Y-10696484D01*
X9837682Y-10696484D02*
X9856729Y-10706008D01*
X9856729Y-10706008D02*
X9866253Y-10715531D01*
X9866253Y-10715531D02*
X9875777Y-10734579D01*
X9875777Y-10734579D02*
X9885301Y-10772674D01*
X9885301Y-10772674D02*
X9885301Y-10820293D01*
X9885301Y-10820293D02*
X9875777Y-10858389D01*
X9875777Y-10858389D02*
X9866253Y-10877436D01*
X9866253Y-10877436D02*
X9856729Y-10886960D01*
X9856729Y-10886960D02*
X9837682Y-10896484D01*
X9837682Y-10896484D02*
X9818634Y-10896484D01*
X9818634Y-10896484D02*
X9799587Y-10886960D01*
X9799587Y-10886960D02*
X9790063Y-10877436D01*
X9790063Y-10877436D02*
X9780539Y-10858389D01*
X9780539Y-10858389D02*
X9771015Y-10820293D01*
X9771015Y-10820293D02*
X9771015Y-10772674D01*
X9771015Y-10772674D02*
X9780539Y-10734579D01*
X9780539Y-10734579D02*
X9790063Y-10715531D01*
X9790063Y-10715531D02*
X9799587Y-10706008D01*
X9799587Y-10706008D02*
X9818634Y-10696484D01*
X9971015Y-10877436D02*
X9980539Y-10886960D01*
X9980539Y-10886960D02*
X9971015Y-10896484D01*
X9971015Y-10896484D02*
X9961491Y-10886960D01*
X9961491Y-10886960D02*
X9971015Y-10877436D01*
X9971015Y-10877436D02*
X9971015Y-10896484D01*
X10104348Y-10696484D02*
X10123396Y-10696484D01*
X10123396Y-10696484D02*
X10142444Y-10706008D01*
X10142444Y-10706008D02*
X10151968Y-10715531D01*
X10151968Y-10715531D02*
X10161491Y-10734579D01*
X10161491Y-10734579D02*
X10171015Y-10772674D01*
X10171015Y-10772674D02*
X10171015Y-10820293D01*
X10171015Y-10820293D02*
X10161491Y-10858389D01*
X10161491Y-10858389D02*
X10151968Y-10877436D01*
X10151968Y-10877436D02*
X10142444Y-10886960D01*
X10142444Y-10886960D02*
X10123396Y-10896484D01*
X10123396Y-10896484D02*
X10104348Y-10896484D01*
X10104348Y-10896484D02*
X10085301Y-10886960D01*
X10085301Y-10886960D02*
X10075777Y-10877436D01*
X10075777Y-10877436D02*
X10066253Y-10858389D01*
X10066253Y-10858389D02*
X10056729Y-10820293D01*
X10056729Y-10820293D02*
X10056729Y-10772674D01*
X10056729Y-10772674D02*
X10066253Y-10734579D01*
X10066253Y-10734579D02*
X10075777Y-10715531D01*
X10075777Y-10715531D02*
X10085301Y-10706008D01*
X10085301Y-10706008D02*
X10104348Y-10696484D01*
X10361491Y-10896484D02*
X10247206Y-10896484D01*
X10304348Y-10896484D02*
X10304348Y-10696484D01*
X10304348Y-10696484D02*
X10285301Y-10725055D01*
X10285301Y-10725055D02*
X10266253Y-10744103D01*
X10266253Y-10744103D02*
X10247206Y-10753627D01*
X10551968Y-10896484D02*
X10437682Y-10896484D01*
X10494825Y-10896484D02*
X10494825Y-10696484D01*
X10494825Y-10696484D02*
X10475777Y-10725055D01*
X10475777Y-10725055D02*
X10456729Y-10744103D01*
X10456729Y-10744103D02*
X10437682Y-10753627D01*
X10666253Y-10782198D02*
X10647206Y-10772674D01*
X10647206Y-10772674D02*
X10637682Y-10763150D01*
X10637682Y-10763150D02*
X10628158Y-10744103D01*
X10628158Y-10744103D02*
X10628158Y-10734579D01*
X10628158Y-10734579D02*
X10637682Y-10715531D01*
X10637682Y-10715531D02*
X10647206Y-10706008D01*
X10647206Y-10706008D02*
X10666253Y-10696484D01*
X10666253Y-10696484D02*
X10704349Y-10696484D01*
X10704349Y-10696484D02*
X10723396Y-10706008D01*
X10723396Y-10706008D02*
X10732920Y-10715531D01*
X10732920Y-10715531D02*
X10742444Y-10734579D01*
X10742444Y-10734579D02*
X10742444Y-10744103D01*
X10742444Y-10744103D02*
X10732920Y-10763150D01*
X10732920Y-10763150D02*
X10723396Y-10772674D01*
X10723396Y-10772674D02*
X10704349Y-10782198D01*
X10704349Y-10782198D02*
X10666253Y-10782198D01*
X10666253Y-10782198D02*
X10647206Y-10791722D01*
X10647206Y-10791722D02*
X10637682Y-10801246D01*
X10637682Y-10801246D02*
X10628158Y-10820293D01*
X10628158Y-10820293D02*
X10628158Y-10858389D01*
X10628158Y-10858389D02*
X10637682Y-10877436D01*
X10637682Y-10877436D02*
X10647206Y-10886960D01*
X10647206Y-10886960D02*
X10666253Y-10896484D01*
X10666253Y-10896484D02*
X10704349Y-10896484D01*
X10704349Y-10896484D02*
X10723396Y-10886960D01*
X10723396Y-10886960D02*
X10732920Y-10877436D01*
X10732920Y-10877436D02*
X10742444Y-10858389D01*
X10742444Y-10858389D02*
X10742444Y-10820293D01*
X10742444Y-10820293D02*
X10732920Y-10801246D01*
X10732920Y-10801246D02*
X10723396Y-10791722D01*
X10723396Y-10791722D02*
X10704349Y-10782198D01*
X10818634Y-10696484D02*
X10818634Y-10734579D01*
X10894825Y-10696484D02*
X10894825Y-10734579D01*
X11190063Y-10972674D02*
X11180539Y-10963150D01*
X11180539Y-10963150D02*
X11161491Y-10934579D01*
X11161491Y-10934579D02*
X11151968Y-10915531D01*
X11151968Y-10915531D02*
X11142444Y-10886960D01*
X11142444Y-10886960D02*
X11132920Y-10839341D01*
X11132920Y-10839341D02*
X11132920Y-10801246D01*
X11132920Y-10801246D02*
X11142444Y-10753627D01*
X11142444Y-10753627D02*
X11151968Y-10725055D01*
X11151968Y-10725055D02*
X11161491Y-10706008D01*
X11161491Y-10706008D02*
X11180539Y-10677436D01*
X11180539Y-10677436D02*
X11190063Y-10667912D01*
X11371015Y-10896484D02*
X11256729Y-10896484D01*
X11313872Y-10896484D02*
X11313872Y-10696484D01*
X11313872Y-10696484D02*
X11294825Y-10725055D01*
X11294825Y-10725055D02*
X11275777Y-10744103D01*
X11275777Y-10744103D02*
X11256729Y-10753627D01*
X11551968Y-10696484D02*
X11456729Y-10696484D01*
X11456729Y-10696484D02*
X11447206Y-10791722D01*
X11447206Y-10791722D02*
X11456729Y-10782198D01*
X11456729Y-10782198D02*
X11475777Y-10772674D01*
X11475777Y-10772674D02*
X11523396Y-10772674D01*
X11523396Y-10772674D02*
X11542444Y-10782198D01*
X11542444Y-10782198D02*
X11551968Y-10791722D01*
X11551968Y-10791722D02*
X11561491Y-10810770D01*
X11561491Y-10810770D02*
X11561491Y-10858389D01*
X11561491Y-10858389D02*
X11551968Y-10877436D01*
X11551968Y-10877436D02*
X11542444Y-10886960D01*
X11542444Y-10886960D02*
X11523396Y-10896484D01*
X11523396Y-10896484D02*
X11475777Y-10896484D01*
X11475777Y-10896484D02*
X11456729Y-10886960D01*
X11456729Y-10886960D02*
X11447206Y-10877436D01*
X11799587Y-10896484D02*
X11799587Y-10696484D01*
X11885301Y-10896484D02*
X11885301Y-10791722D01*
X11885301Y-10791722D02*
X11875777Y-10772674D01*
X11875777Y-10772674D02*
X11856730Y-10763150D01*
X11856730Y-10763150D02*
X11828158Y-10763150D01*
X11828158Y-10763150D02*
X11809110Y-10772674D01*
X11809110Y-10772674D02*
X11799587Y-10782198D01*
X12009110Y-10896484D02*
X11990063Y-10886960D01*
X11990063Y-10886960D02*
X11980539Y-10877436D01*
X11980539Y-10877436D02*
X11971015Y-10858389D01*
X11971015Y-10858389D02*
X11971015Y-10801246D01*
X11971015Y-10801246D02*
X11980539Y-10782198D01*
X11980539Y-10782198D02*
X11990063Y-10772674D01*
X11990063Y-10772674D02*
X12009110Y-10763150D01*
X12009110Y-10763150D02*
X12037682Y-10763150D01*
X12037682Y-10763150D02*
X12056730Y-10772674D01*
X12056730Y-10772674D02*
X12066253Y-10782198D01*
X12066253Y-10782198D02*
X12075777Y-10801246D01*
X12075777Y-10801246D02*
X12075777Y-10858389D01*
X12075777Y-10858389D02*
X12066253Y-10877436D01*
X12066253Y-10877436D02*
X12056730Y-10886960D01*
X12056730Y-10886960D02*
X12037682Y-10896484D01*
X12037682Y-10896484D02*
X12009110Y-10896484D01*
X12190063Y-10896484D02*
X12171015Y-10886960D01*
X12171015Y-10886960D02*
X12161491Y-10867912D01*
X12161491Y-10867912D02*
X12161491Y-10696484D01*
X12342444Y-10886960D02*
X12323396Y-10896484D01*
X12323396Y-10896484D02*
X12285301Y-10896484D01*
X12285301Y-10896484D02*
X12266253Y-10886960D01*
X12266253Y-10886960D02*
X12256730Y-10867912D01*
X12256730Y-10867912D02*
X12256730Y-10791722D01*
X12256730Y-10791722D02*
X12266253Y-10772674D01*
X12266253Y-10772674D02*
X12285301Y-10763150D01*
X12285301Y-10763150D02*
X12323396Y-10763150D01*
X12323396Y-10763150D02*
X12342444Y-10772674D01*
X12342444Y-10772674D02*
X12351968Y-10791722D01*
X12351968Y-10791722D02*
X12351968Y-10810770D01*
X12351968Y-10810770D02*
X12256730Y-10829817D01*
X12428158Y-10886960D02*
X12447206Y-10896484D01*
X12447206Y-10896484D02*
X12485301Y-10896484D01*
X12485301Y-10896484D02*
X12504349Y-10886960D01*
X12504349Y-10886960D02*
X12513872Y-10867912D01*
X12513872Y-10867912D02*
X12513872Y-10858389D01*
X12513872Y-10858389D02*
X12504349Y-10839341D01*
X12504349Y-10839341D02*
X12485301Y-10829817D01*
X12485301Y-10829817D02*
X12456730Y-10829817D01*
X12456730Y-10829817D02*
X12437682Y-10820293D01*
X12437682Y-10820293D02*
X12428158Y-10801246D01*
X12428158Y-10801246D02*
X12428158Y-10791722D01*
X12428158Y-10791722D02*
X12437682Y-10772674D01*
X12437682Y-10772674D02*
X12456730Y-10763150D01*
X12456730Y-10763150D02*
X12485301Y-10763150D01*
X12485301Y-10763150D02*
X12504349Y-10772674D01*
X12580539Y-10972674D02*
X12590063Y-10963150D01*
X12590063Y-10963150D02*
X12609111Y-10934579D01*
X12609111Y-10934579D02*
X12618634Y-10915531D01*
X12618634Y-10915531D02*
X12628158Y-10886960D01*
X12628158Y-10886960D02*
X12637682Y-10839341D01*
X12637682Y-10839341D02*
X12637682Y-10801246D01*
X12637682Y-10801246D02*
X12628158Y-10753627D01*
X12628158Y-10753627D02*
X12618634Y-10725055D01*
X12618634Y-10725055D02*
X12609111Y-10706008D01*
X12609111Y-10706008D02*
X12590063Y-10677436D01*
X12590063Y-10677436D02*
X12580539Y-10667912D01*
D13*
X7615000Y-11069000D02*
G75*
G03*
X7615000Y-11069000I-17500J0D01*
G01*
D11*
X7913872Y-10960484D02*
X7932920Y-10960484D01*
X7932920Y-10960484D02*
X7951967Y-10970008D01*
X7951967Y-10970008D02*
X7961491Y-10979531D01*
X7961491Y-10979531D02*
X7971015Y-10998579D01*
X7971015Y-10998579D02*
X7980539Y-11036674D01*
X7980539Y-11036674D02*
X7980539Y-11084293D01*
X7980539Y-11084293D02*
X7971015Y-11122389D01*
X7971015Y-11122389D02*
X7961491Y-11141436D01*
X7961491Y-11141436D02*
X7951967Y-11150960D01*
X7951967Y-11150960D02*
X7932920Y-11160484D01*
X7932920Y-11160484D02*
X7913872Y-11160484D01*
X7913872Y-11160484D02*
X7894824Y-11150960D01*
X7894824Y-11150960D02*
X7885301Y-11141436D01*
X7885301Y-11141436D02*
X7875777Y-11122389D01*
X7875777Y-11122389D02*
X7866253Y-11084293D01*
X7866253Y-11084293D02*
X7866253Y-11036674D01*
X7866253Y-11036674D02*
X7875777Y-10998579D01*
X7875777Y-10998579D02*
X7885301Y-10979531D01*
X7885301Y-10979531D02*
X7894824Y-10970008D01*
X7894824Y-10970008D02*
X7913872Y-10960484D01*
X8066253Y-11141436D02*
X8075777Y-11150960D01*
X8075777Y-11150960D02*
X8066253Y-11160484D01*
X8066253Y-11160484D02*
X8056729Y-11150960D01*
X8056729Y-11150960D02*
X8066253Y-11141436D01*
X8066253Y-11141436D02*
X8066253Y-11160484D01*
X8142443Y-10960484D02*
X8266253Y-10960484D01*
X8266253Y-10960484D02*
X8199586Y-11036674D01*
X8199586Y-11036674D02*
X8228158Y-11036674D01*
X8228158Y-11036674D02*
X8247205Y-11046198D01*
X8247205Y-11046198D02*
X8256729Y-11055722D01*
X8256729Y-11055722D02*
X8266253Y-11074770D01*
X8266253Y-11074770D02*
X8266253Y-11122389D01*
X8266253Y-11122389D02*
X8256729Y-11141436D01*
X8256729Y-11141436D02*
X8247205Y-11150960D01*
X8247205Y-11150960D02*
X8228158Y-11160484D01*
X8228158Y-11160484D02*
X8171015Y-11160484D01*
X8171015Y-11160484D02*
X8151967Y-11150960D01*
X8151967Y-11150960D02*
X8142443Y-11141436D01*
X8447205Y-10960484D02*
X8351967Y-10960484D01*
X8351967Y-10960484D02*
X8342443Y-11055722D01*
X8342443Y-11055722D02*
X8351967Y-11046198D01*
X8351967Y-11046198D02*
X8371015Y-11036674D01*
X8371015Y-11036674D02*
X8418634Y-11036674D01*
X8418634Y-11036674D02*
X8437682Y-11046198D01*
X8437682Y-11046198D02*
X8447205Y-11055722D01*
X8447205Y-11055722D02*
X8456729Y-11074770D01*
X8456729Y-11074770D02*
X8456729Y-11122389D01*
X8456729Y-11122389D02*
X8447205Y-11141436D01*
X8447205Y-11141436D02*
X8437682Y-11150960D01*
X8437682Y-11150960D02*
X8418634Y-11160484D01*
X8418634Y-11160484D02*
X8371015Y-11160484D01*
X8371015Y-11160484D02*
X8351967Y-11150960D01*
X8351967Y-11150960D02*
X8342443Y-11141436D01*
X8580539Y-10960484D02*
X8599586Y-10960484D01*
X8599586Y-10960484D02*
X8618634Y-10970008D01*
X8618634Y-10970008D02*
X8628158Y-10979531D01*
X8628158Y-10979531D02*
X8637682Y-10998579D01*
X8637682Y-10998579D02*
X8647205Y-11036674D01*
X8647205Y-11036674D02*
X8647205Y-11084293D01*
X8647205Y-11084293D02*
X8637682Y-11122389D01*
X8637682Y-11122389D02*
X8628158Y-11141436D01*
X8628158Y-11141436D02*
X8618634Y-11150960D01*
X8618634Y-11150960D02*
X8599586Y-11160484D01*
X8599586Y-11160484D02*
X8580539Y-11160484D01*
X8580539Y-11160484D02*
X8561491Y-11150960D01*
X8561491Y-11150960D02*
X8551967Y-11141436D01*
X8551967Y-11141436D02*
X8542444Y-11122389D01*
X8542444Y-11122389D02*
X8532920Y-11084293D01*
X8532920Y-11084293D02*
X8532920Y-11036674D01*
X8532920Y-11036674D02*
X8542444Y-10998579D01*
X8542444Y-10998579D02*
X8551967Y-10979531D01*
X8551967Y-10979531D02*
X8561491Y-10970008D01*
X8561491Y-10970008D02*
X8580539Y-10960484D01*
X8732920Y-11160484D02*
X8732920Y-11027150D01*
X8732920Y-11046198D02*
X8742444Y-11036674D01*
X8742444Y-11036674D02*
X8761491Y-11027150D01*
X8761491Y-11027150D02*
X8790063Y-11027150D01*
X8790063Y-11027150D02*
X8809110Y-11036674D01*
X8809110Y-11036674D02*
X8818634Y-11055722D01*
X8818634Y-11055722D02*
X8818634Y-11160484D01*
X8818634Y-11055722D02*
X8828158Y-11036674D01*
X8828158Y-11036674D02*
X8847205Y-11027150D01*
X8847205Y-11027150D02*
X8875777Y-11027150D01*
X8875777Y-11027150D02*
X8894825Y-11036674D01*
X8894825Y-11036674D02*
X8904348Y-11055722D01*
X8904348Y-11055722D02*
X8904348Y-11160484D01*
X8999586Y-11160484D02*
X8999586Y-11027150D01*
X8999586Y-11046198D02*
X9009110Y-11036674D01*
X9009110Y-11036674D02*
X9028158Y-11027150D01*
X9028158Y-11027150D02*
X9056729Y-11027150D01*
X9056729Y-11027150D02*
X9075777Y-11036674D01*
X9075777Y-11036674D02*
X9085301Y-11055722D01*
X9085301Y-11055722D02*
X9085301Y-11160484D01*
X9085301Y-11055722D02*
X9094825Y-11036674D01*
X9094825Y-11036674D02*
X9113872Y-11027150D01*
X9113872Y-11027150D02*
X9142444Y-11027150D01*
X9142444Y-11027150D02*
X9161491Y-11036674D01*
X9161491Y-11036674D02*
X9171015Y-11055722D01*
X9171015Y-11055722D02*
X9171015Y-11160484D01*
X9561491Y-10950960D02*
X9390063Y-11208103D01*
X9818634Y-10960484D02*
X9837682Y-10960484D01*
X9837682Y-10960484D02*
X9856729Y-10970008D01*
X9856729Y-10970008D02*
X9866253Y-10979531D01*
X9866253Y-10979531D02*
X9875777Y-10998579D01*
X9875777Y-10998579D02*
X9885301Y-11036674D01*
X9885301Y-11036674D02*
X9885301Y-11084293D01*
X9885301Y-11084293D02*
X9875777Y-11122389D01*
X9875777Y-11122389D02*
X9866253Y-11141436D01*
X9866253Y-11141436D02*
X9856729Y-11150960D01*
X9856729Y-11150960D02*
X9837682Y-11160484D01*
X9837682Y-11160484D02*
X9818634Y-11160484D01*
X9818634Y-11160484D02*
X9799587Y-11150960D01*
X9799587Y-11150960D02*
X9790063Y-11141436D01*
X9790063Y-11141436D02*
X9780539Y-11122389D01*
X9780539Y-11122389D02*
X9771015Y-11084293D01*
X9771015Y-11084293D02*
X9771015Y-11036674D01*
X9771015Y-11036674D02*
X9780539Y-10998579D01*
X9780539Y-10998579D02*
X9790063Y-10979531D01*
X9790063Y-10979531D02*
X9799587Y-10970008D01*
X9799587Y-10970008D02*
X9818634Y-10960484D01*
X9971015Y-11141436D02*
X9980539Y-11150960D01*
X9980539Y-11150960D02*
X9971015Y-11160484D01*
X9971015Y-11160484D02*
X9961491Y-11150960D01*
X9961491Y-11150960D02*
X9971015Y-11141436D01*
X9971015Y-11141436D02*
X9971015Y-11160484D01*
X10104348Y-10960484D02*
X10123396Y-10960484D01*
X10123396Y-10960484D02*
X10142444Y-10970008D01*
X10142444Y-10970008D02*
X10151968Y-10979531D01*
X10151968Y-10979531D02*
X10161491Y-10998579D01*
X10161491Y-10998579D02*
X10171015Y-11036674D01*
X10171015Y-11036674D02*
X10171015Y-11084293D01*
X10171015Y-11084293D02*
X10161491Y-11122389D01*
X10161491Y-11122389D02*
X10151968Y-11141436D01*
X10151968Y-11141436D02*
X10142444Y-11150960D01*
X10142444Y-11150960D02*
X10123396Y-11160484D01*
X10123396Y-11160484D02*
X10104348Y-11160484D01*
X10104348Y-11160484D02*
X10085301Y-11150960D01*
X10085301Y-11150960D02*
X10075777Y-11141436D01*
X10075777Y-11141436D02*
X10066253Y-11122389D01*
X10066253Y-11122389D02*
X10056729Y-11084293D01*
X10056729Y-11084293D02*
X10056729Y-11036674D01*
X10056729Y-11036674D02*
X10066253Y-10998579D01*
X10066253Y-10998579D02*
X10075777Y-10979531D01*
X10075777Y-10979531D02*
X10085301Y-10970008D01*
X10085301Y-10970008D02*
X10104348Y-10960484D01*
X10361491Y-11160484D02*
X10247206Y-11160484D01*
X10304348Y-11160484D02*
X10304348Y-10960484D01*
X10304348Y-10960484D02*
X10285301Y-10989055D01*
X10285301Y-10989055D02*
X10266253Y-11008103D01*
X10266253Y-11008103D02*
X10247206Y-11017627D01*
X10428158Y-10960484D02*
X10551968Y-10960484D01*
X10551968Y-10960484D02*
X10485301Y-11036674D01*
X10485301Y-11036674D02*
X10513872Y-11036674D01*
X10513872Y-11036674D02*
X10532920Y-11046198D01*
X10532920Y-11046198D02*
X10542444Y-11055722D01*
X10542444Y-11055722D02*
X10551968Y-11074770D01*
X10551968Y-11074770D02*
X10551968Y-11122389D01*
X10551968Y-11122389D02*
X10542444Y-11141436D01*
X10542444Y-11141436D02*
X10532920Y-11150960D01*
X10532920Y-11150960D02*
X10513872Y-11160484D01*
X10513872Y-11160484D02*
X10456729Y-11160484D01*
X10456729Y-11160484D02*
X10437682Y-11150960D01*
X10437682Y-11150960D02*
X10428158Y-11141436D01*
X10666253Y-11046198D02*
X10647206Y-11036674D01*
X10647206Y-11036674D02*
X10637682Y-11027150D01*
X10637682Y-11027150D02*
X10628158Y-11008103D01*
X10628158Y-11008103D02*
X10628158Y-10998579D01*
X10628158Y-10998579D02*
X10637682Y-10979531D01*
X10637682Y-10979531D02*
X10647206Y-10970008D01*
X10647206Y-10970008D02*
X10666253Y-10960484D01*
X10666253Y-10960484D02*
X10704349Y-10960484D01*
X10704349Y-10960484D02*
X10723396Y-10970008D01*
X10723396Y-10970008D02*
X10732920Y-10979531D01*
X10732920Y-10979531D02*
X10742444Y-10998579D01*
X10742444Y-10998579D02*
X10742444Y-11008103D01*
X10742444Y-11008103D02*
X10732920Y-11027150D01*
X10732920Y-11027150D02*
X10723396Y-11036674D01*
X10723396Y-11036674D02*
X10704349Y-11046198D01*
X10704349Y-11046198D02*
X10666253Y-11046198D01*
X10666253Y-11046198D02*
X10647206Y-11055722D01*
X10647206Y-11055722D02*
X10637682Y-11065246D01*
X10637682Y-11065246D02*
X10628158Y-11084293D01*
X10628158Y-11084293D02*
X10628158Y-11122389D01*
X10628158Y-11122389D02*
X10637682Y-11141436D01*
X10637682Y-11141436D02*
X10647206Y-11150960D01*
X10647206Y-11150960D02*
X10666253Y-11160484D01*
X10666253Y-11160484D02*
X10704349Y-11160484D01*
X10704349Y-11160484D02*
X10723396Y-11150960D01*
X10723396Y-11150960D02*
X10732920Y-11141436D01*
X10732920Y-11141436D02*
X10742444Y-11122389D01*
X10742444Y-11122389D02*
X10742444Y-11084293D01*
X10742444Y-11084293D02*
X10732920Y-11065246D01*
X10732920Y-11065246D02*
X10723396Y-11055722D01*
X10723396Y-11055722D02*
X10704349Y-11046198D01*
X10818634Y-10960484D02*
X10818634Y-10998579D01*
X10894825Y-10960484D02*
X10894825Y-10998579D01*
X11190063Y-11236674D02*
X11180539Y-11227150D01*
X11180539Y-11227150D02*
X11161491Y-11198579D01*
X11161491Y-11198579D02*
X11151968Y-11179531D01*
X11151968Y-11179531D02*
X11142444Y-11150960D01*
X11142444Y-11150960D02*
X11132920Y-11103341D01*
X11132920Y-11103341D02*
X11132920Y-11065246D01*
X11132920Y-11065246D02*
X11142444Y-11017627D01*
X11142444Y-11017627D02*
X11151968Y-10989055D01*
X11151968Y-10989055D02*
X11161491Y-10970008D01*
X11161491Y-10970008D02*
X11180539Y-10941436D01*
X11180539Y-10941436D02*
X11190063Y-10931912D01*
X11275777Y-11160484D02*
X11313872Y-11160484D01*
X11313872Y-11160484D02*
X11332920Y-11150960D01*
X11332920Y-11150960D02*
X11342444Y-11141436D01*
X11342444Y-11141436D02*
X11361491Y-11112865D01*
X11361491Y-11112865D02*
X11371015Y-11074770D01*
X11371015Y-11074770D02*
X11371015Y-10998579D01*
X11371015Y-10998579D02*
X11361491Y-10979531D01*
X11361491Y-10979531D02*
X11351968Y-10970008D01*
X11351968Y-10970008D02*
X11332920Y-10960484D01*
X11332920Y-10960484D02*
X11294825Y-10960484D01*
X11294825Y-10960484D02*
X11275777Y-10970008D01*
X11275777Y-10970008D02*
X11266253Y-10979531D01*
X11266253Y-10979531D02*
X11256729Y-10998579D01*
X11256729Y-10998579D02*
X11256729Y-11046198D01*
X11256729Y-11046198D02*
X11266253Y-11065246D01*
X11266253Y-11065246D02*
X11275777Y-11074770D01*
X11275777Y-11074770D02*
X11294825Y-11084293D01*
X11294825Y-11084293D02*
X11332920Y-11084293D01*
X11332920Y-11084293D02*
X11351968Y-11074770D01*
X11351968Y-11074770D02*
X11361491Y-11065246D01*
X11361491Y-11065246D02*
X11371015Y-11046198D01*
X11561491Y-11160484D02*
X11447206Y-11160484D01*
X11504348Y-11160484D02*
X11504348Y-10960484D01*
X11504348Y-10960484D02*
X11485301Y-10989055D01*
X11485301Y-10989055D02*
X11466253Y-11008103D01*
X11466253Y-11008103D02*
X11447206Y-11017627D01*
X11799587Y-11160484D02*
X11799587Y-10960484D01*
X11885301Y-11160484D02*
X11885301Y-11055722D01*
X11885301Y-11055722D02*
X11875777Y-11036674D01*
X11875777Y-11036674D02*
X11856730Y-11027150D01*
X11856730Y-11027150D02*
X11828158Y-11027150D01*
X11828158Y-11027150D02*
X11809110Y-11036674D01*
X11809110Y-11036674D02*
X11799587Y-11046198D01*
X12009110Y-11160484D02*
X11990063Y-11150960D01*
X11990063Y-11150960D02*
X11980539Y-11141436D01*
X11980539Y-11141436D02*
X11971015Y-11122389D01*
X11971015Y-11122389D02*
X11971015Y-11065246D01*
X11971015Y-11065246D02*
X11980539Y-11046198D01*
X11980539Y-11046198D02*
X11990063Y-11036674D01*
X11990063Y-11036674D02*
X12009110Y-11027150D01*
X12009110Y-11027150D02*
X12037682Y-11027150D01*
X12037682Y-11027150D02*
X12056730Y-11036674D01*
X12056730Y-11036674D02*
X12066253Y-11046198D01*
X12066253Y-11046198D02*
X12075777Y-11065246D01*
X12075777Y-11065246D02*
X12075777Y-11122389D01*
X12075777Y-11122389D02*
X12066253Y-11141436D01*
X12066253Y-11141436D02*
X12056730Y-11150960D01*
X12056730Y-11150960D02*
X12037682Y-11160484D01*
X12037682Y-11160484D02*
X12009110Y-11160484D01*
X12190063Y-11160484D02*
X12171015Y-11150960D01*
X12171015Y-11150960D02*
X12161491Y-11131912D01*
X12161491Y-11131912D02*
X12161491Y-10960484D01*
X12342444Y-11150960D02*
X12323396Y-11160484D01*
X12323396Y-11160484D02*
X12285301Y-11160484D01*
X12285301Y-11160484D02*
X12266253Y-11150960D01*
X12266253Y-11150960D02*
X12256730Y-11131912D01*
X12256730Y-11131912D02*
X12256730Y-11055722D01*
X12256730Y-11055722D02*
X12266253Y-11036674D01*
X12266253Y-11036674D02*
X12285301Y-11027150D01*
X12285301Y-11027150D02*
X12323396Y-11027150D01*
X12323396Y-11027150D02*
X12342444Y-11036674D01*
X12342444Y-11036674D02*
X12351968Y-11055722D01*
X12351968Y-11055722D02*
X12351968Y-11074770D01*
X12351968Y-11074770D02*
X12256730Y-11093817D01*
X12428158Y-11150960D02*
X12447206Y-11160484D01*
X12447206Y-11160484D02*
X12485301Y-11160484D01*
X12485301Y-11160484D02*
X12504349Y-11150960D01*
X12504349Y-11150960D02*
X12513872Y-11131912D01*
X12513872Y-11131912D02*
X12513872Y-11122389D01*
X12513872Y-11122389D02*
X12504349Y-11103341D01*
X12504349Y-11103341D02*
X12485301Y-11093817D01*
X12485301Y-11093817D02*
X12456730Y-11093817D01*
X12456730Y-11093817D02*
X12437682Y-11084293D01*
X12437682Y-11084293D02*
X12428158Y-11065246D01*
X12428158Y-11065246D02*
X12428158Y-11055722D01*
X12428158Y-11055722D02*
X12437682Y-11036674D01*
X12437682Y-11036674D02*
X12456730Y-11027150D01*
X12456730Y-11027150D02*
X12485301Y-11027150D01*
X12485301Y-11027150D02*
X12504349Y-11036674D01*
X12580539Y-11236674D02*
X12590063Y-11227150D01*
X12590063Y-11227150D02*
X12609111Y-11198579D01*
X12609111Y-11198579D02*
X12618634Y-11179531D01*
X12618634Y-11179531D02*
X12628158Y-11150960D01*
X12628158Y-11150960D02*
X12637682Y-11103341D01*
X12637682Y-11103341D02*
X12637682Y-11065246D01*
X12637682Y-11065246D02*
X12628158Y-11017627D01*
X12628158Y-11017627D02*
X12618634Y-10989055D01*
X12618634Y-10989055D02*
X12609111Y-10970008D01*
X12609111Y-10970008D02*
X12590063Y-10941436D01*
X12590063Y-10941436D02*
X12580539Y-10931912D01*
D14*
X7590000Y-11308000D02*
X7590000Y-11358000D01*
X7565000Y-11333000D02*
X7615000Y-11333000D01*
D11*
X7913872Y-11224484D02*
X7932920Y-11224484D01*
X7932920Y-11224484D02*
X7951967Y-11234008D01*
X7951967Y-11234008D02*
X7961491Y-11243531D01*
X7961491Y-11243531D02*
X7971015Y-11262579D01*
X7971015Y-11262579D02*
X7980539Y-11300674D01*
X7980539Y-11300674D02*
X7980539Y-11348293D01*
X7980539Y-11348293D02*
X7971015Y-11386388D01*
X7971015Y-11386388D02*
X7961491Y-11405436D01*
X7961491Y-11405436D02*
X7951967Y-11414960D01*
X7951967Y-11414960D02*
X7932920Y-11424484D01*
X7932920Y-11424484D02*
X7913872Y-11424484D01*
X7913872Y-11424484D02*
X7894824Y-11414960D01*
X7894824Y-11414960D02*
X7885301Y-11405436D01*
X7885301Y-11405436D02*
X7875777Y-11386388D01*
X7875777Y-11386388D02*
X7866253Y-11348293D01*
X7866253Y-11348293D02*
X7866253Y-11300674D01*
X7866253Y-11300674D02*
X7875777Y-11262579D01*
X7875777Y-11262579D02*
X7885301Y-11243531D01*
X7885301Y-11243531D02*
X7894824Y-11234008D01*
X7894824Y-11234008D02*
X7913872Y-11224484D01*
X8066253Y-11405436D02*
X8075777Y-11414960D01*
X8075777Y-11414960D02*
X8066253Y-11424484D01*
X8066253Y-11424484D02*
X8056729Y-11414960D01*
X8056729Y-11414960D02*
X8066253Y-11405436D01*
X8066253Y-11405436D02*
X8066253Y-11424484D01*
X8256729Y-11224484D02*
X8161491Y-11224484D01*
X8161491Y-11224484D02*
X8151967Y-11319722D01*
X8151967Y-11319722D02*
X8161491Y-11310198D01*
X8161491Y-11310198D02*
X8180539Y-11300674D01*
X8180539Y-11300674D02*
X8228158Y-11300674D01*
X8228158Y-11300674D02*
X8247205Y-11310198D01*
X8247205Y-11310198D02*
X8256729Y-11319722D01*
X8256729Y-11319722D02*
X8266253Y-11338769D01*
X8266253Y-11338769D02*
X8266253Y-11386388D01*
X8266253Y-11386388D02*
X8256729Y-11405436D01*
X8256729Y-11405436D02*
X8247205Y-11414960D01*
X8247205Y-11414960D02*
X8228158Y-11424484D01*
X8228158Y-11424484D02*
X8180539Y-11424484D01*
X8180539Y-11424484D02*
X8161491Y-11414960D01*
X8161491Y-11414960D02*
X8151967Y-11405436D01*
X8390063Y-11224484D02*
X8409110Y-11224484D01*
X8409110Y-11224484D02*
X8428158Y-11234008D01*
X8428158Y-11234008D02*
X8437682Y-11243531D01*
X8437682Y-11243531D02*
X8447205Y-11262579D01*
X8447205Y-11262579D02*
X8456729Y-11300674D01*
X8456729Y-11300674D02*
X8456729Y-11348293D01*
X8456729Y-11348293D02*
X8447205Y-11386388D01*
X8447205Y-11386388D02*
X8437682Y-11405436D01*
X8437682Y-11405436D02*
X8428158Y-11414960D01*
X8428158Y-11414960D02*
X8409110Y-11424484D01*
X8409110Y-11424484D02*
X8390063Y-11424484D01*
X8390063Y-11424484D02*
X8371015Y-11414960D01*
X8371015Y-11414960D02*
X8361491Y-11405436D01*
X8361491Y-11405436D02*
X8351967Y-11386388D01*
X8351967Y-11386388D02*
X8342443Y-11348293D01*
X8342443Y-11348293D02*
X8342443Y-11300674D01*
X8342443Y-11300674D02*
X8351967Y-11262579D01*
X8351967Y-11262579D02*
X8361491Y-11243531D01*
X8361491Y-11243531D02*
X8371015Y-11234008D01*
X8371015Y-11234008D02*
X8390063Y-11224484D01*
X8580539Y-11224484D02*
X8599586Y-11224484D01*
X8599586Y-11224484D02*
X8618634Y-11234008D01*
X8618634Y-11234008D02*
X8628158Y-11243531D01*
X8628158Y-11243531D02*
X8637682Y-11262579D01*
X8637682Y-11262579D02*
X8647205Y-11300674D01*
X8647205Y-11300674D02*
X8647205Y-11348293D01*
X8647205Y-11348293D02*
X8637682Y-11386388D01*
X8637682Y-11386388D02*
X8628158Y-11405436D01*
X8628158Y-11405436D02*
X8618634Y-11414960D01*
X8618634Y-11414960D02*
X8599586Y-11424484D01*
X8599586Y-11424484D02*
X8580539Y-11424484D01*
X8580539Y-11424484D02*
X8561491Y-11414960D01*
X8561491Y-11414960D02*
X8551967Y-11405436D01*
X8551967Y-11405436D02*
X8542444Y-11386388D01*
X8542444Y-11386388D02*
X8532920Y-11348293D01*
X8532920Y-11348293D02*
X8532920Y-11300674D01*
X8532920Y-11300674D02*
X8542444Y-11262579D01*
X8542444Y-11262579D02*
X8551967Y-11243531D01*
X8551967Y-11243531D02*
X8561491Y-11234008D01*
X8561491Y-11234008D02*
X8580539Y-11224484D01*
X8732920Y-11424484D02*
X8732920Y-11291150D01*
X8732920Y-11310198D02*
X8742444Y-11300674D01*
X8742444Y-11300674D02*
X8761491Y-11291150D01*
X8761491Y-11291150D02*
X8790063Y-11291150D01*
X8790063Y-11291150D02*
X8809110Y-11300674D01*
X8809110Y-11300674D02*
X8818634Y-11319722D01*
X8818634Y-11319722D02*
X8818634Y-11424484D01*
X8818634Y-11319722D02*
X8828158Y-11300674D01*
X8828158Y-11300674D02*
X8847205Y-11291150D01*
X8847205Y-11291150D02*
X8875777Y-11291150D01*
X8875777Y-11291150D02*
X8894825Y-11300674D01*
X8894825Y-11300674D02*
X8904348Y-11319722D01*
X8904348Y-11319722D02*
X8904348Y-11424484D01*
X8999586Y-11424484D02*
X8999586Y-11291150D01*
X8999586Y-11310198D02*
X9009110Y-11300674D01*
X9009110Y-11300674D02*
X9028158Y-11291150D01*
X9028158Y-11291150D02*
X9056729Y-11291150D01*
X9056729Y-11291150D02*
X9075777Y-11300674D01*
X9075777Y-11300674D02*
X9085301Y-11319722D01*
X9085301Y-11319722D02*
X9085301Y-11424484D01*
X9085301Y-11319722D02*
X9094825Y-11300674D01*
X9094825Y-11300674D02*
X9113872Y-11291150D01*
X9113872Y-11291150D02*
X9142444Y-11291150D01*
X9142444Y-11291150D02*
X9161491Y-11300674D01*
X9161491Y-11300674D02*
X9171015Y-11319722D01*
X9171015Y-11319722D02*
X9171015Y-11424484D01*
X9561491Y-11214960D02*
X9390063Y-11472103D01*
X9818634Y-11224484D02*
X9837682Y-11224484D01*
X9837682Y-11224484D02*
X9856729Y-11234008D01*
X9856729Y-11234008D02*
X9866253Y-11243531D01*
X9866253Y-11243531D02*
X9875777Y-11262579D01*
X9875777Y-11262579D02*
X9885301Y-11300674D01*
X9885301Y-11300674D02*
X9885301Y-11348293D01*
X9885301Y-11348293D02*
X9875777Y-11386388D01*
X9875777Y-11386388D02*
X9866253Y-11405436D01*
X9866253Y-11405436D02*
X9856729Y-11414960D01*
X9856729Y-11414960D02*
X9837682Y-11424484D01*
X9837682Y-11424484D02*
X9818634Y-11424484D01*
X9818634Y-11424484D02*
X9799587Y-11414960D01*
X9799587Y-11414960D02*
X9790063Y-11405436D01*
X9790063Y-11405436D02*
X9780539Y-11386388D01*
X9780539Y-11386388D02*
X9771015Y-11348293D01*
X9771015Y-11348293D02*
X9771015Y-11300674D01*
X9771015Y-11300674D02*
X9780539Y-11262579D01*
X9780539Y-11262579D02*
X9790063Y-11243531D01*
X9790063Y-11243531D02*
X9799587Y-11234008D01*
X9799587Y-11234008D02*
X9818634Y-11224484D01*
X9971015Y-11405436D02*
X9980539Y-11414960D01*
X9980539Y-11414960D02*
X9971015Y-11424484D01*
X9971015Y-11424484D02*
X9961491Y-11414960D01*
X9961491Y-11414960D02*
X9971015Y-11405436D01*
X9971015Y-11405436D02*
X9971015Y-11424484D01*
X10104348Y-11224484D02*
X10123396Y-11224484D01*
X10123396Y-11224484D02*
X10142444Y-11234008D01*
X10142444Y-11234008D02*
X10151968Y-11243531D01*
X10151968Y-11243531D02*
X10161491Y-11262579D01*
X10161491Y-11262579D02*
X10171015Y-11300674D01*
X10171015Y-11300674D02*
X10171015Y-11348293D01*
X10171015Y-11348293D02*
X10161491Y-11386388D01*
X10161491Y-11386388D02*
X10151968Y-11405436D01*
X10151968Y-11405436D02*
X10142444Y-11414960D01*
X10142444Y-11414960D02*
X10123396Y-11424484D01*
X10123396Y-11424484D02*
X10104348Y-11424484D01*
X10104348Y-11424484D02*
X10085301Y-11414960D01*
X10085301Y-11414960D02*
X10075777Y-11405436D01*
X10075777Y-11405436D02*
X10066253Y-11386388D01*
X10066253Y-11386388D02*
X10056729Y-11348293D01*
X10056729Y-11348293D02*
X10056729Y-11300674D01*
X10056729Y-11300674D02*
X10066253Y-11262579D01*
X10066253Y-11262579D02*
X10075777Y-11243531D01*
X10075777Y-11243531D02*
X10085301Y-11234008D01*
X10085301Y-11234008D02*
X10104348Y-11224484D01*
X10361491Y-11424484D02*
X10247206Y-11424484D01*
X10304348Y-11424484D02*
X10304348Y-11224484D01*
X10304348Y-11224484D02*
X10285301Y-11253055D01*
X10285301Y-11253055D02*
X10266253Y-11272103D01*
X10266253Y-11272103D02*
X10247206Y-11281627D01*
X10456729Y-11424484D02*
X10494825Y-11424484D01*
X10494825Y-11424484D02*
X10513872Y-11414960D01*
X10513872Y-11414960D02*
X10523396Y-11405436D01*
X10523396Y-11405436D02*
X10542444Y-11376865D01*
X10542444Y-11376865D02*
X10551968Y-11338769D01*
X10551968Y-11338769D02*
X10551968Y-11262579D01*
X10551968Y-11262579D02*
X10542444Y-11243531D01*
X10542444Y-11243531D02*
X10532920Y-11234008D01*
X10532920Y-11234008D02*
X10513872Y-11224484D01*
X10513872Y-11224484D02*
X10475777Y-11224484D01*
X10475777Y-11224484D02*
X10456729Y-11234008D01*
X10456729Y-11234008D02*
X10447206Y-11243531D01*
X10447206Y-11243531D02*
X10437682Y-11262579D01*
X10437682Y-11262579D02*
X10437682Y-11310198D01*
X10437682Y-11310198D02*
X10447206Y-11329246D01*
X10447206Y-11329246D02*
X10456729Y-11338769D01*
X10456729Y-11338769D02*
X10475777Y-11348293D01*
X10475777Y-11348293D02*
X10513872Y-11348293D01*
X10513872Y-11348293D02*
X10532920Y-11338769D01*
X10532920Y-11338769D02*
X10542444Y-11329246D01*
X10542444Y-11329246D02*
X10551968Y-11310198D01*
X10618634Y-11224484D02*
X10751968Y-11224484D01*
X10751968Y-11224484D02*
X10666253Y-11424484D01*
X10818634Y-11224484D02*
X10818634Y-11262579D01*
X10894825Y-11224484D02*
X10894825Y-11262579D01*
X11190063Y-11500674D02*
X11180539Y-11491150D01*
X11180539Y-11491150D02*
X11161491Y-11462579D01*
X11161491Y-11462579D02*
X11151968Y-11443531D01*
X11151968Y-11443531D02*
X11142444Y-11414960D01*
X11142444Y-11414960D02*
X11132920Y-11367341D01*
X11132920Y-11367341D02*
X11132920Y-11329246D01*
X11132920Y-11329246D02*
X11142444Y-11281627D01*
X11142444Y-11281627D02*
X11151968Y-11253055D01*
X11151968Y-11253055D02*
X11161491Y-11234008D01*
X11161491Y-11234008D02*
X11180539Y-11205436D01*
X11180539Y-11205436D02*
X11190063Y-11195912D01*
X11247206Y-11224484D02*
X11371015Y-11224484D01*
X11371015Y-11224484D02*
X11304348Y-11300674D01*
X11304348Y-11300674D02*
X11332920Y-11300674D01*
X11332920Y-11300674D02*
X11351968Y-11310198D01*
X11351968Y-11310198D02*
X11361491Y-11319722D01*
X11361491Y-11319722D02*
X11371015Y-11338769D01*
X11371015Y-11338769D02*
X11371015Y-11386388D01*
X11371015Y-11386388D02*
X11361491Y-11405436D01*
X11361491Y-11405436D02*
X11351968Y-11414960D01*
X11351968Y-11414960D02*
X11332920Y-11424484D01*
X11332920Y-11424484D02*
X11275777Y-11424484D01*
X11275777Y-11424484D02*
X11256729Y-11414960D01*
X11256729Y-11414960D02*
X11247206Y-11405436D01*
X11447206Y-11243531D02*
X11456729Y-11234008D01*
X11456729Y-11234008D02*
X11475777Y-11224484D01*
X11475777Y-11224484D02*
X11523396Y-11224484D01*
X11523396Y-11224484D02*
X11542444Y-11234008D01*
X11542444Y-11234008D02*
X11551968Y-11243531D01*
X11551968Y-11243531D02*
X11561491Y-11262579D01*
X11561491Y-11262579D02*
X11561491Y-11281627D01*
X11561491Y-11281627D02*
X11551968Y-11310198D01*
X11551968Y-11310198D02*
X11437682Y-11424484D01*
X11437682Y-11424484D02*
X11561491Y-11424484D01*
X11799587Y-11424484D02*
X11799587Y-11224484D01*
X11885301Y-11424484D02*
X11885301Y-11319722D01*
X11885301Y-11319722D02*
X11875777Y-11300674D01*
X11875777Y-11300674D02*
X11856730Y-11291150D01*
X11856730Y-11291150D02*
X11828158Y-11291150D01*
X11828158Y-11291150D02*
X11809110Y-11300674D01*
X11809110Y-11300674D02*
X11799587Y-11310198D01*
X12009110Y-11424484D02*
X11990063Y-11414960D01*
X11990063Y-11414960D02*
X11980539Y-11405436D01*
X11980539Y-11405436D02*
X11971015Y-11386388D01*
X11971015Y-11386388D02*
X11971015Y-11329246D01*
X11971015Y-11329246D02*
X11980539Y-11310198D01*
X11980539Y-11310198D02*
X11990063Y-11300674D01*
X11990063Y-11300674D02*
X12009110Y-11291150D01*
X12009110Y-11291150D02*
X12037682Y-11291150D01*
X12037682Y-11291150D02*
X12056730Y-11300674D01*
X12056730Y-11300674D02*
X12066253Y-11310198D01*
X12066253Y-11310198D02*
X12075777Y-11329246D01*
X12075777Y-11329246D02*
X12075777Y-11386388D01*
X12075777Y-11386388D02*
X12066253Y-11405436D01*
X12066253Y-11405436D02*
X12056730Y-11414960D01*
X12056730Y-11414960D02*
X12037682Y-11424484D01*
X12037682Y-11424484D02*
X12009110Y-11424484D01*
X12190063Y-11424484D02*
X12171015Y-11414960D01*
X12171015Y-11414960D02*
X12161491Y-11395912D01*
X12161491Y-11395912D02*
X12161491Y-11224484D01*
X12342444Y-11414960D02*
X12323396Y-11424484D01*
X12323396Y-11424484D02*
X12285301Y-11424484D01*
X12285301Y-11424484D02*
X12266253Y-11414960D01*
X12266253Y-11414960D02*
X12256730Y-11395912D01*
X12256730Y-11395912D02*
X12256730Y-11319722D01*
X12256730Y-11319722D02*
X12266253Y-11300674D01*
X12266253Y-11300674D02*
X12285301Y-11291150D01*
X12285301Y-11291150D02*
X12323396Y-11291150D01*
X12323396Y-11291150D02*
X12342444Y-11300674D01*
X12342444Y-11300674D02*
X12351968Y-11319722D01*
X12351968Y-11319722D02*
X12351968Y-11338769D01*
X12351968Y-11338769D02*
X12256730Y-11357817D01*
X12428158Y-11414960D02*
X12447206Y-11424484D01*
X12447206Y-11424484D02*
X12485301Y-11424484D01*
X12485301Y-11424484D02*
X12504349Y-11414960D01*
X12504349Y-11414960D02*
X12513872Y-11395912D01*
X12513872Y-11395912D02*
X12513872Y-11386388D01*
X12513872Y-11386388D02*
X12504349Y-11367341D01*
X12504349Y-11367341D02*
X12485301Y-11357817D01*
X12485301Y-11357817D02*
X12456730Y-11357817D01*
X12456730Y-11357817D02*
X12437682Y-11348293D01*
X12437682Y-11348293D02*
X12428158Y-11329246D01*
X12428158Y-11329246D02*
X12428158Y-11319722D01*
X12428158Y-11319722D02*
X12437682Y-11300674D01*
X12437682Y-11300674D02*
X12456730Y-11291150D01*
X12456730Y-11291150D02*
X12485301Y-11291150D01*
X12485301Y-11291150D02*
X12504349Y-11300674D01*
X12580539Y-11500674D02*
X12590063Y-11491150D01*
X12590063Y-11491150D02*
X12609111Y-11462579D01*
X12609111Y-11462579D02*
X12618634Y-11443531D01*
X12618634Y-11443531D02*
X12628158Y-11414960D01*
X12628158Y-11414960D02*
X12637682Y-11367341D01*
X12637682Y-11367341D02*
X12637682Y-11329246D01*
X12637682Y-11329246D02*
X12628158Y-11281627D01*
X12628158Y-11281627D02*
X12618634Y-11253055D01*
X12618634Y-11253055D02*
X12609111Y-11234008D01*
X12609111Y-11234008D02*
X12590063Y-11205436D01*
X12590063Y-11205436D02*
X12580539Y-11195912D01*
D10*
X7600356Y-11632356D02*
X7600356Y-11561644D01*
X7529644Y-11561644D01*
X7529644Y-11632356D01*
X7600356Y-11632356D01*
D11*
X7980539Y-11688484D02*
X7866253Y-11688484D01*
X7923396Y-11688484D02*
X7923396Y-11488484D01*
X7923396Y-11488484D02*
X7904348Y-11517055D01*
X7904348Y-11517055D02*
X7885301Y-11536103D01*
X7885301Y-11536103D02*
X7866253Y-11545627D01*
X8066253Y-11669436D02*
X8075777Y-11678960D01*
X8075777Y-11678960D02*
X8066253Y-11688484D01*
X8066253Y-11688484D02*
X8056729Y-11678960D01*
X8056729Y-11678960D02*
X8066253Y-11669436D01*
X8066253Y-11669436D02*
X8066253Y-11688484D01*
X8199586Y-11488484D02*
X8218634Y-11488484D01*
X8218634Y-11488484D02*
X8237682Y-11498008D01*
X8237682Y-11498008D02*
X8247205Y-11507531D01*
X8247205Y-11507531D02*
X8256729Y-11526579D01*
X8256729Y-11526579D02*
X8266253Y-11564674D01*
X8266253Y-11564674D02*
X8266253Y-11612293D01*
X8266253Y-11612293D02*
X8256729Y-11650388D01*
X8256729Y-11650388D02*
X8247205Y-11669436D01*
X8247205Y-11669436D02*
X8237682Y-11678960D01*
X8237682Y-11678960D02*
X8218634Y-11688484D01*
X8218634Y-11688484D02*
X8199586Y-11688484D01*
X8199586Y-11688484D02*
X8180539Y-11678960D01*
X8180539Y-11678960D02*
X8171015Y-11669436D01*
X8171015Y-11669436D02*
X8161491Y-11650388D01*
X8161491Y-11650388D02*
X8151967Y-11612293D01*
X8151967Y-11612293D02*
X8151967Y-11564674D01*
X8151967Y-11564674D02*
X8161491Y-11526579D01*
X8161491Y-11526579D02*
X8171015Y-11507531D01*
X8171015Y-11507531D02*
X8180539Y-11498008D01*
X8180539Y-11498008D02*
X8199586Y-11488484D01*
X8390063Y-11488484D02*
X8409110Y-11488484D01*
X8409110Y-11488484D02*
X8428158Y-11498008D01*
X8428158Y-11498008D02*
X8437682Y-11507531D01*
X8437682Y-11507531D02*
X8447205Y-11526579D01*
X8447205Y-11526579D02*
X8456729Y-11564674D01*
X8456729Y-11564674D02*
X8456729Y-11612293D01*
X8456729Y-11612293D02*
X8447205Y-11650388D01*
X8447205Y-11650388D02*
X8437682Y-11669436D01*
X8437682Y-11669436D02*
X8428158Y-11678960D01*
X8428158Y-11678960D02*
X8409110Y-11688484D01*
X8409110Y-11688484D02*
X8390063Y-11688484D01*
X8390063Y-11688484D02*
X8371015Y-11678960D01*
X8371015Y-11678960D02*
X8361491Y-11669436D01*
X8361491Y-11669436D02*
X8351967Y-11650388D01*
X8351967Y-11650388D02*
X8342443Y-11612293D01*
X8342443Y-11612293D02*
X8342443Y-11564674D01*
X8342443Y-11564674D02*
X8351967Y-11526579D01*
X8351967Y-11526579D02*
X8361491Y-11507531D01*
X8361491Y-11507531D02*
X8371015Y-11498008D01*
X8371015Y-11498008D02*
X8390063Y-11488484D01*
X8580539Y-11488484D02*
X8599586Y-11488484D01*
X8599586Y-11488484D02*
X8618634Y-11498008D01*
X8618634Y-11498008D02*
X8628158Y-11507531D01*
X8628158Y-11507531D02*
X8637682Y-11526579D01*
X8637682Y-11526579D02*
X8647205Y-11564674D01*
X8647205Y-11564674D02*
X8647205Y-11612293D01*
X8647205Y-11612293D02*
X8637682Y-11650388D01*
X8637682Y-11650388D02*
X8628158Y-11669436D01*
X8628158Y-11669436D02*
X8618634Y-11678960D01*
X8618634Y-11678960D02*
X8599586Y-11688484D01*
X8599586Y-11688484D02*
X8580539Y-11688484D01*
X8580539Y-11688484D02*
X8561491Y-11678960D01*
X8561491Y-11678960D02*
X8551967Y-11669436D01*
X8551967Y-11669436D02*
X8542444Y-11650388D01*
X8542444Y-11650388D02*
X8532920Y-11612293D01*
X8532920Y-11612293D02*
X8532920Y-11564674D01*
X8532920Y-11564674D02*
X8542444Y-11526579D01*
X8542444Y-11526579D02*
X8551967Y-11507531D01*
X8551967Y-11507531D02*
X8561491Y-11498008D01*
X8561491Y-11498008D02*
X8580539Y-11488484D01*
X8732920Y-11688484D02*
X8732920Y-11555150D01*
X8732920Y-11574198D02*
X8742444Y-11564674D01*
X8742444Y-11564674D02*
X8761491Y-11555150D01*
X8761491Y-11555150D02*
X8790063Y-11555150D01*
X8790063Y-11555150D02*
X8809110Y-11564674D01*
X8809110Y-11564674D02*
X8818634Y-11583722D01*
X8818634Y-11583722D02*
X8818634Y-11688484D01*
X8818634Y-11583722D02*
X8828158Y-11564674D01*
X8828158Y-11564674D02*
X8847205Y-11555150D01*
X8847205Y-11555150D02*
X8875777Y-11555150D01*
X8875777Y-11555150D02*
X8894825Y-11564674D01*
X8894825Y-11564674D02*
X8904348Y-11583722D01*
X8904348Y-11583722D02*
X8904348Y-11688484D01*
X8999586Y-11688484D02*
X8999586Y-11555150D01*
X8999586Y-11574198D02*
X9009110Y-11564674D01*
X9009110Y-11564674D02*
X9028158Y-11555150D01*
X9028158Y-11555150D02*
X9056729Y-11555150D01*
X9056729Y-11555150D02*
X9075777Y-11564674D01*
X9075777Y-11564674D02*
X9085301Y-11583722D01*
X9085301Y-11583722D02*
X9085301Y-11688484D01*
X9085301Y-11583722D02*
X9094825Y-11564674D01*
X9094825Y-11564674D02*
X9113872Y-11555150D01*
X9113872Y-11555150D02*
X9142444Y-11555150D01*
X9142444Y-11555150D02*
X9161491Y-11564674D01*
X9161491Y-11564674D02*
X9171015Y-11583722D01*
X9171015Y-11583722D02*
X9171015Y-11688484D01*
X9561491Y-11478960D02*
X9390063Y-11736103D01*
X9818634Y-11488484D02*
X9837682Y-11488484D01*
X9837682Y-11488484D02*
X9856729Y-11498008D01*
X9856729Y-11498008D02*
X9866253Y-11507531D01*
X9866253Y-11507531D02*
X9875777Y-11526579D01*
X9875777Y-11526579D02*
X9885301Y-11564674D01*
X9885301Y-11564674D02*
X9885301Y-11612293D01*
X9885301Y-11612293D02*
X9875777Y-11650388D01*
X9875777Y-11650388D02*
X9866253Y-11669436D01*
X9866253Y-11669436D02*
X9856729Y-11678960D01*
X9856729Y-11678960D02*
X9837682Y-11688484D01*
X9837682Y-11688484D02*
X9818634Y-11688484D01*
X9818634Y-11688484D02*
X9799587Y-11678960D01*
X9799587Y-11678960D02*
X9790063Y-11669436D01*
X9790063Y-11669436D02*
X9780539Y-11650388D01*
X9780539Y-11650388D02*
X9771015Y-11612293D01*
X9771015Y-11612293D02*
X9771015Y-11564674D01*
X9771015Y-11564674D02*
X9780539Y-11526579D01*
X9780539Y-11526579D02*
X9790063Y-11507531D01*
X9790063Y-11507531D02*
X9799587Y-11498008D01*
X9799587Y-11498008D02*
X9818634Y-11488484D01*
X9971015Y-11669436D02*
X9980539Y-11678960D01*
X9980539Y-11678960D02*
X9971015Y-11688484D01*
X9971015Y-11688484D02*
X9961491Y-11678960D01*
X9961491Y-11678960D02*
X9971015Y-11669436D01*
X9971015Y-11669436D02*
X9971015Y-11688484D01*
X10104348Y-11488484D02*
X10123396Y-11488484D01*
X10123396Y-11488484D02*
X10142444Y-11498008D01*
X10142444Y-11498008D02*
X10151968Y-11507531D01*
X10151968Y-11507531D02*
X10161491Y-11526579D01*
X10161491Y-11526579D02*
X10171015Y-11564674D01*
X10171015Y-11564674D02*
X10171015Y-11612293D01*
X10171015Y-11612293D02*
X10161491Y-11650388D01*
X10161491Y-11650388D02*
X10151968Y-11669436D01*
X10151968Y-11669436D02*
X10142444Y-11678960D01*
X10142444Y-11678960D02*
X10123396Y-11688484D01*
X10123396Y-11688484D02*
X10104348Y-11688484D01*
X10104348Y-11688484D02*
X10085301Y-11678960D01*
X10085301Y-11678960D02*
X10075777Y-11669436D01*
X10075777Y-11669436D02*
X10066253Y-11650388D01*
X10066253Y-11650388D02*
X10056729Y-11612293D01*
X10056729Y-11612293D02*
X10056729Y-11564674D01*
X10056729Y-11564674D02*
X10066253Y-11526579D01*
X10066253Y-11526579D02*
X10075777Y-11507531D01*
X10075777Y-11507531D02*
X10085301Y-11498008D01*
X10085301Y-11498008D02*
X10104348Y-11488484D01*
X10237682Y-11488484D02*
X10361491Y-11488484D01*
X10361491Y-11488484D02*
X10294825Y-11564674D01*
X10294825Y-11564674D02*
X10323396Y-11564674D01*
X10323396Y-11564674D02*
X10342444Y-11574198D01*
X10342444Y-11574198D02*
X10351968Y-11583722D01*
X10351968Y-11583722D02*
X10361491Y-11602769D01*
X10361491Y-11602769D02*
X10361491Y-11650388D01*
X10361491Y-11650388D02*
X10351968Y-11669436D01*
X10351968Y-11669436D02*
X10342444Y-11678960D01*
X10342444Y-11678960D02*
X10323396Y-11688484D01*
X10323396Y-11688484D02*
X10266253Y-11688484D01*
X10266253Y-11688484D02*
X10247206Y-11678960D01*
X10247206Y-11678960D02*
X10237682Y-11669436D01*
X10456729Y-11688484D02*
X10494825Y-11688484D01*
X10494825Y-11688484D02*
X10513872Y-11678960D01*
X10513872Y-11678960D02*
X10523396Y-11669436D01*
X10523396Y-11669436D02*
X10542444Y-11640865D01*
X10542444Y-11640865D02*
X10551968Y-11602769D01*
X10551968Y-11602769D02*
X10551968Y-11526579D01*
X10551968Y-11526579D02*
X10542444Y-11507531D01*
X10542444Y-11507531D02*
X10532920Y-11498008D01*
X10532920Y-11498008D02*
X10513872Y-11488484D01*
X10513872Y-11488484D02*
X10475777Y-11488484D01*
X10475777Y-11488484D02*
X10456729Y-11498008D01*
X10456729Y-11498008D02*
X10447206Y-11507531D01*
X10447206Y-11507531D02*
X10437682Y-11526579D01*
X10437682Y-11526579D02*
X10437682Y-11574198D01*
X10437682Y-11574198D02*
X10447206Y-11593246D01*
X10447206Y-11593246D02*
X10456729Y-11602769D01*
X10456729Y-11602769D02*
X10475777Y-11612293D01*
X10475777Y-11612293D02*
X10513872Y-11612293D01*
X10513872Y-11612293D02*
X10532920Y-11602769D01*
X10532920Y-11602769D02*
X10542444Y-11593246D01*
X10542444Y-11593246D02*
X10551968Y-11574198D01*
X10723396Y-11555150D02*
X10723396Y-11688484D01*
X10675777Y-11478960D02*
X10628158Y-11621817D01*
X10628158Y-11621817D02*
X10751968Y-11621817D01*
X10818634Y-11488484D02*
X10818634Y-11526579D01*
X10894825Y-11488484D02*
X10894825Y-11526579D01*
X11190063Y-11764674D02*
X11180539Y-11755150D01*
X11180539Y-11755150D02*
X11161491Y-11726579D01*
X11161491Y-11726579D02*
X11151968Y-11707531D01*
X11151968Y-11707531D02*
X11142444Y-11678960D01*
X11142444Y-11678960D02*
X11132920Y-11631341D01*
X11132920Y-11631341D02*
X11132920Y-11593246D01*
X11132920Y-11593246D02*
X11142444Y-11545627D01*
X11142444Y-11545627D02*
X11151968Y-11517055D01*
X11151968Y-11517055D02*
X11161491Y-11498008D01*
X11161491Y-11498008D02*
X11180539Y-11469436D01*
X11180539Y-11469436D02*
X11190063Y-11459912D01*
X11247206Y-11488484D02*
X11371015Y-11488484D01*
X11371015Y-11488484D02*
X11304348Y-11564674D01*
X11304348Y-11564674D02*
X11332920Y-11564674D01*
X11332920Y-11564674D02*
X11351968Y-11574198D01*
X11351968Y-11574198D02*
X11361491Y-11583722D01*
X11361491Y-11583722D02*
X11371015Y-11602769D01*
X11371015Y-11602769D02*
X11371015Y-11650388D01*
X11371015Y-11650388D02*
X11361491Y-11669436D01*
X11361491Y-11669436D02*
X11351968Y-11678960D01*
X11351968Y-11678960D02*
X11332920Y-11688484D01*
X11332920Y-11688484D02*
X11275777Y-11688484D01*
X11275777Y-11688484D02*
X11256729Y-11678960D01*
X11256729Y-11678960D02*
X11247206Y-11669436D01*
X11609110Y-11688484D02*
X11609110Y-11488484D01*
X11694825Y-11688484D02*
X11694825Y-11583722D01*
X11694825Y-11583722D02*
X11685301Y-11564674D01*
X11685301Y-11564674D02*
X11666253Y-11555150D01*
X11666253Y-11555150D02*
X11637682Y-11555150D01*
X11637682Y-11555150D02*
X11618634Y-11564674D01*
X11618634Y-11564674D02*
X11609110Y-11574198D01*
X11818634Y-11688484D02*
X11799587Y-11678960D01*
X11799587Y-11678960D02*
X11790063Y-11669436D01*
X11790063Y-11669436D02*
X11780539Y-11650388D01*
X11780539Y-11650388D02*
X11780539Y-11593246D01*
X11780539Y-11593246D02*
X11790063Y-11574198D01*
X11790063Y-11574198D02*
X11799587Y-11564674D01*
X11799587Y-11564674D02*
X11818634Y-11555150D01*
X11818634Y-11555150D02*
X11847206Y-11555150D01*
X11847206Y-11555150D02*
X11866253Y-11564674D01*
X11866253Y-11564674D02*
X11875777Y-11574198D01*
X11875777Y-11574198D02*
X11885301Y-11593246D01*
X11885301Y-11593246D02*
X11885301Y-11650388D01*
X11885301Y-11650388D02*
X11875777Y-11669436D01*
X11875777Y-11669436D02*
X11866253Y-11678960D01*
X11866253Y-11678960D02*
X11847206Y-11688484D01*
X11847206Y-11688484D02*
X11818634Y-11688484D01*
X11999587Y-11688484D02*
X11980539Y-11678960D01*
X11980539Y-11678960D02*
X11971015Y-11659912D01*
X11971015Y-11659912D02*
X11971015Y-11488484D01*
X12151968Y-11678960D02*
X12132920Y-11688484D01*
X12132920Y-11688484D02*
X12094825Y-11688484D01*
X12094825Y-11688484D02*
X12075777Y-11678960D01*
X12075777Y-11678960D02*
X12066253Y-11659912D01*
X12066253Y-11659912D02*
X12066253Y-11583722D01*
X12066253Y-11583722D02*
X12075777Y-11564674D01*
X12075777Y-11564674D02*
X12094825Y-11555150D01*
X12094825Y-11555150D02*
X12132920Y-11555150D01*
X12132920Y-11555150D02*
X12151968Y-11564674D01*
X12151968Y-11564674D02*
X12161491Y-11583722D01*
X12161491Y-11583722D02*
X12161491Y-11602769D01*
X12161491Y-11602769D02*
X12066253Y-11621817D01*
X12237682Y-11678960D02*
X12256730Y-11688484D01*
X12256730Y-11688484D02*
X12294825Y-11688484D01*
X12294825Y-11688484D02*
X12313872Y-11678960D01*
X12313872Y-11678960D02*
X12323396Y-11659912D01*
X12323396Y-11659912D02*
X12323396Y-11650388D01*
X12323396Y-11650388D02*
X12313872Y-11631341D01*
X12313872Y-11631341D02*
X12294825Y-11621817D01*
X12294825Y-11621817D02*
X12266253Y-11621817D01*
X12266253Y-11621817D02*
X12247206Y-11612293D01*
X12247206Y-11612293D02*
X12237682Y-11593246D01*
X12237682Y-11593246D02*
X12237682Y-11583722D01*
X12237682Y-11583722D02*
X12247206Y-11564674D01*
X12247206Y-11564674D02*
X12266253Y-11555150D01*
X12266253Y-11555150D02*
X12294825Y-11555150D01*
X12294825Y-11555150D02*
X12313872Y-11564674D01*
X12390063Y-11764674D02*
X12399587Y-11755150D01*
X12399587Y-11755150D02*
X12418634Y-11726579D01*
X12418634Y-11726579D02*
X12428158Y-11707531D01*
X12428158Y-11707531D02*
X12437682Y-11678960D01*
X12437682Y-11678960D02*
X12447206Y-11631341D01*
X12447206Y-11631341D02*
X12447206Y-11593246D01*
X12447206Y-11593246D02*
X12437682Y-11545627D01*
X12437682Y-11545627D02*
X12428158Y-11517055D01*
X12428158Y-11517055D02*
X12418634Y-11498008D01*
X12418634Y-11498008D02*
X12399587Y-11469436D01*
X12399587Y-11469436D02*
X12390063Y-11459912D01*
D15*
X7535000Y-11941000D02*
X7615000Y-11861000D01*
X7535000Y-11781000D01*
X7455000Y-11861000D01*
X7535000Y-11941000D01*
D11*
X7980539Y-11952484D02*
X7866253Y-11952484D01*
X7923396Y-11952484D02*
X7923396Y-11752484D01*
X7923396Y-11752484D02*
X7904348Y-11781055D01*
X7904348Y-11781055D02*
X7885301Y-11800103D01*
X7885301Y-11800103D02*
X7866253Y-11809627D01*
X8066253Y-11933436D02*
X8075777Y-11942960D01*
X8075777Y-11942960D02*
X8066253Y-11952484D01*
X8066253Y-11952484D02*
X8056729Y-11942960D01*
X8056729Y-11942960D02*
X8066253Y-11933436D01*
X8066253Y-11933436D02*
X8066253Y-11952484D01*
X8247205Y-11752484D02*
X8209110Y-11752484D01*
X8209110Y-11752484D02*
X8190062Y-11762008D01*
X8190062Y-11762008D02*
X8180539Y-11771531D01*
X8180539Y-11771531D02*
X8161491Y-11800103D01*
X8161491Y-11800103D02*
X8151967Y-11838198D01*
X8151967Y-11838198D02*
X8151967Y-11914388D01*
X8151967Y-11914388D02*
X8161491Y-11933436D01*
X8161491Y-11933436D02*
X8171015Y-11942960D01*
X8171015Y-11942960D02*
X8190062Y-11952484D01*
X8190062Y-11952484D02*
X8228158Y-11952484D01*
X8228158Y-11952484D02*
X8247205Y-11942960D01*
X8247205Y-11942960D02*
X8256729Y-11933436D01*
X8256729Y-11933436D02*
X8266253Y-11914388D01*
X8266253Y-11914388D02*
X8266253Y-11866769D01*
X8266253Y-11866769D02*
X8256729Y-11847722D01*
X8256729Y-11847722D02*
X8247205Y-11838198D01*
X8247205Y-11838198D02*
X8228158Y-11828674D01*
X8228158Y-11828674D02*
X8190062Y-11828674D01*
X8190062Y-11828674D02*
X8171015Y-11838198D01*
X8171015Y-11838198D02*
X8161491Y-11847722D01*
X8161491Y-11847722D02*
X8151967Y-11866769D01*
X8390063Y-11752484D02*
X8409110Y-11752484D01*
X8409110Y-11752484D02*
X8428158Y-11762008D01*
X8428158Y-11762008D02*
X8437682Y-11771531D01*
X8437682Y-11771531D02*
X8447205Y-11790579D01*
X8447205Y-11790579D02*
X8456729Y-11828674D01*
X8456729Y-11828674D02*
X8456729Y-11876293D01*
X8456729Y-11876293D02*
X8447205Y-11914388D01*
X8447205Y-11914388D02*
X8437682Y-11933436D01*
X8437682Y-11933436D02*
X8428158Y-11942960D01*
X8428158Y-11942960D02*
X8409110Y-11952484D01*
X8409110Y-11952484D02*
X8390063Y-11952484D01*
X8390063Y-11952484D02*
X8371015Y-11942960D01*
X8371015Y-11942960D02*
X8361491Y-11933436D01*
X8361491Y-11933436D02*
X8351967Y-11914388D01*
X8351967Y-11914388D02*
X8342443Y-11876293D01*
X8342443Y-11876293D02*
X8342443Y-11828674D01*
X8342443Y-11828674D02*
X8351967Y-11790579D01*
X8351967Y-11790579D02*
X8361491Y-11771531D01*
X8361491Y-11771531D02*
X8371015Y-11762008D01*
X8371015Y-11762008D02*
X8390063Y-11752484D01*
X8580539Y-11752484D02*
X8599586Y-11752484D01*
X8599586Y-11752484D02*
X8618634Y-11762008D01*
X8618634Y-11762008D02*
X8628158Y-11771531D01*
X8628158Y-11771531D02*
X8637682Y-11790579D01*
X8637682Y-11790579D02*
X8647205Y-11828674D01*
X8647205Y-11828674D02*
X8647205Y-11876293D01*
X8647205Y-11876293D02*
X8637682Y-11914388D01*
X8637682Y-11914388D02*
X8628158Y-11933436D01*
X8628158Y-11933436D02*
X8618634Y-11942960D01*
X8618634Y-11942960D02*
X8599586Y-11952484D01*
X8599586Y-11952484D02*
X8580539Y-11952484D01*
X8580539Y-11952484D02*
X8561491Y-11942960D01*
X8561491Y-11942960D02*
X8551967Y-11933436D01*
X8551967Y-11933436D02*
X8542444Y-11914388D01*
X8542444Y-11914388D02*
X8532920Y-11876293D01*
X8532920Y-11876293D02*
X8532920Y-11828674D01*
X8532920Y-11828674D02*
X8542444Y-11790579D01*
X8542444Y-11790579D02*
X8551967Y-11771531D01*
X8551967Y-11771531D02*
X8561491Y-11762008D01*
X8561491Y-11762008D02*
X8580539Y-11752484D01*
X8732920Y-11952484D02*
X8732920Y-11819150D01*
X8732920Y-11838198D02*
X8742444Y-11828674D01*
X8742444Y-11828674D02*
X8761491Y-11819150D01*
X8761491Y-11819150D02*
X8790063Y-11819150D01*
X8790063Y-11819150D02*
X8809110Y-11828674D01*
X8809110Y-11828674D02*
X8818634Y-11847722D01*
X8818634Y-11847722D02*
X8818634Y-11952484D01*
X8818634Y-11847722D02*
X8828158Y-11828674D01*
X8828158Y-11828674D02*
X8847205Y-11819150D01*
X8847205Y-11819150D02*
X8875777Y-11819150D01*
X8875777Y-11819150D02*
X8894825Y-11828674D01*
X8894825Y-11828674D02*
X8904348Y-11847722D01*
X8904348Y-11847722D02*
X8904348Y-11952484D01*
X8999586Y-11952484D02*
X8999586Y-11819150D01*
X8999586Y-11838198D02*
X9009110Y-11828674D01*
X9009110Y-11828674D02*
X9028158Y-11819150D01*
X9028158Y-11819150D02*
X9056729Y-11819150D01*
X9056729Y-11819150D02*
X9075777Y-11828674D01*
X9075777Y-11828674D02*
X9085301Y-11847722D01*
X9085301Y-11847722D02*
X9085301Y-11952484D01*
X9085301Y-11847722D02*
X9094825Y-11828674D01*
X9094825Y-11828674D02*
X9113872Y-11819150D01*
X9113872Y-11819150D02*
X9142444Y-11819150D01*
X9142444Y-11819150D02*
X9161491Y-11828674D01*
X9161491Y-11828674D02*
X9171015Y-11847722D01*
X9171015Y-11847722D02*
X9171015Y-11952484D01*
X9561491Y-11742960D02*
X9390063Y-12000103D01*
X9818634Y-11752484D02*
X9837682Y-11752484D01*
X9837682Y-11752484D02*
X9856729Y-11762008D01*
X9856729Y-11762008D02*
X9866253Y-11771531D01*
X9866253Y-11771531D02*
X9875777Y-11790579D01*
X9875777Y-11790579D02*
X9885301Y-11828674D01*
X9885301Y-11828674D02*
X9885301Y-11876293D01*
X9885301Y-11876293D02*
X9875777Y-11914388D01*
X9875777Y-11914388D02*
X9866253Y-11933436D01*
X9866253Y-11933436D02*
X9856729Y-11942960D01*
X9856729Y-11942960D02*
X9837682Y-11952484D01*
X9837682Y-11952484D02*
X9818634Y-11952484D01*
X9818634Y-11952484D02*
X9799587Y-11942960D01*
X9799587Y-11942960D02*
X9790063Y-11933436D01*
X9790063Y-11933436D02*
X9780539Y-11914388D01*
X9780539Y-11914388D02*
X9771015Y-11876293D01*
X9771015Y-11876293D02*
X9771015Y-11828674D01*
X9771015Y-11828674D02*
X9780539Y-11790579D01*
X9780539Y-11790579D02*
X9790063Y-11771531D01*
X9790063Y-11771531D02*
X9799587Y-11762008D01*
X9799587Y-11762008D02*
X9818634Y-11752484D01*
X9971015Y-11933436D02*
X9980539Y-11942960D01*
X9980539Y-11942960D02*
X9971015Y-11952484D01*
X9971015Y-11952484D02*
X9961491Y-11942960D01*
X9961491Y-11942960D02*
X9971015Y-11933436D01*
X9971015Y-11933436D02*
X9971015Y-11952484D01*
X10104348Y-11752484D02*
X10123396Y-11752484D01*
X10123396Y-11752484D02*
X10142444Y-11762008D01*
X10142444Y-11762008D02*
X10151968Y-11771531D01*
X10151968Y-11771531D02*
X10161491Y-11790579D01*
X10161491Y-11790579D02*
X10171015Y-11828674D01*
X10171015Y-11828674D02*
X10171015Y-11876293D01*
X10171015Y-11876293D02*
X10161491Y-11914388D01*
X10161491Y-11914388D02*
X10151968Y-11933436D01*
X10151968Y-11933436D02*
X10142444Y-11942960D01*
X10142444Y-11942960D02*
X10123396Y-11952484D01*
X10123396Y-11952484D02*
X10104348Y-11952484D01*
X10104348Y-11952484D02*
X10085301Y-11942960D01*
X10085301Y-11942960D02*
X10075777Y-11933436D01*
X10075777Y-11933436D02*
X10066253Y-11914388D01*
X10066253Y-11914388D02*
X10056729Y-11876293D01*
X10056729Y-11876293D02*
X10056729Y-11828674D01*
X10056729Y-11828674D02*
X10066253Y-11790579D01*
X10066253Y-11790579D02*
X10075777Y-11771531D01*
X10075777Y-11771531D02*
X10085301Y-11762008D01*
X10085301Y-11762008D02*
X10104348Y-11752484D01*
X10342444Y-11752484D02*
X10304348Y-11752484D01*
X10304348Y-11752484D02*
X10285301Y-11762008D01*
X10285301Y-11762008D02*
X10275777Y-11771531D01*
X10275777Y-11771531D02*
X10256729Y-11800103D01*
X10256729Y-11800103D02*
X10247206Y-11838198D01*
X10247206Y-11838198D02*
X10247206Y-11914388D01*
X10247206Y-11914388D02*
X10256729Y-11933436D01*
X10256729Y-11933436D02*
X10266253Y-11942960D01*
X10266253Y-11942960D02*
X10285301Y-11952484D01*
X10285301Y-11952484D02*
X10323396Y-11952484D01*
X10323396Y-11952484D02*
X10342444Y-11942960D01*
X10342444Y-11942960D02*
X10351968Y-11933436D01*
X10351968Y-11933436D02*
X10361491Y-11914388D01*
X10361491Y-11914388D02*
X10361491Y-11866769D01*
X10361491Y-11866769D02*
X10351968Y-11847722D01*
X10351968Y-11847722D02*
X10342444Y-11838198D01*
X10342444Y-11838198D02*
X10323396Y-11828674D01*
X10323396Y-11828674D02*
X10285301Y-11828674D01*
X10285301Y-11828674D02*
X10266253Y-11838198D01*
X10266253Y-11838198D02*
X10256729Y-11847722D01*
X10256729Y-11847722D02*
X10247206Y-11866769D01*
X10428158Y-11752484D02*
X10551968Y-11752484D01*
X10551968Y-11752484D02*
X10485301Y-11828674D01*
X10485301Y-11828674D02*
X10513872Y-11828674D01*
X10513872Y-11828674D02*
X10532920Y-11838198D01*
X10532920Y-11838198D02*
X10542444Y-11847722D01*
X10542444Y-11847722D02*
X10551968Y-11866769D01*
X10551968Y-11866769D02*
X10551968Y-11914388D01*
X10551968Y-11914388D02*
X10542444Y-11933436D01*
X10542444Y-11933436D02*
X10532920Y-11942960D01*
X10532920Y-11942960D02*
X10513872Y-11952484D01*
X10513872Y-11952484D02*
X10456729Y-11952484D01*
X10456729Y-11952484D02*
X10437682Y-11942960D01*
X10437682Y-11942960D02*
X10428158Y-11933436D01*
X10675777Y-11752484D02*
X10694825Y-11752484D01*
X10694825Y-11752484D02*
X10713872Y-11762008D01*
X10713872Y-11762008D02*
X10723396Y-11771531D01*
X10723396Y-11771531D02*
X10732920Y-11790579D01*
X10732920Y-11790579D02*
X10742444Y-11828674D01*
X10742444Y-11828674D02*
X10742444Y-11876293D01*
X10742444Y-11876293D02*
X10732920Y-11914388D01*
X10732920Y-11914388D02*
X10723396Y-11933436D01*
X10723396Y-11933436D02*
X10713872Y-11942960D01*
X10713872Y-11942960D02*
X10694825Y-11952484D01*
X10694825Y-11952484D02*
X10675777Y-11952484D01*
X10675777Y-11952484D02*
X10656729Y-11942960D01*
X10656729Y-11942960D02*
X10647206Y-11933436D01*
X10647206Y-11933436D02*
X10637682Y-11914388D01*
X10637682Y-11914388D02*
X10628158Y-11876293D01*
X10628158Y-11876293D02*
X10628158Y-11828674D01*
X10628158Y-11828674D02*
X10637682Y-11790579D01*
X10637682Y-11790579D02*
X10647206Y-11771531D01*
X10647206Y-11771531D02*
X10656729Y-11762008D01*
X10656729Y-11762008D02*
X10675777Y-11752484D01*
X10818634Y-11752484D02*
X10818634Y-11790579D01*
X10894825Y-11752484D02*
X10894825Y-11790579D01*
X11190063Y-12028674D02*
X11180539Y-12019150D01*
X11180539Y-12019150D02*
X11161491Y-11990579D01*
X11161491Y-11990579D02*
X11151968Y-11971531D01*
X11151968Y-11971531D02*
X11142444Y-11942960D01*
X11142444Y-11942960D02*
X11132920Y-11895341D01*
X11132920Y-11895341D02*
X11132920Y-11857246D01*
X11132920Y-11857246D02*
X11142444Y-11809627D01*
X11142444Y-11809627D02*
X11151968Y-11781055D01*
X11151968Y-11781055D02*
X11161491Y-11762008D01*
X11161491Y-11762008D02*
X11180539Y-11733436D01*
X11180539Y-11733436D02*
X11190063Y-11723912D01*
X11351968Y-11819150D02*
X11351968Y-11952484D01*
X11304348Y-11742960D02*
X11256729Y-11885817D01*
X11256729Y-11885817D02*
X11380539Y-11885817D01*
X11609110Y-11952484D02*
X11609110Y-11752484D01*
X11694825Y-11952484D02*
X11694825Y-11847722D01*
X11694825Y-11847722D02*
X11685301Y-11828674D01*
X11685301Y-11828674D02*
X11666253Y-11819150D01*
X11666253Y-11819150D02*
X11637682Y-11819150D01*
X11637682Y-11819150D02*
X11618634Y-11828674D01*
X11618634Y-11828674D02*
X11609110Y-11838198D01*
X11818634Y-11952484D02*
X11799587Y-11942960D01*
X11799587Y-11942960D02*
X11790063Y-11933436D01*
X11790063Y-11933436D02*
X11780539Y-11914388D01*
X11780539Y-11914388D02*
X11780539Y-11857246D01*
X11780539Y-11857246D02*
X11790063Y-11838198D01*
X11790063Y-11838198D02*
X11799587Y-11828674D01*
X11799587Y-11828674D02*
X11818634Y-11819150D01*
X11818634Y-11819150D02*
X11847206Y-11819150D01*
X11847206Y-11819150D02*
X11866253Y-11828674D01*
X11866253Y-11828674D02*
X11875777Y-11838198D01*
X11875777Y-11838198D02*
X11885301Y-11857246D01*
X11885301Y-11857246D02*
X11885301Y-11914388D01*
X11885301Y-11914388D02*
X11875777Y-11933436D01*
X11875777Y-11933436D02*
X11866253Y-11942960D01*
X11866253Y-11942960D02*
X11847206Y-11952484D01*
X11847206Y-11952484D02*
X11818634Y-11952484D01*
X11999587Y-11952484D02*
X11980539Y-11942960D01*
X11980539Y-11942960D02*
X11971015Y-11923912D01*
X11971015Y-11923912D02*
X11971015Y-11752484D01*
X12151968Y-11942960D02*
X12132920Y-11952484D01*
X12132920Y-11952484D02*
X12094825Y-11952484D01*
X12094825Y-11952484D02*
X12075777Y-11942960D01*
X12075777Y-11942960D02*
X12066253Y-11923912D01*
X12066253Y-11923912D02*
X12066253Y-11847722D01*
X12066253Y-11847722D02*
X12075777Y-11828674D01*
X12075777Y-11828674D02*
X12094825Y-11819150D01*
X12094825Y-11819150D02*
X12132920Y-11819150D01*
X12132920Y-11819150D02*
X12151968Y-11828674D01*
X12151968Y-11828674D02*
X12161491Y-11847722D01*
X12161491Y-11847722D02*
X12161491Y-11866769D01*
X12161491Y-11866769D02*
X12066253Y-11885817D01*
X12237682Y-11942960D02*
X12256730Y-11952484D01*
X12256730Y-11952484D02*
X12294825Y-11952484D01*
X12294825Y-11952484D02*
X12313872Y-11942960D01*
X12313872Y-11942960D02*
X12323396Y-11923912D01*
X12323396Y-11923912D02*
X12323396Y-11914388D01*
X12323396Y-11914388D02*
X12313872Y-11895341D01*
X12313872Y-11895341D02*
X12294825Y-11885817D01*
X12294825Y-11885817D02*
X12266253Y-11885817D01*
X12266253Y-11885817D02*
X12247206Y-11876293D01*
X12247206Y-11876293D02*
X12237682Y-11857246D01*
X12237682Y-11857246D02*
X12237682Y-11847722D01*
X12237682Y-11847722D02*
X12247206Y-11828674D01*
X12247206Y-11828674D02*
X12266253Y-11819150D01*
X12266253Y-11819150D02*
X12294825Y-11819150D01*
X12294825Y-11819150D02*
X12313872Y-11828674D01*
X12390063Y-12028674D02*
X12399587Y-12019150D01*
X12399587Y-12019150D02*
X12418634Y-11990579D01*
X12418634Y-11990579D02*
X12428158Y-11971531D01*
X12428158Y-11971531D02*
X12437682Y-11942960D01*
X12437682Y-11942960D02*
X12447206Y-11895341D01*
X12447206Y-11895341D02*
X12447206Y-11857246D01*
X12447206Y-11857246D02*
X12437682Y-11809627D01*
X12437682Y-11809627D02*
X12428158Y-11781055D01*
X12428158Y-11781055D02*
X12418634Y-11762008D01*
X12418634Y-11762008D02*
X12399587Y-11733436D01*
X12399587Y-11733436D02*
X12390063Y-11723912D01*
X7415000Y-12041000D02*
X7615000Y-12241000D01*
X7615000Y-12041000D02*
X7415000Y-12241000D01*
X7615000Y-12141000D02*
G75*
G03*
X7615000Y-12141000I-100000J0D01*
G01*
X7856729Y-12032484D02*
X7980539Y-12032484D01*
X7980539Y-12032484D02*
X7913872Y-12108674D01*
X7913872Y-12108674D02*
X7942443Y-12108674D01*
X7942443Y-12108674D02*
X7961491Y-12118198D01*
X7961491Y-12118198D02*
X7971015Y-12127722D01*
X7971015Y-12127722D02*
X7980539Y-12146769D01*
X7980539Y-12146769D02*
X7980539Y-12194388D01*
X7980539Y-12194388D02*
X7971015Y-12213436D01*
X7971015Y-12213436D02*
X7961491Y-12222960D01*
X7961491Y-12222960D02*
X7942443Y-12232484D01*
X7942443Y-12232484D02*
X7885301Y-12232484D01*
X7885301Y-12232484D02*
X7866253Y-12222960D01*
X7866253Y-12222960D02*
X7856729Y-12213436D01*
X8066253Y-12213436D02*
X8075777Y-12222960D01*
X8075777Y-12222960D02*
X8066253Y-12232484D01*
X8066253Y-12232484D02*
X8056729Y-12222960D01*
X8056729Y-12222960D02*
X8066253Y-12213436D01*
X8066253Y-12213436D02*
X8066253Y-12232484D01*
X8151967Y-12051531D02*
X8161491Y-12042008D01*
X8161491Y-12042008D02*
X8180539Y-12032484D01*
X8180539Y-12032484D02*
X8228158Y-12032484D01*
X8228158Y-12032484D02*
X8247205Y-12042008D01*
X8247205Y-12042008D02*
X8256729Y-12051531D01*
X8256729Y-12051531D02*
X8266253Y-12070579D01*
X8266253Y-12070579D02*
X8266253Y-12089627D01*
X8266253Y-12089627D02*
X8256729Y-12118198D01*
X8256729Y-12118198D02*
X8142443Y-12232484D01*
X8142443Y-12232484D02*
X8266253Y-12232484D01*
X8390063Y-12032484D02*
X8409110Y-12032484D01*
X8409110Y-12032484D02*
X8428158Y-12042008D01*
X8428158Y-12042008D02*
X8437682Y-12051531D01*
X8437682Y-12051531D02*
X8447205Y-12070579D01*
X8447205Y-12070579D02*
X8456729Y-12108674D01*
X8456729Y-12108674D02*
X8456729Y-12156293D01*
X8456729Y-12156293D02*
X8447205Y-12194388D01*
X8447205Y-12194388D02*
X8437682Y-12213436D01*
X8437682Y-12213436D02*
X8428158Y-12222960D01*
X8428158Y-12222960D02*
X8409110Y-12232484D01*
X8409110Y-12232484D02*
X8390063Y-12232484D01*
X8390063Y-12232484D02*
X8371015Y-12222960D01*
X8371015Y-12222960D02*
X8361491Y-12213436D01*
X8361491Y-12213436D02*
X8351967Y-12194388D01*
X8351967Y-12194388D02*
X8342443Y-12156293D01*
X8342443Y-12156293D02*
X8342443Y-12108674D01*
X8342443Y-12108674D02*
X8351967Y-12070579D01*
X8351967Y-12070579D02*
X8361491Y-12051531D01*
X8361491Y-12051531D02*
X8371015Y-12042008D01*
X8371015Y-12042008D02*
X8390063Y-12032484D01*
X8580539Y-12032484D02*
X8599586Y-12032484D01*
X8599586Y-12032484D02*
X8618634Y-12042008D01*
X8618634Y-12042008D02*
X8628158Y-12051531D01*
X8628158Y-12051531D02*
X8637682Y-12070579D01*
X8637682Y-12070579D02*
X8647205Y-12108674D01*
X8647205Y-12108674D02*
X8647205Y-12156293D01*
X8647205Y-12156293D02*
X8637682Y-12194388D01*
X8637682Y-12194388D02*
X8628158Y-12213436D01*
X8628158Y-12213436D02*
X8618634Y-12222960D01*
X8618634Y-12222960D02*
X8599586Y-12232484D01*
X8599586Y-12232484D02*
X8580539Y-12232484D01*
X8580539Y-12232484D02*
X8561491Y-12222960D01*
X8561491Y-12222960D02*
X8551967Y-12213436D01*
X8551967Y-12213436D02*
X8542444Y-12194388D01*
X8542444Y-12194388D02*
X8532920Y-12156293D01*
X8532920Y-12156293D02*
X8532920Y-12108674D01*
X8532920Y-12108674D02*
X8542444Y-12070579D01*
X8542444Y-12070579D02*
X8551967Y-12051531D01*
X8551967Y-12051531D02*
X8561491Y-12042008D01*
X8561491Y-12042008D02*
X8580539Y-12032484D01*
X8732920Y-12232484D02*
X8732920Y-12099150D01*
X8732920Y-12118198D02*
X8742444Y-12108674D01*
X8742444Y-12108674D02*
X8761491Y-12099150D01*
X8761491Y-12099150D02*
X8790063Y-12099150D01*
X8790063Y-12099150D02*
X8809110Y-12108674D01*
X8809110Y-12108674D02*
X8818634Y-12127722D01*
X8818634Y-12127722D02*
X8818634Y-12232484D01*
X8818634Y-12127722D02*
X8828158Y-12108674D01*
X8828158Y-12108674D02*
X8847205Y-12099150D01*
X8847205Y-12099150D02*
X8875777Y-12099150D01*
X8875777Y-12099150D02*
X8894825Y-12108674D01*
X8894825Y-12108674D02*
X8904348Y-12127722D01*
X8904348Y-12127722D02*
X8904348Y-12232484D01*
X8999586Y-12232484D02*
X8999586Y-12099150D01*
X8999586Y-12118198D02*
X9009110Y-12108674D01*
X9009110Y-12108674D02*
X9028158Y-12099150D01*
X9028158Y-12099150D02*
X9056729Y-12099150D01*
X9056729Y-12099150D02*
X9075777Y-12108674D01*
X9075777Y-12108674D02*
X9085301Y-12127722D01*
X9085301Y-12127722D02*
X9085301Y-12232484D01*
X9085301Y-12127722D02*
X9094825Y-12108674D01*
X9094825Y-12108674D02*
X9113872Y-12099150D01*
X9113872Y-12099150D02*
X9142444Y-12099150D01*
X9142444Y-12099150D02*
X9161491Y-12108674D01*
X9161491Y-12108674D02*
X9171015Y-12127722D01*
X9171015Y-12127722D02*
X9171015Y-12232484D01*
X9561491Y-12022960D02*
X9390063Y-12280103D01*
X9818634Y-12032484D02*
X9837682Y-12032484D01*
X9837682Y-12032484D02*
X9856729Y-12042008D01*
X9856729Y-12042008D02*
X9866253Y-12051531D01*
X9866253Y-12051531D02*
X9875777Y-12070579D01*
X9875777Y-12070579D02*
X9885301Y-12108674D01*
X9885301Y-12108674D02*
X9885301Y-12156293D01*
X9885301Y-12156293D02*
X9875777Y-12194388D01*
X9875777Y-12194388D02*
X9866253Y-12213436D01*
X9866253Y-12213436D02*
X9856729Y-12222960D01*
X9856729Y-12222960D02*
X9837682Y-12232484D01*
X9837682Y-12232484D02*
X9818634Y-12232484D01*
X9818634Y-12232484D02*
X9799587Y-12222960D01*
X9799587Y-12222960D02*
X9790063Y-12213436D01*
X9790063Y-12213436D02*
X9780539Y-12194388D01*
X9780539Y-12194388D02*
X9771015Y-12156293D01*
X9771015Y-12156293D02*
X9771015Y-12108674D01*
X9771015Y-12108674D02*
X9780539Y-12070579D01*
X9780539Y-12070579D02*
X9790063Y-12051531D01*
X9790063Y-12051531D02*
X9799587Y-12042008D01*
X9799587Y-12042008D02*
X9818634Y-12032484D01*
X9971015Y-12213436D02*
X9980539Y-12222960D01*
X9980539Y-12222960D02*
X9971015Y-12232484D01*
X9971015Y-12232484D02*
X9961491Y-12222960D01*
X9961491Y-12222960D02*
X9971015Y-12213436D01*
X9971015Y-12213436D02*
X9971015Y-12232484D01*
X10171015Y-12232484D02*
X10056729Y-12232484D01*
X10113872Y-12232484D02*
X10113872Y-12032484D01*
X10113872Y-12032484D02*
X10094825Y-12061055D01*
X10094825Y-12061055D02*
X10075777Y-12080103D01*
X10075777Y-12080103D02*
X10056729Y-12089627D01*
X10247206Y-12051531D02*
X10256729Y-12042008D01*
X10256729Y-12042008D02*
X10275777Y-12032484D01*
X10275777Y-12032484D02*
X10323396Y-12032484D01*
X10323396Y-12032484D02*
X10342444Y-12042008D01*
X10342444Y-12042008D02*
X10351968Y-12051531D01*
X10351968Y-12051531D02*
X10361491Y-12070579D01*
X10361491Y-12070579D02*
X10361491Y-12089627D01*
X10361491Y-12089627D02*
X10351968Y-12118198D01*
X10351968Y-12118198D02*
X10237682Y-12232484D01*
X10237682Y-12232484D02*
X10361491Y-12232484D01*
X10532920Y-12032484D02*
X10494825Y-12032484D01*
X10494825Y-12032484D02*
X10475777Y-12042008D01*
X10475777Y-12042008D02*
X10466253Y-12051531D01*
X10466253Y-12051531D02*
X10447206Y-12080103D01*
X10447206Y-12080103D02*
X10437682Y-12118198D01*
X10437682Y-12118198D02*
X10437682Y-12194388D01*
X10437682Y-12194388D02*
X10447206Y-12213436D01*
X10447206Y-12213436D02*
X10456729Y-12222960D01*
X10456729Y-12222960D02*
X10475777Y-12232484D01*
X10475777Y-12232484D02*
X10513872Y-12232484D01*
X10513872Y-12232484D02*
X10532920Y-12222960D01*
X10532920Y-12222960D02*
X10542444Y-12213436D01*
X10542444Y-12213436D02*
X10551968Y-12194388D01*
X10551968Y-12194388D02*
X10551968Y-12146769D01*
X10551968Y-12146769D02*
X10542444Y-12127722D01*
X10542444Y-12127722D02*
X10532920Y-12118198D01*
X10532920Y-12118198D02*
X10513872Y-12108674D01*
X10513872Y-12108674D02*
X10475777Y-12108674D01*
X10475777Y-12108674D02*
X10456729Y-12118198D01*
X10456729Y-12118198D02*
X10447206Y-12127722D01*
X10447206Y-12127722D02*
X10437682Y-12146769D01*
X10675777Y-12032484D02*
X10694825Y-12032484D01*
X10694825Y-12032484D02*
X10713872Y-12042008D01*
X10713872Y-12042008D02*
X10723396Y-12051531D01*
X10723396Y-12051531D02*
X10732920Y-12070579D01*
X10732920Y-12070579D02*
X10742444Y-12108674D01*
X10742444Y-12108674D02*
X10742444Y-12156293D01*
X10742444Y-12156293D02*
X10732920Y-12194388D01*
X10732920Y-12194388D02*
X10723396Y-12213436D01*
X10723396Y-12213436D02*
X10713872Y-12222960D01*
X10713872Y-12222960D02*
X10694825Y-12232484D01*
X10694825Y-12232484D02*
X10675777Y-12232484D01*
X10675777Y-12232484D02*
X10656729Y-12222960D01*
X10656729Y-12222960D02*
X10647206Y-12213436D01*
X10647206Y-12213436D02*
X10637682Y-12194388D01*
X10637682Y-12194388D02*
X10628158Y-12156293D01*
X10628158Y-12156293D02*
X10628158Y-12108674D01*
X10628158Y-12108674D02*
X10637682Y-12070579D01*
X10637682Y-12070579D02*
X10647206Y-12051531D01*
X10647206Y-12051531D02*
X10656729Y-12042008D01*
X10656729Y-12042008D02*
X10675777Y-12032484D01*
X10818634Y-12032484D02*
X10818634Y-12070579D01*
X10894825Y-12032484D02*
X10894825Y-12070579D01*
X11190063Y-12308674D02*
X11180539Y-12299150D01*
X11180539Y-12299150D02*
X11161491Y-12270579D01*
X11161491Y-12270579D02*
X11151968Y-12251531D01*
X11151968Y-12251531D02*
X11142444Y-12222960D01*
X11142444Y-12222960D02*
X11132920Y-12175341D01*
X11132920Y-12175341D02*
X11132920Y-12137246D01*
X11132920Y-12137246D02*
X11142444Y-12089627D01*
X11142444Y-12089627D02*
X11151968Y-12061055D01*
X11151968Y-12061055D02*
X11161491Y-12042008D01*
X11161491Y-12042008D02*
X11180539Y-12013436D01*
X11180539Y-12013436D02*
X11190063Y-12003912D01*
X11351968Y-12099150D02*
X11351968Y-12232484D01*
X11304348Y-12022960D02*
X11256729Y-12165817D01*
X11256729Y-12165817D02*
X11380539Y-12165817D01*
X11609110Y-12232484D02*
X11609110Y-12032484D01*
X11694825Y-12232484D02*
X11694825Y-12127722D01*
X11694825Y-12127722D02*
X11685301Y-12108674D01*
X11685301Y-12108674D02*
X11666253Y-12099150D01*
X11666253Y-12099150D02*
X11637682Y-12099150D01*
X11637682Y-12099150D02*
X11618634Y-12108674D01*
X11618634Y-12108674D02*
X11609110Y-12118198D01*
X11818634Y-12232484D02*
X11799587Y-12222960D01*
X11799587Y-12222960D02*
X11790063Y-12213436D01*
X11790063Y-12213436D02*
X11780539Y-12194388D01*
X11780539Y-12194388D02*
X11780539Y-12137246D01*
X11780539Y-12137246D02*
X11790063Y-12118198D01*
X11790063Y-12118198D02*
X11799587Y-12108674D01*
X11799587Y-12108674D02*
X11818634Y-12099150D01*
X11818634Y-12099150D02*
X11847206Y-12099150D01*
X11847206Y-12099150D02*
X11866253Y-12108674D01*
X11866253Y-12108674D02*
X11875777Y-12118198D01*
X11875777Y-12118198D02*
X11885301Y-12137246D01*
X11885301Y-12137246D02*
X11885301Y-12194388D01*
X11885301Y-12194388D02*
X11875777Y-12213436D01*
X11875777Y-12213436D02*
X11866253Y-12222960D01*
X11866253Y-12222960D02*
X11847206Y-12232484D01*
X11847206Y-12232484D02*
X11818634Y-12232484D01*
X11999587Y-12232484D02*
X11980539Y-12222960D01*
X11980539Y-12222960D02*
X11971015Y-12203912D01*
X11971015Y-12203912D02*
X11971015Y-12032484D01*
X12151968Y-12222960D02*
X12132920Y-12232484D01*
X12132920Y-12232484D02*
X12094825Y-12232484D01*
X12094825Y-12232484D02*
X12075777Y-12222960D01*
X12075777Y-12222960D02*
X12066253Y-12203912D01*
X12066253Y-12203912D02*
X12066253Y-12127722D01*
X12066253Y-12127722D02*
X12075777Y-12108674D01*
X12075777Y-12108674D02*
X12094825Y-12099150D01*
X12094825Y-12099150D02*
X12132920Y-12099150D01*
X12132920Y-12099150D02*
X12151968Y-12108674D01*
X12151968Y-12108674D02*
X12161491Y-12127722D01*
X12161491Y-12127722D02*
X12161491Y-12146769D01*
X12161491Y-12146769D02*
X12066253Y-12165817D01*
X12237682Y-12222960D02*
X12256730Y-12232484D01*
X12256730Y-12232484D02*
X12294825Y-12232484D01*
X12294825Y-12232484D02*
X12313872Y-12222960D01*
X12313872Y-12222960D02*
X12323396Y-12203912D01*
X12323396Y-12203912D02*
X12323396Y-12194388D01*
X12323396Y-12194388D02*
X12313872Y-12175341D01*
X12313872Y-12175341D02*
X12294825Y-12165817D01*
X12294825Y-12165817D02*
X12266253Y-12165817D01*
X12266253Y-12165817D02*
X12247206Y-12156293D01*
X12247206Y-12156293D02*
X12237682Y-12137246D01*
X12237682Y-12137246D02*
X12237682Y-12127722D01*
X12237682Y-12127722D02*
X12247206Y-12108674D01*
X12247206Y-12108674D02*
X12266253Y-12099150D01*
X12266253Y-12099150D02*
X12294825Y-12099150D01*
X12294825Y-12099150D02*
X12313872Y-12108674D01*
X12390063Y-12308674D02*
X12399587Y-12299150D01*
X12399587Y-12299150D02*
X12418634Y-12270579D01*
X12418634Y-12270579D02*
X12428158Y-12251531D01*
X12428158Y-12251531D02*
X12437682Y-12222960D01*
X12437682Y-12222960D02*
X12447206Y-12175341D01*
X12447206Y-12175341D02*
X12447206Y-12137246D01*
X12447206Y-12137246D02*
X12437682Y-12089627D01*
X12437682Y-12089627D02*
X12428158Y-12061055D01*
X12428158Y-12061055D02*
X12418634Y-12042008D01*
X12418634Y-12042008D02*
X12399587Y-12013436D01*
X12399587Y-12013436D02*
X12390063Y-12003912D01*
M02*
