M48
; DRILL file {KiCad 7.0.5-0} date 2023 September 25, Monday 22:44:17
; FORMAT={-:-/ absolute / metric / decimal}
; #@! TF.CreationDate,2023-09-25T22:44:17+01:00
; #@! TF.GenerationSoftware,Kicad,Pcbnew,7.0.5-0
; #@! TF.FileFunction,Plated,1,4,PTH
FMAT,2
METRIC
; #@! TA.AperFunction,Plated,PTH,ViaDrill
T1C0.300
; #@! TA.AperFunction,Plated,PTH,ViaDrill
T2C0.350
; #@! TA.AperFunction,Plated,PTH,ComponentDrill
T3C0.500
; #@! TA.AperFunction,Plated,PTH,ComponentDrill
T4C1.000
; #@! TA.AperFunction,Plated,PTH,ComponentDrill
T5C1.600
; #@! TA.AperFunction,Plated,PTH,ComponentDrill
T6C3.200
%
G90
G05
T1
X108.99Y-87.97
X129.564Y-88.605
X130.072Y-89.24
X134.39Y-87.97
X152.17Y-87.97
X155.98Y-87.97
X173.76Y-87.97
X177.57Y-87.97
X178.84Y-88.605
X189.928Y-98.475
X191.135Y-93.98
X197.485Y-79.375
X203.835Y-87.925
X205.74Y-73.66
X207.772Y-94.615
T2
X88.265Y-93.98
X89.332Y-74.93
X89.332Y-75.565
X89.332Y-76.2
X89.332Y-80.01
X89.967Y-80.01
X90.602Y-80.01
X90.805Y-94.615
X91.123Y-76.2
X91.757Y-76.2
X93.345Y-94.615
X93.98Y-73.469
X94.615Y-73.469
X95.25Y-73.469
X95.885Y-93.98
X116.145Y-92.075
X117.645Y-86.995
X118.11Y-75.27
X118.11Y-77.81
X134.735Y-96.52
X137.735Y-92.075
X139.235Y-92.075
X139.7Y-75.27
X139.7Y-77.81
X156.325Y-96.52
X159.325Y-92.075
X160.825Y-92.075
X161.29Y-75.27
X161.29Y-77.81
X177.915Y-96.52
X180.915Y-92.075
X182.415Y-92.075
X182.88Y-75.27
X182.88Y-77.81
X194.83Y-81.534
X194.945Y-84.625
X194.945Y-86.825
X194.945Y-89.025
X194.945Y-96.425
X194.945Y-98.625
X196.723Y-84.625
X196.723Y-86.825
X196.723Y-89.025
X196.723Y-92.025
X196.723Y-94.225
X196.723Y-96.425
X196.723Y-98.625
X198.501Y-84.625
X198.501Y-86.825
X198.501Y-89.025
X198.501Y-92.025
X198.501Y-94.225
X198.501Y-96.425
X198.501Y-98.625
X200.279Y-84.625
X200.279Y-86.825
X200.279Y-89.025
X200.279Y-92.025
X200.279Y-94.225
X200.279Y-96.425
X200.279Y-98.625
X202.057Y-84.625
X202.057Y-86.825
X202.057Y-89.025
X202.057Y-92.025
X202.057Y-94.225
X202.057Y-96.425
X202.057Y-98.625
X203.2Y-71.755
X203.835Y-84.625
X203.835Y-85.725
X203.835Y-86.825
X203.835Y-89.025
X203.835Y-92.025
X203.835Y-94.225
X203.835Y-96.425
X203.835Y-98.625
X207.01Y-84.709
X208.28Y-84.709
X209.55Y-84.709
X209.55Y-86.741
X210.82Y-84.709
X210.82Y-86.741
X212.09Y-84.709
X212.09Y-86.741
X213.36Y-84.709
X213.36Y-86.741
X214.63Y-84.709
X214.63Y-86.741
X215.9Y-84.709
X215.9Y-86.741
T3
X78.245Y-74.295
X78.245Y-97.155
X78.948Y-72.598
X78.948Y-75.992
X78.948Y-95.458
X78.948Y-98.852
X80.645Y-71.895
X80.645Y-76.695
X80.645Y-94.755
X80.645Y-99.555
X82.342Y-72.598
X82.342Y-75.992
X82.342Y-95.458
X82.342Y-98.852
X83.045Y-74.295
X83.045Y-97.155
X221.755Y-74.295
X221.755Y-97.155
X222.458Y-72.598
X222.458Y-75.992
X222.458Y-95.458
X222.458Y-98.852
X224.155Y-71.895
X224.155Y-76.695
X224.155Y-94.755
X224.155Y-99.555
X225.852Y-72.598
X225.852Y-75.992
X225.852Y-95.458
X225.852Y-98.852
X226.555Y-74.295
X226.555Y-97.155
T4
X92.075Y-82.725
X92.075Y-85.725
X92.075Y-88.725
T5
X212.41Y-82.725
X212.41Y-88.725
X217.41Y-82.725
X217.41Y-88.725
T6
X80.645Y-74.295
X80.645Y-97.155
X224.155Y-74.295
X224.155Y-97.155
T0
M30
