%TF.GenerationSoftware,KiCad,Pcbnew,7.0.5-0*%
%TF.CreationDate,2023-09-25T22:43:47+01:00*%
%TF.ProjectId,INCLINOMETER_BOARD,494e434c-494e-44f4-9d45-5445525f424f,rev?*%
%TF.SameCoordinates,Original*%
%TF.FileFunction,Legend,Bot*%
%TF.FilePolarity,Positive*%
%FSLAX46Y46*%
G04 Gerber Fmt 4.6, Leading zero omitted, Abs format (unit mm)*
G04 Created by KiCad (PCBNEW 7.0.5-0) date 2023-09-25 22:43:47*
%MOMM*%
%LPD*%
G01*
G04 APERTURE LIST*
G04 Aperture macros list*
%AMRoundRect*
0 Rectangle with rounded corners*
0 $1 Rounding radius*
0 $2 $3 $4 $5 $6 $7 $8 $9 X,Y pos of 4 corners*
0 Add a 4 corners polygon primitive as box body*
4,1,4,$2,$3,$4,$5,$6,$7,$8,$9,$2,$3,0*
0 Add four circle primitives for the rounded corners*
1,1,$1+$1,$2,$3*
1,1,$1+$1,$4,$5*
1,1,$1+$1,$6,$7*
1,1,$1+$1,$8,$9*
0 Add four rect primitives between the rounded corners*
20,1,$1+$1,$2,$3,$4,$5,0*
20,1,$1+$1,$4,$5,$6,$7,0*
20,1,$1+$1,$6,$7,$8,$9,0*
20,1,$1+$1,$8,$9,$2,$3,0*%
G04 Aperture macros list end*
%ADD10C,0.203200*%
%ADD11C,0.800000*%
%ADD12C,6.400000*%
%ADD13C,2.100000*%
%ADD14RoundRect,0.525000X-1.375000X0.525000X-1.375000X-0.525000X1.375000X-0.525000X1.375000X0.525000X0*%
%ADD15RoundRect,0.525000X-2.075000X0.525000X-2.075000X-0.525000X2.075000X-0.525000X2.075000X0.525000X0*%
%ADD16C,3.000000*%
%ADD17C,1.800000*%
%ADD18RoundRect,0.600000X-0.600000X-1.000000X0.600000X-1.000000X0.600000X1.000000X-0.600000X1.000000X0*%
%ADD19RoundRect,0.450000X0.000000X-1.050000X0.000000X-1.050000X0.000000X1.050000X0.000000X1.050000X0*%
G04 APERTURE END LIST*
D10*
X117233095Y-100271959D02*
X117233095Y-99001959D01*
X116628333Y-100271959D02*
X116628333Y-99001959D01*
X116628333Y-99001959D02*
X115902618Y-100271959D01*
X115902618Y-100271959D02*
X115902618Y-99001959D01*
X114572142Y-100151006D02*
X114632618Y-100211483D01*
X114632618Y-100211483D02*
X114814047Y-100271959D01*
X114814047Y-100271959D02*
X114934999Y-100271959D01*
X114934999Y-100271959D02*
X115116428Y-100211483D01*
X115116428Y-100211483D02*
X115237380Y-100090530D01*
X115237380Y-100090530D02*
X115297857Y-99969578D01*
X115297857Y-99969578D02*
X115358333Y-99727673D01*
X115358333Y-99727673D02*
X115358333Y-99546244D01*
X115358333Y-99546244D02*
X115297857Y-99304340D01*
X115297857Y-99304340D02*
X115237380Y-99183387D01*
X115237380Y-99183387D02*
X115116428Y-99062435D01*
X115116428Y-99062435D02*
X114934999Y-99001959D01*
X114934999Y-99001959D02*
X114814047Y-99001959D01*
X114814047Y-99001959D02*
X114632618Y-99062435D01*
X114632618Y-99062435D02*
X114572142Y-99122911D01*
X113423095Y-100271959D02*
X114027857Y-100271959D01*
X114027857Y-100271959D02*
X114027857Y-99001959D01*
X112999762Y-100271959D02*
X112999762Y-99001959D01*
X112395000Y-100271959D02*
X112395000Y-99001959D01*
X112395000Y-99001959D02*
X111669285Y-100271959D01*
X111669285Y-100271959D02*
X111669285Y-99001959D01*
X110822619Y-99001959D02*
X110580714Y-99001959D01*
X110580714Y-99001959D02*
X110459762Y-99062435D01*
X110459762Y-99062435D02*
X110338809Y-99183387D01*
X110338809Y-99183387D02*
X110278333Y-99425292D01*
X110278333Y-99425292D02*
X110278333Y-99848625D01*
X110278333Y-99848625D02*
X110338809Y-100090530D01*
X110338809Y-100090530D02*
X110459762Y-100211483D01*
X110459762Y-100211483D02*
X110580714Y-100271959D01*
X110580714Y-100271959D02*
X110822619Y-100271959D01*
X110822619Y-100271959D02*
X110943571Y-100211483D01*
X110943571Y-100211483D02*
X111064524Y-100090530D01*
X111064524Y-100090530D02*
X111125000Y-99848625D01*
X111125000Y-99848625D02*
X111125000Y-99425292D01*
X111125000Y-99425292D02*
X111064524Y-99183387D01*
X111064524Y-99183387D02*
X110943571Y-99062435D01*
X110943571Y-99062435D02*
X110822619Y-99001959D01*
X109734048Y-100271959D02*
X109734048Y-99001959D01*
X109734048Y-99001959D02*
X109310714Y-99909102D01*
X109310714Y-99909102D02*
X108887381Y-99001959D01*
X108887381Y-99001959D02*
X108887381Y-100271959D01*
X108282619Y-99606721D02*
X107859285Y-99606721D01*
X107677857Y-100271959D02*
X108282619Y-100271959D01*
X108282619Y-100271959D02*
X108282619Y-99001959D01*
X108282619Y-99001959D02*
X107677857Y-99001959D01*
X107314999Y-99001959D02*
X106589285Y-99001959D01*
X106952142Y-100271959D02*
X106952142Y-99001959D01*
X106165952Y-99606721D02*
X105742618Y-99606721D01*
X105561190Y-100271959D02*
X106165952Y-100271959D01*
X106165952Y-100271959D02*
X106165952Y-99001959D01*
X106165952Y-99001959D02*
X105561190Y-99001959D01*
X104291189Y-100271959D02*
X104714523Y-99667197D01*
X105016904Y-100271959D02*
X105016904Y-99001959D01*
X105016904Y-99001959D02*
X104533094Y-99001959D01*
X104533094Y-99001959D02*
X104412142Y-99062435D01*
X104412142Y-99062435D02*
X104351665Y-99122911D01*
X104351665Y-99122911D02*
X104291189Y-99243863D01*
X104291189Y-99243863D02*
X104291189Y-99425292D01*
X104291189Y-99425292D02*
X104351665Y-99546244D01*
X104351665Y-99546244D02*
X104412142Y-99606721D01*
X104412142Y-99606721D02*
X104533094Y-99667197D01*
X104533094Y-99667197D02*
X105016904Y-99667197D01*
X104049285Y-100392911D02*
X103081665Y-100392911D01*
X102779285Y-100271959D02*
X102779285Y-99001959D01*
X102174523Y-100271959D02*
X102174523Y-99001959D01*
X102174523Y-99001959D02*
X101448808Y-100271959D01*
X101448808Y-100271959D02*
X101448808Y-99001959D01*
X100420713Y-99606721D02*
X100844047Y-99606721D01*
X100844047Y-100271959D02*
X100844047Y-99001959D01*
X100844047Y-99001959D02*
X100239285Y-99001959D01*
X99513571Y-99001959D02*
X99271666Y-99001959D01*
X99271666Y-99001959D02*
X99150714Y-99062435D01*
X99150714Y-99062435D02*
X99029761Y-99183387D01*
X99029761Y-99183387D02*
X98969285Y-99425292D01*
X98969285Y-99425292D02*
X98969285Y-99848625D01*
X98969285Y-99848625D02*
X99029761Y-100090530D01*
X99029761Y-100090530D02*
X99150714Y-100211483D01*
X99150714Y-100211483D02*
X99271666Y-100271959D01*
X99271666Y-100271959D02*
X99513571Y-100271959D01*
X99513571Y-100271959D02*
X99634523Y-100211483D01*
X99634523Y-100211483D02*
X99755476Y-100090530D01*
X99755476Y-100090530D02*
X99815952Y-99848625D01*
X99815952Y-99848625D02*
X99815952Y-99425292D01*
X99815952Y-99425292D02*
X99755476Y-99183387D01*
X99755476Y-99183387D02*
X99634523Y-99062435D01*
X99634523Y-99062435D02*
X99513571Y-99001959D01*
X98727381Y-100392911D02*
X97759761Y-100392911D01*
X96731666Y-100151006D02*
X96792142Y-100211483D01*
X96792142Y-100211483D02*
X96973571Y-100271959D01*
X96973571Y-100271959D02*
X97094523Y-100271959D01*
X97094523Y-100271959D02*
X97275952Y-100211483D01*
X97275952Y-100211483D02*
X97396904Y-100090530D01*
X97396904Y-100090530D02*
X97457381Y-99969578D01*
X97457381Y-99969578D02*
X97517857Y-99727673D01*
X97517857Y-99727673D02*
X97517857Y-99546244D01*
X97517857Y-99546244D02*
X97457381Y-99304340D01*
X97457381Y-99304340D02*
X97396904Y-99183387D01*
X97396904Y-99183387D02*
X97275952Y-99062435D01*
X97275952Y-99062435D02*
X97094523Y-99001959D01*
X97094523Y-99001959D02*
X96973571Y-99001959D01*
X96973571Y-99001959D02*
X96792142Y-99062435D01*
X96792142Y-99062435D02*
X96731666Y-99122911D01*
X96187381Y-99606721D02*
X95764047Y-99606721D01*
X95582619Y-100271959D02*
X96187381Y-100271959D01*
X96187381Y-100271959D02*
X96187381Y-99001959D01*
X96187381Y-99001959D02*
X95582619Y-99001959D01*
X95038333Y-100271959D02*
X95038333Y-99001959D01*
X95038333Y-99001959D02*
X94312618Y-100271959D01*
X94312618Y-100271959D02*
X94312618Y-99001959D01*
X93889285Y-99001959D02*
X93163571Y-99001959D01*
X93526428Y-100271959D02*
X93526428Y-99001959D01*
X92014523Y-100271959D02*
X92437857Y-99667197D01*
X92740238Y-100271959D02*
X92740238Y-99001959D01*
X92740238Y-99001959D02*
X92256428Y-99001959D01*
X92256428Y-99001959D02*
X92135476Y-99062435D01*
X92135476Y-99062435D02*
X92074999Y-99122911D01*
X92074999Y-99122911D02*
X92014523Y-99243863D01*
X92014523Y-99243863D02*
X92014523Y-99425292D01*
X92014523Y-99425292D02*
X92074999Y-99546244D01*
X92074999Y-99546244D02*
X92135476Y-99606721D01*
X92135476Y-99606721D02*
X92256428Y-99667197D01*
X92256428Y-99667197D02*
X92740238Y-99667197D01*
X91470238Y-99606721D02*
X91046904Y-99606721D01*
X90865476Y-100271959D02*
X91470238Y-100271959D01*
X91470238Y-100271959D02*
X91470238Y-99001959D01*
X91470238Y-99001959D02*
X90865476Y-99001959D01*
X90623571Y-100392911D02*
X89655951Y-100392911D01*
X89474523Y-99425292D02*
X89172142Y-100271959D01*
X89172142Y-100271959D02*
X88869761Y-99425292D01*
X87720713Y-100271959D02*
X88446428Y-100271959D01*
X88083571Y-100271959D02*
X88083571Y-99001959D01*
X88083571Y-99001959D02*
X88204523Y-99183387D01*
X88204523Y-99183387D02*
X88325475Y-99304340D01*
X88325475Y-99304340D02*
X88446428Y-99364816D01*
X87176428Y-100151006D02*
X87115951Y-100211483D01*
X87115951Y-100211483D02*
X87176428Y-100271959D01*
X87176428Y-100271959D02*
X87236904Y-100211483D01*
X87236904Y-100211483D02*
X87176428Y-100151006D01*
X87176428Y-100151006D02*
X87176428Y-100271959D01*
X86329761Y-99001959D02*
X86208808Y-99001959D01*
X86208808Y-99001959D02*
X86087856Y-99062435D01*
X86087856Y-99062435D02*
X86027380Y-99122911D01*
X86027380Y-99122911D02*
X85966904Y-99243863D01*
X85966904Y-99243863D02*
X85906427Y-99485768D01*
X85906427Y-99485768D02*
X85906427Y-99788149D01*
X85906427Y-99788149D02*
X85966904Y-100030054D01*
X85966904Y-100030054D02*
X86027380Y-100151006D01*
X86027380Y-100151006D02*
X86087856Y-100211483D01*
X86087856Y-100211483D02*
X86208808Y-100271959D01*
X86208808Y-100271959D02*
X86329761Y-100271959D01*
X86329761Y-100271959D02*
X86450713Y-100211483D01*
X86450713Y-100211483D02*
X86511189Y-100151006D01*
X86511189Y-100151006D02*
X86571666Y-100030054D01*
X86571666Y-100030054D02*
X86632142Y-99788149D01*
X86632142Y-99788149D02*
X86632142Y-99485768D01*
X86632142Y-99485768D02*
X86571666Y-99243863D01*
X86571666Y-99243863D02*
X86511189Y-99122911D01*
X86511189Y-99122911D02*
X86450713Y-99062435D01*
X86450713Y-99062435D02*
X86329761Y-99001959D01*
X95690001Y-87725000D02*
X94250001Y-87725000D01*
X94250001Y-89725000D01*
X95690001Y-89725000D01*
X95690001Y-89975000D01*
X94635001Y-89975000D01*
X94551727Y-89972527D01*
X94390855Y-89929422D01*
X94246620Y-89846148D01*
X94128853Y-89728381D01*
X94045579Y-89584146D01*
X94002474Y-89423274D01*
X94000001Y-89340000D01*
X94000001Y-87475000D01*
X95690001Y-87475000D01*
X95690001Y-87725000D01*
G36*
X95690001Y-87725000D02*
G01*
X94250001Y-87725000D01*
X94250001Y-89725000D01*
X95690001Y-89725000D01*
X95690001Y-89975000D01*
X94635001Y-89975000D01*
X94551727Y-89972527D01*
X94390855Y-89929422D01*
X94246620Y-89846148D01*
X94128853Y-89728381D01*
X94045579Y-89584146D01*
X94002474Y-89423274D01*
X94000001Y-89340000D01*
X94000001Y-87475000D01*
X95690001Y-87475000D01*
X95690001Y-87725000D01*
G37*
X98250000Y-87725000D02*
X97250000Y-87725000D01*
X97250000Y-89725000D01*
X98250000Y-89725000D01*
X98250000Y-89975000D01*
X97000000Y-89975000D01*
X97000000Y-87475000D01*
X98250000Y-87475000D01*
X98250000Y-87725000D01*
G36*
X98250000Y-87725000D02*
G01*
X97250000Y-87725000D01*
X97250000Y-89725000D01*
X98250000Y-89725000D01*
X98250000Y-89975000D01*
X97000000Y-89975000D01*
X97000000Y-87475000D01*
X98250000Y-87475000D01*
X98250000Y-87725000D01*
G37*
X96500000Y-89975000D02*
X95250000Y-89975000D01*
X95250000Y-89725000D01*
X96250000Y-89725000D01*
X96250000Y-87725000D01*
X95250000Y-87725000D01*
X95250000Y-87475000D01*
X96500000Y-87475000D01*
X96500000Y-89975000D01*
G36*
X96500000Y-89975000D02*
G01*
X95250000Y-89975000D01*
X95250000Y-89725000D01*
X96250000Y-89725000D01*
X96250000Y-87725000D01*
X95250000Y-87725000D01*
X95250000Y-87475000D01*
X96500000Y-87475000D01*
X96500000Y-89975000D01*
G37*
X95690001Y-81725000D02*
X94250001Y-81725000D01*
X94250001Y-83725000D01*
X95690001Y-83725000D01*
X95690001Y-83975000D01*
X94000001Y-83975000D01*
X94000001Y-82110000D01*
X94002474Y-82026726D01*
X94045579Y-81865854D01*
X94128853Y-81721619D01*
X94246620Y-81603852D01*
X94390855Y-81520578D01*
X94551727Y-81477473D01*
X94635001Y-81475000D01*
X95690001Y-81475000D01*
X95690001Y-81725000D01*
G36*
X95690001Y-81725000D02*
G01*
X94250001Y-81725000D01*
X94250001Y-83725000D01*
X95690001Y-83725000D01*
X95690001Y-83975000D01*
X94000001Y-83975000D01*
X94000001Y-82110000D01*
X94002474Y-82026726D01*
X94045579Y-81865854D01*
X94128853Y-81721619D01*
X94246620Y-81603852D01*
X94390855Y-81520578D01*
X94551727Y-81477473D01*
X94635001Y-81475000D01*
X95690001Y-81475000D01*
X95690001Y-81725000D01*
G37*
X102226000Y-86975000D02*
X97996000Y-86975000D01*
X97996000Y-86725000D01*
X101468000Y-86725000D01*
X101468000Y-84725000D01*
X97996000Y-84725000D01*
X97996000Y-84475000D01*
X102226000Y-84475000D01*
X102226000Y-86975000D01*
G36*
X102226000Y-86975000D02*
G01*
X97996000Y-86975000D01*
X97996000Y-86725000D01*
X101468000Y-86725000D01*
X101468000Y-84725000D01*
X97996000Y-84725000D01*
X97996000Y-84475000D01*
X102226000Y-84475000D01*
X102226000Y-86975000D01*
G37*
X98250000Y-81725000D02*
X97250000Y-81725000D01*
X97250000Y-83725000D01*
X98250000Y-83725000D01*
X98250000Y-83975000D01*
X97000000Y-83975000D01*
X97000000Y-81475000D01*
X98250000Y-81475000D01*
X98250000Y-81725000D01*
G36*
X98250000Y-81725000D02*
G01*
X97250000Y-81725000D01*
X97250000Y-83725000D01*
X98250000Y-83725000D01*
X98250000Y-83975000D01*
X97000000Y-83975000D01*
X97000000Y-81475000D01*
X98250000Y-81475000D01*
X98250000Y-81725000D01*
G37*
X95250000Y-84725000D02*
X94250000Y-84725000D01*
X94250000Y-86725000D01*
X95250000Y-86725000D01*
X95250000Y-86975000D01*
X94000000Y-86975000D01*
X94000000Y-84475000D01*
X95250000Y-84475000D01*
X95250000Y-84725000D01*
G36*
X95250000Y-84725000D02*
G01*
X94250000Y-84725000D01*
X94250000Y-86725000D01*
X95250000Y-86725000D01*
X95250000Y-86975000D01*
X94000000Y-86975000D01*
X94000000Y-84475000D01*
X95250000Y-84475000D01*
X95250000Y-84725000D01*
G37*
X98250000Y-84725000D02*
X97250000Y-84725000D01*
X97250000Y-86725000D01*
X98250000Y-86725000D01*
X98250000Y-86975000D01*
X97000000Y-86975000D01*
X97000000Y-84475000D01*
X98250000Y-84475000D01*
X98250000Y-84725000D01*
G36*
X98250000Y-84725000D02*
G01*
X97250000Y-84725000D01*
X97250000Y-86725000D01*
X98250000Y-86725000D01*
X98250000Y-86975000D01*
X97000000Y-86975000D01*
X97000000Y-84475000D01*
X98250000Y-84475000D01*
X98250000Y-84725000D01*
G37*
X96500000Y-86975000D02*
X95250000Y-86975000D01*
X95250000Y-86725000D01*
X96250000Y-86725000D01*
X96250000Y-84725000D01*
X95250000Y-84725000D01*
X95250000Y-84475000D01*
X96500000Y-84475000D01*
X96500000Y-86975000D01*
G36*
X96500000Y-86975000D02*
G01*
X95250000Y-86975000D01*
X95250000Y-86725000D01*
X96250000Y-86725000D01*
X96250000Y-84725000D01*
X95250000Y-84725000D01*
X95250000Y-84475000D01*
X96500000Y-84475000D01*
X96500000Y-86975000D01*
G37*
X102226000Y-89340000D02*
X102223527Y-89423274D01*
X102180422Y-89584146D01*
X102097148Y-89728381D01*
X101979381Y-89846148D01*
X101835146Y-89929422D01*
X101674274Y-89972527D01*
X101591000Y-89975000D01*
X97996000Y-89975000D01*
X97996000Y-89725000D01*
X101468000Y-89725000D01*
X101468000Y-87725000D01*
X97996000Y-87725000D01*
X97996000Y-87475000D01*
X102226000Y-87475000D01*
X102226000Y-89340000D01*
G36*
X102226000Y-89340000D02*
G01*
X102223527Y-89423274D01*
X102180422Y-89584146D01*
X102097148Y-89728381D01*
X101979381Y-89846148D01*
X101835146Y-89929422D01*
X101674274Y-89972527D01*
X101591000Y-89975000D01*
X97996000Y-89975000D01*
X97996000Y-89725000D01*
X101468000Y-89725000D01*
X101468000Y-87725000D01*
X97996000Y-87725000D01*
X97996000Y-87475000D01*
X102226000Y-87475000D01*
X102226000Y-89340000D01*
G37*
X96500000Y-83975000D02*
X95250000Y-83975000D01*
X95250000Y-83725000D01*
X96250000Y-83725000D01*
X96250000Y-81725000D01*
X95250000Y-81725000D01*
X95250000Y-81475000D01*
X96500000Y-81475000D01*
X96500000Y-83975000D01*
G36*
X96500000Y-83975000D02*
G01*
X95250000Y-83975000D01*
X95250000Y-83725000D01*
X96250000Y-83725000D01*
X96250000Y-81725000D01*
X95250000Y-81725000D01*
X95250000Y-81475000D01*
X96500000Y-81475000D01*
X96500000Y-83975000D01*
G37*
X101674274Y-81477473D02*
X101835146Y-81520578D01*
X101979381Y-81603852D01*
X102097148Y-81721619D01*
X102180422Y-81865854D01*
X102223527Y-82026726D01*
X102226000Y-82110000D01*
X102226000Y-83975000D01*
X97996000Y-83975000D01*
X97996000Y-83725000D01*
X101595000Y-83725000D01*
X101595000Y-81725000D01*
X97996000Y-81725000D01*
X97996000Y-81475000D01*
X101591000Y-81475000D01*
X101674274Y-81477473D01*
G36*
X101674274Y-81477473D02*
G01*
X101835146Y-81520578D01*
X101979381Y-81603852D01*
X102097148Y-81721619D01*
X102180422Y-81865854D01*
X102223527Y-82026726D01*
X102226000Y-82110000D01*
X102226000Y-83975000D01*
X97996000Y-83975000D01*
X97996000Y-83725000D01*
X101595000Y-83725000D01*
X101595000Y-81725000D01*
X97996000Y-81725000D01*
X97996000Y-81475000D01*
X101591000Y-81475000D01*
X101674274Y-81477473D01*
G37*
%TO.C,kibuzzard-64DFFC28*%
G36*
X96235441Y-83660434D02*
G01*
X95739347Y-83660434D01*
X94760653Y-83660434D01*
X94264559Y-83660434D01*
X94264559Y-83461997D01*
X94760653Y-83461997D01*
X95656003Y-83461997D01*
X95656003Y-83219109D01*
X95346441Y-83219109D01*
X95346441Y-82395197D01*
X95498841Y-82479731D01*
X95644097Y-82538072D01*
X95739347Y-82295184D01*
X95615522Y-82240416D01*
X95482172Y-82166597D01*
X95355966Y-82080872D01*
X95253572Y-81988003D01*
X95053547Y-81988003D01*
X95053547Y-83219109D01*
X94760653Y-83219109D01*
X94760653Y-83461997D01*
X94264559Y-83461997D01*
X94264559Y-81789566D01*
X94760653Y-81789566D01*
X95739347Y-81789566D01*
X96235441Y-81789566D01*
X96235441Y-83660434D01*
G37*
%TO.C,J8*%
X182415000Y-101600000D02*
X182415000Y-97100000D01*
X181415000Y-97100000D02*
X182415000Y-97100000D01*
X181415000Y-94850000D02*
X181415000Y-97100000D01*
X181415000Y-94850000D02*
X172915000Y-94850000D01*
X177165000Y-101600000D02*
X182415000Y-101600000D01*
X177165000Y-101600000D02*
X171915000Y-101600000D01*
X172915000Y-97100000D02*
X171915000Y-97100000D01*
X172915000Y-94850000D02*
X172915000Y-97100000D01*
X171915000Y-101600000D02*
X171915000Y-97100000D01*
%TO.C,kibuzzard-64EF6BB1*%
G36*
X156253656Y-71598509D02*
G01*
X156326284Y-71604463D01*
X156326284Y-72080713D01*
X156207222Y-72080713D01*
X156083992Y-72066723D01*
X155995291Y-72024753D01*
X155941712Y-71948851D01*
X155923853Y-71833063D01*
X155941415Y-71723227D01*
X155994100Y-71650897D01*
X156075955Y-71610713D01*
X156181028Y-71597319D01*
X156253656Y-71598509D01*
G37*
G36*
X158067824Y-71146011D02*
G01*
X158249335Y-71201071D01*
X158416617Y-71290486D01*
X158563241Y-71410817D01*
X158683572Y-71557441D01*
X158772986Y-71724723D01*
X158828047Y-71906234D01*
X158846639Y-72095000D01*
X158828047Y-72283766D01*
X158772986Y-72465277D01*
X158683572Y-72632559D01*
X158563241Y-72779183D01*
X158416617Y-72899514D01*
X158249335Y-72988929D01*
X158067824Y-73043989D01*
X157879058Y-73062581D01*
X157878859Y-73062581D01*
X157195441Y-73062581D01*
X156326284Y-73062581D01*
X154421284Y-73062581D01*
X153814066Y-73062581D01*
X153271141Y-73062581D01*
X153270942Y-73062581D01*
X153082176Y-73043989D01*
X152900665Y-72988929D01*
X152733383Y-72899514D01*
X152586759Y-72779183D01*
X152466428Y-72632559D01*
X152377014Y-72465277D01*
X152366542Y-72430756D01*
X153271141Y-72430756D01*
X153304776Y-72614410D01*
X153405681Y-72751034D01*
X153510853Y-72813873D01*
X153646981Y-72851576D01*
X153814066Y-72864144D01*
X153978967Y-72854321D01*
X154070757Y-72833188D01*
X154421284Y-72833188D01*
X154690366Y-72833188D01*
X154676078Y-71687806D01*
X154857053Y-72311694D01*
X155071366Y-72311694D01*
X155245197Y-71687806D01*
X155233291Y-72833188D01*
X155502372Y-72833188D01*
X155494930Y-72648641D01*
X155486894Y-72456950D01*
X155478262Y-72262283D01*
X155469034Y-72068806D01*
X155458616Y-71878902D01*
X155455733Y-71835444D01*
X155623816Y-71835444D01*
X155641146Y-71995384D01*
X155693136Y-72122781D01*
X155779787Y-72217634D01*
X155898189Y-72283119D01*
X156045429Y-72322409D01*
X156221509Y-72335506D01*
X156326284Y-72335506D01*
X156326284Y-72833188D01*
X156619178Y-72833188D01*
X156619178Y-71378244D01*
X156522737Y-71361575D01*
X156498663Y-71359194D01*
X156807297Y-71359194D01*
X156807297Y-71602081D01*
X157195441Y-71602081D01*
X157195441Y-72833188D01*
X157490716Y-72833188D01*
X157490716Y-71602081D01*
X157878859Y-71602081D01*
X157878859Y-71359194D01*
X156807297Y-71359194D01*
X156498663Y-71359194D01*
X156414391Y-71350859D01*
X156307234Y-71344906D01*
X156214366Y-71342525D01*
X156041064Y-71355357D01*
X155895807Y-71393854D01*
X155778597Y-71458016D01*
X155692607Y-71551281D01*
X155641014Y-71677091D01*
X155623816Y-71835444D01*
X155455733Y-71835444D01*
X155446413Y-71694950D01*
X155432423Y-71520523D01*
X155416647Y-71359194D01*
X155173759Y-71359194D01*
X155132088Y-71487781D01*
X155078509Y-71656850D01*
X155021359Y-71840206D01*
X154966591Y-72011656D01*
X154907059Y-71829491D01*
X154847528Y-71648516D01*
X154795141Y-71485400D01*
X154752278Y-71359194D01*
X154509391Y-71359194D01*
X154493020Y-71549694D01*
X154477244Y-71735431D01*
X154462956Y-71917895D01*
X154451050Y-72098572D01*
X154441227Y-72278952D01*
X154433191Y-72460522D01*
X154426642Y-72644771D01*
X154421284Y-72833188D01*
X154070757Y-72833188D01*
X154106959Y-72824853D01*
X154271266Y-72752225D01*
X154185541Y-72514100D01*
X154031950Y-72585538D01*
X153932830Y-72610541D01*
X153814066Y-72618875D01*
X153691431Y-72603397D01*
X153614041Y-72560534D01*
X153574750Y-72498622D01*
X153564034Y-72428375D01*
X153590228Y-72347413D01*
X153656903Y-72284309D01*
X153747391Y-72234303D01*
X153847403Y-72192631D01*
X153985516Y-72137863D01*
X154115294Y-72059281D01*
X154211734Y-71941409D01*
X154249834Y-71766388D01*
X154216199Y-71581841D01*
X154115294Y-71442538D01*
X154014355Y-71377715D01*
X153890927Y-71338821D01*
X153745009Y-71325856D01*
X153617910Y-71333595D01*
X153508075Y-71356813D01*
X153337816Y-71425869D01*
X153423541Y-71652088D01*
X153555700Y-71594938D01*
X153723578Y-71571125D01*
X153853224Y-71589910D01*
X153931011Y-71646267D01*
X153956941Y-71740194D01*
X153933128Y-71815203D01*
X153872406Y-71872353D01*
X153789062Y-71916406D01*
X153697384Y-71952125D01*
X153553319Y-72010466D01*
X153415206Y-72096191D01*
X153311622Y-72229541D01*
X153281261Y-72319730D01*
X153271141Y-72430756D01*
X152366542Y-72430756D01*
X152321953Y-72283766D01*
X152303361Y-72095000D01*
X152321953Y-71906234D01*
X152377014Y-71724723D01*
X152466428Y-71557441D01*
X152586759Y-71410817D01*
X152733383Y-71290486D01*
X152900665Y-71201071D01*
X153082176Y-71146011D01*
X153270942Y-71127419D01*
X153271141Y-71127419D01*
X157878859Y-71127419D01*
X157879058Y-71127419D01*
X158067824Y-71146011D01*
G37*
%TO.C,kibuzzard-64EFA0F6*%
G36*
X115422096Y-71177540D02*
G01*
X115597577Y-71230771D01*
X115759301Y-71317215D01*
X115901054Y-71433548D01*
X116017387Y-71575301D01*
X116103830Y-71737025D01*
X116157062Y-71912506D01*
X116175036Y-72095000D01*
X116157062Y-72277494D01*
X116103830Y-72452975D01*
X116017387Y-72614699D01*
X115901054Y-72756452D01*
X115759301Y-72872785D01*
X115597577Y-72959229D01*
X115422096Y-73012460D01*
X115239602Y-73030434D01*
X115239403Y-73030434D01*
X114313097Y-73030434D01*
X114067828Y-73030434D01*
X112584309Y-73030434D01*
X111686578Y-73030434D01*
X109550597Y-73030434D01*
X109550398Y-73030434D01*
X109367904Y-73012460D01*
X109192423Y-72959229D01*
X109030699Y-72872785D01*
X108980998Y-72831997D01*
X109550597Y-72831997D01*
X110476903Y-72831997D01*
X110741222Y-72831997D01*
X111686578Y-72831997D01*
X111686578Y-71358003D01*
X111865172Y-71358003D01*
X111897021Y-71509213D01*
X111935419Y-71677091D01*
X111980067Y-71857768D01*
X112030669Y-72047375D01*
X112067578Y-72177550D01*
X112106869Y-72309313D01*
X112148541Y-72442663D01*
X112191932Y-72575351D01*
X112236382Y-72705129D01*
X112281891Y-72831997D01*
X112584309Y-72831997D01*
X113122472Y-72831997D01*
X114067828Y-72831997D01*
X114313097Y-72831997D01*
X115239403Y-72831997D01*
X115239403Y-71358003D01*
X114944128Y-71358003D01*
X114944128Y-72589109D01*
X114313097Y-72589109D01*
X114313097Y-72831997D01*
X114067828Y-72831997D01*
X114067828Y-71358003D01*
X113174859Y-71358003D01*
X113174859Y-71600891D01*
X113774934Y-71600891D01*
X113774934Y-71931884D01*
X113253441Y-71931884D01*
X113253441Y-72174772D01*
X113774934Y-72174772D01*
X113774934Y-72589109D01*
X113122472Y-72589109D01*
X113122472Y-72831997D01*
X112584309Y-72831997D01*
X112643245Y-72656975D01*
X112705753Y-72460522D01*
X112747822Y-72322542D01*
X112788303Y-72184826D01*
X112827197Y-72047375D01*
X112863974Y-71912570D01*
X112898105Y-71782792D01*
X112929591Y-71658041D01*
X112968881Y-71491353D01*
X112996266Y-71358003D01*
X112686703Y-71358003D01*
X112668844Y-71481530D01*
X112643841Y-71623513D01*
X112613777Y-71777103D01*
X112580737Y-71935456D01*
X112545019Y-72095000D01*
X112506919Y-72252162D01*
X112467926Y-72400098D01*
X112429528Y-72531959D01*
X112391428Y-72401884D01*
X112353328Y-72254544D01*
X112316419Y-72097381D01*
X112281891Y-71937838D01*
X112249744Y-71779187D01*
X112219978Y-71624703D01*
X112193784Y-71481828D01*
X112172353Y-71358003D01*
X111865172Y-71358003D01*
X111686578Y-71358003D01*
X110793609Y-71358003D01*
X110793609Y-71600891D01*
X111393684Y-71600891D01*
X111393684Y-71931884D01*
X110872191Y-71931884D01*
X110872191Y-72174772D01*
X111393684Y-72174772D01*
X111393684Y-72589109D01*
X110741222Y-72589109D01*
X110741222Y-72831997D01*
X110476903Y-72831997D01*
X110476903Y-71358003D01*
X110181628Y-71358003D01*
X110181628Y-72589109D01*
X109550597Y-72589109D01*
X109550597Y-72831997D01*
X108980998Y-72831997D01*
X108888946Y-72756452D01*
X108772613Y-72614699D01*
X108686170Y-72452975D01*
X108632938Y-72277494D01*
X108614964Y-72095000D01*
X108632938Y-71912506D01*
X108686170Y-71737025D01*
X108772613Y-71575301D01*
X108888946Y-71433548D01*
X109030699Y-71317215D01*
X109192423Y-71230771D01*
X109367904Y-71177540D01*
X109550398Y-71159566D01*
X109550597Y-71159566D01*
X115239403Y-71159566D01*
X115239602Y-71159566D01*
X115422096Y-71177540D01*
G37*
%TO.C,kibuzzard-64EF9D48*%
G36*
X101499221Y-83677103D02*
G01*
X101300783Y-83677103D01*
X100322089Y-83677103D01*
X99124321Y-83677103D01*
X98590921Y-83677103D01*
X97499217Y-83677103D01*
X97300779Y-83677103D01*
X97300779Y-82004672D01*
X97871783Y-82004672D01*
X97903632Y-82155881D01*
X97942030Y-82323759D01*
X97986679Y-82504437D01*
X98037280Y-82694044D01*
X98074189Y-82824219D01*
X98113480Y-82955981D01*
X98155152Y-83089331D01*
X98198544Y-83222020D01*
X98242994Y-83351798D01*
X98288502Y-83478666D01*
X98590921Y-83478666D01*
X99124321Y-83478666D01*
X100086346Y-83478666D01*
X100322089Y-83478666D01*
X101217439Y-83478666D01*
X101217439Y-83235778D01*
X100907877Y-83235778D01*
X100907877Y-82411866D01*
X101060277Y-82496400D01*
X101205533Y-82554741D01*
X101300783Y-82311853D01*
X101176958Y-82257084D01*
X101043608Y-82183266D01*
X100917402Y-82097541D01*
X100815008Y-82004672D01*
X100614983Y-82004672D01*
X100614983Y-83235778D01*
X100322089Y-83235778D01*
X100322089Y-83478666D01*
X100086346Y-83478666D01*
X100092299Y-83419134D01*
X100091108Y-83369128D01*
X100080095Y-83254828D01*
X100047055Y-83150053D01*
X99997049Y-83053910D01*
X99935136Y-82965506D01*
X99864889Y-82883948D01*
X99789880Y-82808344D01*
X99714871Y-82737204D01*
X99644624Y-82669041D01*
X99532705Y-82540453D01*
X99488652Y-82414247D01*
X99543421Y-82274944D01*
X99681533Y-82226128D01*
X99826789Y-82259466D01*
X99976808Y-82371384D01*
X100122064Y-82166597D01*
X100019373Y-82079681D01*
X99901799Y-82018959D01*
X99777081Y-81983241D01*
X99652958Y-81971334D01*
X99479127Y-81997528D01*
X99331489Y-82076109D01*
X99229096Y-82208269D01*
X99190996Y-82392816D01*
X99219571Y-82539263D01*
X99295771Y-82676184D01*
X99402927Y-82804772D01*
X99524371Y-82923834D01*
X99595808Y-82991700D01*
X99672008Y-83072663D01*
X99732730Y-83157197D01*
X99757733Y-83235778D01*
X99124321Y-83235778D01*
X99124321Y-83478666D01*
X98590921Y-83478666D01*
X98649857Y-83303644D01*
X98712364Y-83107191D01*
X98754433Y-82969210D01*
X98794914Y-82831495D01*
X98833808Y-82694044D01*
X98870585Y-82559239D01*
X98904717Y-82429460D01*
X98936202Y-82304709D01*
X98975493Y-82138022D01*
X99002877Y-82004672D01*
X98693314Y-82004672D01*
X98675455Y-82128199D01*
X98650452Y-82270181D01*
X98620389Y-82423772D01*
X98587349Y-82582125D01*
X98551630Y-82741669D01*
X98513530Y-82898831D01*
X98474537Y-83046766D01*
X98436139Y-83178628D01*
X98398039Y-83048552D01*
X98359939Y-82901212D01*
X98323030Y-82744050D01*
X98288502Y-82584506D01*
X98256355Y-82425855D01*
X98226589Y-82271372D01*
X98200396Y-82128497D01*
X98178964Y-82004672D01*
X97871783Y-82004672D01*
X97300779Y-82004672D01*
X97300779Y-81772897D01*
X97499217Y-81772897D01*
X101300783Y-81772897D01*
X101499221Y-81772897D01*
X101499221Y-83677103D01*
G37*
%TO.C,J5*%
X139235000Y-101600000D02*
X139235000Y-97100000D01*
X138235000Y-97100000D02*
X139235000Y-97100000D01*
X138235000Y-94850000D02*
X138235000Y-97100000D01*
X138235000Y-94850000D02*
X129735000Y-94850000D01*
X133985000Y-101600000D02*
X139235000Y-101600000D01*
X133985000Y-101600000D02*
X128735000Y-101600000D01*
X129735000Y-97100000D02*
X128735000Y-97100000D01*
X129735000Y-94850000D02*
X129735000Y-97100000D01*
X128735000Y-101600000D02*
X128735000Y-97100000D01*
%TO.C,kibuzzard-64EF6BC1*%
G36*
X177250725Y-71598509D02*
G01*
X177323353Y-71604463D01*
X177323353Y-72080713D01*
X177204291Y-72080713D01*
X177081061Y-72066723D01*
X176992359Y-72024753D01*
X176938781Y-71948851D01*
X176920922Y-71833063D01*
X176938484Y-71723227D01*
X176991169Y-71650897D01*
X177073024Y-71610713D01*
X177178097Y-71597319D01*
X177250725Y-71598509D01*
G37*
G36*
X179060130Y-71146011D02*
G01*
X179241641Y-71201071D01*
X179408923Y-71290486D01*
X179555547Y-71410817D01*
X179675878Y-71557441D01*
X179765293Y-71724723D01*
X179820353Y-71906234D01*
X179838945Y-72095000D01*
X179820353Y-72283766D01*
X179765293Y-72465277D01*
X179675878Y-72632559D01*
X179555547Y-72779183D01*
X179408923Y-72899514D01*
X179241641Y-72988929D01*
X179060130Y-73043989D01*
X178871364Y-73062581D01*
X178871166Y-73062581D01*
X178268709Y-73062581D01*
X177323353Y-73062581D01*
X176001759Y-73062581D01*
X175458834Y-73062581D01*
X175458636Y-73062581D01*
X175269870Y-73043989D01*
X175088359Y-72988928D01*
X174921077Y-72899514D01*
X174774453Y-72779183D01*
X174654122Y-72632559D01*
X174564707Y-72465277D01*
X174554235Y-72430756D01*
X175458834Y-72430756D01*
X175492470Y-72614410D01*
X175593375Y-72751034D01*
X175698547Y-72813873D01*
X175834675Y-72851576D01*
X176001759Y-72864144D01*
X176166661Y-72854321D01*
X176294653Y-72824853D01*
X176458959Y-72752225D01*
X176373234Y-72514100D01*
X176219644Y-72585538D01*
X176120524Y-72610541D01*
X176001759Y-72618875D01*
X175879125Y-72603397D01*
X175801734Y-72560534D01*
X175762444Y-72498622D01*
X175751728Y-72428375D01*
X175777922Y-72347413D01*
X175844597Y-72284309D01*
X175935084Y-72234303D01*
X176035097Y-72192631D01*
X176173209Y-72137863D01*
X176302987Y-72059281D01*
X176399428Y-71941409D01*
X176422495Y-71835444D01*
X176620884Y-71835444D01*
X176638215Y-71995384D01*
X176690205Y-72122781D01*
X176776856Y-72217634D01*
X176895257Y-72283119D01*
X177042498Y-72322409D01*
X177218578Y-72335506D01*
X177323353Y-72335506D01*
X177323353Y-72833188D01*
X177616247Y-72833188D01*
X177616247Y-71433013D01*
X177830559Y-71433013D01*
X177906759Y-71666375D01*
X178035347Y-71606844D01*
X178192509Y-71580650D01*
X178368722Y-71618750D01*
X178486594Y-71724716D01*
X178553269Y-71886641D01*
X178568449Y-71985760D01*
X178573509Y-72095000D01*
X178564249Y-72255734D01*
X178536468Y-72385513D01*
X178490166Y-72484334D01*
X178387177Y-72578096D01*
X178244897Y-72609350D01*
X178187747Y-72606969D01*
X178130597Y-72599825D01*
X178130597Y-72061663D01*
X177837703Y-72061663D01*
X177837703Y-72797469D01*
X178000819Y-72840331D01*
X178123155Y-72858191D01*
X178268709Y-72864144D01*
X178399976Y-72851940D01*
X178517550Y-72815328D01*
X178620241Y-72754606D01*
X178706859Y-72670072D01*
X178776511Y-72561725D01*
X178828303Y-72429566D01*
X178860450Y-72273891D01*
X178871166Y-72095000D01*
X178858664Y-71917895D01*
X178821159Y-71762816D01*
X178762223Y-71630359D01*
X178685428Y-71521119D01*
X178591964Y-71435691D01*
X178483022Y-71374672D01*
X178362173Y-71338060D01*
X178232991Y-71325856D01*
X178079400Y-71338953D01*
X177961528Y-71368719D01*
X177879375Y-71404438D01*
X177830559Y-71433013D01*
X177616247Y-71433013D01*
X177616247Y-71378244D01*
X177519806Y-71361575D01*
X177411459Y-71350859D01*
X177304303Y-71344906D01*
X177211434Y-71342525D01*
X177038132Y-71355357D01*
X176892876Y-71393854D01*
X176775666Y-71458016D01*
X176689676Y-71551281D01*
X176638082Y-71677091D01*
X176620884Y-71835444D01*
X176422495Y-71835444D01*
X176437528Y-71766388D01*
X176403893Y-71581841D01*
X176302987Y-71442538D01*
X176202049Y-71377715D01*
X176078621Y-71338821D01*
X175932703Y-71325856D01*
X175805604Y-71333595D01*
X175695769Y-71356813D01*
X175525509Y-71425869D01*
X175611234Y-71652088D01*
X175743394Y-71594938D01*
X175911272Y-71571125D01*
X176040918Y-71589910D01*
X176118705Y-71646267D01*
X176144634Y-71740194D01*
X176120822Y-71815203D01*
X176060100Y-71872353D01*
X175976756Y-71916406D01*
X175885078Y-71952125D01*
X175741012Y-72010466D01*
X175602900Y-72096191D01*
X175499316Y-72229541D01*
X175468955Y-72319730D01*
X175458834Y-72430756D01*
X174554235Y-72430756D01*
X174509647Y-72283766D01*
X174491055Y-72095000D01*
X174509647Y-71906234D01*
X174564707Y-71724723D01*
X174654122Y-71557441D01*
X174774453Y-71410817D01*
X174921077Y-71290486D01*
X175088359Y-71201072D01*
X175269870Y-71146011D01*
X175458636Y-71127419D01*
X175458834Y-71127419D01*
X178871166Y-71127419D01*
X178871364Y-71127419D01*
X179060130Y-71146011D01*
G37*
%TO.C,kibuzzard-650ECDA2*%
G36*
X138239949Y-89856011D02*
G01*
X138421460Y-89911071D01*
X138588742Y-90000486D01*
X138735366Y-90120817D01*
X138855697Y-90267441D01*
X138945111Y-90434723D01*
X139000172Y-90616234D01*
X139018764Y-90805000D01*
X139000172Y-90993766D01*
X138945111Y-91175277D01*
X138855697Y-91342559D01*
X138735366Y-91489183D01*
X138588742Y-91609514D01*
X138421460Y-91698929D01*
X138239949Y-91753989D01*
X138051183Y-91772581D01*
X138050984Y-91772581D01*
X135853091Y-91772581D01*
X135207772Y-91772581D01*
X133288484Y-91772581D01*
X131126309Y-91772581D01*
X130330972Y-91772581D01*
X129919016Y-91772581D01*
X129918817Y-91772581D01*
X129730051Y-91753989D01*
X129548540Y-91698929D01*
X129381258Y-91609514D01*
X129234634Y-91489183D01*
X129220327Y-91471750D01*
X129919016Y-91471750D01*
X130086894Y-91541997D01*
X130200896Y-91566107D01*
X130330972Y-91574144D01*
X130522530Y-91551919D01*
X130543318Y-91543188D01*
X131126309Y-91543188D01*
X132088334Y-91543188D01*
X132094287Y-91483656D01*
X132093097Y-91433650D01*
X132082084Y-91319350D01*
X132049044Y-91214575D01*
X131999037Y-91118432D01*
X131937125Y-91030028D01*
X131866878Y-90948470D01*
X131791869Y-90872866D01*
X131716859Y-90801726D01*
X131646613Y-90733563D01*
X131534694Y-90604975D01*
X131490641Y-90478769D01*
X131545409Y-90339466D01*
X131683522Y-90290650D01*
X131828778Y-90323988D01*
X131978797Y-90435906D01*
X132124053Y-90231119D01*
X132021362Y-90144203D01*
X131903787Y-90083481D01*
X131853901Y-90069194D01*
X132352653Y-90069194D01*
X132352653Y-90312081D01*
X132671741Y-90312081D01*
X132671741Y-91300300D01*
X132352653Y-91300300D01*
X132352653Y-91543188D01*
X133288484Y-91543188D01*
X133288484Y-91300300D01*
X132967016Y-91300300D01*
X132967016Y-90312081D01*
X133288484Y-90312081D01*
X133288484Y-90069194D01*
X134700566Y-90069194D01*
X134700566Y-91009787D01*
X134706519Y-91132422D01*
X134724378Y-91243150D01*
X134757120Y-91340186D01*
X134807722Y-91421744D01*
X134876778Y-91486930D01*
X134964884Y-91534853D01*
X135074422Y-91564321D01*
X135207772Y-91574144D01*
X135339038Y-91564321D01*
X135416525Y-91543188D01*
X135853091Y-91543188D01*
X136122172Y-91543188D01*
X136107884Y-90397806D01*
X136288859Y-91021694D01*
X136503172Y-91021694D01*
X136677003Y-90397806D01*
X136665097Y-91543188D01*
X136934178Y-91543188D01*
X136926737Y-91358641D01*
X136918700Y-91166950D01*
X136910068Y-90972283D01*
X136900841Y-90778806D01*
X136890423Y-90588902D01*
X136878219Y-90404950D01*
X136864229Y-90230523D01*
X136848453Y-90069194D01*
X137115153Y-90069194D01*
X137115153Y-90312081D01*
X137434241Y-90312081D01*
X137434241Y-91300300D01*
X137115153Y-91300300D01*
X137115153Y-91543188D01*
X138050984Y-91543188D01*
X138050984Y-91300300D01*
X137729516Y-91300300D01*
X137729516Y-90312081D01*
X138050984Y-90312081D01*
X138050984Y-90069194D01*
X137115153Y-90069194D01*
X136848453Y-90069194D01*
X136605566Y-90069194D01*
X136563894Y-90197781D01*
X136510316Y-90366850D01*
X136453166Y-90550206D01*
X136398397Y-90721656D01*
X136338866Y-90539491D01*
X136279334Y-90358516D01*
X136226947Y-90195400D01*
X136184084Y-90069194D01*
X135941197Y-90069194D01*
X135924826Y-90259694D01*
X135909050Y-90445431D01*
X135894762Y-90627895D01*
X135882856Y-90808572D01*
X135873034Y-90988952D01*
X135864997Y-91170522D01*
X135858448Y-91354771D01*
X135853091Y-91543188D01*
X135416525Y-91543188D01*
X135447087Y-91534853D01*
X135600678Y-91421744D01*
X135649494Y-91340186D01*
X135681641Y-91243150D01*
X135699500Y-91132422D01*
X135705453Y-91009787D01*
X135705453Y-90069194D01*
X135410178Y-90069194D01*
X135410178Y-90990737D01*
X135400653Y-91146709D01*
X135368506Y-91247913D01*
X135305403Y-91302681D01*
X135203009Y-91319350D01*
X135100616Y-91302681D01*
X135036322Y-91246722D01*
X135002984Y-91144328D01*
X134993459Y-90988356D01*
X134993459Y-90069194D01*
X134700566Y-90069194D01*
X133288484Y-90069194D01*
X132352653Y-90069194D01*
X131853901Y-90069194D01*
X131779070Y-90047763D01*
X131654947Y-90035856D01*
X131481116Y-90062050D01*
X131333478Y-90140631D01*
X131231084Y-90272791D01*
X131192984Y-90457338D01*
X131221559Y-90603784D01*
X131297759Y-90740706D01*
X131404916Y-90869294D01*
X131526359Y-90988356D01*
X131597797Y-91056222D01*
X131673997Y-91137184D01*
X131734719Y-91221719D01*
X131759722Y-91300300D01*
X131126309Y-91300300D01*
X131126309Y-91543188D01*
X130543318Y-91543188D01*
X130681280Y-91485244D01*
X130807222Y-91374119D01*
X130879106Y-91263539D01*
X130930452Y-91131827D01*
X130961259Y-90978980D01*
X130971528Y-90805000D01*
X130959027Y-90631764D01*
X130921522Y-90478769D01*
X130861693Y-90346907D01*
X130782219Y-90237072D01*
X130684587Y-90150156D01*
X130570287Y-90087053D01*
X130441998Y-90048655D01*
X130302397Y-90035856D01*
X130160713Y-90048953D01*
X130049984Y-90078719D01*
X129970213Y-90114438D01*
X129921397Y-90143013D01*
X129997597Y-90376375D01*
X130129756Y-90315653D01*
X130307159Y-90290650D01*
X130441700Y-90315653D01*
X130558381Y-90398997D01*
X130641725Y-90554969D01*
X130665835Y-90664506D01*
X130673872Y-90797856D01*
X130664215Y-90953034D01*
X130635243Y-91082019D01*
X130586956Y-91184809D01*
X130472359Y-91285715D01*
X130302397Y-91319350D01*
X130113087Y-91293156D01*
X129992834Y-91240769D01*
X129919016Y-91471750D01*
X129220327Y-91471750D01*
X129114303Y-91342559D01*
X129024889Y-91175277D01*
X128969828Y-90993766D01*
X128951236Y-90805000D01*
X128969828Y-90616234D01*
X129024889Y-90434723D01*
X129114303Y-90267441D01*
X129234634Y-90120817D01*
X129381258Y-90000486D01*
X129548540Y-89911071D01*
X129730051Y-89856011D01*
X129918817Y-89837419D01*
X129919016Y-89837419D01*
X138050984Y-89837419D01*
X138051183Y-89837419D01*
X138239949Y-89856011D01*
G37*
%TO.C,kibuzzard-64EFA8FB*%
G36*
X207643809Y-89184956D02*
G01*
X207790256Y-89217103D01*
X207937894Y-89255203D01*
X208096247Y-89299256D01*
X207937894Y-89343309D01*
X207790256Y-89381409D01*
X207643809Y-89414747D01*
X207491409Y-89444513D01*
X207491409Y-89156381D01*
X207643809Y-89184956D01*
G37*
G36*
X207643809Y-82041206D02*
G01*
X207790256Y-82073353D01*
X207937894Y-82111453D01*
X208096247Y-82155506D01*
X207937894Y-82199559D01*
X207790256Y-82237659D01*
X207643809Y-82270997D01*
X207491409Y-82300763D01*
X207491409Y-82012631D01*
X207643809Y-82041206D01*
G37*
G36*
X207827494Y-80661585D02*
G01*
X208002975Y-80714817D01*
X208164699Y-80801260D01*
X208306452Y-80917593D01*
X208422785Y-81059346D01*
X208509229Y-81221070D01*
X208562460Y-81396551D01*
X208580434Y-81579045D01*
X208580434Y-81579244D01*
X208580434Y-89870756D01*
X208580434Y-89870955D01*
X208562460Y-90053449D01*
X208509229Y-90228930D01*
X208422785Y-90390654D01*
X208306452Y-90532407D01*
X208164699Y-90648740D01*
X208002975Y-90735183D01*
X207827494Y-90788415D01*
X207645000Y-90806389D01*
X207462506Y-90788415D01*
X207287025Y-90735183D01*
X207125301Y-90648740D01*
X206983548Y-90532407D01*
X206867215Y-90390654D01*
X206780771Y-90228930D01*
X206727540Y-90053449D01*
X206709566Y-89870955D01*
X206709566Y-89870756D01*
X206709566Y-89037319D01*
X206908003Y-89037319D01*
X207248522Y-89106375D01*
X207248522Y-89499281D01*
X206908003Y-89565956D01*
X206908003Y-89870756D01*
X207079215Y-89828751D01*
X207244236Y-89786555D01*
X207403065Y-89744169D01*
X207555703Y-89701592D01*
X207702150Y-89658825D01*
X207879032Y-89605693D01*
X208051301Y-89553455D01*
X208218956Y-89502109D01*
X208381997Y-89451656D01*
X208381997Y-89132569D01*
X208217616Y-89080256D01*
X208048324Y-89028091D01*
X207874121Y-88976076D01*
X207695006Y-88924209D01*
X207547321Y-88883014D01*
X207394778Y-88842294D01*
X207237378Y-88802051D01*
X207075119Y-88762284D01*
X206908003Y-88722994D01*
X206908003Y-89037319D01*
X206709566Y-89037319D01*
X206709566Y-87856219D01*
X206908003Y-87856219D01*
X207071383Y-87924878D01*
X207234499Y-87997506D01*
X207397350Y-88074103D01*
X207560201Y-88154669D01*
X207723317Y-88239203D01*
X207886697Y-88327706D01*
X206908003Y-88327706D01*
X206908003Y-88592025D01*
X208381997Y-88592025D01*
X208381997Y-88356281D01*
X208272757Y-88289606D01*
X208154587Y-88222931D01*
X208032251Y-88157149D01*
X207910509Y-88093153D01*
X207790852Y-88032431D01*
X207674766Y-87976472D01*
X207567609Y-87926763D01*
X207474741Y-87884794D01*
X208381997Y-87884794D01*
X208381997Y-87620475D01*
X206908003Y-87620475D01*
X206908003Y-87856219D01*
X206709566Y-87856219D01*
X206709566Y-86767988D01*
X206908003Y-86767988D01*
X206908003Y-87063263D01*
X208139109Y-87063263D01*
X208139109Y-87451406D01*
X208381997Y-87451406D01*
X208381997Y-86379844D01*
X208139109Y-86379844D01*
X208139109Y-86767988D01*
X206908003Y-86767988D01*
X206709566Y-86767988D01*
X206709566Y-86170294D01*
X206908003Y-86170294D01*
X208381997Y-86170294D01*
X208381997Y-85277325D01*
X208139109Y-85277325D01*
X208139109Y-85877400D01*
X207808116Y-85877400D01*
X207808116Y-85355906D01*
X207565228Y-85355906D01*
X207565228Y-85877400D01*
X207150891Y-85877400D01*
X207150891Y-85224938D01*
X206908003Y-85224938D01*
X206908003Y-86170294D01*
X206709566Y-86170294D01*
X206709566Y-84284344D01*
X206908003Y-84284344D01*
X207071383Y-84353003D01*
X207234499Y-84425631D01*
X207397350Y-84502228D01*
X207560201Y-84582794D01*
X207723317Y-84667328D01*
X207886697Y-84755831D01*
X206908003Y-84755831D01*
X206908003Y-85020150D01*
X208381997Y-85020150D01*
X208381997Y-84784406D01*
X208272757Y-84717731D01*
X208154587Y-84651056D01*
X208032251Y-84585274D01*
X207910509Y-84521278D01*
X207790852Y-84460556D01*
X207674766Y-84404597D01*
X207567609Y-84354888D01*
X207474741Y-84312919D01*
X208381997Y-84312919D01*
X208381997Y-84048600D01*
X206908003Y-84048600D01*
X206908003Y-84284344D01*
X206709566Y-84284344D01*
X206709566Y-83093719D01*
X206908003Y-83093719D01*
X207071383Y-83162378D01*
X207234499Y-83235006D01*
X207397350Y-83311603D01*
X207560201Y-83392169D01*
X207723317Y-83476703D01*
X207886697Y-83565206D01*
X206908003Y-83565206D01*
X206908003Y-83829525D01*
X208381997Y-83829525D01*
X208381997Y-83593781D01*
X208272757Y-83527106D01*
X208154587Y-83460431D01*
X208032251Y-83394649D01*
X207910509Y-83330653D01*
X207790852Y-83269931D01*
X207674766Y-83213972D01*
X207567609Y-83164263D01*
X207474741Y-83122294D01*
X208381997Y-83122294D01*
X208381997Y-82857975D01*
X206908003Y-82857975D01*
X206908003Y-83093719D01*
X206709566Y-83093719D01*
X206709566Y-81893569D01*
X206908003Y-81893569D01*
X207248522Y-81962625D01*
X207248522Y-82355531D01*
X206908003Y-82422206D01*
X206908003Y-82727006D01*
X207079215Y-82685001D01*
X207244236Y-82642805D01*
X207403065Y-82600419D01*
X207555703Y-82557842D01*
X207702150Y-82515075D01*
X207879032Y-82461943D01*
X208051301Y-82409705D01*
X208218956Y-82358359D01*
X208381997Y-82307906D01*
X208381997Y-81988819D01*
X208217616Y-81936506D01*
X208048324Y-81884341D01*
X207874121Y-81832326D01*
X207695006Y-81780459D01*
X207547321Y-81739264D01*
X207394778Y-81698544D01*
X207237378Y-81658301D01*
X207075119Y-81618534D01*
X206908003Y-81579244D01*
X206908003Y-81893569D01*
X206709566Y-81893569D01*
X206709566Y-81579244D01*
X206709566Y-81579045D01*
X206727540Y-81396551D01*
X206780771Y-81221070D01*
X206867215Y-81059346D01*
X206983548Y-80917593D01*
X207125301Y-80801260D01*
X207287025Y-80714817D01*
X207462506Y-80661585D01*
X207645000Y-80643611D01*
X207827494Y-80661585D01*
G37*
%TO.C,kibuzzard-64EF9CA5*%
G36*
X96244966Y-86677103D02*
G01*
X95748872Y-86677103D01*
X94751128Y-86677103D01*
X94255034Y-86677103D01*
X94255034Y-86478666D01*
X94751128Y-86478666D01*
X95713153Y-86478666D01*
X95719106Y-86419134D01*
X95717916Y-86369128D01*
X95706902Y-86254828D01*
X95673863Y-86150053D01*
X95623856Y-86053910D01*
X95561944Y-85965506D01*
X95491697Y-85883948D01*
X95416688Y-85808344D01*
X95341678Y-85737204D01*
X95271431Y-85669041D01*
X95159513Y-85540453D01*
X95115459Y-85414247D01*
X95170228Y-85274944D01*
X95308341Y-85226128D01*
X95453597Y-85259466D01*
X95603616Y-85371384D01*
X95748872Y-85166597D01*
X95646180Y-85079681D01*
X95528606Y-85018959D01*
X95403888Y-84983241D01*
X95279766Y-84971334D01*
X95105934Y-84997528D01*
X94958297Y-85076109D01*
X94855903Y-85208269D01*
X94817803Y-85392816D01*
X94846378Y-85539263D01*
X94922578Y-85676184D01*
X95029734Y-85804772D01*
X95151178Y-85923834D01*
X95222616Y-85991700D01*
X95298816Y-86072663D01*
X95359538Y-86157197D01*
X95384541Y-86235778D01*
X94751128Y-86235778D01*
X94751128Y-86478666D01*
X94255034Y-86478666D01*
X94255034Y-84772897D01*
X94751128Y-84772897D01*
X95748872Y-84772897D01*
X96244966Y-84772897D01*
X96244966Y-86677103D01*
G37*
%TO.C,kibuzzard-64EF9D40*%
G36*
X98419483Y-88228509D02*
G01*
X98462346Y-88234462D01*
X98462346Y-89225062D01*
X98436152Y-89227444D01*
X98409958Y-89227444D01*
X98242080Y-89189344D01*
X98132543Y-89084569D01*
X98073011Y-88926216D01*
X98059617Y-88830073D01*
X98055152Y-88725000D01*
X98069439Y-88539262D01*
X98119446Y-88379719D01*
X98217077Y-88268991D01*
X98376621Y-88227319D01*
X98419483Y-88228509D01*
G37*
G36*
X101399221Y-89692581D02*
G01*
X101200783Y-89692581D01*
X100598327Y-89692581D01*
X99229108Y-89692581D01*
X98440914Y-89692581D01*
X97399217Y-89692581D01*
X97200779Y-89692581D01*
X97200779Y-88725000D01*
X97757496Y-88725000D01*
X97770295Y-88914607D01*
X97808693Y-89073853D01*
X97869712Y-89204524D01*
X97950377Y-89308406D01*
X98049496Y-89386690D01*
X98165880Y-89440566D01*
X98297146Y-89471820D01*
X98440914Y-89482237D01*
X98594505Y-89473903D01*
X98755239Y-89446519D01*
X98755239Y-88008244D01*
X98629827Y-87989194D01*
X98993364Y-87989194D01*
X98993364Y-89463187D01*
X99229108Y-89463187D01*
X99297768Y-89299807D01*
X99370396Y-89136692D01*
X99446993Y-88973841D01*
X99527558Y-88810990D01*
X99612093Y-88647874D01*
X99700596Y-88484494D01*
X99700596Y-89463187D01*
X99964914Y-89463187D01*
X99964914Y-88063012D01*
X100160177Y-88063012D01*
X100236377Y-88296375D01*
X100364964Y-88236844D01*
X100522127Y-88210650D01*
X100698339Y-88248750D01*
X100816211Y-88354716D01*
X100882886Y-88516641D01*
X100898067Y-88615760D01*
X100903127Y-88725000D01*
X100893867Y-88885734D01*
X100866085Y-89015512D01*
X100819783Y-89114334D01*
X100716794Y-89208096D01*
X100574514Y-89239350D01*
X100517364Y-89236969D01*
X100460214Y-89229825D01*
X100460214Y-88691662D01*
X100167321Y-88691662D01*
X100167321Y-89427469D01*
X100330436Y-89470331D01*
X100452773Y-89488191D01*
X100598327Y-89494144D01*
X100729593Y-89481940D01*
X100847168Y-89445328D01*
X100949859Y-89384606D01*
X101036477Y-89300072D01*
X101106129Y-89191725D01*
X101157921Y-89059566D01*
X101190068Y-88903891D01*
X101200783Y-88725000D01*
X101188282Y-88547895D01*
X101150777Y-88392816D01*
X101091841Y-88260359D01*
X101015046Y-88151119D01*
X100921582Y-88065691D01*
X100812639Y-88004672D01*
X100691791Y-87968060D01*
X100562608Y-87955856D01*
X100409018Y-87968953D01*
X100291146Y-87998719D01*
X100208993Y-88034437D01*
X100160177Y-88063012D01*
X99964914Y-88063012D01*
X99964914Y-87989194D01*
X99729171Y-87989194D01*
X99662496Y-88098434D01*
X99595821Y-88216603D01*
X99530039Y-88338940D01*
X99466043Y-88460681D01*
X99405321Y-88580339D01*
X99349361Y-88696425D01*
X99299653Y-88803581D01*
X99257683Y-88896450D01*
X99257683Y-87989194D01*
X98993364Y-87989194D01*
X98629827Y-87989194D01*
X98567121Y-87979669D01*
X98402814Y-87972525D01*
X98263809Y-87983241D01*
X98137305Y-88015387D01*
X98026279Y-88070454D01*
X97933708Y-88149928D01*
X97859592Y-88254108D01*
X97803930Y-88383291D01*
X97769104Y-88539560D01*
X97757496Y-88725000D01*
X97200779Y-88725000D01*
X97200779Y-87757419D01*
X97399217Y-87757419D01*
X101200783Y-87757419D01*
X101399221Y-87757419D01*
X101399221Y-89692581D01*
G37*
%TO.C,kibuzzard-64EF6B93*%
G36*
X132825331Y-71803297D02*
G01*
X132863431Y-71950934D01*
X132896769Y-72097381D01*
X132926534Y-72249781D01*
X132638403Y-72249781D01*
X132666978Y-72097381D01*
X132699125Y-71950934D01*
X132737225Y-71803297D01*
X132781278Y-71644944D01*
X132825331Y-71803297D01*
G37*
G36*
X134070725Y-71598509D02*
G01*
X134143353Y-71604463D01*
X134143353Y-72080713D01*
X134024291Y-72080713D01*
X133901061Y-72066723D01*
X133812359Y-72024753D01*
X133758781Y-71948851D01*
X133740922Y-71833063D01*
X133758484Y-71723227D01*
X133811169Y-71650897D01*
X133893024Y-71610713D01*
X133998097Y-71597319D01*
X134070725Y-71598509D01*
G37*
G36*
X136472216Y-71621131D02*
G01*
X136542462Y-71731859D01*
X136575800Y-71894975D01*
X136582051Y-71991416D01*
X136584134Y-72095000D01*
X136582051Y-72198882D01*
X136575800Y-72296216D01*
X136542462Y-72459331D01*
X136472216Y-72568869D01*
X136350772Y-72609350D01*
X136230519Y-72568869D01*
X136159081Y-72458141D01*
X136125744Y-72295025D01*
X136119493Y-72198584D01*
X136117409Y-72095000D01*
X136119493Y-71991118D01*
X136125744Y-71893784D01*
X136159081Y-71730669D01*
X136229328Y-71621131D01*
X136350772Y-71580650D01*
X136472216Y-71621131D01*
G37*
G36*
X138261380Y-71146011D02*
G01*
X138442891Y-71201071D01*
X138610173Y-71290486D01*
X138756797Y-71410817D01*
X138877128Y-71557441D01*
X138966543Y-71724723D01*
X139021604Y-71906234D01*
X139040195Y-72095000D01*
X139021604Y-72283766D01*
X138966543Y-72465277D01*
X138877128Y-72632559D01*
X138756797Y-72779183D01*
X138610173Y-72899514D01*
X138442891Y-72988929D01*
X138261380Y-73043989D01*
X138072614Y-73062581D01*
X138072416Y-73062581D01*
X137431859Y-73062581D01*
X136348391Y-73062581D01*
X134619603Y-73062581D01*
X134143353Y-73062581D01*
X132519341Y-73062581D01*
X131631134Y-73062581D01*
X130440509Y-73062581D01*
X129897584Y-73062581D01*
X129897386Y-73062581D01*
X129708620Y-73043989D01*
X129527109Y-72988929D01*
X129359827Y-72899514D01*
X129213203Y-72779183D01*
X129092872Y-72632559D01*
X129003457Y-72465277D01*
X128992985Y-72430756D01*
X129897584Y-72430756D01*
X129931220Y-72614410D01*
X130032125Y-72751034D01*
X130137297Y-72813873D01*
X130273425Y-72851576D01*
X130440509Y-72864144D01*
X130605411Y-72854321D01*
X130733403Y-72824853D01*
X130897709Y-72752225D01*
X130811984Y-72514100D01*
X130658394Y-72585538D01*
X130559274Y-72610541D01*
X130440509Y-72618875D01*
X130317875Y-72603397D01*
X130240484Y-72560534D01*
X130201194Y-72498622D01*
X130190841Y-72430756D01*
X131088209Y-72430756D01*
X131121845Y-72614410D01*
X131222750Y-72751034D01*
X131327922Y-72813873D01*
X131464050Y-72851576D01*
X131631134Y-72864144D01*
X131796036Y-72854321D01*
X131887826Y-72833188D01*
X132205016Y-72833188D01*
X132519341Y-72833188D01*
X132588397Y-72492669D01*
X132981303Y-72492669D01*
X133047978Y-72833188D01*
X133352778Y-72833188D01*
X133310773Y-72661976D01*
X133268577Y-72496955D01*
X133226191Y-72338126D01*
X133183614Y-72185487D01*
X133140847Y-72039041D01*
X133087715Y-71862158D01*
X133079614Y-71835444D01*
X133440884Y-71835444D01*
X133458215Y-71995384D01*
X133510205Y-72122781D01*
X133596856Y-72217634D01*
X133715257Y-72283119D01*
X133862498Y-72322409D01*
X134038578Y-72335506D01*
X134143353Y-72335506D01*
X134143353Y-72833188D01*
X134436247Y-72833188D01*
X134619603Y-72833188D01*
X134888684Y-72833188D01*
X134874397Y-71687806D01*
X135055372Y-72311694D01*
X135269684Y-72311694D01*
X135443516Y-71687806D01*
X135431609Y-72833188D01*
X135700691Y-72833188D01*
X135693249Y-72648641D01*
X135685213Y-72456950D01*
X135676580Y-72262283D01*
X135668602Y-72095000D01*
X135819753Y-72095000D01*
X135828385Y-72273817D01*
X135854281Y-72429268D01*
X135897441Y-72561353D01*
X135957866Y-72670072D01*
X136062641Y-72777890D01*
X136192816Y-72842580D01*
X136348391Y-72864144D01*
X136507802Y-72842580D01*
X136639961Y-72777890D01*
X136655665Y-72761750D01*
X137019903Y-72761750D01*
X137187781Y-72831997D01*
X137301784Y-72856107D01*
X137431859Y-72864144D01*
X137623418Y-72841919D01*
X137782168Y-72775244D01*
X137908109Y-72664119D01*
X137979993Y-72553539D01*
X138031339Y-72421827D01*
X138062146Y-72268980D01*
X138072416Y-72095000D01*
X138059914Y-71921764D01*
X138022409Y-71768769D01*
X137962580Y-71636907D01*
X137883106Y-71527072D01*
X137785475Y-71440156D01*
X137671175Y-71377053D01*
X137542885Y-71338655D01*
X137403284Y-71325856D01*
X137261600Y-71338953D01*
X137150872Y-71368719D01*
X137071100Y-71404438D01*
X137022284Y-71433013D01*
X137098484Y-71666375D01*
X137230644Y-71605653D01*
X137408047Y-71580650D01*
X137542588Y-71605653D01*
X137659269Y-71688997D01*
X137742612Y-71844969D01*
X137766723Y-71954506D01*
X137774759Y-72087856D01*
X137765102Y-72243034D01*
X137736130Y-72372019D01*
X137687844Y-72474809D01*
X137573246Y-72575715D01*
X137403284Y-72609350D01*
X137213975Y-72583156D01*
X137093722Y-72530769D01*
X137019903Y-72761750D01*
X136655665Y-72761750D01*
X136744869Y-72670072D01*
X136804772Y-72561353D01*
X136847560Y-72429268D01*
X136873233Y-72273817D01*
X136881791Y-72095000D01*
X136873010Y-71916183D01*
X136846667Y-71760732D01*
X136802763Y-71628647D01*
X136741297Y-71519928D01*
X136635464Y-71412110D01*
X136505289Y-71347420D01*
X136350772Y-71325856D01*
X136191493Y-71347420D01*
X136059730Y-71412110D01*
X135955484Y-71519928D01*
X135896102Y-71628647D01*
X135853686Y-71760732D01*
X135828236Y-71916183D01*
X135819753Y-72095000D01*
X135668602Y-72095000D01*
X135667353Y-72068806D01*
X135656935Y-71878902D01*
X135644731Y-71694950D01*
X135630741Y-71520523D01*
X135614966Y-71359194D01*
X135372078Y-71359194D01*
X135330406Y-71487781D01*
X135276828Y-71656850D01*
X135219678Y-71840206D01*
X135164909Y-72011656D01*
X135105378Y-71829491D01*
X135045847Y-71648516D01*
X134993459Y-71485400D01*
X134950597Y-71359194D01*
X134707709Y-71359194D01*
X134691338Y-71549694D01*
X134675563Y-71735431D01*
X134661275Y-71917895D01*
X134649369Y-72098572D01*
X134639546Y-72278952D01*
X134631509Y-72460522D01*
X134624961Y-72644771D01*
X134619603Y-72833188D01*
X134436247Y-72833188D01*
X134436247Y-71378244D01*
X134339806Y-71361575D01*
X134231459Y-71350859D01*
X134124303Y-71344906D01*
X134031434Y-71342525D01*
X133858132Y-71355357D01*
X133712876Y-71393854D01*
X133595666Y-71458016D01*
X133509676Y-71551281D01*
X133458082Y-71677091D01*
X133440884Y-71835444D01*
X133079614Y-71835444D01*
X133035477Y-71689890D01*
X132984131Y-71522235D01*
X132933678Y-71359194D01*
X132614591Y-71359194D01*
X132562278Y-71523574D01*
X132510113Y-71692866D01*
X132458098Y-71867070D01*
X132406231Y-72046184D01*
X132365036Y-72193869D01*
X132324316Y-72346412D01*
X132284073Y-72503813D01*
X132244306Y-72666071D01*
X132205016Y-72833188D01*
X131887826Y-72833188D01*
X131924028Y-72824853D01*
X132088334Y-72752225D01*
X132002609Y-72514100D01*
X131849019Y-72585538D01*
X131749899Y-72610541D01*
X131631134Y-72618875D01*
X131508500Y-72603397D01*
X131431109Y-72560534D01*
X131391819Y-72498622D01*
X131381103Y-72428375D01*
X131407297Y-72347413D01*
X131473972Y-72284309D01*
X131564459Y-72234303D01*
X131664472Y-72192631D01*
X131802584Y-72137863D01*
X131932363Y-72059281D01*
X132028803Y-71941409D01*
X132066903Y-71766388D01*
X132033268Y-71581841D01*
X131932363Y-71442538D01*
X131831424Y-71377715D01*
X131707996Y-71338821D01*
X131562078Y-71325856D01*
X131434979Y-71333595D01*
X131325144Y-71356813D01*
X131154884Y-71425869D01*
X131240609Y-71652088D01*
X131372769Y-71594938D01*
X131540647Y-71571125D01*
X131670293Y-71589910D01*
X131748080Y-71646267D01*
X131774009Y-71740194D01*
X131750197Y-71815203D01*
X131689475Y-71872353D01*
X131606131Y-71916406D01*
X131514453Y-71952125D01*
X131370388Y-72010466D01*
X131232275Y-72096191D01*
X131128691Y-72229541D01*
X131098330Y-72319730D01*
X131088209Y-72430756D01*
X130190841Y-72430756D01*
X130190478Y-72428375D01*
X130216672Y-72347413D01*
X130283347Y-72284309D01*
X130373834Y-72234303D01*
X130473847Y-72192631D01*
X130611959Y-72137863D01*
X130741738Y-72059281D01*
X130838178Y-71941409D01*
X130876278Y-71766388D01*
X130842643Y-71581841D01*
X130741738Y-71442538D01*
X130640799Y-71377715D01*
X130517371Y-71338821D01*
X130371453Y-71325856D01*
X130244354Y-71333595D01*
X130134519Y-71356813D01*
X129964259Y-71425869D01*
X130049984Y-71652088D01*
X130182144Y-71594938D01*
X130350022Y-71571125D01*
X130479668Y-71589910D01*
X130557455Y-71646267D01*
X130583384Y-71740194D01*
X130559572Y-71815203D01*
X130498850Y-71872353D01*
X130415506Y-71916406D01*
X130323828Y-71952125D01*
X130179763Y-72010466D01*
X130041650Y-72096191D01*
X129938066Y-72229541D01*
X129907705Y-72319730D01*
X129897584Y-72430756D01*
X128992985Y-72430756D01*
X128948396Y-72283766D01*
X128929805Y-72095000D01*
X128948396Y-71906234D01*
X129003457Y-71724723D01*
X129092872Y-71557441D01*
X129213203Y-71410817D01*
X129359827Y-71290486D01*
X129527109Y-71201071D01*
X129708620Y-71146011D01*
X129897386Y-71127419D01*
X129897584Y-71127419D01*
X138072416Y-71127419D01*
X138072614Y-71127419D01*
X138261380Y-71146011D01*
G37*
%TO.C,kibuzzard-64EF9CAD*%
G36*
X96234250Y-89692581D02*
G01*
X95738156Y-89692581D01*
X95328581Y-89692581D01*
X94761844Y-89692581D01*
X94265750Y-89692581D01*
X94265750Y-89025037D01*
X94761844Y-89025037D01*
X94795181Y-89213156D01*
X94897575Y-89361984D01*
X94976156Y-89417944D01*
X95073788Y-89459616D01*
X95191064Y-89485512D01*
X95328581Y-89494144D01*
X95444072Y-89485809D01*
X95560753Y-89465569D01*
X95664337Y-89439375D01*
X95738156Y-89413181D01*
X95681006Y-89167912D01*
X95539322Y-89217919D01*
X95443774Y-89237564D01*
X95330962Y-89244112D01*
X95203268Y-89228039D01*
X95120222Y-89179819D01*
X95059500Y-89020275D01*
X95082717Y-88921155D01*
X95152369Y-88857159D01*
X95257739Y-88822334D01*
X95388112Y-88810725D01*
X95478600Y-88810725D01*
X95478600Y-88567837D01*
X95369063Y-88567837D01*
X95278575Y-88558312D01*
X95197612Y-88527356D01*
X95139272Y-88470206D01*
X95116650Y-88379719D01*
X95165466Y-88252322D01*
X95300006Y-88205887D01*
X95465503Y-88233272D01*
X95607187Y-88301137D01*
X95711962Y-88086825D01*
X95541703Y-87999909D01*
X95428891Y-87966870D01*
X95302387Y-87955856D01*
X95186599Y-87963595D01*
X95086884Y-87986812D01*
X94935675Y-88073728D01*
X94847569Y-88205887D01*
X94818994Y-88370194D01*
X94869000Y-88539262D01*
X95002350Y-88663087D01*
X94900849Y-88722023D01*
X94824947Y-88803581D01*
X94777620Y-88905380D01*
X94761844Y-89025037D01*
X94265750Y-89025037D01*
X94265750Y-87757419D01*
X94761844Y-87757419D01*
X95738156Y-87757419D01*
X96234250Y-87757419D01*
X96234250Y-89692581D01*
G37*
%TO.C,kibuzzard-650ECDAE*%
G36*
X153240184Y-90513297D02*
G01*
X153278284Y-90660934D01*
X153311622Y-90807381D01*
X153341387Y-90959781D01*
X153053256Y-90959781D01*
X153081831Y-90807381D01*
X153113978Y-90660934D01*
X153152078Y-90513297D01*
X153196131Y-90354944D01*
X153240184Y-90513297D01*
G37*
G36*
X152129331Y-90308509D02*
G01*
X152176956Y-90314463D01*
X152176956Y-90757375D01*
X152112662Y-90757375D01*
X151983480Y-90742790D01*
X151895969Y-90699034D01*
X151829294Y-90533538D01*
X151847153Y-90432334D01*
X151900731Y-90362088D01*
X151983480Y-90321011D01*
X152088850Y-90307319D01*
X152129331Y-90308509D01*
G37*
G36*
X159248078Y-90308509D02*
G01*
X159320706Y-90314463D01*
X159320706Y-90790713D01*
X159201644Y-90790713D01*
X159078414Y-90776723D01*
X158989712Y-90734753D01*
X158936134Y-90658851D01*
X158918275Y-90543063D01*
X158935837Y-90433227D01*
X158988522Y-90360897D01*
X159070377Y-90320713D01*
X159175450Y-90307319D01*
X159248078Y-90308509D01*
G37*
G36*
X161062245Y-89856011D02*
G01*
X161243757Y-89911071D01*
X161411039Y-90000486D01*
X161557663Y-90120817D01*
X161677994Y-90267441D01*
X161767408Y-90434723D01*
X161822469Y-90616234D01*
X161841061Y-90805000D01*
X161822469Y-90993766D01*
X161767408Y-91175277D01*
X161677994Y-91342559D01*
X161557663Y-91489183D01*
X161411039Y-91609514D01*
X161243757Y-91698929D01*
X161062245Y-91753989D01*
X160873480Y-91772581D01*
X160873281Y-91772581D01*
X160189862Y-91772581D01*
X159320706Y-91772581D01*
X157415706Y-91772581D01*
X156808487Y-91772581D01*
X154389137Y-91772581D01*
X152934194Y-91772581D01*
X151434006Y-91772581D01*
X150664862Y-91772581D01*
X150276719Y-91772581D01*
X150276520Y-91772581D01*
X150087755Y-91753989D01*
X149906243Y-91698929D01*
X149738961Y-91609514D01*
X149592337Y-91489183D01*
X149472006Y-91342559D01*
X149382592Y-91175277D01*
X149327531Y-90993766D01*
X149308939Y-90805000D01*
X149327531Y-90616234D01*
X149382592Y-90434723D01*
X149472006Y-90267441D01*
X149592337Y-90120817D01*
X149655240Y-90069194D01*
X150276719Y-90069194D01*
X150276719Y-90312081D01*
X150664862Y-90312081D01*
X150664862Y-91543188D01*
X150960137Y-91543188D01*
X151434006Y-91543188D01*
X151741187Y-91543188D01*
X151800421Y-91402991D01*
X151868584Y-91268153D01*
X151943891Y-91135101D01*
X152024556Y-91000262D01*
X152176956Y-91000262D01*
X152176956Y-91543188D01*
X152469850Y-91543188D01*
X152619869Y-91543188D01*
X152934194Y-91543188D01*
X153003250Y-91202669D01*
X153396156Y-91202669D01*
X153462831Y-91543188D01*
X153767631Y-91543188D01*
X153725626Y-91371976D01*
X153683430Y-91206955D01*
X153641044Y-91048126D01*
X153598467Y-90895487D01*
X153555700Y-90749041D01*
X153502568Y-90572158D01*
X153450330Y-90399890D01*
X153398984Y-90232235D01*
X153348531Y-90069194D01*
X153881931Y-90069194D01*
X153881931Y-91009787D01*
X153887884Y-91132422D01*
X153905744Y-91243150D01*
X153938486Y-91340186D01*
X153989087Y-91421744D01*
X154058144Y-91486930D01*
X154146250Y-91534853D01*
X154255787Y-91564321D01*
X154389137Y-91574144D01*
X154520404Y-91564321D01*
X154628453Y-91534853D01*
X154782044Y-91421744D01*
X154830859Y-91340186D01*
X154863006Y-91243150D01*
X154879522Y-91140756D01*
X156265562Y-91140756D01*
X156299198Y-91324410D01*
X156400103Y-91461034D01*
X156505275Y-91523873D01*
X156641403Y-91561576D01*
X156808487Y-91574144D01*
X156973389Y-91564321D01*
X157065179Y-91543188D01*
X157415706Y-91543188D01*
X157684787Y-91543188D01*
X157670500Y-90397806D01*
X157851475Y-91021694D01*
X158065787Y-91021694D01*
X158239619Y-90397806D01*
X158227712Y-91543188D01*
X158496794Y-91543188D01*
X158489352Y-91358641D01*
X158481316Y-91166950D01*
X158472684Y-90972283D01*
X158463456Y-90778806D01*
X158453038Y-90588902D01*
X158450155Y-90545444D01*
X158618237Y-90545444D01*
X158635568Y-90705384D01*
X158687558Y-90832781D01*
X158774209Y-90927634D01*
X158892610Y-90993119D01*
X159039851Y-91032409D01*
X159215931Y-91045506D01*
X159320706Y-91045506D01*
X159320706Y-91543188D01*
X159613600Y-91543188D01*
X159613600Y-90088244D01*
X159517159Y-90071575D01*
X159493085Y-90069194D01*
X159801719Y-90069194D01*
X159801719Y-90312081D01*
X160189862Y-90312081D01*
X160189862Y-91543188D01*
X160485137Y-91543188D01*
X160485137Y-90312081D01*
X160873281Y-90312081D01*
X160873281Y-90069194D01*
X159801719Y-90069194D01*
X159493085Y-90069194D01*
X159408812Y-90060859D01*
X159301656Y-90054906D01*
X159208787Y-90052525D01*
X159035485Y-90065357D01*
X158890229Y-90103854D01*
X158773019Y-90168016D01*
X158687029Y-90261281D01*
X158635435Y-90387091D01*
X158618237Y-90545444D01*
X158450155Y-90545444D01*
X158440834Y-90404950D01*
X158426845Y-90230523D01*
X158411069Y-90069194D01*
X158168181Y-90069194D01*
X158126509Y-90197781D01*
X158072931Y-90366850D01*
X158015781Y-90550206D01*
X157961012Y-90721656D01*
X157901481Y-90539491D01*
X157841950Y-90358516D01*
X157789562Y-90195400D01*
X157746700Y-90069194D01*
X157503812Y-90069194D01*
X157487441Y-90259694D01*
X157471666Y-90445431D01*
X157457378Y-90627895D01*
X157445472Y-90808572D01*
X157435649Y-90988952D01*
X157427612Y-91170522D01*
X157421064Y-91354771D01*
X157415706Y-91543188D01*
X157065179Y-91543188D01*
X157101381Y-91534853D01*
X157265687Y-91462225D01*
X157179962Y-91224100D01*
X157026372Y-91295538D01*
X156927252Y-91320541D01*
X156808487Y-91328875D01*
X156685853Y-91313397D01*
X156608462Y-91270534D01*
X156569172Y-91208622D01*
X156558456Y-91138375D01*
X156584650Y-91057413D01*
X156651325Y-90994309D01*
X156741812Y-90944303D01*
X156841825Y-90902631D01*
X156979937Y-90847863D01*
X157109716Y-90769281D01*
X157206156Y-90651409D01*
X157244256Y-90476388D01*
X157210621Y-90291841D01*
X157109716Y-90152538D01*
X157008777Y-90087715D01*
X156885349Y-90048821D01*
X156739431Y-90035856D01*
X156612332Y-90043595D01*
X156502497Y-90066813D01*
X156332237Y-90135869D01*
X156417962Y-90362088D01*
X156550122Y-90304938D01*
X156718000Y-90281125D01*
X156847646Y-90299910D01*
X156925433Y-90356267D01*
X156951362Y-90450194D01*
X156927550Y-90525203D01*
X156866828Y-90582353D01*
X156783484Y-90626406D01*
X156691806Y-90662125D01*
X156547741Y-90720466D01*
X156409628Y-90806191D01*
X156306044Y-90939541D01*
X156275683Y-91029730D01*
X156265562Y-91140756D01*
X154879522Y-91140756D01*
X154880866Y-91132422D01*
X154886819Y-91009787D01*
X154886819Y-90069194D01*
X154591544Y-90069194D01*
X154591544Y-90990737D01*
X154582019Y-91146709D01*
X154549872Y-91247913D01*
X154486769Y-91302681D01*
X154384375Y-91319350D01*
X154281981Y-91302681D01*
X154217687Y-91246722D01*
X154184350Y-91144328D01*
X154174825Y-90988356D01*
X154174825Y-90069194D01*
X153881931Y-90069194D01*
X153348531Y-90069194D01*
X153029444Y-90069194D01*
X152977131Y-90233574D01*
X152924966Y-90402866D01*
X152872951Y-90577070D01*
X152821084Y-90756184D01*
X152779889Y-90903869D01*
X152739169Y-91056412D01*
X152698926Y-91213813D01*
X152659159Y-91376071D01*
X152619869Y-91543188D01*
X152469850Y-91543188D01*
X152469850Y-90090625D01*
X152375791Y-90072766D01*
X152272206Y-90060859D01*
X152172194Y-90054906D01*
X152088850Y-90052525D01*
X151968597Y-90059669D01*
X151860250Y-90081100D01*
X151765000Y-90117414D01*
X151684037Y-90169206D01*
X151570928Y-90320416D01*
X151541460Y-90420130D01*
X151531638Y-90535919D01*
X151544734Y-90658553D01*
X151584025Y-90769281D01*
X151653677Y-90861555D01*
X151757856Y-90928825D01*
X151672131Y-91065747D01*
X151584025Y-91222909D01*
X151501872Y-91387216D01*
X151434006Y-91543188D01*
X150960137Y-91543188D01*
X150960137Y-90312081D01*
X151348281Y-90312081D01*
X151348281Y-90069194D01*
X150276719Y-90069194D01*
X149655240Y-90069194D01*
X149738961Y-90000486D01*
X149906243Y-89911071D01*
X150087755Y-89856011D01*
X150276520Y-89837419D01*
X150276719Y-89837419D01*
X160873281Y-89837419D01*
X160873480Y-89837419D01*
X161062245Y-89856011D01*
G37*
%TO.C,kibuzzard-64EF9D56*%
G36*
X101399221Y-86692581D02*
G01*
X101200783Y-86692581D01*
X100791208Y-86692581D01*
X99664877Y-86692581D01*
X98409958Y-86692581D01*
X97399217Y-86692581D01*
X97200779Y-86692581D01*
X97200779Y-86025037D01*
X97843221Y-86025037D01*
X97876558Y-86213156D01*
X97978952Y-86361984D01*
X98057533Y-86417944D01*
X98155164Y-86459616D01*
X98272441Y-86485512D01*
X98409958Y-86494144D01*
X98525449Y-86485809D01*
X98642130Y-86465569D01*
X98745714Y-86439375D01*
X98819533Y-86413181D01*
X98762383Y-86167912D01*
X98620699Y-86217919D01*
X98525151Y-86237564D01*
X98412339Y-86244112D01*
X98284645Y-86228039D01*
X98201599Y-86179819D01*
X98140877Y-86020275D01*
X98164094Y-85921155D01*
X98233746Y-85857159D01*
X98339116Y-85822334D01*
X98469489Y-85810725D01*
X98559977Y-85810725D01*
X98559977Y-85567837D01*
X98450439Y-85567837D01*
X98359952Y-85558312D01*
X98278989Y-85527356D01*
X98220649Y-85470206D01*
X98198027Y-85379719D01*
X98246843Y-85252322D01*
X98381383Y-85205887D01*
X98546880Y-85233272D01*
X98688564Y-85301137D01*
X98793339Y-85086825D01*
X98623080Y-84999909D01*
X98586494Y-84989194D01*
X98945739Y-84989194D01*
X98977589Y-85140403D01*
X99015986Y-85308281D01*
X99060635Y-85488959D01*
X99111236Y-85678566D01*
X99148146Y-85808741D01*
X99187436Y-85940503D01*
X99229108Y-86073853D01*
X99272500Y-86206542D01*
X99316950Y-86336320D01*
X99362458Y-86463187D01*
X99664877Y-86463187D01*
X99723813Y-86288166D01*
X99786321Y-86091712D01*
X99806649Y-86025037D01*
X100224471Y-86025037D01*
X100257808Y-86213156D01*
X100360202Y-86361984D01*
X100438783Y-86417944D01*
X100536414Y-86459616D01*
X100653691Y-86485512D01*
X100791208Y-86494144D01*
X100906699Y-86485809D01*
X101023380Y-86465569D01*
X101126964Y-86439375D01*
X101200783Y-86413181D01*
X101143633Y-86167912D01*
X101001949Y-86217919D01*
X100906401Y-86237564D01*
X100793589Y-86244112D01*
X100665895Y-86228039D01*
X100582849Y-86179819D01*
X100522127Y-86020275D01*
X100545344Y-85921155D01*
X100614996Y-85857159D01*
X100720366Y-85822334D01*
X100850739Y-85810725D01*
X100941227Y-85810725D01*
X100941227Y-85567837D01*
X100831689Y-85567837D01*
X100741202Y-85558312D01*
X100660239Y-85527356D01*
X100601899Y-85470206D01*
X100579277Y-85379719D01*
X100628093Y-85252322D01*
X100762633Y-85205887D01*
X100928130Y-85233272D01*
X101069814Y-85301137D01*
X101174589Y-85086825D01*
X101004330Y-84999909D01*
X100891518Y-84966870D01*
X100765014Y-84955856D01*
X100649226Y-84963595D01*
X100549511Y-84986812D01*
X100398302Y-85073728D01*
X100310196Y-85205887D01*
X100281621Y-85370194D01*
X100331627Y-85539262D01*
X100464977Y-85663087D01*
X100363476Y-85722023D01*
X100287574Y-85803581D01*
X100240246Y-85905380D01*
X100224471Y-86025037D01*
X99806649Y-86025037D01*
X99828389Y-85953732D01*
X99868871Y-85816017D01*
X99907764Y-85678566D01*
X99944542Y-85543760D01*
X99978673Y-85413982D01*
X100010158Y-85289231D01*
X100049449Y-85122544D01*
X100076833Y-84989194D01*
X99767271Y-84989194D01*
X99749411Y-85112721D01*
X99724408Y-85254703D01*
X99694345Y-85408294D01*
X99661305Y-85566647D01*
X99625586Y-85726191D01*
X99587486Y-85883353D01*
X99548493Y-86031288D01*
X99510096Y-86163150D01*
X99471996Y-86033074D01*
X99433896Y-85885734D01*
X99396986Y-85728572D01*
X99362458Y-85569028D01*
X99330311Y-85410377D01*
X99300546Y-85255894D01*
X99274352Y-85113019D01*
X99252921Y-84989194D01*
X98945739Y-84989194D01*
X98586494Y-84989194D01*
X98510268Y-84966870D01*
X98383764Y-84955856D01*
X98267976Y-84963595D01*
X98168261Y-84986812D01*
X98017052Y-85073728D01*
X97928946Y-85205887D01*
X97900371Y-85370194D01*
X97950377Y-85539262D01*
X98083727Y-85663087D01*
X97982226Y-85722023D01*
X97906324Y-85803581D01*
X97858996Y-85905380D01*
X97843221Y-86025037D01*
X97200779Y-86025037D01*
X97200779Y-84757419D01*
X97399217Y-84757419D01*
X101200783Y-84757419D01*
X101399221Y-84757419D01*
X101399221Y-86692581D01*
G37*
%TO.C,J6*%
X160825000Y-101600000D02*
X160825000Y-97100000D01*
X159825000Y-97100000D02*
X160825000Y-97100000D01*
X159825000Y-94850000D02*
X159825000Y-97100000D01*
X159825000Y-94850000D02*
X151325000Y-94850000D01*
X155575000Y-101600000D02*
X160825000Y-101600000D01*
X155575000Y-101600000D02*
X150325000Y-101600000D01*
X151325000Y-97100000D02*
X150325000Y-97100000D01*
X151325000Y-94850000D02*
X151325000Y-97100000D01*
X150325000Y-101600000D02*
X150325000Y-97100000D01*
%TO.C,kibuzzard-65062FEF*%
G36*
X175427878Y-90513297D02*
G01*
X175465978Y-90660934D01*
X175499316Y-90807381D01*
X175529081Y-90959781D01*
X175240950Y-90959781D01*
X175269525Y-90807381D01*
X175301672Y-90660934D01*
X175339772Y-90513297D01*
X175383825Y-90354944D01*
X175427878Y-90513297D01*
G37*
G36*
X174317025Y-90308509D02*
G01*
X174364650Y-90314463D01*
X174364650Y-90757375D01*
X174300356Y-90757375D01*
X174171173Y-90742790D01*
X174083662Y-90699034D01*
X174016987Y-90533538D01*
X174034847Y-90432334D01*
X174088425Y-90362088D01*
X174171173Y-90321011D01*
X174276544Y-90307319D01*
X174317025Y-90308509D01*
G37*
G36*
X180245147Y-90308509D02*
G01*
X180317775Y-90314463D01*
X180317775Y-90790713D01*
X180198712Y-90790713D01*
X180075483Y-90776723D01*
X179986781Y-90734753D01*
X179933203Y-90658851D01*
X179915344Y-90543063D01*
X179932905Y-90433227D01*
X179985591Y-90360897D01*
X180067446Y-90320713D01*
X180172519Y-90307319D01*
X180245147Y-90308509D01*
G37*
G36*
X182054552Y-89856011D02*
G01*
X182236063Y-89911071D01*
X182403345Y-90000486D01*
X182549969Y-90120817D01*
X182670300Y-90267441D01*
X182759714Y-90434723D01*
X182814775Y-90616234D01*
X182833367Y-90805000D01*
X182814775Y-90993766D01*
X182759714Y-91175277D01*
X182670300Y-91342559D01*
X182549969Y-91489183D01*
X182403345Y-91609514D01*
X182236063Y-91698929D01*
X182054552Y-91753989D01*
X181865786Y-91772581D01*
X181865587Y-91772581D01*
X181263131Y-91772581D01*
X180317775Y-91772581D01*
X178996181Y-91772581D01*
X176576831Y-91772581D01*
X175121887Y-91772581D01*
X173621700Y-91772581D01*
X172852556Y-91772581D01*
X172464412Y-91772581D01*
X172464214Y-91772581D01*
X172275448Y-91753989D01*
X172093937Y-91698928D01*
X171926655Y-91609514D01*
X171780031Y-91489183D01*
X171659700Y-91342559D01*
X171570286Y-91175277D01*
X171515225Y-90993766D01*
X171496633Y-90805000D01*
X171515225Y-90616234D01*
X171570286Y-90434723D01*
X171659700Y-90267441D01*
X171780031Y-90120817D01*
X171842934Y-90069194D01*
X172464412Y-90069194D01*
X172464412Y-90312081D01*
X172852556Y-90312081D01*
X172852556Y-91543188D01*
X173147831Y-91543188D01*
X173621700Y-91543188D01*
X173928881Y-91543188D01*
X173988115Y-91402991D01*
X174056278Y-91268153D01*
X174131585Y-91135101D01*
X174212250Y-91000262D01*
X174364650Y-91000262D01*
X174364650Y-91543188D01*
X174657544Y-91543188D01*
X174807562Y-91543188D01*
X175121887Y-91543188D01*
X175190944Y-91202669D01*
X175583850Y-91202669D01*
X175650525Y-91543188D01*
X175955325Y-91543188D01*
X175913320Y-91371976D01*
X175871124Y-91206955D01*
X175828738Y-91048126D01*
X175786161Y-90895487D01*
X175743394Y-90749041D01*
X175690262Y-90572158D01*
X175638023Y-90399890D01*
X175586678Y-90232235D01*
X175536225Y-90069194D01*
X176069625Y-90069194D01*
X176069625Y-91009787D01*
X176075578Y-91132422D01*
X176093437Y-91243150D01*
X176126180Y-91340186D01*
X176176781Y-91421744D01*
X176245837Y-91486930D01*
X176333944Y-91534853D01*
X176443481Y-91564321D01*
X176576831Y-91574144D01*
X176708098Y-91564321D01*
X176816147Y-91534853D01*
X176969737Y-91421744D01*
X177018553Y-91340186D01*
X177050700Y-91243150D01*
X177067215Y-91140756D01*
X178453256Y-91140756D01*
X178486891Y-91324410D01*
X178587797Y-91461034D01*
X178692969Y-91523873D01*
X178829097Y-91561576D01*
X178996181Y-91574144D01*
X179161083Y-91564321D01*
X179289075Y-91534853D01*
X179453381Y-91462225D01*
X179367656Y-91224100D01*
X179214066Y-91295538D01*
X179114946Y-91320541D01*
X178996181Y-91328875D01*
X178873547Y-91313397D01*
X178796156Y-91270534D01*
X178756866Y-91208622D01*
X178746150Y-91138375D01*
X178772344Y-91057413D01*
X178839019Y-90994309D01*
X178929506Y-90944303D01*
X179029519Y-90902631D01*
X179167631Y-90847863D01*
X179297409Y-90769281D01*
X179393850Y-90651409D01*
X179416917Y-90545444D01*
X179615306Y-90545444D01*
X179632636Y-90705384D01*
X179684627Y-90832781D01*
X179771278Y-90927634D01*
X179889679Y-90993119D01*
X180036920Y-91032409D01*
X180213000Y-91045506D01*
X180317775Y-91045506D01*
X180317775Y-91543188D01*
X180610669Y-91543188D01*
X180610669Y-90143013D01*
X180824981Y-90143013D01*
X180901181Y-90376375D01*
X181029769Y-90316844D01*
X181186931Y-90290650D01*
X181363144Y-90328750D01*
X181481016Y-90434716D01*
X181547691Y-90596641D01*
X181562871Y-90695760D01*
X181567931Y-90805000D01*
X181558671Y-90965734D01*
X181530889Y-91095513D01*
X181484587Y-91194334D01*
X181381598Y-91288096D01*
X181239319Y-91319350D01*
X181182169Y-91316969D01*
X181125019Y-91309825D01*
X181125019Y-90771663D01*
X180832125Y-90771663D01*
X180832125Y-91507469D01*
X180995241Y-91550331D01*
X181117577Y-91568191D01*
X181263131Y-91574144D01*
X181394398Y-91561940D01*
X181511972Y-91525328D01*
X181614663Y-91464606D01*
X181701281Y-91380072D01*
X181770933Y-91271725D01*
X181822725Y-91139566D01*
X181854872Y-90983891D01*
X181865587Y-90805000D01*
X181853086Y-90627895D01*
X181815581Y-90472816D01*
X181756645Y-90340359D01*
X181679850Y-90231119D01*
X181586386Y-90145691D01*
X181477444Y-90084672D01*
X181356595Y-90048060D01*
X181227412Y-90035856D01*
X181073822Y-90048953D01*
X180955950Y-90078719D01*
X180873797Y-90114438D01*
X180824981Y-90143013D01*
X180610669Y-90143013D01*
X180610669Y-90088244D01*
X180514228Y-90071575D01*
X180405881Y-90060859D01*
X180298725Y-90054906D01*
X180205856Y-90052525D01*
X180032554Y-90065357D01*
X179887298Y-90103854D01*
X179770087Y-90168016D01*
X179684098Y-90261281D01*
X179632504Y-90387091D01*
X179615306Y-90545444D01*
X179416917Y-90545444D01*
X179431950Y-90476388D01*
X179398315Y-90291841D01*
X179297409Y-90152538D01*
X179196471Y-90087715D01*
X179073043Y-90048821D01*
X178927125Y-90035856D01*
X178800026Y-90043595D01*
X178690191Y-90066813D01*
X178519931Y-90135869D01*
X178605656Y-90362088D01*
X178737816Y-90304938D01*
X178905694Y-90281125D01*
X179035339Y-90299910D01*
X179113127Y-90356267D01*
X179139056Y-90450194D01*
X179115244Y-90525203D01*
X179054522Y-90582353D01*
X178971178Y-90626406D01*
X178879500Y-90662125D01*
X178735434Y-90720466D01*
X178597322Y-90806191D01*
X178493737Y-90939541D01*
X178463376Y-91029730D01*
X178453256Y-91140756D01*
X177067215Y-91140756D01*
X177068559Y-91132422D01*
X177074512Y-91009787D01*
X177074512Y-90069194D01*
X176779237Y-90069194D01*
X176779237Y-90990737D01*
X176769712Y-91146709D01*
X176737566Y-91247913D01*
X176674462Y-91302681D01*
X176572069Y-91319350D01*
X176469675Y-91302681D01*
X176405381Y-91246722D01*
X176372044Y-91144328D01*
X176362519Y-90988356D01*
X176362519Y-90069194D01*
X176069625Y-90069194D01*
X175536225Y-90069194D01*
X175217137Y-90069194D01*
X175164824Y-90233574D01*
X175112660Y-90402866D01*
X175060645Y-90577070D01*
X175008778Y-90756184D01*
X174967582Y-90903869D01*
X174926863Y-91056412D01*
X174886620Y-91213813D01*
X174846853Y-91376071D01*
X174807562Y-91543188D01*
X174657544Y-91543188D01*
X174657544Y-90090625D01*
X174563484Y-90072766D01*
X174459900Y-90060859D01*
X174359887Y-90054906D01*
X174276544Y-90052525D01*
X174156291Y-90059669D01*
X174047944Y-90081100D01*
X173952694Y-90117414D01*
X173871731Y-90169206D01*
X173758622Y-90320416D01*
X173729154Y-90420130D01*
X173719331Y-90535919D01*
X173732428Y-90658553D01*
X173771719Y-90769281D01*
X173841370Y-90861555D01*
X173945550Y-90928825D01*
X173859825Y-91065747D01*
X173771719Y-91222909D01*
X173689566Y-91387216D01*
X173621700Y-91543188D01*
X173147831Y-91543188D01*
X173147831Y-90312081D01*
X173535975Y-90312081D01*
X173535975Y-90069194D01*
X172464412Y-90069194D01*
X171842934Y-90069194D01*
X171926655Y-90000486D01*
X172093937Y-89911072D01*
X172275448Y-89856011D01*
X172464214Y-89837419D01*
X172464412Y-89837419D01*
X181865587Y-89837419D01*
X181865786Y-89837419D01*
X182054552Y-89856011D01*
G37*
%TD*%
%LPC*%
D11*
%TO.C,H4*%
X78245000Y-97155000D03*
X78947944Y-95457944D03*
X78947944Y-98852056D03*
X80645000Y-94755000D03*
D12*
X80645000Y-97155000D03*
D11*
X80645000Y-99555000D03*
X82342056Y-95457944D03*
X82342056Y-98852056D03*
X83045000Y-97155000D03*
%TD*%
%TO.C,H1*%
X221755000Y-74295000D03*
X222457944Y-72597944D03*
X222457944Y-75992056D03*
X224155000Y-71895000D03*
D12*
X224155000Y-74295000D03*
D11*
X224155000Y-76695000D03*
X225852056Y-72597944D03*
X225852056Y-75992056D03*
X226555000Y-74295000D03*
%TD*%
%TO.C,H2*%
X221755000Y-97155000D03*
X222457944Y-95457944D03*
X222457944Y-98852056D03*
X224155000Y-94755000D03*
D12*
X224155000Y-97155000D03*
D11*
X224155000Y-99555000D03*
X225852056Y-95457944D03*
X225852056Y-98852056D03*
X226555000Y-97155000D03*
%TD*%
D13*
%TO.C,J7*%
X217410000Y-82725000D03*
D14*
X217410000Y-82725000D03*
D13*
X212410000Y-82725000D03*
D15*
X211810000Y-82725000D03*
D13*
X217410000Y-88725000D03*
D14*
X217410000Y-88725000D03*
D13*
X212410000Y-88725000D03*
D15*
X211810000Y-88725000D03*
%TD*%
D16*
%TO.C,J9*%
X87755000Y-85725000D03*
D17*
X92075000Y-82725000D03*
X92075000Y-85725000D03*
X92075000Y-88725000D03*
%TD*%
D11*
%TO.C,H3*%
X78245000Y-74295000D03*
X78947944Y-72597944D03*
X78947944Y-75992056D03*
X80645000Y-71895000D03*
D12*
X80645000Y-74295000D03*
D11*
X80645000Y-76695000D03*
X82342056Y-72597944D03*
X82342056Y-75992056D03*
X83045000Y-74295000D03*
%TD*%
D18*
%TO.C,J8*%
X182615000Y-99350000D03*
X171715000Y-99350000D03*
D19*
X179415000Y-94200000D03*
X177915000Y-94200000D03*
X176415000Y-94200000D03*
X174915000Y-94200000D03*
%TD*%
D18*
%TO.C,J5*%
X139435000Y-99350000D03*
X128535000Y-99350000D03*
D19*
X136235000Y-94200000D03*
X134735000Y-94200000D03*
X133235000Y-94200000D03*
X131735000Y-94200000D03*
%TD*%
D18*
%TO.C,J6*%
X161025000Y-99350000D03*
X150125000Y-99350000D03*
D19*
X157825000Y-94200000D03*
X156325000Y-94200000D03*
X154825000Y-94200000D03*
X153325000Y-94200000D03*
%TD*%
%LPD*%
M02*
