%TF.GenerationSoftware,KiCad,Pcbnew,7.0.5-0*%
%TF.CreationDate,2023-09-25T22:43:47+01:00*%
%TF.ProjectId,INCLINOMETER_BOARD,494e434c-494e-44f4-9d45-5445525f424f,rev?*%
%TF.SameCoordinates,Original*%
%TF.FileFunction,Copper,L1,Top*%
%TF.FilePolarity,Positive*%
%FSLAX46Y46*%
G04 Gerber Fmt 4.6, Leading zero omitted, Abs format (unit mm)*
G04 Created by KiCad (PCBNEW 7.0.5-0) date 2023-09-25 22:43:47*
%MOMM*%
%LPD*%
G01*
G04 APERTURE LIST*
G04 Aperture macros list*
%AMRoundRect*
0 Rectangle with rounded corners*
0 $1 Rounding radius*
0 $2 $3 $4 $5 $6 $7 $8 $9 X,Y pos of 4 corners*
0 Add a 4 corners polygon primitive as box body*
4,1,4,$2,$3,$4,$5,$6,$7,$8,$9,$2,$3,0*
0 Add four circle primitives for the rounded corners*
1,1,$1+$1,$2,$3*
1,1,$1+$1,$4,$5*
1,1,$1+$1,$6,$7*
1,1,$1+$1,$8,$9*
0 Add four rect primitives between the rounded corners*
20,1,$1+$1,$2,$3,$4,$5,0*
20,1,$1+$1,$4,$5,$6,$7,0*
20,1,$1+$1,$6,$7,$8,$9,0*
20,1,$1+$1,$8,$9,$2,$3,0*%
G04 Aperture macros list end*
%TA.AperFunction,SMDPad,CuDef*%
%ADD10RoundRect,0.325000X-0.325000X-0.425000X0.325000X-0.425000X0.325000X0.425000X-0.325000X0.425000X0*%
%TD*%
%TA.AperFunction,ComponentPad*%
%ADD11C,0.800000*%
%TD*%
%TA.AperFunction,ComponentPad*%
%ADD12C,6.400000*%
%TD*%
%TA.AperFunction,SMDPad,CuDef*%
%ADD13RoundRect,0.325000X0.425000X-0.325000X0.425000X0.325000X-0.425000X0.325000X-0.425000X-0.325000X0*%
%TD*%
%TA.AperFunction,SMDPad,CuDef*%
%ADD14RoundRect,0.350000X0.350000X-0.350000X0.350000X0.350000X-0.350000X0.350000X-0.350000X-0.350000X0*%
%TD*%
%TA.AperFunction,SMDPad,CuDef*%
%ADD15RoundRect,0.325000X-0.425000X0.325000X-0.425000X-0.325000X0.425000X-0.325000X0.425000X0.325000X0*%
%TD*%
%TA.AperFunction,SMDPad,CuDef*%
%ADD16RoundRect,0.600000X0.600000X1.000000X-0.600000X1.000000X-0.600000X-1.000000X0.600000X-1.000000X0*%
%TD*%
%TA.AperFunction,SMDPad,CuDef*%
%ADD17RoundRect,0.450000X0.000000X1.050000X0.000000X1.050000X0.000000X-1.050000X0.000000X-1.050000X0*%
%TD*%
%TA.AperFunction,SMDPad,CuDef*%
%ADD18RoundRect,1.000000X-0.750000X0.000000X0.750000X0.000000X0.750000X0.000000X-0.750000X0.000000X0*%
%TD*%
%TA.AperFunction,SMDPad,CuDef*%
%ADD19RoundRect,0.375000X0.375000X-0.375000X0.375000X0.375000X-0.375000X0.375000X-0.375000X-0.375000X0*%
%TD*%
%TA.AperFunction,SMDPad,CuDef*%
%ADD20RoundRect,0.425000X-2.425000X0.425000X-2.425000X-0.425000X2.425000X-0.425000X2.425000X0.425000X0*%
%TD*%
%TA.AperFunction,SMDPad,CuDef*%
%ADD21RoundRect,0.517500X-0.832500X0.517500X-0.832500X-0.517500X0.832500X-0.517500X0.832500X0.517500X0*%
%TD*%
%TA.AperFunction,ComponentPad*%
%ADD22C,2.100000*%
%TD*%
%TA.AperFunction,ComponentPad*%
%ADD23C,1.800000*%
%TD*%
%TA.AperFunction,SMDPad,CuDef*%
%ADD24RoundRect,0.400000X0.500000X0.000000X-0.500000X0.000000X-0.500000X0.000000X0.500000X0.000000X0*%
%TD*%
%TA.AperFunction,SMDPad,CuDef*%
%ADD25RoundRect,0.300000X0.000000X0.450000X0.000000X-0.450000X0.000000X-0.450000X0.000000X0.450000X0*%
%TD*%
%TA.AperFunction,SMDPad,CuDef*%
%ADD26RoundRect,0.400000X0.000000X0.975000X0.000000X-0.975000X0.000000X-0.975000X0.000000X0.975000X0*%
%TD*%
%TA.AperFunction,ViaPad*%
%ADD27C,0.500000*%
%TD*%
%TA.AperFunction,ViaPad*%
%ADD28C,0.550000*%
%TD*%
%TA.AperFunction,Conductor*%
%ADD29C,0.406400*%
%TD*%
%TA.AperFunction,Conductor*%
%ADD30C,0.203200*%
%TD*%
%TA.AperFunction,Conductor*%
%ADD31C,0.609600*%
%TD*%
%TA.AperFunction,Conductor*%
%ADD32C,1.300000*%
%TD*%
%TA.AperFunction,Conductor*%
%ADD33C,0.304800*%
%TD*%
%TA.AperFunction,Conductor*%
%ADD34C,0.313944*%
%TD*%
G04 APERTURE END LIST*
D10*
%TO.P,C6,1*%
%TO.N,GND*%
X188978500Y-95250000D03*
%TO.P,C6,2*%
%TO.N,Net-(BT1-+)*%
X190878500Y-95250000D03*
%TD*%
%TO.P,R2,1*%
%TO.N,Net-(IC1-FB)*%
X90490000Y-72390000D03*
%TO.P,R2,2*%
%TO.N,+3.3V*%
X92390000Y-72390000D03*
%TD*%
D11*
%TO.P,H4,1,1*%
%TO.N,GND*%
X78245000Y-97155000D03*
X78947944Y-95457944D03*
X78947944Y-98852056D03*
X80645000Y-94755000D03*
D12*
X80645000Y-97155000D03*
D11*
X80645000Y-99555000D03*
X82342056Y-95457944D03*
X82342056Y-98852056D03*
X83045000Y-97155000D03*
%TD*%
%TO.P,H1,1,1*%
%TO.N,GND*%
X221755000Y-74295000D03*
X222457944Y-72597944D03*
X222457944Y-75992056D03*
X224155000Y-71895000D03*
D12*
X224155000Y-74295000D03*
D11*
X224155000Y-76695000D03*
X225852056Y-72597944D03*
X225852056Y-75992056D03*
X226555000Y-74295000D03*
%TD*%
D13*
%TO.P,C4,1*%
%TO.N,GND*%
X95504000Y-88580000D03*
%TO.P,C4,2*%
%TO.N,+3.3V*%
X95504000Y-86680000D03*
%TD*%
D11*
%TO.P,H2,1,1*%
%TO.N,GND*%
X221755000Y-97155000D03*
X222457944Y-95457944D03*
X222457944Y-98852056D03*
X224155000Y-94755000D03*
D12*
X224155000Y-97155000D03*
D11*
X224155000Y-99555000D03*
X225852056Y-95457944D03*
X225852056Y-98852056D03*
X226555000Y-97155000D03*
%TD*%
D14*
%TO.P,D5,1,K*%
%TO.N,Net-(D3-K)*%
X207010000Y-75410000D03*
%TO.P,D5,2,A*%
%TO.N,Net-(D4-K)*%
X207010000Y-71910000D03*
%TD*%
D15*
%TO.P,C9,1*%
%TO.N,Net-(C9-Pad1)*%
X210312000Y-91125000D03*
%TO.P,C9,2*%
%TO.N,GND*%
X210312000Y-93025000D03*
%TD*%
%TO.P,R6,1*%
%TO.N,Net-(C9-Pad1)*%
X207772000Y-91125000D03*
%TO.P,R6,2*%
%TO.N,Net-(IC6-VCC_RF)*%
X207772000Y-93025000D03*
%TD*%
D16*
%TO.P,J2,*%
%TO.N,*%
X168715000Y-99350000D03*
X185615000Y-99350000D03*
D17*
%TO.P,J2,1,Pin_1*%
%TO.N,Net-(IC5-A3{slash}D3)*%
X171915000Y-94200000D03*
%TO.P,J2,2,Pin_2*%
%TO.N,Net-(IC5-A2{slash}D2)*%
X173415000Y-94200000D03*
%TO.P,J2,3,Pin_3*%
%TO.N,Net-(IC5-A1{slash}D1)*%
X174915000Y-94200000D03*
%TO.P,J2,4,Pin_4*%
%TO.N,Net-(IC5-A0{slash}D0)*%
X176415000Y-94200000D03*
%TO.P,J2,5,Pin_5*%
%TO.N,Net-(IC5-SI{slash}D10)*%
X177915000Y-94200000D03*
%TO.P,J2,6,Pin_6*%
%TO.N,Net-(IC5-SCK{slash}D8)*%
X179415000Y-94200000D03*
%TO.P,J2,7,Pin_7*%
%TO.N,GND*%
X180915000Y-94200000D03*
%TO.P,J2,8,Pin_8*%
%TO.N,+3.3V*%
X182415000Y-94200000D03*
%TD*%
D18*
%TO.P,IC4,1,A0/D0*%
%TO.N,Net-(IC4-A0{slash}D0)*%
X147075000Y-72730000D03*
%TO.P,IC4,2,A1/D1*%
%TO.N,Net-(IC4-A1{slash}D1)*%
X147075000Y-75270000D03*
%TO.P,IC4,3,A2/D2*%
%TO.N,Net-(IC4-A2{slash}D2)*%
X147075000Y-77810000D03*
%TO.P,IC4,4,A3/D3*%
%TO.N,Net-(IC4-A3{slash}D3)*%
X147075000Y-80350000D03*
%TO.P,IC4,5,SDA/D4*%
%TO.N,unconnected-(IC4-SDA{slash}D4-Pad5)*%
X147075000Y-82890000D03*
%TO.P,IC4,6,SCL/D5*%
%TO.N,unconnected-(IC4-SCL{slash}D5-Pad6)*%
X147075000Y-85430000D03*
%TO.P,IC4,7,TX/D6*%
%TO.N,Net-(IC4-TX{slash}D6)*%
X147075000Y-87970000D03*
%TO.P,IC4,8,RX/D7*%
%TO.N,Net-(IC4-RX{slash}D7)*%
X164075000Y-87970000D03*
%TO.P,IC4,9,SCK/D8*%
%TO.N,Net-(IC4-SCK{slash}D8)*%
X164075000Y-85430000D03*
%TO.P,IC4,10,SO/D9*%
%TO.N,unconnected-(IC4-SO{slash}D9-Pad10)*%
X164075000Y-82890000D03*
%TO.P,IC4,11,SI/D10*%
%TO.N,Net-(IC4-SI{slash}D10)*%
X164075000Y-80350000D03*
%TO.P,IC4,12,3V3*%
%TO.N,+3.3V*%
X164075000Y-77810000D03*
%TO.P,IC4,13,GND*%
%TO.N,GND*%
X164075000Y-75270000D03*
%TO.P,IC4,14,VCC*%
%TO.N,unconnected-(IC4-VCC-Pad14)*%
X164075000Y-72730000D03*
%TD*%
D13*
%TO.P,R3,1*%
%TO.N,Net-(D1-A)*%
X90805000Y-98105000D03*
%TO.P,R3,2*%
%TO.N,+12V*%
X90805000Y-96205000D03*
%TD*%
D15*
%TO.P,R5,1*%
%TO.N,Net-(D3-K)*%
X204470000Y-77790000D03*
%TO.P,R5,2*%
%TO.N,Net-(BT1-+)*%
X204470000Y-79690000D03*
%TD*%
D18*
%TO.P,IC2,1,A0/D0*%
%TO.N,Net-(IC2-A0{slash}D0)*%
X103895000Y-72730000D03*
%TO.P,IC2,2,A1/D1*%
%TO.N,Net-(IC2-A1{slash}D1)*%
X103895000Y-75270000D03*
%TO.P,IC2,3,A2/D2*%
%TO.N,Net-(IC2-A2{slash}D2)*%
X103895000Y-77810000D03*
%TO.P,IC2,4,A3/D3*%
%TO.N,Net-(IC2-A3{slash}D3)*%
X103895000Y-80350000D03*
%TO.P,IC2,5,SDA/D4*%
%TO.N,unconnected-(IC2-SDA{slash}D4-Pad5)*%
X103895000Y-82890000D03*
%TO.P,IC2,6,SCL/D5*%
%TO.N,unconnected-(IC2-SCL{slash}D5-Pad6)*%
X103895000Y-85430000D03*
%TO.P,IC2,7,TX/D6*%
%TO.N,Net-(IC2-TX{slash}D6)*%
X103895000Y-87970000D03*
%TO.P,IC2,8,RX/D7*%
%TO.N,Net-(IC2-RX{slash}D7)*%
X120895000Y-87970000D03*
%TO.P,IC2,9,SCK/D8*%
%TO.N,Net-(IC2-SCK{slash}D8)*%
X120895000Y-85430000D03*
%TO.P,IC2,10,SO/D9*%
%TO.N,unconnected-(IC2-SO{slash}D9-Pad10)*%
X120895000Y-82890000D03*
%TO.P,IC2,11,SI/D10*%
%TO.N,Net-(IC2-SI{slash}D10)*%
X120895000Y-80350000D03*
%TO.P,IC2,12,3V3*%
%TO.N,+3.3V*%
X120895000Y-77810000D03*
%TO.P,IC2,13,GND*%
%TO.N,GND*%
X120895000Y-75270000D03*
%TO.P,IC2,14,VCC*%
%TO.N,unconnected-(IC2-VCC-Pad14)*%
X120895000Y-72730000D03*
%TD*%
D10*
%TO.P,C2,1*%
%TO.N,GND*%
X86045000Y-77470000D03*
%TO.P,C2,2*%
%TO.N,+12V*%
X87945000Y-77470000D03*
%TD*%
D13*
%TO.P,R4,1*%
%TO.N,Net-(D2-A)*%
X93345000Y-98105000D03*
%TO.P,R4,2*%
%TO.N,+3.3V*%
X93345000Y-96205000D03*
%TD*%
D19*
%TO.P,D2,1,K*%
%TO.N,GND*%
X95885000Y-95405000D03*
%TO.P,D2,2,A*%
%TO.N,Net-(D2-A)*%
X95885000Y-98905000D03*
%TD*%
D13*
%TO.P,R7,1*%
%TO.N,Net-(D6-A)*%
X213995000Y-98105000D03*
%TO.P,R7,2*%
%TO.N,Net-(IC6-TIMEPULSE)*%
X213995000Y-96205000D03*
%TD*%
D18*
%TO.P,IC3,1,A0/D0*%
%TO.N,Net-(IC3-A0{slash}D0)*%
X125485000Y-72730000D03*
%TO.P,IC3,2,A1/D1*%
%TO.N,Net-(IC3-A1{slash}D1)*%
X125485000Y-75270000D03*
%TO.P,IC3,3,A2/D2*%
%TO.N,Net-(IC3-A2{slash}D2)*%
X125485000Y-77810000D03*
%TO.P,IC3,4,A3/D3*%
%TO.N,Net-(IC3-A3{slash}D3)*%
X125485000Y-80350000D03*
%TO.P,IC3,5,SDA/D4*%
%TO.N,Net-(IC3-SDA{slash}D4)*%
X125485000Y-82890000D03*
%TO.P,IC3,6,SCL/D5*%
%TO.N,Net-(IC3-SCL{slash}D5)*%
X125485000Y-85430000D03*
%TO.P,IC3,7,TX/D6*%
%TO.N,Net-(IC2-RX{slash}D7)*%
X125485000Y-87970000D03*
%TO.P,IC3,8,RX/D7*%
%TO.N,Net-(IC2-TX{slash}D6)*%
X142485000Y-87970000D03*
%TO.P,IC3,9,SCK/D8*%
%TO.N,Net-(IC3-SCK{slash}D8)*%
X142485000Y-85430000D03*
%TO.P,IC3,10,SO/D9*%
%TO.N,unconnected-(IC3-SO{slash}D9-Pad10)*%
X142485000Y-82890000D03*
%TO.P,IC3,11,SI/D10*%
%TO.N,Net-(IC3-SI{slash}D10)*%
X142485000Y-80350000D03*
%TO.P,IC3,12,3V3*%
%TO.N,+3.3V*%
X142485000Y-77810000D03*
%TO.P,IC3,13,GND*%
%TO.N,GND*%
X142485000Y-75270000D03*
%TO.P,IC3,14,VCC*%
%TO.N,unconnected-(IC3-VCC-Pad14)*%
X142485000Y-72730000D03*
%TD*%
D13*
%TO.P,C5,1*%
%TO.N,GND*%
X98044000Y-88580000D03*
%TO.P,C5,2*%
%TO.N,+3.3V*%
X98044000Y-86680000D03*
%TD*%
%TO.P,L2,1*%
%TO.N,Net-(C9-Pad1)*%
X207772000Y-88118028D03*
%TO.P,L2,2*%
%TO.N,Net-(IC6-RF_IN)*%
X207772000Y-86218028D03*
%TD*%
D19*
%TO.P,D6,1,K*%
%TO.N,GND*%
X216535000Y-95405000D03*
%TO.P,D6,2,A*%
%TO.N,Net-(D6-A)*%
X216535000Y-98905000D03*
%TD*%
D20*
%TO.P,L1,1*%
%TO.N,Net-(IC1-SW)*%
X96774000Y-79665000D03*
%TO.P,L1,2*%
%TO.N,+3.3V*%
X96774000Y-84165000D03*
%TD*%
D16*
%TO.P,J1,*%
%TO.N,*%
X125535000Y-99350000D03*
X142435000Y-99350000D03*
D17*
%TO.P,J1,1,Pin_1*%
%TO.N,Net-(IC3-A3{slash}D3)*%
X128735000Y-94200000D03*
%TO.P,J1,2,Pin_2*%
%TO.N,Net-(IC3-A2{slash}D2)*%
X130235000Y-94200000D03*
%TO.P,J1,3,Pin_3*%
%TO.N,Net-(IC3-A1{slash}D1)*%
X131735000Y-94200000D03*
%TO.P,J1,4,Pin_4*%
%TO.N,Net-(IC3-A0{slash}D0)*%
X133235000Y-94200000D03*
%TO.P,J1,5,Pin_5*%
%TO.N,Net-(IC3-SI{slash}D10)*%
X134735000Y-94200000D03*
%TO.P,J1,6,Pin_6*%
%TO.N,Net-(IC3-SCK{slash}D8)*%
X136235000Y-94200000D03*
%TO.P,J1,7,Pin_7*%
%TO.N,GND*%
X137735000Y-94200000D03*
%TO.P,J1,8,Pin_8*%
%TO.N,+3.3V*%
X139235000Y-94200000D03*
%TD*%
D13*
%TO.P,C8,1*%
%TO.N,GND*%
X191008000Y-99425000D03*
%TO.P,C8,2*%
%TO.N,Net-(D4-K)*%
X191008000Y-97525000D03*
%TD*%
D16*
%TO.P,J3,*%
%TO.N,*%
X103945000Y-99350000D03*
X120845000Y-99350000D03*
D17*
%TO.P,J3,1,Pin_1*%
%TO.N,Net-(IC2-A3{slash}D3)*%
X107145000Y-94200000D03*
%TO.P,J3,2,Pin_2*%
%TO.N,Net-(IC2-A2{slash}D2)*%
X108645000Y-94200000D03*
%TO.P,J3,3,Pin_3*%
%TO.N,Net-(IC2-A1{slash}D1)*%
X110145000Y-94200000D03*
%TO.P,J3,4,Pin_4*%
%TO.N,Net-(IC2-A0{slash}D0)*%
X111645000Y-94200000D03*
%TO.P,J3,5,Pin_5*%
%TO.N,Net-(IC2-SI{slash}D10)*%
X113145000Y-94200000D03*
%TO.P,J3,6,Pin_6*%
%TO.N,Net-(IC2-SCK{slash}D8)*%
X114645000Y-94200000D03*
%TO.P,J3,7,Pin_7*%
%TO.N,GND*%
X116145000Y-94200000D03*
%TO.P,J3,8,Pin_8*%
%TO.N,+3.3V*%
X117645000Y-94200000D03*
%TD*%
D19*
%TO.P,D1,1,K*%
%TO.N,GND*%
X88265000Y-95405000D03*
%TO.P,D1,2,A*%
%TO.N,Net-(D1-A)*%
X88265000Y-98905000D03*
%TD*%
D10*
%TO.P,C1,1*%
%TO.N,GND*%
X86045000Y-74930000D03*
%TO.P,C1,2*%
%TO.N,+12V*%
X87945000Y-74930000D03*
%TD*%
D13*
%TO.P,C7,1*%
%TO.N,GND*%
X188849000Y-99425000D03*
%TO.P,C7,2*%
%TO.N,Net-(D4-K)*%
X188849000Y-97525000D03*
%TD*%
D10*
%TO.P,R1,1*%
%TO.N,GND*%
X86045000Y-72390000D03*
%TO.P,R1,2*%
%TO.N,Net-(IC1-FB)*%
X87945000Y-72390000D03*
%TD*%
D21*
%TO.P,J7,1,In*%
%TO.N,Net-(IC6-RF_IN)*%
X218060000Y-85725000D03*
D22*
%TO.P,J7,2,Ext*%
%TO.N,GND*%
X217410000Y-82725000D03*
X212410000Y-82725000D03*
X217410000Y-88725000D03*
X212410000Y-88725000D03*
%TD*%
D14*
%TO.P,D4,1,K*%
%TO.N,Net-(D4-K)*%
X204470000Y-75410000D03*
%TO.P,D4,2,A*%
%TO.N,+3.3V*%
X204470000Y-71910000D03*
%TD*%
D13*
%TO.P,C3,1*%
%TO.N,Net-(IC1-SW)*%
X94615000Y-77150000D03*
%TO.P,C3,2*%
%TO.N,Net-(IC1-CB)*%
X94615000Y-75250000D03*
%TD*%
D23*
%TO.P,J9,1,Pin_1*%
%TO.N,+12V*%
X92075000Y-82725000D03*
%TO.P,J9,2,Pin_2*%
%TO.N,+3.3V*%
X92075000Y-85725000D03*
%TO.P,J9,3,Pin_3*%
%TO.N,GND*%
X92075000Y-88725000D03*
%TD*%
D24*
%TO.P,IC6,1,~{SAFEBOOT}*%
%TO.N,unconnected-(IC6-~{SAFEBOOT}-Pad1)*%
X205390000Y-98625000D03*
%TO.P,IC6,2,D_SEL*%
%TO.N,unconnected-(IC6-D_SEL-Pad2)*%
X205390000Y-97525000D03*
%TO.P,IC6,3,TIMEPULSE*%
%TO.N,Net-(IC6-TIMEPULSE)*%
X205390000Y-96425000D03*
%TO.P,IC6,4,EXTINT*%
%TO.N,unconnected-(IC6-EXTINT-Pad4)*%
X205390000Y-95325000D03*
%TO.P,IC6,5,USB_DM*%
%TO.N,unconnected-(IC6-USB_DM-Pad5)*%
X205390000Y-94225000D03*
%TO.P,IC6,6,USB_DP*%
%TO.N,unconnected-(IC6-USB_DP-Pad6)*%
X205390000Y-93125000D03*
%TO.P,IC6,7,VDD_USB*%
%TO.N,GND*%
X205390000Y-92025000D03*
%TO.P,IC6,8,~{RESET}*%
%TO.N,unconnected-(IC6-~{RESET}-Pad8)*%
X205390000Y-89025000D03*
%TO.P,IC6,9,VCC_RF*%
%TO.N,Net-(IC6-VCC_RF)*%
X205390000Y-87925000D03*
%TO.P,IC6,10,GND*%
%TO.N,GND*%
X205390000Y-86825000D03*
%TO.P,IC6,11,RF_IN*%
%TO.N,Net-(IC6-RF_IN)*%
X205390000Y-85725000D03*
%TO.P,IC6,12,GND*%
%TO.N,GND*%
X205390000Y-84625000D03*
%TO.P,IC6,13,GND*%
X193390000Y-84625000D03*
%TO.P,IC6,14,LNA_EN*%
%TO.N,unconnected-(IC6-LNA_EN-Pad14)*%
X193390000Y-85725000D03*
%TO.P,IC6,15,RESERVED*%
%TO.N,unconnected-(IC6-RESERVED-Pad15)*%
X193390000Y-86825000D03*
%TO.P,IC6,16,RESERVED*%
%TO.N,unconnected-(IC6-RESERVED-Pad16)*%
X193390000Y-87925000D03*
%TO.P,IC6,17,RESERVED*%
%TO.N,unconnected-(IC6-RESERVED-Pad17)*%
X193390000Y-89025000D03*
%TO.P,IC6,18,SDA/~{SPI_CS}*%
%TO.N,unconnected-(IC6-SDA{slash}~{SPI_CS}-Pad18)*%
X193390000Y-92025000D03*
%TO.P,IC6,19,SCL/SPI_CLK*%
%TO.N,unconnected-(IC6-SCL{slash}SPI_CLK-Pad19)*%
X193390000Y-93125000D03*
%TO.P,IC6,20,TXD/SPI_MISO*%
%TO.N,Net-(IC5-RX{slash}D7)*%
X193390000Y-94225000D03*
%TO.P,IC6,21,RXD/SPI_MOSI*%
%TO.N,Net-(IC5-TX{slash}D6)*%
X193390000Y-95325000D03*
%TO.P,IC6,22,V_BCKP*%
%TO.N,Net-(BT1-+)*%
X193390000Y-96425000D03*
%TO.P,IC6,23,VCC*%
%TO.N,Net-(D4-K)*%
X193390000Y-97525000D03*
%TO.P,IC6,24,GND*%
%TO.N,GND*%
X193390000Y-98625000D03*
%TD*%
D16*
%TO.P,J4,*%
%TO.N,*%
X147125000Y-99350000D03*
X164025000Y-99350000D03*
D17*
%TO.P,J4,1,Pin_1*%
%TO.N,Net-(IC4-A3{slash}D3)*%
X150325000Y-94200000D03*
%TO.P,J4,2,Pin_2*%
%TO.N,Net-(IC4-A2{slash}D2)*%
X151825000Y-94200000D03*
%TO.P,J4,3,Pin_3*%
%TO.N,Net-(IC4-A1{slash}D1)*%
X153325000Y-94200000D03*
%TO.P,J4,4,Pin_4*%
%TO.N,Net-(IC4-A0{slash}D0)*%
X154825000Y-94200000D03*
%TO.P,J4,5,Pin_5*%
%TO.N,Net-(IC4-SI{slash}D10)*%
X156325000Y-94200000D03*
%TO.P,J4,6,Pin_6*%
%TO.N,Net-(IC4-SCK{slash}D8)*%
X157825000Y-94200000D03*
%TO.P,J4,7,Pin_7*%
%TO.N,GND*%
X159325000Y-94200000D03*
%TO.P,J4,8,Pin_8*%
%TO.N,+3.3V*%
X160825000Y-94200000D03*
%TD*%
D18*
%TO.P,IC5,1,A0/D0*%
%TO.N,Net-(IC5-A0{slash}D0)*%
X168665000Y-72730000D03*
%TO.P,IC5,2,A1/D1*%
%TO.N,Net-(IC5-A1{slash}D1)*%
X168665000Y-75270000D03*
%TO.P,IC5,3,A2/D2*%
%TO.N,Net-(IC5-A2{slash}D2)*%
X168665000Y-77810000D03*
%TO.P,IC5,4,A3/D3*%
%TO.N,Net-(IC5-A3{slash}D3)*%
X168665000Y-80350000D03*
%TO.P,IC5,5,SDA/D4*%
%TO.N,unconnected-(IC5-SDA{slash}D4-Pad5)*%
X168665000Y-82890000D03*
%TO.P,IC5,6,SCL/D5*%
%TO.N,unconnected-(IC5-SCL{slash}D5-Pad6)*%
X168665000Y-85430000D03*
%TO.P,IC5,7,TX/D6*%
%TO.N,Net-(IC5-TX{slash}D6)*%
X168665000Y-87970000D03*
%TO.P,IC5,8,RX/D7*%
%TO.N,Net-(IC5-RX{slash}D7)*%
X185665000Y-87970000D03*
%TO.P,IC5,9,SCK/D8*%
%TO.N,Net-(IC5-SCK{slash}D8)*%
X185665000Y-85430000D03*
%TO.P,IC5,10,SO/D9*%
%TO.N,unconnected-(IC5-SO{slash}D9-Pad10)*%
X185665000Y-82890000D03*
%TO.P,IC5,11,SI/D10*%
%TO.N,Net-(IC5-SI{slash}D10)*%
X185665000Y-80350000D03*
%TO.P,IC5,12,3V3*%
%TO.N,+3.3V*%
X185665000Y-77810000D03*
%TO.P,IC5,13,GND*%
%TO.N,GND*%
X185665000Y-75270000D03*
%TO.P,IC5,14,VCC*%
%TO.N,unconnected-(IC5-VCC-Pad14)*%
X185665000Y-72730000D03*
%TD*%
D25*
%TO.P,IC1,1,CB*%
%TO.N,Net-(IC1-CB)*%
X92390000Y-74900000D03*
%TO.P,IC1,2,GND*%
%TO.N,GND*%
X91440000Y-74900000D03*
%TO.P,IC1,3,FB*%
%TO.N,Net-(IC1-FB)*%
X90490000Y-74900000D03*
%TO.P,IC1,4,EN*%
%TO.N,+12V*%
X90490000Y-77500000D03*
%TO.P,IC1,5,VIN*%
X91440000Y-77500000D03*
%TO.P,IC1,6,SW*%
%TO.N,Net-(IC1-SW)*%
X92390000Y-77500000D03*
%TD*%
D14*
%TO.P,D3,1,K*%
%TO.N,Net-(D3-K)*%
X201930000Y-75410000D03*
%TO.P,D3,2,A*%
%TO.N,+3.3V*%
X201930000Y-71910000D03*
%TD*%
D26*
%TO.P,BT1,1,+*%
%TO.N,Net-(BT1-+)*%
X196330000Y-79395000D03*
%TO.P,BT1,2,-*%
%TO.N,GND*%
X194830000Y-79395000D03*
%TD*%
D11*
%TO.P,H3,1,1*%
%TO.N,GND*%
X78245000Y-74295000D03*
X78947944Y-72597944D03*
X78947944Y-75992056D03*
X80645000Y-71895000D03*
D12*
X80645000Y-74295000D03*
D11*
X80645000Y-76695000D03*
X82342056Y-72597944D03*
X82342056Y-75992056D03*
X83045000Y-74295000D03*
%TD*%
D27*
%TO.N,Net-(BT1-+)*%
X197485000Y-79375000D03*
X191135000Y-93980000D03*
D28*
%TO.N,GND*%
X198501000Y-98625000D03*
X209550000Y-86741000D03*
X215900000Y-84709000D03*
X215900000Y-86741000D03*
X88265000Y-93980000D03*
X203835000Y-89025000D03*
X200279000Y-98625000D03*
X202057000Y-89025000D03*
X202057000Y-98625000D03*
X209550000Y-84709000D03*
X194945000Y-84625000D03*
X89331800Y-74930000D03*
X180915000Y-92075000D03*
X214630000Y-84709000D03*
X203835000Y-85725000D03*
X196723000Y-92025000D03*
X212090000Y-86741000D03*
X198501000Y-96425000D03*
X203835000Y-92025000D03*
X203835000Y-84625000D03*
X202057000Y-96425000D03*
X200279000Y-96425000D03*
X194945000Y-98625000D03*
X207010000Y-84709000D03*
X198501000Y-89025000D03*
X89966800Y-80010000D03*
X210820000Y-86741000D03*
X182880000Y-75270000D03*
X139700000Y-75270000D03*
X118110000Y-75270000D03*
X89331800Y-75565000D03*
X194945000Y-89025000D03*
X194945000Y-86825000D03*
X196723000Y-89025000D03*
X194945000Y-96425000D03*
X198501000Y-92025000D03*
X200279000Y-94225000D03*
X200279000Y-89025000D03*
X198501000Y-84625000D03*
X194830000Y-81534000D03*
X196723000Y-98625000D03*
X93980000Y-73469500D03*
X198501000Y-94225000D03*
X196723000Y-96425000D03*
X95250000Y-73469500D03*
X202057000Y-84625000D03*
X196723000Y-94225000D03*
X203835000Y-96425000D03*
X161290000Y-75270000D03*
X95885000Y-93980000D03*
X208280000Y-84709000D03*
X203835000Y-94225000D03*
X214630000Y-86741000D03*
X134735000Y-96520000D03*
X200279000Y-84625000D03*
X91122500Y-76200000D03*
X210820000Y-84709000D03*
X212090000Y-84709000D03*
X200279000Y-86825000D03*
X90601800Y-80010000D03*
X89331800Y-80010000D03*
X159325000Y-92075000D03*
X203835000Y-86825000D03*
X198501000Y-86825000D03*
X116145000Y-92075000D03*
X213360000Y-86741000D03*
X89331800Y-76200000D03*
X91757500Y-76200000D03*
X203835000Y-98625000D03*
X94615000Y-73469500D03*
X156325000Y-96520000D03*
X202057000Y-86825000D03*
X177915000Y-96520000D03*
X200279000Y-92025000D03*
X202057000Y-92025000D03*
X202057000Y-94225000D03*
X196723000Y-84625000D03*
X213360000Y-84709000D03*
X137735000Y-92075000D03*
X196723000Y-86825000D03*
%TO.N,+12V*%
X90805000Y-94615000D03*
D27*
%TO.N,Net-(D4-K)*%
X205740000Y-73660000D03*
X189928500Y-98475000D03*
D28*
%TO.N,+3.3V*%
X203200000Y-71755000D03*
X139700000Y-77810000D03*
X93345000Y-94615000D03*
X118110000Y-77810000D03*
X117645000Y-86995000D03*
X139235000Y-92075000D03*
X160825000Y-92075000D03*
X182415000Y-92075000D03*
X182880000Y-77810000D03*
X161290000Y-77810000D03*
D27*
%TO.N,Net-(IC3-SDA{slash}D4)*%
X130072000Y-89240000D03*
%TO.N,Net-(IC3-SCL{slash}D5)*%
X129564000Y-88605000D03*
%TO.N,Net-(IC4-TX{slash}D6)*%
X152170000Y-87970000D03*
%TO.N,Net-(IC4-RX{slash}D7)*%
X155980000Y-87970000D03*
%TO.N,Net-(IC6-VCC_RF)*%
X203835000Y-87925000D03*
X207772000Y-94615000D03*
%TO.N,Net-(IC2-TX{slash}D6)*%
X108990000Y-87970000D03*
X134390000Y-87970000D03*
%TO.N,Net-(IC5-TX{slash}D6)*%
X173760000Y-87970000D03*
X178840000Y-88605000D03*
%TO.N,Net-(IC5-RX{slash}D7)*%
X177570000Y-87970000D03*
%TD*%
D29*
%TO.N,Net-(BT1-+)*%
X191016000Y-95250000D02*
X191135000Y-95250000D01*
X196350000Y-79375000D02*
X196330000Y-79395000D01*
X204150000Y-79690000D02*
X203835000Y-79375000D01*
X192053500Y-96425000D02*
X190878500Y-95250000D01*
X191135000Y-93980000D02*
X191135000Y-94993500D01*
X204470000Y-79690000D02*
X204150000Y-79690000D01*
X203835000Y-79375000D02*
X196350000Y-79375000D01*
X191135000Y-94993500D02*
X190878500Y-95250000D01*
X193390000Y-96425000D02*
X192053500Y-96425000D01*
%TO.N,GND*%
X120650000Y-75270000D02*
X118110000Y-75270000D01*
X137735000Y-94200000D02*
X137735000Y-92075000D01*
X163830000Y-75270000D02*
X161290000Y-75270000D01*
X180915000Y-94200000D02*
X180915000Y-92075000D01*
X95885000Y-95405000D02*
X95885000Y-93980000D01*
X194830000Y-79395000D02*
X194830000Y-81534000D01*
X159325000Y-94200000D02*
X159325000Y-92075000D01*
X88265000Y-95405000D02*
X88265000Y-93980000D01*
X142240000Y-75270000D02*
X139700000Y-75270000D01*
X116145000Y-94200000D02*
X116145000Y-92075000D01*
X185420000Y-75270000D02*
X182880000Y-75270000D01*
D30*
%TO.N,Net-(IC1-SW)*%
X94265000Y-77500000D02*
X94615000Y-77150000D01*
D31*
%TO.N,+12V*%
X87945000Y-77470000D02*
X91410000Y-77470000D01*
X87945000Y-77470000D02*
X87945000Y-82090000D01*
X90170000Y-82725000D02*
X88580000Y-82725000D01*
X91410000Y-77470000D02*
X91440000Y-77500000D01*
X92075000Y-82725000D02*
X90170000Y-82725000D01*
D30*
X90805000Y-96205000D02*
X90805000Y-94615000D01*
D31*
X87945000Y-74930000D02*
X87945000Y-77470000D01*
X88580000Y-82725000D02*
X87945000Y-82090000D01*
D32*
%TO.N,Net-(D4-K)*%
X188849000Y-97525000D02*
X191008000Y-97525000D01*
D29*
X205740000Y-73660000D02*
X206375000Y-73660000D01*
X207010000Y-73025000D02*
X207010000Y-71910000D01*
X206375000Y-73660000D02*
X207010000Y-73025000D01*
X189928500Y-98475000D02*
X189928500Y-97525000D01*
X204470000Y-74295000D02*
X205105000Y-73660000D01*
X205105000Y-73660000D02*
X205740000Y-73660000D01*
X204470000Y-75410000D02*
X204470000Y-74295000D01*
X193390000Y-97525000D02*
X191135000Y-97525000D01*
D33*
%TO.N,Net-(C9-Pad1)*%
X207772000Y-88118028D02*
X207772000Y-91125000D01*
X207645000Y-91125000D02*
X210185000Y-91125000D01*
D29*
%TO.N,+3.3V*%
X139235000Y-94200000D02*
X139235000Y-92075000D01*
X100380800Y-73025000D02*
X100380800Y-83820000D01*
X185420000Y-77810000D02*
X182880000Y-77810000D01*
X142240000Y-77810000D02*
X139700000Y-77810000D01*
X120650000Y-77810000D02*
X118110000Y-77810000D01*
D30*
X93345000Y-96205000D02*
X93345000Y-94615000D01*
D29*
X99745800Y-72390000D02*
X100380800Y-73025000D01*
X92390000Y-72390000D02*
X99745800Y-72390000D01*
X203200000Y-71755000D02*
X202085000Y-71755000D01*
X163830000Y-77810000D02*
X161290000Y-77810000D01*
X202085000Y-71755000D02*
X201930000Y-71910000D01*
X160825000Y-94200000D02*
X160825000Y-92075000D01*
X204315000Y-71755000D02*
X204470000Y-71910000D01*
X182415000Y-94200000D02*
X182415000Y-92075000D01*
X203200000Y-71755000D02*
X204315000Y-71755000D01*
X117645000Y-94200000D02*
X117645000Y-86995000D01*
D30*
%TO.N,Net-(D2-A)*%
X95250000Y-98425000D02*
X93665000Y-98425000D01*
X95730000Y-98905000D02*
X95250000Y-98425000D01*
X95885000Y-98905000D02*
X95730000Y-98905000D01*
X93665000Y-98425000D02*
X93345000Y-98105000D01*
%TO.N,Net-(D1-A)*%
X88420000Y-98905000D02*
X88900000Y-98425000D01*
X90485000Y-98425000D02*
X90805000Y-98105000D01*
X88265000Y-98905000D02*
X88420000Y-98905000D01*
X88900000Y-98425000D02*
X90485000Y-98425000D01*
D29*
%TO.N,Net-(IC1-FB)*%
X90490000Y-74900000D02*
X90490000Y-72390000D01*
X87945000Y-72390000D02*
X90490000Y-72390000D01*
D30*
%TO.N,Net-(IC3-SDA{slash}D4)*%
X130707000Y-88605000D02*
X130072000Y-89240000D01*
X130071876Y-82890000D02*
X130706876Y-83525000D01*
X125485000Y-82890000D02*
X130071876Y-82890000D01*
X130707000Y-83525000D02*
X130707000Y-88605000D01*
%TO.N,Net-(IC3-SCL{slash}D5)*%
X130199000Y-86065000D02*
X130199000Y-87970000D01*
X125485000Y-85430000D02*
X129563876Y-85430000D01*
X129563876Y-85430000D02*
X130198876Y-86065000D01*
X130199000Y-87970000D02*
X129564000Y-88605000D01*
%TO.N,Net-(IC4-TX{slash}D6)*%
X147075000Y-87970000D02*
X152170000Y-87970000D01*
%TO.N,Net-(IC4-RX{slash}D7)*%
X164075000Y-87970000D02*
X155980000Y-87970000D01*
%TO.N,Net-(IC6-TIMEPULSE)*%
X213775000Y-96425000D02*
X205390000Y-96425000D01*
X213995000Y-96205000D02*
X213775000Y-96425000D01*
D33*
%TO.N,Net-(IC6-VCC_RF)*%
X207772000Y-93025000D02*
X207772000Y-94615000D01*
X205390000Y-87925000D02*
X203835000Y-87925000D01*
D30*
%TO.N,Net-(IC2-A0{slash}D0)*%
X111645000Y-91301000D02*
X111645000Y-94200000D01*
X111149000Y-90805000D02*
X111149000Y-73365000D01*
X110514000Y-72730000D02*
X111149000Y-73365000D01*
X111149000Y-90805000D02*
X111645000Y-91301000D01*
X103895000Y-72730000D02*
X110514000Y-72730000D01*
%TO.N,Net-(IC2-A1{slash}D1)*%
X110145000Y-91301000D02*
X110641000Y-90805000D01*
X110145000Y-94200000D02*
X110145000Y-91301000D01*
X110641000Y-75905000D02*
X110641000Y-90805000D01*
X110641000Y-75905000D02*
X110006000Y-75270000D01*
X103895000Y-75270000D02*
X110006000Y-75270000D01*
%TO.N,Net-(IC2-A2{slash}D2)*%
X110133000Y-90297000D02*
X108645000Y-91785000D01*
X109498000Y-77810000D02*
X110133000Y-78445000D01*
X103895000Y-77810000D02*
X109498000Y-77810000D01*
X110133000Y-90297000D02*
X110133000Y-78445000D01*
X108645000Y-91785000D02*
X108645000Y-94200000D01*
%TO.N,Net-(IC2-A3{slash}D3)*%
X107145000Y-92269000D02*
X109625000Y-89789000D01*
X107145000Y-94200000D02*
X107145000Y-92269000D01*
X109625000Y-80985000D02*
X109625000Y-89789000D01*
X109625000Y-80985000D02*
X108990000Y-80350000D01*
X103895000Y-80350000D02*
X108990000Y-80350000D01*
D34*
%TO.N,Net-(IC6-RF_IN)*%
X217170000Y-85725000D02*
X207645000Y-85725000D01*
X205390000Y-85725000D02*
X207645000Y-85725000D01*
D30*
%TO.N,Net-(IC2-TX{slash}D6)*%
X142485000Y-87970000D02*
X134390000Y-87970000D01*
X103895000Y-87970000D02*
X108990000Y-87970000D01*
%TO.N,Net-(IC2-RX{slash}D7)*%
X120895000Y-87970000D02*
X125485000Y-87970000D01*
%TO.N,Net-(IC2-SCK{slash}D8)*%
X120895000Y-85430000D02*
X112800000Y-85430000D01*
X112800000Y-85430000D02*
X112165000Y-86065000D01*
X112165000Y-89789000D02*
X112165000Y-86065000D01*
X112165000Y-89789000D02*
X114645000Y-92269000D01*
X114645000Y-92269000D02*
X114645000Y-94200000D01*
%TO.N,Net-(IC2-SI{slash}D10)*%
X113145000Y-94200000D02*
X113145000Y-91785000D01*
X111657000Y-80985000D02*
X112292000Y-80350000D01*
X113145000Y-91785000D02*
X111657000Y-90297000D01*
X120895000Y-80350000D02*
X112292000Y-80350000D01*
X111657000Y-80985000D02*
X111657000Y-90297000D01*
%TO.N,Net-(IC3-A0{slash}D0)*%
X132739000Y-90805000D02*
X132739000Y-73365000D01*
X132104000Y-72730000D02*
X132739000Y-73365000D01*
X132739000Y-90805000D02*
X133235000Y-91301000D01*
X133235000Y-91301000D02*
X133235000Y-94200000D01*
X125485000Y-72730000D02*
X132104000Y-72730000D01*
%TO.N,Net-(IC3-A1{slash}D1)*%
X132231000Y-90805000D02*
X132231000Y-75905000D01*
X132231000Y-75905000D02*
X131596000Y-75270000D01*
X131735000Y-94200000D02*
X131735000Y-91301000D01*
X125485000Y-75270000D02*
X131596000Y-75270000D01*
X131735000Y-91301000D02*
X132231000Y-90805000D01*
%TO.N,Net-(IC3-A2{slash}D2)*%
X131088000Y-77810000D02*
X131723000Y-78445000D01*
X131723000Y-78445000D02*
X131723000Y-90297000D01*
X125485000Y-77810000D02*
X131088000Y-77810000D01*
X130235000Y-91785000D02*
X130235000Y-94200000D01*
X131723000Y-90297000D02*
X130235000Y-91785000D01*
%TO.N,Net-(IC3-A3{slash}D3)*%
X128735000Y-94200000D02*
X128735000Y-92269000D01*
X131215000Y-80985000D02*
X130580000Y-80350000D01*
X131215000Y-89789000D02*
X131215000Y-80985000D01*
X128735000Y-92269000D02*
X131215000Y-89789000D01*
X125485000Y-80350000D02*
X130580000Y-80350000D01*
%TO.N,Net-(IC3-SCK{slash}D8)*%
X136235000Y-92269000D02*
X136235000Y-94200000D01*
X133755000Y-89789000D02*
X136235000Y-92269000D01*
X142485000Y-85430000D02*
X134390000Y-85430000D01*
X134390000Y-85430000D02*
X133755000Y-86065000D01*
X133755000Y-89789000D02*
X133755000Y-86065000D01*
%TO.N,Net-(IC3-SI{slash}D10)*%
X142485000Y-80350000D02*
X133882000Y-80350000D01*
X133247000Y-80985000D02*
X133882000Y-80350000D01*
X134735000Y-94200000D02*
X134735000Y-91785000D01*
X134735000Y-91785000D02*
X133247000Y-90297000D01*
X133247000Y-80985000D02*
X133247000Y-90297000D01*
%TO.N,Net-(IC4-A0{slash}D0)*%
X154825000Y-91301000D02*
X154825000Y-94200000D01*
X154329000Y-90805000D02*
X154329000Y-73365000D01*
X147075000Y-72730000D02*
X153694000Y-72730000D01*
X154329000Y-90805000D02*
X154825000Y-91301000D01*
X153694000Y-72730000D02*
X154329000Y-73365000D01*
%TO.N,Net-(IC4-A1{slash}D1)*%
X153821000Y-75905000D02*
X153186000Y-75270000D01*
X153821000Y-75905000D02*
X153821000Y-90805000D01*
X147075000Y-75270000D02*
X153186000Y-75270000D01*
X153325000Y-94200000D02*
X153325000Y-91301000D01*
X153325000Y-91301000D02*
X153821000Y-90805000D01*
%TO.N,Net-(IC4-A2{slash}D2)*%
X151825000Y-91785000D02*
X151825000Y-94200000D01*
X147075000Y-77810000D02*
X152678000Y-77810000D01*
X153313000Y-90297000D02*
X153313000Y-78445000D01*
X152678000Y-77810000D02*
X153313000Y-78445000D01*
X153313000Y-90297000D02*
X151825000Y-91785000D01*
%TO.N,Net-(IC4-A3{slash}D3)*%
X152805000Y-80985000D02*
X152170000Y-80350000D01*
X150325000Y-94200000D02*
X150325000Y-92269000D01*
X147075000Y-80350000D02*
X152170000Y-80350000D01*
X152805000Y-89789000D02*
X152805000Y-80985000D01*
X150325000Y-92269000D02*
X152805000Y-89789000D01*
%TO.N,Net-(IC4-SCK{slash}D8)*%
X155345000Y-89789000D02*
X155345000Y-86065000D01*
X164075000Y-85430000D02*
X155980000Y-85430000D01*
X155980000Y-85430000D02*
X155345000Y-86065000D01*
X157825000Y-92269000D02*
X157825000Y-94200000D01*
X155345000Y-89789000D02*
X157825000Y-92269000D01*
%TO.N,Net-(IC4-SI{slash}D10)*%
X164075000Y-80350000D02*
X155472000Y-80350000D01*
X156325000Y-91785000D02*
X154837000Y-90297000D01*
X154837000Y-80985000D02*
X154837000Y-90297000D01*
X154837000Y-80985000D02*
X155472000Y-80350000D01*
X156325000Y-94200000D02*
X156325000Y-91785000D01*
%TO.N,Net-(IC5-A0{slash}D0)*%
X175284000Y-72730000D02*
X175919000Y-73365000D01*
X175919000Y-90805000D02*
X176415000Y-91301000D01*
X168665000Y-72730000D02*
X175284000Y-72730000D01*
X175919000Y-73365000D02*
X175919000Y-90805000D01*
X176415000Y-91301000D02*
X176415000Y-94200000D01*
%TO.N,Net-(IC5-A1{slash}D1)*%
X175411000Y-75905000D02*
X174776000Y-75270000D01*
X174915000Y-94200000D02*
X174915000Y-91301000D01*
X168665000Y-75270000D02*
X174776000Y-75270000D01*
X174915000Y-91301000D02*
X175411000Y-90805000D01*
X175411000Y-90805000D02*
X175411000Y-75905000D01*
%TO.N,Net-(IC5-A2{slash}D2)*%
X174268000Y-77810000D02*
X174903000Y-78445000D01*
X168665000Y-77810000D02*
X174268000Y-77810000D01*
X174903000Y-90297000D02*
X174903000Y-78445000D01*
X173415000Y-91785000D02*
X173415000Y-94200000D01*
X174903000Y-90297000D02*
X173415000Y-91785000D01*
%TO.N,Net-(IC5-A3{slash}D3)*%
X174395000Y-80985000D02*
X174395000Y-89789000D01*
X174395000Y-80985000D02*
X173760000Y-80350000D01*
X171915000Y-92269000D02*
X174395000Y-89789000D01*
X171915000Y-94200000D02*
X171915000Y-92269000D01*
X168665000Y-80350000D02*
X173760000Y-80350000D01*
%TO.N,Net-(IC5-TX{slash}D6)*%
X195199000Y-90170000D02*
X179705000Y-90170000D01*
X195199000Y-95325000D02*
X195834000Y-94690000D01*
X178840000Y-89305000D02*
X178840000Y-88605000D01*
X168665000Y-87970000D02*
X173760000Y-87970000D01*
X195834000Y-94690000D02*
X195834000Y-90805000D01*
X193390000Y-95325000D02*
X195199000Y-95325000D01*
X195834000Y-90805000D02*
X195199000Y-90170000D01*
X178840000Y-89305000D02*
X179705000Y-90170000D01*
%TO.N,Net-(IC5-RX{slash}D7)*%
X177570000Y-89154000D02*
X177570000Y-87970000D01*
X179221000Y-90805000D02*
X177570000Y-89154000D01*
X185665000Y-87970000D02*
X177570000Y-87970000D01*
X195199000Y-93590000D02*
X195199000Y-91440000D01*
X194564000Y-90805000D02*
X179221000Y-90805000D01*
X194564000Y-94225000D02*
X195199000Y-93590000D01*
X193390000Y-94225000D02*
X194564000Y-94225000D01*
X195199000Y-91440000D02*
X194564000Y-90805000D01*
%TO.N,Net-(IC5-SCK{slash}D8)*%
X176935000Y-89789000D02*
X179415000Y-92269000D01*
X177570000Y-85430000D02*
X176935000Y-86065000D01*
X185665000Y-85430000D02*
X177570000Y-85430000D01*
X179415000Y-92269000D02*
X179415000Y-94200000D01*
X176935000Y-86065000D02*
X176935000Y-89789000D01*
%TO.N,Net-(IC5-SI{slash}D10)*%
X185665000Y-80350000D02*
X177062000Y-80350000D01*
X176427000Y-80985000D02*
X177062000Y-80350000D01*
X177915000Y-91785000D02*
X176427000Y-90297000D01*
X177915000Y-94200000D02*
X177915000Y-91785000D01*
X176427000Y-90297000D02*
X176427000Y-80985000D01*
D29*
%TO.N,Net-(D3-K)*%
X205105000Y-77470000D02*
X206375000Y-77470000D01*
X201930000Y-76835000D02*
X202565000Y-77470000D01*
X204470000Y-77790000D02*
X204155000Y-77790000D01*
X204785000Y-77790000D02*
X205105000Y-77470000D01*
X201930000Y-75410000D02*
X201930000Y-76835000D01*
X204470000Y-77790000D02*
X204785000Y-77790000D01*
X204155000Y-77790000D02*
X203835000Y-77470000D01*
X207010000Y-76835000D02*
X207010000Y-75410000D01*
X206375000Y-77470000D02*
X207010000Y-76835000D01*
X203835000Y-77470000D02*
X202565000Y-77470000D01*
D30*
%TO.N,Net-(D6-A)*%
X213995000Y-98105000D02*
X214310000Y-98105000D01*
X214310000Y-98105000D02*
X214630000Y-98425000D01*
X214630000Y-98425000D02*
X216055000Y-98425000D01*
X216055000Y-98425000D02*
X216535000Y-98905000D01*
%TD*%
%TA.AperFunction,Conductor*%
%TO.N,+3.3V*%
G36*
X100526121Y-82646202D02*
G01*
X100572614Y-82699858D01*
X100584000Y-82752200D01*
X100584000Y-86688810D01*
X100563998Y-86756931D01*
X100547095Y-86777905D01*
X99985905Y-87339095D01*
X99923593Y-87373121D01*
X99896810Y-87376000D01*
X93397190Y-87376000D01*
X93329069Y-87355998D01*
X93308099Y-87339099D01*
X92183536Y-86214536D01*
X92217315Y-86209680D01*
X92348100Y-86149952D01*
X92456761Y-86055798D01*
X92534493Y-85934844D01*
X92575000Y-85796889D01*
X92575000Y-85793946D01*
X93078904Y-86297850D01*
X93155681Y-86143663D01*
X93155685Y-86143651D01*
X93214210Y-85937958D01*
X93233943Y-85725000D01*
X93214210Y-85512041D01*
X93155685Y-85306346D01*
X93078902Y-85152147D01*
X92575000Y-85656050D01*
X92575000Y-85653111D01*
X92534493Y-85515156D01*
X92456761Y-85394202D01*
X92348100Y-85300048D01*
X92217315Y-85240320D01*
X92139775Y-85229171D01*
X92536677Y-84832269D01*
X92837000Y-84582000D01*
X93776800Y-83642200D01*
X93776800Y-83211786D01*
X93796801Y-83143669D01*
X93813696Y-83122703D01*
X93841498Y-83094901D01*
X93903809Y-83060879D01*
X93930590Y-83058000D01*
X99948999Y-83058000D01*
X99949000Y-83058000D01*
X100343896Y-82663103D01*
X100406207Y-82629080D01*
X100432990Y-82626200D01*
X100458000Y-82626200D01*
X100526121Y-82646202D01*
G37*
%TD.AperFunction*%
%TD*%
%TA.AperFunction,Conductor*%
%TO.N,GND*%
G36*
X101542121Y-70170502D02*
G01*
X101588614Y-70224158D01*
X101600000Y-70276500D01*
X101600000Y-88847900D01*
X101579998Y-88916021D01*
X101563207Y-88936884D01*
X101032323Y-89469096D01*
X100406642Y-90096342D01*
X100370091Y-90132984D01*
X100307821Y-90167087D01*
X100280884Y-90170000D01*
X85516500Y-90170000D01*
X85448379Y-90149998D01*
X85401886Y-90096342D01*
X85390500Y-90044000D01*
X85390500Y-88725000D01*
X90916056Y-88725000D01*
X90935789Y-88937956D01*
X90994315Y-89143653D01*
X90994317Y-89143658D01*
X91071094Y-89297850D01*
X91575000Y-88793945D01*
X91575000Y-88796889D01*
X91615507Y-88934844D01*
X91693239Y-89055798D01*
X91801900Y-89149952D01*
X91932685Y-89209680D01*
X92010222Y-89220828D01*
X91502949Y-89728101D01*
X91558408Y-89762440D01*
X91558418Y-89762445D01*
X91757836Y-89839700D01*
X91968068Y-89879000D01*
X92181932Y-89879000D01*
X92392160Y-89839701D01*
X92591585Y-89762444D01*
X92647049Y-89728101D01*
X92139776Y-89220828D01*
X92217315Y-89209680D01*
X92348100Y-89149952D01*
X92456761Y-89055798D01*
X92534493Y-88934844D01*
X92575000Y-88796889D01*
X92575000Y-88793946D01*
X93078904Y-89297850D01*
X93155681Y-89143663D01*
X93155685Y-89143651D01*
X93214210Y-88937958D01*
X93219136Y-88884800D01*
X94500001Y-88884800D01*
X94500001Y-88942956D01*
X94514903Y-89056147D01*
X94514903Y-89056148D01*
X94573244Y-89196996D01*
X94573249Y-89197004D01*
X94666051Y-89317948D01*
X94786995Y-89410750D01*
X94787003Y-89410755D01*
X94927852Y-89469097D01*
X95041053Y-89483999D01*
X95199200Y-89483999D01*
X95199200Y-88884800D01*
X95808800Y-88884800D01*
X95808800Y-89483999D01*
X95966948Y-89483999D01*
X95966956Y-89483998D01*
X96080147Y-89469096D01*
X96080148Y-89469096D01*
X96220996Y-89410755D01*
X96221004Y-89410750D01*
X96341948Y-89317948D01*
X96434750Y-89197004D01*
X96434755Y-89196996D01*
X96493097Y-89056147D01*
X96507999Y-88942951D01*
X96508000Y-88942941D01*
X96508000Y-88884800D01*
X97040001Y-88884800D01*
X97040001Y-88942956D01*
X97054903Y-89056147D01*
X97054903Y-89056148D01*
X97113244Y-89196996D01*
X97113249Y-89197004D01*
X97206051Y-89317948D01*
X97326995Y-89410750D01*
X97327003Y-89410755D01*
X97467852Y-89469097D01*
X97581053Y-89483999D01*
X97739200Y-89483999D01*
X97739200Y-88884800D01*
X98348800Y-88884800D01*
X98348800Y-89483999D01*
X98506948Y-89483999D01*
X98506956Y-89483998D01*
X98620147Y-89469096D01*
X98620148Y-89469096D01*
X98760996Y-89410755D01*
X98761004Y-89410750D01*
X98881948Y-89317948D01*
X98974750Y-89197004D01*
X98974755Y-89196996D01*
X99033097Y-89056147D01*
X99047999Y-88942951D01*
X99048000Y-88942941D01*
X99048000Y-88884800D01*
X98348800Y-88884800D01*
X97739200Y-88884800D01*
X97040001Y-88884800D01*
X96508000Y-88884800D01*
X95808800Y-88884800D01*
X95199200Y-88884800D01*
X94500001Y-88884800D01*
X93219136Y-88884800D01*
X93233943Y-88725000D01*
X93214210Y-88512041D01*
X93155685Y-88306346D01*
X93078902Y-88152147D01*
X92575000Y-88656050D01*
X92575000Y-88653111D01*
X92534493Y-88515156D01*
X92456761Y-88394202D01*
X92348100Y-88300048D01*
X92217315Y-88240320D01*
X92139775Y-88229171D01*
X92647048Y-87721897D01*
X92591586Y-87687556D01*
X92591579Y-87687553D01*
X92392163Y-87610299D01*
X92181932Y-87571000D01*
X91968068Y-87571000D01*
X91757836Y-87610299D01*
X91558412Y-87687556D01*
X91502949Y-87721897D01*
X92010223Y-88229171D01*
X91932685Y-88240320D01*
X91801900Y-88300048D01*
X91693239Y-88394202D01*
X91615507Y-88515156D01*
X91575000Y-88653111D01*
X91575000Y-88656052D01*
X91071095Y-88152147D01*
X90994319Y-88306337D01*
X90994315Y-88306346D01*
X90935789Y-88512043D01*
X90916056Y-88725000D01*
X85390500Y-88725000D01*
X85390500Y-85856182D01*
X86004500Y-85856182D01*
X86016839Y-85938044D01*
X86043604Y-86115619D01*
X86120933Y-86366314D01*
X86120938Y-86366327D01*
X86234773Y-86602706D01*
X86234777Y-86602713D01*
X86382562Y-86819472D01*
X86382567Y-86819479D01*
X86561019Y-87011805D01*
X86766143Y-87175386D01*
X86766146Y-87175388D01*
X86993352Y-87306566D01*
X86993356Y-87306567D01*
X86993357Y-87306568D01*
X87237584Y-87402420D01*
X87493370Y-87460802D01*
X87689506Y-87475500D01*
X87689507Y-87475500D01*
X87820493Y-87475500D01*
X87820494Y-87475500D01*
X88016630Y-87460802D01*
X88272416Y-87402420D01*
X88516643Y-87306568D01*
X88516645Y-87306566D01*
X88516647Y-87306566D01*
X88630250Y-87240977D01*
X88743857Y-87175386D01*
X88948981Y-87011805D01*
X89127433Y-86819479D01*
X89275228Y-86602704D01*
X89389063Y-86366323D01*
X89466396Y-86115615D01*
X89505500Y-85856182D01*
X89505500Y-85593818D01*
X89466396Y-85334385D01*
X89466395Y-85334383D01*
X89466395Y-85334380D01*
X89389066Y-85083685D01*
X89389061Y-85083672D01*
X89321743Y-84943886D01*
X89275228Y-84847296D01*
X89275226Y-84847293D01*
X89275222Y-84847286D01*
X89127437Y-84630527D01*
X89127433Y-84630521D01*
X88948981Y-84438195D01*
X88743857Y-84274614D01*
X88743852Y-84274611D01*
X88743853Y-84274611D01*
X88516647Y-84143433D01*
X88516639Y-84143430D01*
X88272419Y-84047581D01*
X88272417Y-84047580D01*
X88016633Y-83989198D01*
X87869528Y-83978174D01*
X87820494Y-83974500D01*
X87689506Y-83974500D01*
X87650278Y-83977439D01*
X87493366Y-83989198D01*
X87237582Y-84047580D01*
X87237580Y-84047581D01*
X86993360Y-84143430D01*
X86993352Y-84143433D01*
X86766146Y-84274611D01*
X86561018Y-84438195D01*
X86382566Y-84630522D01*
X86382562Y-84630527D01*
X86234777Y-84847286D01*
X86234773Y-84847293D01*
X86120938Y-85083672D01*
X86120933Y-85083685D01*
X86043604Y-85334380D01*
X86021879Y-85478514D01*
X86004500Y-85593818D01*
X86004500Y-85856182D01*
X85390500Y-85856182D01*
X85390500Y-80809890D01*
X85390500Y-80809887D01*
X85353708Y-80506885D01*
X85280663Y-80210528D01*
X85172428Y-79925136D01*
X85172426Y-79925132D01*
X85172422Y-79925123D01*
X85030583Y-79654873D01*
X85030579Y-79654866D01*
X84857191Y-79403671D01*
X84857185Y-79403663D01*
X84654791Y-79175208D01*
X84426336Y-78972814D01*
X84426328Y-78972808D01*
X84175133Y-78799420D01*
X84175126Y-78799416D01*
X83904876Y-78657577D01*
X83904860Y-78657570D01*
X83619471Y-78549336D01*
X83323117Y-78476292D01*
X83323111Y-78476291D01*
X83020116Y-78439500D01*
X83020113Y-78439500D01*
X82923673Y-78439500D01*
X80646466Y-78439500D01*
X80643555Y-78439433D01*
X80265504Y-78421953D01*
X80259707Y-78421416D01*
X79918301Y-78373793D01*
X79886328Y-78369333D01*
X79880617Y-78368265D01*
X79513640Y-78281953D01*
X79508041Y-78280359D01*
X79150597Y-78160557D01*
X79145168Y-78158454D01*
X79144076Y-78157972D01*
X78800297Y-78006178D01*
X78795101Y-78003591D01*
X78668273Y-77932948D01*
X85141000Y-77932948D01*
X85141001Y-77932956D01*
X85155903Y-78046147D01*
X85155903Y-78046148D01*
X85214244Y-78186996D01*
X85214249Y-78187004D01*
X85307051Y-78307948D01*
X85427995Y-78400750D01*
X85428003Y-78400755D01*
X85568852Y-78459097D01*
X85682047Y-78473999D01*
X86349800Y-78473999D01*
X86407948Y-78473999D01*
X86407956Y-78473998D01*
X86521147Y-78459096D01*
X86521148Y-78459096D01*
X86661996Y-78400755D01*
X86662004Y-78400750D01*
X86782948Y-78307948D01*
X86875750Y-78187004D01*
X86875755Y-78186996D01*
X86878319Y-78180806D01*
X86922865Y-78125524D01*
X86990228Y-78103101D01*
X87059020Y-78120657D01*
X87107400Y-78172618D01*
X87111137Y-78180802D01*
X87113805Y-78187244D01*
X87113806Y-78187247D01*
X87113808Y-78187250D01*
X87206696Y-78308304D01*
X87327750Y-78401192D01*
X87327751Y-78401192D01*
X87334302Y-78406219D01*
X87332502Y-78408563D01*
X87371681Y-78449635D01*
X87385700Y-78507395D01*
X87385700Y-82079373D01*
X87385663Y-82081523D01*
X87383402Y-82147734D01*
X87394049Y-82191429D01*
X87395254Y-82197769D01*
X87401375Y-82242309D01*
X87401377Y-82242316D01*
X87408640Y-82259036D01*
X87415487Y-82279398D01*
X87419804Y-82297110D01*
X87441842Y-82336306D01*
X87444713Y-82342086D01*
X87462632Y-82383337D01*
X87474132Y-82397472D01*
X87486221Y-82415235D01*
X87495157Y-82431127D01*
X87526962Y-82462932D01*
X87531278Y-82467714D01*
X87559659Y-82502599D01*
X87574548Y-82513108D01*
X87590985Y-82526954D01*
X88177014Y-83112983D01*
X88178480Y-83114500D01*
X88223714Y-83162934D01*
X88262136Y-83186299D01*
X88267469Y-83189929D01*
X88303304Y-83217103D01*
X88320259Y-83223789D01*
X88339503Y-83233347D01*
X88355079Y-83242819D01*
X88398394Y-83254955D01*
X88404493Y-83257006D01*
X88446333Y-83273506D01*
X88453378Y-83274230D01*
X88464463Y-83275370D01*
X88485576Y-83279383D01*
X88501955Y-83283971D01*
X88503126Y-83284300D01*
X88548101Y-83284300D01*
X88554549Y-83284631D01*
X88599273Y-83289229D01*
X88599273Y-83289228D01*
X88599275Y-83289229D01*
X88613498Y-83286776D01*
X88617238Y-83286132D01*
X88638645Y-83284300D01*
X90093126Y-83284300D01*
X90987912Y-83284300D01*
X91056033Y-83304302D01*
X91088462Y-83334368D01*
X91218155Y-83506110D01*
X91376278Y-83650258D01*
X91376279Y-83650259D01*
X91558178Y-83762886D01*
X91558181Y-83762887D01*
X91558190Y-83762893D01*
X91757698Y-83840183D01*
X91757703Y-83840185D01*
X91968020Y-83879500D01*
X91968022Y-83879500D01*
X92181978Y-83879500D01*
X92181980Y-83879500D01*
X92392297Y-83840185D01*
X92591810Y-83762893D01*
X92773722Y-83650258D01*
X92931841Y-83506114D01*
X93060781Y-83335370D01*
X93156151Y-83143840D01*
X93214704Y-82938048D01*
X93227566Y-82799244D01*
X93234446Y-82725004D01*
X93234446Y-82724995D01*
X93214704Y-82511955D01*
X93214704Y-82511952D01*
X93156151Y-82306160D01*
X93060781Y-82114630D01*
X93034156Y-82079373D01*
X92931844Y-81943889D01*
X92773721Y-81799741D01*
X92773720Y-81799740D01*
X92591821Y-81687113D01*
X92591814Y-81687109D01*
X92591810Y-81687107D01*
X92591805Y-81687105D01*
X92392301Y-81609816D01*
X92392302Y-81609816D01*
X92392297Y-81609815D01*
X92181980Y-81570500D01*
X91968020Y-81570500D01*
X91809313Y-81600167D01*
X91757697Y-81609816D01*
X91558194Y-81687105D01*
X91558178Y-81687113D01*
X91376279Y-81799740D01*
X91376278Y-81799741D01*
X91218155Y-81943889D01*
X91088462Y-82115632D01*
X91031448Y-82157940D01*
X90987912Y-82165700D01*
X88863859Y-82165700D01*
X88795738Y-82145698D01*
X88774764Y-82128795D01*
X88541204Y-81895235D01*
X88507178Y-81832923D01*
X88504299Y-81806140D01*
X88504299Y-80210528D01*
X88504299Y-78507391D01*
X88524301Y-78439274D01*
X88557085Y-78408027D01*
X88555698Y-78406219D01*
X88562248Y-78401192D01*
X88562250Y-78401192D01*
X88683304Y-78308304D01*
X88776192Y-78187250D01*
X88809399Y-78107079D01*
X88853946Y-78051801D01*
X88921310Y-78029380D01*
X88925807Y-78029300D01*
X89948520Y-78029300D01*
X90016641Y-78049302D01*
X90063134Y-78102958D01*
X90067450Y-78113686D01*
X90084886Y-78163519D01*
X90085061Y-78164017D01*
X90166134Y-78273866D01*
X90275983Y-78354939D01*
X90275984Y-78354939D01*
X90275985Y-78354940D01*
X90275988Y-78354941D01*
X90404844Y-78400029D01*
X90404850Y-78400031D01*
X90435444Y-78402900D01*
X90435447Y-78402900D01*
X90544553Y-78402900D01*
X90544556Y-78402900D01*
X90575150Y-78400031D01*
X90704017Y-78354939D01*
X90813866Y-78273866D01*
X90863620Y-78206451D01*
X90920166Y-78163519D01*
X90990945Y-78157972D01*
X91053487Y-78191573D01*
X91066379Y-78206451D01*
X91116132Y-78273864D01*
X91116133Y-78273864D01*
X91116134Y-78273866D01*
X91225983Y-78354939D01*
X91225984Y-78354939D01*
X91225985Y-78354940D01*
X91225988Y-78354941D01*
X91354844Y-78400029D01*
X91354850Y-78400031D01*
X91385444Y-78402900D01*
X91385447Y-78402900D01*
X91494553Y-78402900D01*
X91494556Y-78402900D01*
X91525150Y-78400031D01*
X91525157Y-78400028D01*
X91532640Y-78398395D01*
X91533186Y-78400898D01*
X91591773Y-78397901D01*
X91653383Y-78433183D01*
X91686137Y-78496172D01*
X91688499Y-78520452D01*
X91688499Y-78694767D01*
X91689243Y-78708634D01*
X91689245Y-78708656D01*
X91692864Y-78742321D01*
X91692865Y-78742334D01*
X91723122Y-78838958D01*
X91723122Y-78838959D01*
X91757152Y-78901278D01*
X91801407Y-78960394D01*
X91801417Y-78960406D01*
X93764495Y-80923484D01*
X93764523Y-80923510D01*
X93774846Y-80932784D01*
X93800500Y-80953459D01*
X93801124Y-80953977D01*
X93801240Y-80954056D01*
X93890952Y-81000983D01*
X93890960Y-81000987D01*
X93959081Y-81020989D01*
X94032190Y-81031500D01*
X94032193Y-81031500D01*
X99797100Y-81031500D01*
X99865221Y-81051502D01*
X99911714Y-81105158D01*
X99923100Y-81157500D01*
X99923100Y-82664720D01*
X99903098Y-82732841D01*
X99886201Y-82753810D01*
X99878422Y-82761590D01*
X99816112Y-82795619D01*
X99789321Y-82798500D01*
X93923632Y-82798500D01*
X93909780Y-82799242D01*
X93909760Y-82799244D01*
X93876072Y-82802866D01*
X93779448Y-82833119D01*
X93779442Y-82833122D01*
X93717140Y-82867139D01*
X93658000Y-82911410D01*
X93657994Y-82911415D01*
X93625301Y-82944108D01*
X93625279Y-82944131D01*
X93616002Y-82954460D01*
X93615985Y-82954481D01*
X93594741Y-82980843D01*
X93594739Y-82980846D01*
X93547814Y-83070557D01*
X93547813Y-83070558D01*
X93527811Y-83138677D01*
X93517300Y-83211781D01*
X93517300Y-83482521D01*
X93497298Y-83550642D01*
X93480399Y-83571611D01*
X93062813Y-83989198D01*
X92663857Y-84388154D01*
X92659638Y-84392006D01*
X92442715Y-84572775D01*
X92377578Y-84601019D01*
X92338904Y-84599834D01*
X92181980Y-84570500D01*
X91968020Y-84570500D01*
X91811097Y-84599834D01*
X91757697Y-84609816D01*
X91558194Y-84687105D01*
X91558178Y-84687113D01*
X91376279Y-84799740D01*
X91376278Y-84799741D01*
X91218155Y-84943889D01*
X91089221Y-85114626D01*
X90993849Y-85306160D01*
X90993847Y-85306165D01*
X90935295Y-85511955D01*
X90915554Y-85724995D01*
X90915554Y-85725004D01*
X90935295Y-85938044D01*
X90935295Y-85938047D01*
X90935296Y-85938048D01*
X90993849Y-86143840D01*
X91089219Y-86335370D01*
X91089220Y-86335371D01*
X91089221Y-86335373D01*
X91218155Y-86506110D01*
X91218158Y-86506112D01*
X91218159Y-86506114D01*
X91376278Y-86650258D01*
X91376279Y-86650259D01*
X91558178Y-86762886D01*
X91558181Y-86762887D01*
X91558190Y-86762893D01*
X91757698Y-86840183D01*
X91757703Y-86840185D01*
X91968020Y-86879500D01*
X91968022Y-86879500D01*
X92181977Y-86879500D01*
X92181980Y-86879500D01*
X92369056Y-86844529D01*
X92439690Y-86851674D01*
X92481299Y-86879287D01*
X92908578Y-87306566D01*
X93129518Y-87527506D01*
X93129530Y-87527517D01*
X93139860Y-87536798D01*
X93139867Y-87536803D01*
X93163612Y-87555937D01*
X93164755Y-87556963D01*
X93166236Y-87558051D01*
X93166239Y-87558054D01*
X93166241Y-87558056D01*
X93255960Y-87604987D01*
X93324081Y-87624989D01*
X93397190Y-87635500D01*
X93397193Y-87635500D01*
X94569042Y-87635500D01*
X94637163Y-87655502D01*
X94683656Y-87709158D01*
X94693760Y-87779432D01*
X94669005Y-87838203D01*
X94573249Y-87962995D01*
X94573244Y-87963003D01*
X94514902Y-88103852D01*
X94500000Y-88217048D01*
X94500000Y-88275200D01*
X96507999Y-88275200D01*
X96507999Y-88217051D01*
X96507998Y-88217043D01*
X96493096Y-88103852D01*
X96493096Y-88103851D01*
X96434755Y-87963003D01*
X96434750Y-87962995D01*
X96338995Y-87838203D01*
X96313395Y-87771983D01*
X96327660Y-87702434D01*
X96377262Y-87651638D01*
X96438958Y-87635500D01*
X97109042Y-87635500D01*
X97177163Y-87655502D01*
X97223656Y-87709158D01*
X97233760Y-87779432D01*
X97209005Y-87838203D01*
X97113249Y-87962995D01*
X97113244Y-87963003D01*
X97054902Y-88103852D01*
X97040000Y-88217048D01*
X97040000Y-88275200D01*
X99047999Y-88275200D01*
X99047999Y-88217051D01*
X99047998Y-88217043D01*
X99033096Y-88103852D01*
X99033096Y-88103851D01*
X98974755Y-87963003D01*
X98974750Y-87962995D01*
X98878995Y-87838203D01*
X98853395Y-87771983D01*
X98867660Y-87702434D01*
X98917262Y-87651638D01*
X98978958Y-87635500D01*
X99903768Y-87635500D01*
X99915112Y-87634891D01*
X99917636Y-87634756D01*
X99917646Y-87634754D01*
X99917656Y-87634754D01*
X99923235Y-87634154D01*
X99951328Y-87631135D01*
X99951336Y-87631134D01*
X100047961Y-87600877D01*
X100110273Y-87566851D01*
X100169399Y-87522589D01*
X100735502Y-86956486D01*
X100744788Y-86946149D01*
X100765461Y-86920497D01*
X100765978Y-86919875D01*
X100766056Y-86919759D01*
X100812983Y-86830047D01*
X100812987Y-86830040D01*
X100832989Y-86761919D01*
X100843500Y-86688810D01*
X100843500Y-82752200D01*
X100838860Y-82709045D01*
X100838500Y-82702312D01*
X100838500Y-73054252D01*
X100838896Y-73047192D01*
X100843347Y-73007693D01*
X100832330Y-72949471D01*
X100831937Y-72947158D01*
X100828048Y-72921358D01*
X100823106Y-72888567D01*
X100823103Y-72888562D01*
X100820555Y-72880297D01*
X100817697Y-72872129D01*
X100817695Y-72872125D01*
X100817695Y-72872124D01*
X100789996Y-72819716D01*
X100788952Y-72817646D01*
X100763242Y-72764258D01*
X100758349Y-72757082D01*
X100753226Y-72750142D01*
X100753225Y-72750141D01*
X100753224Y-72750139D01*
X100711331Y-72708246D01*
X100709723Y-72706576D01*
X100690366Y-72685715D01*
X100669395Y-72663114D01*
X100669392Y-72663112D01*
X100669390Y-72663110D01*
X100662009Y-72657223D01*
X100662537Y-72656560D01*
X100650100Y-72647015D01*
X100406429Y-72403344D01*
X100090119Y-72087034D01*
X100085416Y-72081771D01*
X100060632Y-72050692D01*
X100011625Y-72017279D01*
X100009778Y-72015969D01*
X99962085Y-71980770D01*
X99962084Y-71980769D01*
X99954447Y-71976733D01*
X99946634Y-71972970D01*
X99946632Y-71972969D01*
X99946629Y-71972968D01*
X99946627Y-71972967D01*
X99890014Y-71955503D01*
X99887778Y-71954768D01*
X99831853Y-71935200D01*
X99823360Y-71933592D01*
X99814789Y-71932300D01*
X99814787Y-71932300D01*
X99814784Y-71932300D01*
X99755545Y-71932300D01*
X99753188Y-71932256D01*
X99742042Y-71931838D01*
X99693975Y-71930040D01*
X99693974Y-71930040D01*
X99693972Y-71930040D01*
X99684593Y-71931097D01*
X99684497Y-71930253D01*
X99668953Y-71932300D01*
X93405694Y-71932300D01*
X93337573Y-71912298D01*
X93291080Y-71858642D01*
X93280772Y-71822744D01*
X93279584Y-71813722D01*
X93279584Y-71813720D01*
X93221192Y-71672750D01*
X93128304Y-71551696D01*
X93007250Y-71458808D01*
X92867454Y-71400902D01*
X92866278Y-71400415D01*
X92752982Y-71385500D01*
X92752980Y-71385500D01*
X92027020Y-71385500D01*
X92027017Y-71385500D01*
X91913721Y-71400415D01*
X91772751Y-71458807D01*
X91772748Y-71458809D01*
X91651696Y-71551696D01*
X91558809Y-71672748D01*
X91558807Y-71672751D01*
X91556408Y-71678545D01*
X91511858Y-71733825D01*
X91444494Y-71756244D01*
X91375703Y-71738684D01*
X91327326Y-71686721D01*
X91323592Y-71678545D01*
X91321298Y-71673006D01*
X91321192Y-71672750D01*
X91228304Y-71551696D01*
X91107250Y-71458808D01*
X90967454Y-71400902D01*
X90966278Y-71400415D01*
X90852982Y-71385500D01*
X90852980Y-71385500D01*
X90127020Y-71385500D01*
X90127017Y-71385500D01*
X90013721Y-71400415D01*
X89872751Y-71458807D01*
X89872748Y-71458809D01*
X89751696Y-71551696D01*
X89658809Y-71672748D01*
X89658807Y-71672751D01*
X89600415Y-71813722D01*
X89599228Y-71822744D01*
X89570507Y-71887672D01*
X89511242Y-71926765D01*
X89474306Y-71932300D01*
X88960694Y-71932300D01*
X88892573Y-71912298D01*
X88846080Y-71858642D01*
X88835772Y-71822744D01*
X88834584Y-71813722D01*
X88834584Y-71813720D01*
X88776192Y-71672750D01*
X88683304Y-71551696D01*
X88562250Y-71458808D01*
X88422454Y-71400902D01*
X88421278Y-71400415D01*
X88307982Y-71385500D01*
X88307980Y-71385500D01*
X87582020Y-71385500D01*
X87582017Y-71385500D01*
X87468721Y-71400415D01*
X87327751Y-71458807D01*
X87327748Y-71458809D01*
X87206696Y-71551696D01*
X87113809Y-71672748D01*
X87113805Y-71672755D01*
X87111136Y-71679200D01*
X87066586Y-71734479D01*
X86999222Y-71756898D01*
X86930431Y-71739338D01*
X86882055Y-71687374D01*
X86878320Y-71679195D01*
X86875756Y-71673006D01*
X86875750Y-71672995D01*
X86782948Y-71552051D01*
X86662004Y-71459249D01*
X86661996Y-71459244D01*
X86521147Y-71400902D01*
X86407951Y-71386000D01*
X86349800Y-71386000D01*
X86349800Y-73393999D01*
X86407948Y-73393999D01*
X86407956Y-73393998D01*
X86521147Y-73379096D01*
X86521148Y-73379096D01*
X86661996Y-73320755D01*
X86662004Y-73320750D01*
X86782948Y-73227948D01*
X86875750Y-73107004D01*
X86875755Y-73106996D01*
X86878319Y-73100806D01*
X86922865Y-73045524D01*
X86990228Y-73023101D01*
X87059020Y-73040657D01*
X87107400Y-73092618D01*
X87111137Y-73100802D01*
X87113805Y-73107244D01*
X87113806Y-73107247D01*
X87113808Y-73107250D01*
X87206696Y-73228304D01*
X87327750Y-73321192D01*
X87468720Y-73379584D01*
X87582020Y-73394500D01*
X87582027Y-73394500D01*
X88307973Y-73394500D01*
X88307980Y-73394500D01*
X88421280Y-73379584D01*
X88562250Y-73321192D01*
X88683304Y-73228304D01*
X88776192Y-73107250D01*
X88834584Y-72966280D01*
X88835772Y-72957255D01*
X88864493Y-72892328D01*
X88923758Y-72853235D01*
X88960694Y-72847700D01*
X89474306Y-72847700D01*
X89542427Y-72867702D01*
X89588920Y-72921358D01*
X89599228Y-72957256D01*
X89600415Y-72966277D01*
X89658805Y-73107244D01*
X89658808Y-73107250D01*
X89751696Y-73228304D01*
X89872750Y-73321192D01*
X89954519Y-73355062D01*
X90009799Y-73399609D01*
X90032220Y-73466973D01*
X90032300Y-73471470D01*
X90032300Y-74934301D01*
X90034516Y-74949000D01*
X90035693Y-74956812D01*
X90037100Y-74975590D01*
X90037100Y-75404558D01*
X90039969Y-75435150D01*
X90039970Y-75435155D01*
X90085058Y-75564011D01*
X90085059Y-75564014D01*
X90085060Y-75564016D01*
X90085061Y-75564017D01*
X90166134Y-75673866D01*
X90275983Y-75754939D01*
X90275984Y-75754939D01*
X90275985Y-75754940D01*
X90275988Y-75754941D01*
X90382373Y-75792166D01*
X90404850Y-75800031D01*
X90435444Y-75802900D01*
X90435447Y-75802900D01*
X90544553Y-75802900D01*
X90544556Y-75802900D01*
X90575150Y-75800031D01*
X90704017Y-75754939D01*
X90813866Y-75673866D01*
X90813866Y-75673865D01*
X90821463Y-75668259D01*
X90822667Y-75669891D01*
X90874339Y-75641669D01*
X90945155Y-75646727D01*
X91001533Y-75688653D01*
X91044581Y-75745421D01*
X91139999Y-75817778D01*
X91140000Y-75817778D01*
X91140000Y-73982219D01*
X91135757Y-73980112D01*
X91083468Y-73999986D01*
X91014002Y-73985325D01*
X90963489Y-73935435D01*
X90947700Y-73874365D01*
X90947700Y-73471470D01*
X90967702Y-73403349D01*
X91021358Y-73356856D01*
X91025453Y-73355073D01*
X91107250Y-73321192D01*
X91228304Y-73228304D01*
X91321192Y-73107250D01*
X91323592Y-73101455D01*
X91368139Y-73046176D01*
X91435503Y-73023755D01*
X91504294Y-73041313D01*
X91552672Y-73093275D01*
X91556403Y-73101444D01*
X91558238Y-73105875D01*
X91558805Y-73107244D01*
X91558808Y-73107250D01*
X91651696Y-73228304D01*
X91772750Y-73321192D01*
X91913720Y-73379584D01*
X92027020Y-73394500D01*
X92027027Y-73394500D01*
X92752973Y-73394500D01*
X92752980Y-73394500D01*
X92866280Y-73379584D01*
X93007250Y-73321192D01*
X93128304Y-73228304D01*
X93221192Y-73107250D01*
X93279584Y-72966280D01*
X93280772Y-72957255D01*
X93309493Y-72892328D01*
X93368758Y-72853235D01*
X93405694Y-72847700D01*
X99504024Y-72847700D01*
X99572145Y-72867702D01*
X99593119Y-72884605D01*
X99886195Y-73177681D01*
X99920221Y-73239993D01*
X99923100Y-73266776D01*
X99923100Y-75941500D01*
X99903098Y-76009621D01*
X99849442Y-76056114D01*
X99797100Y-76067500D01*
X96016500Y-76067500D01*
X95948379Y-76047498D01*
X95901886Y-75993842D01*
X95890500Y-75941500D01*
X95890500Y-74421005D01*
X95890499Y-74420993D01*
X95884570Y-74365841D01*
X95873184Y-74313499D01*
X95865834Y-74286709D01*
X95815731Y-74198722D01*
X95815727Y-74198718D01*
X95815724Y-74198713D01*
X95769247Y-74145076D01*
X95769230Y-74145058D01*
X95735949Y-74112944D01*
X95646232Y-74066014D01*
X95646231Y-74066013D01*
X95646230Y-74066013D01*
X95578109Y-74046011D01*
X95505000Y-74035500D01*
X95504997Y-74035500D01*
X93250678Y-74035500D01*
X93182557Y-74015498D01*
X93161587Y-73998599D01*
X93052480Y-73889492D01*
X93052479Y-73889491D01*
X93052475Y-73889487D01*
X93042160Y-73880221D01*
X93042142Y-73880206D01*
X93018382Y-73861057D01*
X93017248Y-73860038D01*
X93015760Y-73858945D01*
X93015759Y-73858944D01*
X92926040Y-73812013D01*
X92857919Y-73792011D01*
X92784810Y-73781500D01*
X92074000Y-73781500D01*
X92073993Y-73781500D01*
X92018838Y-73787430D01*
X91966516Y-73798812D01*
X91966510Y-73798813D01*
X91966499Y-73798816D01*
X91953707Y-73802325D01*
X91939710Y-73806165D01*
X91939709Y-73806166D01*
X91868971Y-73846446D01*
X91851720Y-73856270D01*
X91851713Y-73856275D01*
X91798076Y-73902752D01*
X91798058Y-73902769D01*
X91765945Y-73936049D01*
X91765942Y-73936053D01*
X91761388Y-73944759D01*
X91735965Y-73971102D01*
X91725649Y-74013083D01*
X91719014Y-74025766D01*
X91719013Y-74025768D01*
X91707196Y-74066014D01*
X91699011Y-74093891D01*
X91696272Y-74112944D01*
X91688499Y-74167002D01*
X91688500Y-75519767D01*
X91689243Y-75533634D01*
X91689245Y-75533656D01*
X91692864Y-75567321D01*
X91692865Y-75567334D01*
X91717890Y-75647248D01*
X91723123Y-75663961D01*
X91724585Y-75666639D01*
X91725075Y-75668558D01*
X91725542Y-75669657D01*
X91725374Y-75669728D01*
X91740000Y-75727028D01*
X91740000Y-75817778D01*
X91754754Y-75825106D01*
X91772159Y-75818491D01*
X91841626Y-75833149D01*
X91871027Y-75855015D01*
X92126916Y-76110904D01*
X92160940Y-76173215D01*
X92155876Y-76244030D01*
X92126916Y-76289093D01*
X91796273Y-76619737D01*
X91733960Y-76653762D01*
X91663145Y-76648698D01*
X91658650Y-76646682D01*
X91525155Y-76599970D01*
X91525150Y-76599969D01*
X91494558Y-76597100D01*
X91494556Y-76597100D01*
X91385444Y-76597100D01*
X91385441Y-76597100D01*
X91354849Y-76599969D01*
X91354844Y-76599970D01*
X91225988Y-76645058D01*
X91225985Y-76645059D01*
X91116133Y-76726134D01*
X91066379Y-76793549D01*
X91009834Y-76836481D01*
X90939054Y-76842027D01*
X90876512Y-76808426D01*
X90863621Y-76793549D01*
X90813866Y-76726134D01*
X90704014Y-76645059D01*
X90704011Y-76645058D01*
X90575155Y-76599970D01*
X90575150Y-76599969D01*
X90544558Y-76597100D01*
X90544556Y-76597100D01*
X90435444Y-76597100D01*
X90435441Y-76597100D01*
X90404849Y-76599969D01*
X90404844Y-76599970D01*
X90275988Y-76645058D01*
X90275985Y-76645059D01*
X90166134Y-76726134D01*
X90085061Y-76835983D01*
X90081049Y-76843575D01*
X90031534Y-76894456D01*
X89969650Y-76910700D01*
X88925807Y-76910700D01*
X88857686Y-76890698D01*
X88811193Y-76837042D01*
X88809415Y-76832958D01*
X88776192Y-76752750D01*
X88683304Y-76631696D01*
X88562250Y-76538808D01*
X88562248Y-76538807D01*
X88555698Y-76533781D01*
X88557492Y-76531442D01*
X88518298Y-76490324D01*
X88504300Y-76432604D01*
X88504300Y-75967395D01*
X88524302Y-75899274D01*
X88557083Y-75868024D01*
X88555698Y-75866219D01*
X88562248Y-75861192D01*
X88562250Y-75861192D01*
X88683304Y-75768304D01*
X88776192Y-75647250D01*
X88834584Y-75506280D01*
X88849500Y-75392980D01*
X88849500Y-74467020D01*
X88834584Y-74353720D01*
X88776192Y-74212750D01*
X88683304Y-74091696D01*
X88562250Y-73998808D01*
X88529700Y-73985325D01*
X88421278Y-73940415D01*
X88307982Y-73925500D01*
X88307980Y-73925500D01*
X87582020Y-73925500D01*
X87582017Y-73925500D01*
X87468721Y-73940415D01*
X87327751Y-73998807D01*
X87327748Y-73998809D01*
X87206696Y-74091696D01*
X87113809Y-74212748D01*
X87113805Y-74212755D01*
X87111136Y-74219200D01*
X87066586Y-74274479D01*
X86999222Y-74296898D01*
X86930431Y-74279338D01*
X86882055Y-74227374D01*
X86878320Y-74219195D01*
X86875756Y-74213006D01*
X86875750Y-74212995D01*
X86782948Y-74092051D01*
X86662004Y-73999249D01*
X86661996Y-73999244D01*
X86521147Y-73940902D01*
X86407951Y-73926000D01*
X86349800Y-73926000D01*
X86349800Y-75933999D01*
X86407948Y-75933999D01*
X86407956Y-75933998D01*
X86521147Y-75919096D01*
X86521148Y-75919096D01*
X86661996Y-75860755D01*
X86662004Y-75860750D01*
X86782948Y-75767948D01*
X86875750Y-75647004D01*
X86875755Y-75646996D01*
X86878319Y-75640806D01*
X86922865Y-75585524D01*
X86990228Y-75563101D01*
X87059020Y-75580657D01*
X87107400Y-75632618D01*
X87111137Y-75640802D01*
X87113805Y-75647244D01*
X87113806Y-75647247D01*
X87113808Y-75647250D01*
X87206696Y-75768304D01*
X87327750Y-75861192D01*
X87327751Y-75861192D01*
X87334302Y-75866219D01*
X87332502Y-75868563D01*
X87371681Y-75909635D01*
X87385700Y-75967395D01*
X87385700Y-76432604D01*
X87365698Y-76500725D01*
X87332921Y-76531981D01*
X87334302Y-76533781D01*
X87327751Y-76538807D01*
X87327750Y-76538808D01*
X87222559Y-76619524D01*
X87206696Y-76631696D01*
X87113809Y-76752748D01*
X87113805Y-76752755D01*
X87111136Y-76759200D01*
X87066586Y-76814479D01*
X86999222Y-76836898D01*
X86930431Y-76819338D01*
X86882055Y-76767374D01*
X86878320Y-76759195D01*
X86875756Y-76753006D01*
X86875750Y-76752995D01*
X86782948Y-76632051D01*
X86662004Y-76539249D01*
X86661996Y-76539244D01*
X86521147Y-76480902D01*
X86407951Y-76466000D01*
X86349800Y-76466000D01*
X86349800Y-78473999D01*
X85682047Y-78473999D01*
X85740199Y-78473998D01*
X85740200Y-78473998D01*
X85740200Y-77774800D01*
X85141001Y-77774800D01*
X85141000Y-77932948D01*
X78668273Y-77932948D01*
X78465751Y-77820144D01*
X78460802Y-77817081D01*
X78149771Y-77604019D01*
X78145145Y-77600525D01*
X78028986Y-77504068D01*
X77855103Y-77359677D01*
X77850811Y-77355765D01*
X77815662Y-77320616D01*
X80450434Y-77320616D01*
X80565582Y-77348998D01*
X80565591Y-77349000D01*
X80724409Y-77349000D01*
X80724417Y-77348999D01*
X80839563Y-77320616D01*
X80839564Y-77320615D01*
X80684149Y-77165200D01*
X85141000Y-77165200D01*
X85740200Y-77165200D01*
X85740200Y-76466000D01*
X85740199Y-76465999D01*
X85682062Y-76466000D01*
X85682047Y-76466001D01*
X85568852Y-76480902D01*
X85568851Y-76480903D01*
X85428003Y-76539244D01*
X85427995Y-76539249D01*
X85307051Y-76632051D01*
X85214249Y-76752995D01*
X85214244Y-76753003D01*
X85155902Y-76893852D01*
X85141000Y-77007048D01*
X85141000Y-77165200D01*
X80684149Y-77165200D01*
X80645001Y-77126052D01*
X80645000Y-77126052D01*
X80450434Y-77320616D01*
X77815662Y-77320616D01*
X77584233Y-77089187D01*
X77580322Y-77084896D01*
X77422182Y-76894456D01*
X77339471Y-76794851D01*
X77335983Y-76790232D01*
X77270749Y-76695002D01*
X79986197Y-76695002D01*
X80005340Y-76852659D01*
X80019349Y-76889598D01*
X80213947Y-76695000D01*
X80390102Y-76695000D01*
X80409505Y-76792545D01*
X80464760Y-76875240D01*
X80547455Y-76930495D01*
X80620376Y-76945000D01*
X80669624Y-76945000D01*
X80742545Y-76930495D01*
X80825240Y-76875240D01*
X80880495Y-76792545D01*
X80899898Y-76695001D01*
X81076052Y-76695001D01*
X81270649Y-76889598D01*
X81270649Y-76889597D01*
X81284659Y-76852660D01*
X81284660Y-76852656D01*
X81303803Y-76695002D01*
X81303803Y-76694997D01*
X81294414Y-76617672D01*
X82147490Y-76617672D01*
X82262638Y-76646054D01*
X82262647Y-76646056D01*
X82421465Y-76646056D01*
X82421473Y-76646055D01*
X82536619Y-76617672D01*
X82536620Y-76617671D01*
X82342057Y-76423108D01*
X82342056Y-76423108D01*
X82147490Y-76617672D01*
X81294414Y-76617672D01*
X81284660Y-76537344D01*
X81284659Y-76537341D01*
X81270649Y-76500401D01*
X81076052Y-76694999D01*
X81076052Y-76695001D01*
X80899898Y-76695001D01*
X80899898Y-76695000D01*
X80880495Y-76597455D01*
X80825240Y-76514760D01*
X80742545Y-76459505D01*
X80669624Y-76445000D01*
X80620376Y-76445000D01*
X80547455Y-76459505D01*
X80464760Y-76514760D01*
X80409505Y-76597455D01*
X80390102Y-76695000D01*
X80213947Y-76695000D01*
X80213948Y-76694999D01*
X80019349Y-76500400D01*
X80019348Y-76500400D01*
X80005341Y-76537335D01*
X80005339Y-76537342D01*
X79986197Y-76694997D01*
X79986197Y-76695002D01*
X77270749Y-76695002D01*
X77217776Y-76617672D01*
X78753378Y-76617672D01*
X78868526Y-76646054D01*
X78868535Y-76646056D01*
X79027353Y-76646056D01*
X79027361Y-76646055D01*
X79142507Y-76617672D01*
X79142508Y-76617671D01*
X78947945Y-76423108D01*
X78947944Y-76423108D01*
X78753378Y-76617672D01*
X77217776Y-76617672D01*
X77122914Y-76479191D01*
X77119858Y-76474254D01*
X76936403Y-76144890D01*
X76933825Y-76139711D01*
X76868630Y-75992058D01*
X78289141Y-75992058D01*
X78308284Y-76149715D01*
X78322293Y-76186654D01*
X78516891Y-75992056D01*
X78693046Y-75992056D01*
X78712449Y-76089601D01*
X78767704Y-76172296D01*
X78850399Y-76227551D01*
X78923320Y-76242056D01*
X78972568Y-76242056D01*
X79045489Y-76227551D01*
X79128184Y-76172296D01*
X79183439Y-76089601D01*
X79202842Y-75992057D01*
X79378996Y-75992057D01*
X79573593Y-76186654D01*
X79573593Y-76186653D01*
X79587603Y-76149716D01*
X79587604Y-76149712D01*
X79597358Y-76069383D01*
X80450434Y-76069383D01*
X80644999Y-76263948D01*
X80645000Y-76263948D01*
X80839563Y-76069383D01*
X80724411Y-76041000D01*
X80565588Y-76041000D01*
X80450434Y-76069383D01*
X79597358Y-76069383D01*
X79606747Y-75992058D01*
X81683253Y-75992058D01*
X81702396Y-76149715D01*
X81716405Y-76186654D01*
X81911003Y-75992056D01*
X82087158Y-75992056D01*
X82106561Y-76089601D01*
X82161816Y-76172296D01*
X82244511Y-76227551D01*
X82317432Y-76242056D01*
X82366680Y-76242056D01*
X82439601Y-76227551D01*
X82522296Y-76172296D01*
X82577551Y-76089601D01*
X82596954Y-75992057D01*
X82773108Y-75992057D01*
X82967705Y-76186654D01*
X82967705Y-76186653D01*
X82981715Y-76149716D01*
X82981716Y-76149712D01*
X83000859Y-75992058D01*
X83000859Y-75992053D01*
X82981716Y-75834400D01*
X82981715Y-75834397D01*
X82967705Y-75797457D01*
X82773108Y-75992055D01*
X82773108Y-75992057D01*
X82596954Y-75992057D01*
X82596954Y-75992056D01*
X82577551Y-75894511D01*
X82522296Y-75811816D01*
X82439601Y-75756561D01*
X82366680Y-75742056D01*
X82317432Y-75742056D01*
X82244511Y-75756561D01*
X82161816Y-75811816D01*
X82106561Y-75894511D01*
X82087158Y-75992056D01*
X81911003Y-75992056D01*
X81911004Y-75992055D01*
X81716405Y-75797456D01*
X81716404Y-75797456D01*
X81702397Y-75834391D01*
X81702395Y-75834398D01*
X81683253Y-75992053D01*
X81683253Y-75992058D01*
X79606747Y-75992058D01*
X79606747Y-75992053D01*
X79587604Y-75834400D01*
X79587603Y-75834397D01*
X79573593Y-75797457D01*
X79378996Y-75992055D01*
X79378996Y-75992057D01*
X79202842Y-75992057D01*
X79202842Y-75992056D01*
X79183439Y-75894511D01*
X79128184Y-75811816D01*
X79045489Y-75756561D01*
X78972568Y-75742056D01*
X78923320Y-75742056D01*
X78850399Y-75756561D01*
X78767704Y-75811816D01*
X78712449Y-75894511D01*
X78693046Y-75992056D01*
X78516891Y-75992056D01*
X78516892Y-75992055D01*
X78322293Y-75797456D01*
X78322292Y-75797456D01*
X78308285Y-75834391D01*
X78308283Y-75834398D01*
X78289141Y-75992053D01*
X78289141Y-75992058D01*
X76868630Y-75992058D01*
X76781539Y-75794817D01*
X76779446Y-75789413D01*
X76684505Y-75506147D01*
X76659640Y-75431958D01*
X76658050Y-75426373D01*
X76643954Y-75366439D01*
X78753378Y-75366439D01*
X78947943Y-75561004D01*
X78947944Y-75561004D01*
X79142507Y-75366439D01*
X82147490Y-75366439D01*
X82342055Y-75561004D01*
X82342056Y-75561004D01*
X82510110Y-75392948D01*
X85141000Y-75392948D01*
X85141001Y-75392956D01*
X85155903Y-75506147D01*
X85155903Y-75506148D01*
X85214244Y-75646996D01*
X85214249Y-75647004D01*
X85307051Y-75767948D01*
X85427995Y-75860750D01*
X85428003Y-75860755D01*
X85568852Y-75919097D01*
X85682047Y-75933999D01*
X85740199Y-75933998D01*
X85740200Y-75933998D01*
X85740200Y-75234800D01*
X85141001Y-75234800D01*
X85141000Y-75392948D01*
X82510110Y-75392948D01*
X82536619Y-75366439D01*
X82421467Y-75338056D01*
X82262644Y-75338056D01*
X82147490Y-75366439D01*
X79142507Y-75366439D01*
X79027355Y-75338056D01*
X78868532Y-75338056D01*
X78753378Y-75366439D01*
X76643954Y-75366439D01*
X76571730Y-75059366D01*
X76570668Y-75053688D01*
X76552106Y-74920616D01*
X78050434Y-74920616D01*
X78165582Y-74948998D01*
X78165591Y-74949000D01*
X78324409Y-74949000D01*
X78324417Y-74948999D01*
X78439563Y-74920616D01*
X82850434Y-74920616D01*
X82965582Y-74948998D01*
X82965591Y-74949000D01*
X83124409Y-74949000D01*
X83124417Y-74948999D01*
X83239563Y-74920616D01*
X83239564Y-74920615D01*
X83045001Y-74726052D01*
X83045000Y-74726052D01*
X82850434Y-74920616D01*
X78439563Y-74920616D01*
X78439564Y-74920615D01*
X78245001Y-74726052D01*
X78245000Y-74726052D01*
X78050434Y-74920616D01*
X76552106Y-74920616D01*
X76518583Y-74680292D01*
X76518046Y-74674495D01*
X76515767Y-74625200D01*
X85141000Y-74625200D01*
X85740200Y-74625200D01*
X85740200Y-73926000D01*
X85740199Y-73925999D01*
X85682062Y-73926000D01*
X85682047Y-73926001D01*
X85568852Y-73940902D01*
X85568851Y-73940903D01*
X85428003Y-73999244D01*
X85427995Y-73999249D01*
X85307051Y-74092051D01*
X85214249Y-74212995D01*
X85214244Y-74213003D01*
X85155902Y-74353852D01*
X85141000Y-74467048D01*
X85141000Y-74625200D01*
X76515767Y-74625200D01*
X76502871Y-74346273D01*
X76503073Y-74337538D01*
X76504401Y-74323207D01*
X76503074Y-74308891D01*
X76501787Y-74295002D01*
X77586197Y-74295002D01*
X77605340Y-74452659D01*
X77619349Y-74489598D01*
X77813947Y-74295000D01*
X77990102Y-74295000D01*
X78009505Y-74392545D01*
X78064760Y-74475240D01*
X78147455Y-74530495D01*
X78220376Y-74545000D01*
X78269624Y-74545000D01*
X78342545Y-74530495D01*
X78425240Y-74475240D01*
X78480495Y-74392545D01*
X78499898Y-74295000D01*
X78499898Y-74294999D01*
X78676052Y-74294999D01*
X78870649Y-74489596D01*
X78884659Y-74452660D01*
X78884660Y-74452656D01*
X78903803Y-74295002D01*
X82386197Y-74295002D01*
X82405340Y-74452659D01*
X82419349Y-74489598D01*
X82613947Y-74295000D01*
X82790102Y-74295000D01*
X82809505Y-74392545D01*
X82864760Y-74475240D01*
X82947455Y-74530495D01*
X83020376Y-74545000D01*
X83069624Y-74545000D01*
X83142545Y-74530495D01*
X83225240Y-74475240D01*
X83280495Y-74392545D01*
X83299898Y-74295000D01*
X83299898Y-74294999D01*
X83476052Y-74294999D01*
X83670649Y-74489596D01*
X83684659Y-74452660D01*
X83684660Y-74452656D01*
X83703803Y-74295002D01*
X83703803Y-74294997D01*
X83684660Y-74137344D01*
X83684658Y-74137337D01*
X83670650Y-74100401D01*
X83670648Y-74100401D01*
X83476052Y-74294997D01*
X83476052Y-74294999D01*
X83299898Y-74294999D01*
X83280495Y-74197455D01*
X83225240Y-74114760D01*
X83142545Y-74059505D01*
X83069624Y-74045000D01*
X83020376Y-74045000D01*
X82947455Y-74059505D01*
X82864760Y-74114760D01*
X82809505Y-74197455D01*
X82790102Y-74295000D01*
X82613947Y-74295000D01*
X82613948Y-74294999D01*
X82419349Y-74100400D01*
X82419348Y-74100400D01*
X82405341Y-74137335D01*
X82405339Y-74137342D01*
X82386197Y-74294997D01*
X82386197Y-74295002D01*
X78903803Y-74295002D01*
X78903803Y-74294997D01*
X78884660Y-74137344D01*
X78884658Y-74137337D01*
X78870650Y-74100401D01*
X78870648Y-74100401D01*
X78676052Y-74294997D01*
X78676052Y-74294999D01*
X78499898Y-74294999D01*
X78480495Y-74197455D01*
X78425240Y-74114760D01*
X78342545Y-74059505D01*
X78269624Y-74045000D01*
X78220376Y-74045000D01*
X78147455Y-74059505D01*
X78064760Y-74114760D01*
X78009505Y-74197455D01*
X77990102Y-74295000D01*
X77813947Y-74295000D01*
X77813948Y-74294999D01*
X77619349Y-74100400D01*
X77619348Y-74100400D01*
X77605341Y-74137335D01*
X77605339Y-74137342D01*
X77586197Y-74294997D01*
X77586197Y-74295002D01*
X76501787Y-74295002D01*
X76501331Y-74290088D01*
X76501130Y-74281364D01*
X76518046Y-73915504D01*
X76518583Y-73909707D01*
X76535000Y-73792012D01*
X76552106Y-73669383D01*
X78050434Y-73669383D01*
X78244999Y-73863948D01*
X78245000Y-73863948D01*
X78439563Y-73669383D01*
X82850434Y-73669383D01*
X83044999Y-73863948D01*
X83045000Y-73863948D01*
X83239563Y-73669383D01*
X83124411Y-73641000D01*
X82965588Y-73641000D01*
X82850434Y-73669383D01*
X78439563Y-73669383D01*
X78324411Y-73641000D01*
X78165588Y-73641000D01*
X78050434Y-73669383D01*
X76552106Y-73669383D01*
X76570669Y-73536307D01*
X76571729Y-73530637D01*
X76643953Y-73223560D01*
X78753378Y-73223560D01*
X78868526Y-73251942D01*
X78868535Y-73251944D01*
X79027353Y-73251944D01*
X79027361Y-73251943D01*
X79142507Y-73223560D01*
X82147490Y-73223560D01*
X82262638Y-73251942D01*
X82262647Y-73251944D01*
X82421465Y-73251944D01*
X82421473Y-73251943D01*
X82536619Y-73223560D01*
X82536620Y-73223559D01*
X82342057Y-73028996D01*
X82342056Y-73028996D01*
X82147490Y-73223560D01*
X79142507Y-73223560D01*
X79142508Y-73223559D01*
X78947945Y-73028996D01*
X78947944Y-73028996D01*
X78753378Y-73223560D01*
X76643953Y-73223560D01*
X76658051Y-73163620D01*
X76659640Y-73158041D01*
X76676746Y-73107004D01*
X76761896Y-72852948D01*
X85141000Y-72852948D01*
X85141001Y-72852956D01*
X85155903Y-72966147D01*
X85155903Y-72966148D01*
X85214244Y-73106996D01*
X85214249Y-73107004D01*
X85307051Y-73227948D01*
X85427995Y-73320750D01*
X85428003Y-73320755D01*
X85568852Y-73379097D01*
X85682047Y-73393999D01*
X85740199Y-73393998D01*
X85740200Y-73393998D01*
X85740200Y-72694800D01*
X85141001Y-72694800D01*
X85141000Y-72852948D01*
X76761896Y-72852948D01*
X76779448Y-72800579D01*
X76781536Y-72795189D01*
X76868627Y-72597946D01*
X78289141Y-72597946D01*
X78308284Y-72755603D01*
X78322293Y-72792542D01*
X78516891Y-72597944D01*
X78693046Y-72597944D01*
X78712449Y-72695489D01*
X78767704Y-72778184D01*
X78850399Y-72833439D01*
X78923320Y-72847944D01*
X78972568Y-72847944D01*
X79045489Y-72833439D01*
X79128184Y-72778184D01*
X79183439Y-72695489D01*
X79202842Y-72597944D01*
X79202842Y-72597943D01*
X79378996Y-72597943D01*
X79573593Y-72792540D01*
X79587603Y-72755604D01*
X79587604Y-72755600D01*
X79606747Y-72597946D01*
X81683253Y-72597946D01*
X81702396Y-72755603D01*
X81716405Y-72792542D01*
X81911003Y-72597944D01*
X82087158Y-72597944D01*
X82106561Y-72695489D01*
X82161816Y-72778184D01*
X82244511Y-72833439D01*
X82317432Y-72847944D01*
X82366680Y-72847944D01*
X82439601Y-72833439D01*
X82522296Y-72778184D01*
X82577551Y-72695489D01*
X82596954Y-72597945D01*
X82773108Y-72597945D01*
X82967705Y-72792542D01*
X82967705Y-72792541D01*
X82981715Y-72755604D01*
X82981716Y-72755600D01*
X83000859Y-72597946D01*
X83000859Y-72597941D01*
X82981716Y-72440288D01*
X82981715Y-72440285D01*
X82967705Y-72403345D01*
X82773108Y-72597943D01*
X82773108Y-72597945D01*
X82596954Y-72597945D01*
X82596954Y-72597944D01*
X82577551Y-72500399D01*
X82522296Y-72417704D01*
X82439601Y-72362449D01*
X82366680Y-72347944D01*
X82317432Y-72347944D01*
X82244511Y-72362449D01*
X82161816Y-72417704D01*
X82106561Y-72500399D01*
X82087158Y-72597944D01*
X81911003Y-72597944D01*
X81911004Y-72597943D01*
X81716405Y-72403344D01*
X81716404Y-72403344D01*
X81702397Y-72440279D01*
X81702395Y-72440286D01*
X81683253Y-72597941D01*
X81683253Y-72597946D01*
X79606747Y-72597946D01*
X79606747Y-72597941D01*
X79597358Y-72520616D01*
X80450434Y-72520616D01*
X80565582Y-72548998D01*
X80565591Y-72549000D01*
X80724409Y-72549000D01*
X80724417Y-72548999D01*
X80839563Y-72520616D01*
X80839564Y-72520615D01*
X80645001Y-72326052D01*
X80645000Y-72326052D01*
X80450434Y-72520616D01*
X79597358Y-72520616D01*
X79587604Y-72440288D01*
X79587602Y-72440281D01*
X79573594Y-72403345D01*
X79573592Y-72403345D01*
X79378996Y-72597942D01*
X79378996Y-72597943D01*
X79202842Y-72597943D01*
X79183439Y-72500399D01*
X79128184Y-72417704D01*
X79045489Y-72362449D01*
X78972568Y-72347944D01*
X78923320Y-72347944D01*
X78850399Y-72362449D01*
X78767704Y-72417704D01*
X78712449Y-72500399D01*
X78693046Y-72597944D01*
X78516891Y-72597944D01*
X78516892Y-72597943D01*
X78322293Y-72403344D01*
X78322292Y-72403344D01*
X78308285Y-72440279D01*
X78308283Y-72440286D01*
X78289141Y-72597941D01*
X78289141Y-72597946D01*
X76868627Y-72597946D01*
X76933829Y-72450279D01*
X76936399Y-72445118D01*
X77119863Y-72115735D01*
X77122908Y-72110817D01*
X77217776Y-71972327D01*
X78753378Y-71972327D01*
X78947943Y-72166892D01*
X78947944Y-72166892D01*
X79142507Y-71972327D01*
X79027355Y-71943944D01*
X78868532Y-71943944D01*
X78753378Y-71972327D01*
X77217776Y-71972327D01*
X77270745Y-71895002D01*
X79986197Y-71895002D01*
X80005340Y-72052659D01*
X80019349Y-72089598D01*
X80213947Y-71895000D01*
X80390102Y-71895000D01*
X80409505Y-71992545D01*
X80464760Y-72075240D01*
X80547455Y-72130495D01*
X80620376Y-72145000D01*
X80669624Y-72145000D01*
X80742545Y-72130495D01*
X80825240Y-72075240D01*
X80880495Y-71992545D01*
X80899898Y-71895001D01*
X81076052Y-71895001D01*
X81270649Y-72089598D01*
X81270649Y-72089597D01*
X81284659Y-72052660D01*
X81284660Y-72052656D01*
X81294414Y-71972327D01*
X82147490Y-71972327D01*
X82342055Y-72166892D01*
X82342056Y-72166892D01*
X82423747Y-72085200D01*
X85141000Y-72085200D01*
X85740200Y-72085200D01*
X85740200Y-71386000D01*
X85740199Y-71385999D01*
X85682062Y-71386000D01*
X85682047Y-71386001D01*
X85568852Y-71400902D01*
X85568851Y-71400903D01*
X85428003Y-71459244D01*
X85427995Y-71459249D01*
X85307051Y-71552051D01*
X85214249Y-71672995D01*
X85214244Y-71673003D01*
X85155902Y-71813852D01*
X85141000Y-71927048D01*
X85141000Y-72085200D01*
X82423747Y-72085200D01*
X82536619Y-71972327D01*
X82421467Y-71943944D01*
X82262644Y-71943944D01*
X82147490Y-71972327D01*
X81294414Y-71972327D01*
X81303803Y-71895002D01*
X81303803Y-71894997D01*
X81284660Y-71737344D01*
X81284659Y-71737341D01*
X81270649Y-71700401D01*
X81076052Y-71894999D01*
X81076052Y-71895001D01*
X80899898Y-71895001D01*
X80899898Y-71895000D01*
X80880495Y-71797455D01*
X80825240Y-71714760D01*
X80742545Y-71659505D01*
X80669624Y-71645000D01*
X80620376Y-71645000D01*
X80547455Y-71659505D01*
X80464760Y-71714760D01*
X80409505Y-71797455D01*
X80390102Y-71895000D01*
X80213947Y-71895000D01*
X80213948Y-71894999D01*
X80019349Y-71700400D01*
X80019348Y-71700400D01*
X80005341Y-71737335D01*
X80005339Y-71737342D01*
X79986197Y-71894997D01*
X79986197Y-71895002D01*
X77270745Y-71895002D01*
X77335990Y-71799756D01*
X77339463Y-71795158D01*
X77580322Y-71505101D01*
X77584223Y-71500822D01*
X77815662Y-71269383D01*
X80450434Y-71269383D01*
X80644999Y-71463948D01*
X80645000Y-71463948D01*
X80839563Y-71269383D01*
X80724411Y-71241000D01*
X80565588Y-71241000D01*
X80450434Y-71269383D01*
X77815662Y-71269383D01*
X77850822Y-71234223D01*
X77855103Y-71230322D01*
X78145158Y-70989463D01*
X78149756Y-70985990D01*
X78460817Y-70772908D01*
X78465735Y-70769863D01*
X78795118Y-70586399D01*
X78800279Y-70583829D01*
X79145189Y-70431536D01*
X79150579Y-70429448D01*
X79508042Y-70309639D01*
X79513620Y-70308051D01*
X79880637Y-70221729D01*
X79886307Y-70220669D01*
X80184358Y-70179093D01*
X80259707Y-70168583D01*
X80265504Y-70168046D01*
X80643556Y-70150567D01*
X80646466Y-70150500D01*
X101474000Y-70150500D01*
X101542121Y-70170502D01*
G37*
%TD.AperFunction*%
%TD*%
%TA.AperFunction,Conductor*%
%TO.N,Net-(IC1-CB)*%
G36*
X92852931Y-74061002D02*
G01*
X92873900Y-74077900D01*
X93091000Y-74295000D01*
X95505000Y-74295000D01*
X95573121Y-74315002D01*
X95619614Y-74368658D01*
X95631000Y-74421000D01*
X95631000Y-75941500D01*
X95610998Y-76009621D01*
X95557342Y-76056114D01*
X95505000Y-76067500D01*
X92502690Y-76067500D01*
X92434569Y-76047498D01*
X92413595Y-76030595D01*
X91984905Y-75601905D01*
X91950879Y-75539593D01*
X91948000Y-75512810D01*
X91948000Y-74167000D01*
X91968002Y-74098879D01*
X92021658Y-74052386D01*
X92074000Y-74041000D01*
X92784810Y-74041000D01*
X92852931Y-74061002D01*
G37*
%TD.AperFunction*%
%TD*%
%TA.AperFunction,Conductor*%
%TO.N,GND*%
G36*
X219355418Y-80665002D02*
G01*
X219401911Y-80718658D01*
X219412377Y-80786187D01*
X219409500Y-80809886D01*
X219409500Y-80809887D01*
X219409499Y-80809891D01*
X219409498Y-80958510D01*
X219409500Y-80958518D01*
X219409500Y-84393669D01*
X219389498Y-84461790D01*
X219335842Y-84508283D01*
X219265568Y-84518387D01*
X219236394Y-84509496D01*
X219236257Y-84509888D01*
X219102536Y-84463097D01*
X219065373Y-84450093D01*
X218935856Y-84435500D01*
X217184144Y-84435500D01*
X217054627Y-84450093D01*
X217054624Y-84450093D01*
X217054624Y-84450094D01*
X216890421Y-84507551D01*
X216890419Y-84507552D01*
X216743120Y-84600106D01*
X216743117Y-84600108D01*
X216620108Y-84723117D01*
X216620106Y-84723120D01*
X216527552Y-84870419D01*
X216527551Y-84870421D01*
X216477314Y-85013990D01*
X216470093Y-85034627D01*
X216459278Y-85130614D01*
X216455500Y-85164143D01*
X216455500Y-85187528D01*
X216435498Y-85255649D01*
X216381842Y-85302142D01*
X216329500Y-85313528D01*
X206456321Y-85313528D01*
X206388200Y-85293526D01*
X206367227Y-85276624D01*
X206354340Y-85263738D01*
X206320318Y-85201424D01*
X206325386Y-85130609D01*
X206354345Y-85085550D01*
X206410866Y-85029029D01*
X206469550Y-84929800D01*
X204310450Y-84929800D01*
X204369134Y-85029031D01*
X204425654Y-85085551D01*
X204459680Y-85147863D01*
X204454615Y-85218678D01*
X204425655Y-85263741D01*
X204368732Y-85320664D01*
X204368730Y-85320667D01*
X204284556Y-85462996D01*
X204238419Y-85621801D01*
X204235500Y-85658893D01*
X204235500Y-85791106D01*
X204238419Y-85828198D01*
X204284556Y-85987003D01*
X204368730Y-86129332D01*
X204368735Y-86129339D01*
X204425654Y-86186258D01*
X204459680Y-86248570D01*
X204454615Y-86319385D01*
X204425655Y-86364448D01*
X204369133Y-86420970D01*
X204310450Y-86520200D01*
X206469550Y-86520200D01*
X206410865Y-86420968D01*
X206354345Y-86364448D01*
X206320319Y-86302136D01*
X206325384Y-86231321D01*
X206354345Y-86186258D01*
X206367226Y-86173377D01*
X206429538Y-86139351D01*
X206456321Y-86136472D01*
X206641500Y-86136472D01*
X206709621Y-86156474D01*
X206756114Y-86210130D01*
X206767500Y-86262472D01*
X206767500Y-86581010D01*
X206782415Y-86694306D01*
X206833350Y-86817272D01*
X206840808Y-86835278D01*
X206933696Y-86956332D01*
X207054750Y-87049220D01*
X207060545Y-87051620D01*
X207115825Y-87096170D01*
X207138244Y-87163534D01*
X207120684Y-87232325D01*
X207068721Y-87280702D01*
X207060553Y-87284431D01*
X207058263Y-87285380D01*
X207054751Y-87286835D01*
X207054748Y-87286837D01*
X206933696Y-87379724D01*
X206840809Y-87500776D01*
X206840807Y-87500779D01*
X206782415Y-87641749D01*
X206769383Y-87740741D01*
X206740660Y-87805668D01*
X206681395Y-87844759D01*
X206610403Y-87845604D01*
X206550225Y-87807933D01*
X206523465Y-87759448D01*
X206495445Y-87663001D01*
X206487426Y-87649442D01*
X206411269Y-87520667D01*
X206411264Y-87520660D01*
X206354345Y-87463741D01*
X206320319Y-87401429D01*
X206325384Y-87330614D01*
X206354345Y-87285550D01*
X206410866Y-87229029D01*
X206469550Y-87129800D01*
X204310450Y-87129800D01*
X204369134Y-87229031D01*
X204425655Y-87285552D01*
X204459681Y-87347864D01*
X204454616Y-87418679D01*
X204425655Y-87463742D01*
X204408202Y-87481195D01*
X204345890Y-87515221D01*
X204319107Y-87518100D01*
X204172001Y-87518100D01*
X204103880Y-87498098D01*
X204077578Y-87481195D01*
X204046732Y-87461371D01*
X204046731Y-87461370D01*
X204046730Y-87461370D01*
X203907536Y-87420500D01*
X203762464Y-87420500D01*
X203623269Y-87461370D01*
X203623266Y-87461372D01*
X203501225Y-87539803D01*
X203406223Y-87649441D01*
X203355986Y-87759446D01*
X203345958Y-87781404D01*
X203325312Y-87925000D01*
X203345958Y-88068596D01*
X203406223Y-88200558D01*
X203501225Y-88310196D01*
X203623268Y-88388629D01*
X203762464Y-88429500D01*
X203907536Y-88429500D01*
X204046732Y-88388629D01*
X204103879Y-88351902D01*
X204172001Y-88331900D01*
X204319107Y-88331900D01*
X204387228Y-88351902D01*
X204408202Y-88368805D01*
X204425301Y-88385904D01*
X204459327Y-88448216D01*
X204454262Y-88519031D01*
X204425302Y-88564094D01*
X204368732Y-88620664D01*
X204368730Y-88620667D01*
X204284556Y-88762996D01*
X204238419Y-88921801D01*
X204235500Y-88958893D01*
X204235500Y-89091106D01*
X204238419Y-89128198D01*
X204284556Y-89287003D01*
X204368730Y-89429332D01*
X204368735Y-89429339D01*
X204485660Y-89546264D01*
X204485667Y-89546269D01*
X204627996Y-89630443D01*
X204627999Y-89630443D01*
X204628001Y-89630445D01*
X204786800Y-89676580D01*
X204823893Y-89679499D01*
X204823895Y-89679500D01*
X204823902Y-89679500D01*
X205956105Y-89679500D01*
X205956105Y-89679499D01*
X205993200Y-89676580D01*
X206151999Y-89630445D01*
X206152001Y-89630443D01*
X206152003Y-89630443D01*
X206238232Y-89579447D01*
X206294336Y-89546267D01*
X206411267Y-89429336D01*
X206453356Y-89358167D01*
X206495443Y-89287003D01*
X206495443Y-89287001D01*
X206495445Y-89286999D01*
X206541580Y-89128200D01*
X206544499Y-89091105D01*
X206544500Y-89091105D01*
X206544500Y-88958894D01*
X206544499Y-88958893D01*
X206542768Y-88936903D01*
X206541580Y-88921800D01*
X206495445Y-88763001D01*
X206495443Y-88762999D01*
X206495443Y-88762996D01*
X206411269Y-88620667D01*
X206411264Y-88620660D01*
X206354698Y-88564094D01*
X206320672Y-88501782D01*
X206325737Y-88430967D01*
X206354695Y-88385907D01*
X206411267Y-88329336D01*
X206474123Y-88223052D01*
X206495443Y-88187003D01*
X206495443Y-88187001D01*
X206495445Y-88186999D01*
X206520504Y-88100744D01*
X206558716Y-88040911D01*
X206623212Y-88011233D01*
X206693514Y-88021136D01*
X206747303Y-88067475D01*
X206767499Y-88135539D01*
X206767500Y-88135899D01*
X206767500Y-88481010D01*
X206782415Y-88594306D01*
X206782416Y-88594308D01*
X206840808Y-88735278D01*
X206933696Y-88856332D01*
X207054750Y-88949220D01*
X207195720Y-89007612D01*
X207255546Y-89015488D01*
X207320472Y-89044208D01*
X207359564Y-89103472D01*
X207365100Y-89140409D01*
X207365100Y-90102618D01*
X207345098Y-90170739D01*
X207291442Y-90217232D01*
X207255546Y-90227539D01*
X207248179Y-90228509D01*
X207195721Y-90235415D01*
X207054751Y-90293807D01*
X207054748Y-90293809D01*
X206933696Y-90386696D01*
X206840809Y-90507748D01*
X206840807Y-90507751D01*
X206782415Y-90648721D01*
X206767500Y-90762017D01*
X206767500Y-91487982D01*
X206782415Y-91601278D01*
X206831675Y-91720200D01*
X206840808Y-91742250D01*
X206933696Y-91863304D01*
X207054750Y-91956192D01*
X207060541Y-91958591D01*
X207115820Y-92003135D01*
X207138244Y-92070497D01*
X207120688Y-92139289D01*
X207068728Y-92187669D01*
X207060553Y-92191403D01*
X207054759Y-92193803D01*
X207054748Y-92193809D01*
X206933696Y-92286696D01*
X206840809Y-92407748D01*
X206840807Y-92407751D01*
X206782415Y-92548721D01*
X206767500Y-92662017D01*
X206767500Y-92914100D01*
X206747498Y-92982221D01*
X206693842Y-93028714D01*
X206623568Y-93038818D01*
X206558988Y-93009324D01*
X206520604Y-92949598D01*
X206520503Y-92949253D01*
X206518303Y-92941680D01*
X206495445Y-92863001D01*
X206495443Y-92862999D01*
X206495443Y-92862996D01*
X206411269Y-92720667D01*
X206411264Y-92720660D01*
X206354345Y-92663741D01*
X206320319Y-92601429D01*
X206325384Y-92530614D01*
X206354345Y-92485550D01*
X206410866Y-92429029D01*
X206469550Y-92329800D01*
X204310450Y-92329800D01*
X204369134Y-92429031D01*
X204425654Y-92485551D01*
X204459680Y-92547863D01*
X204454615Y-92618678D01*
X204425655Y-92663741D01*
X204368732Y-92720664D01*
X204368730Y-92720667D01*
X204284556Y-92862996D01*
X204238419Y-93021801D01*
X204235500Y-93058893D01*
X204235500Y-93191106D01*
X204238419Y-93228198D01*
X204284556Y-93387003D01*
X204368730Y-93529332D01*
X204368732Y-93529335D01*
X204368733Y-93529336D01*
X204425302Y-93585905D01*
X204459326Y-93648215D01*
X204454262Y-93719031D01*
X204425302Y-93764094D01*
X204368732Y-93820664D01*
X204368730Y-93820667D01*
X204284556Y-93962996D01*
X204238419Y-94121801D01*
X204235500Y-94158893D01*
X204235500Y-94291106D01*
X204238419Y-94328198D01*
X204284556Y-94487003D01*
X204368730Y-94629332D01*
X204368735Y-94629339D01*
X204425301Y-94685905D01*
X204459327Y-94748217D01*
X204454262Y-94819032D01*
X204425301Y-94864095D01*
X204368735Y-94920660D01*
X204368730Y-94920667D01*
X204284556Y-95062996D01*
X204238419Y-95221801D01*
X204235500Y-95258893D01*
X204235500Y-95391106D01*
X204238419Y-95428198D01*
X204284556Y-95587003D01*
X204368730Y-95729332D01*
X204368732Y-95729335D01*
X204368733Y-95729336D01*
X204425302Y-95785905D01*
X204459326Y-95848215D01*
X204454262Y-95919031D01*
X204425302Y-95964094D01*
X204368732Y-96020664D01*
X204368730Y-96020667D01*
X204284556Y-96162996D01*
X204238419Y-96321801D01*
X204235500Y-96358893D01*
X204235500Y-96491106D01*
X204238419Y-96528198D01*
X204284556Y-96687003D01*
X204368730Y-96829332D01*
X204368735Y-96829339D01*
X204425301Y-96885905D01*
X204459327Y-96948217D01*
X204454262Y-97019032D01*
X204425301Y-97064095D01*
X204368735Y-97120660D01*
X204368730Y-97120667D01*
X204284556Y-97262996D01*
X204238419Y-97421801D01*
X204235500Y-97458893D01*
X204235500Y-97591106D01*
X204238419Y-97628198D01*
X204284556Y-97787003D01*
X204368730Y-97929332D01*
X204368735Y-97929339D01*
X204425301Y-97985905D01*
X204459327Y-98048217D01*
X204454262Y-98119032D01*
X204425301Y-98164095D01*
X204368735Y-98220660D01*
X204368730Y-98220667D01*
X204284556Y-98362996D01*
X204238419Y-98521801D01*
X204235500Y-98558893D01*
X204235500Y-98691106D01*
X204238419Y-98728198D01*
X204284556Y-98887003D01*
X204368730Y-99029332D01*
X204368735Y-99029339D01*
X204485660Y-99146264D01*
X204485667Y-99146269D01*
X204627996Y-99230443D01*
X204627999Y-99230443D01*
X204628001Y-99230445D01*
X204786800Y-99276580D01*
X204823893Y-99279499D01*
X204823895Y-99279500D01*
X204823902Y-99279500D01*
X205956105Y-99279500D01*
X205956105Y-99279499D01*
X205993200Y-99276580D01*
X206151999Y-99230445D01*
X206152001Y-99230443D01*
X206152003Y-99230443D01*
X206240545Y-99178079D01*
X206294336Y-99146267D01*
X206411267Y-99029336D01*
X206466352Y-98936192D01*
X206495443Y-98887003D01*
X206495443Y-98887001D01*
X206495445Y-98886999D01*
X206541580Y-98728200D01*
X206544499Y-98691105D01*
X206544500Y-98691105D01*
X206544500Y-98558894D01*
X206544499Y-98558893D01*
X206541580Y-98521801D01*
X206526754Y-98470769D01*
X206495445Y-98363001D01*
X206495443Y-98362999D01*
X206495443Y-98362996D01*
X206411269Y-98220667D01*
X206411264Y-98220660D01*
X206354698Y-98164094D01*
X206320672Y-98101782D01*
X206325737Y-98030967D01*
X206354695Y-97985907D01*
X206411267Y-97929336D01*
X206495445Y-97786999D01*
X206541580Y-97628200D01*
X206544499Y-97591105D01*
X206544500Y-97591105D01*
X206544500Y-97458894D01*
X206544499Y-97458893D01*
X206541580Y-97421801D01*
X206525571Y-97366696D01*
X206495445Y-97263001D01*
X206495443Y-97262999D01*
X206495443Y-97262996D01*
X206411269Y-97120667D01*
X206411264Y-97120660D01*
X206354699Y-97064095D01*
X206320673Y-97001783D01*
X206325738Y-96930968D01*
X206354699Y-96885905D01*
X206416873Y-96823731D01*
X206417913Y-96824771D01*
X206468413Y-96788305D01*
X206510410Y-96781100D01*
X212970096Y-96781100D01*
X213038217Y-96801102D01*
X213070058Y-96830396D01*
X213156693Y-96943301D01*
X213156694Y-96943302D01*
X213156696Y-96943304D01*
X213277750Y-97036192D01*
X213283545Y-97038592D01*
X213338825Y-97083142D01*
X213361244Y-97150506D01*
X213343684Y-97219297D01*
X213291721Y-97267674D01*
X213283553Y-97271403D01*
X213281263Y-97272352D01*
X213277751Y-97273807D01*
X213277748Y-97273809D01*
X213156696Y-97366696D01*
X213063809Y-97487748D01*
X213063807Y-97487751D01*
X213005415Y-97628721D01*
X212990500Y-97742017D01*
X212990500Y-98467982D01*
X213005415Y-98581278D01*
X213050908Y-98691106D01*
X213063808Y-98722250D01*
X213156696Y-98843304D01*
X213277750Y-98936192D01*
X213418720Y-98994584D01*
X213532020Y-99009500D01*
X213532027Y-99009500D01*
X214457973Y-99009500D01*
X214457980Y-99009500D01*
X214571280Y-98994584D01*
X214712250Y-98936192D01*
X214833304Y-98843304D01*
X214843207Y-98830397D01*
X214900546Y-98788529D01*
X214943171Y-98781100D01*
X215404500Y-98781100D01*
X215472621Y-98801102D01*
X215519114Y-98854758D01*
X215530500Y-98907100D01*
X215530500Y-99343566D01*
X215533308Y-99379255D01*
X215577683Y-99531996D01*
X215658641Y-99668887D01*
X215658646Y-99668894D01*
X215771105Y-99781353D01*
X215771112Y-99781358D01*
X215908003Y-99862316D01*
X215908006Y-99862316D01*
X215908008Y-99862318D01*
X216060742Y-99906691D01*
X216096433Y-99909500D01*
X216973566Y-99909499D01*
X217009258Y-99906691D01*
X217161992Y-99862318D01*
X217161994Y-99862316D01*
X217161996Y-99862316D01*
X217258911Y-99805000D01*
X217298891Y-99781356D01*
X217411356Y-99668891D01*
X217478710Y-99555002D01*
X223496197Y-99555002D01*
X223515340Y-99712659D01*
X223529349Y-99749598D01*
X223723947Y-99555001D01*
X223723947Y-99555000D01*
X223900102Y-99555000D01*
X223919505Y-99652545D01*
X223974760Y-99735240D01*
X224057455Y-99790495D01*
X224130376Y-99805000D01*
X224179624Y-99805000D01*
X224252545Y-99790495D01*
X224335240Y-99735240D01*
X224390495Y-99652545D01*
X224409898Y-99555001D01*
X224586052Y-99555001D01*
X224780649Y-99749598D01*
X224780649Y-99749597D01*
X224794659Y-99712660D01*
X224794660Y-99712656D01*
X224813803Y-99555002D01*
X224813803Y-99554997D01*
X224804414Y-99477672D01*
X225657490Y-99477672D01*
X225772638Y-99506054D01*
X225772647Y-99506056D01*
X225931465Y-99506056D01*
X225931473Y-99506055D01*
X226046619Y-99477672D01*
X226046620Y-99477671D01*
X225852057Y-99283108D01*
X225852056Y-99283108D01*
X225657490Y-99477672D01*
X224804414Y-99477672D01*
X224794660Y-99397344D01*
X224794659Y-99397341D01*
X224780649Y-99360401D01*
X224586052Y-99554999D01*
X224586052Y-99555001D01*
X224409898Y-99555001D01*
X224409898Y-99555000D01*
X224390495Y-99457455D01*
X224335240Y-99374760D01*
X224252545Y-99319505D01*
X224179624Y-99305000D01*
X224130376Y-99305000D01*
X224057455Y-99319505D01*
X223974760Y-99374760D01*
X223919505Y-99457455D01*
X223900102Y-99555000D01*
X223723947Y-99555000D01*
X223723947Y-99554999D01*
X223529348Y-99360400D01*
X223515341Y-99397335D01*
X223515339Y-99397342D01*
X223496197Y-99554997D01*
X223496197Y-99555002D01*
X217478710Y-99555002D01*
X217492316Y-99531996D01*
X217492316Y-99531994D01*
X217492318Y-99531992D01*
X217508099Y-99477672D01*
X222263378Y-99477672D01*
X222378526Y-99506054D01*
X222378535Y-99506056D01*
X222537353Y-99506056D01*
X222537361Y-99506055D01*
X222652507Y-99477672D01*
X222652508Y-99477671D01*
X222457945Y-99283108D01*
X222457944Y-99283108D01*
X222263378Y-99477672D01*
X217508099Y-99477672D01*
X217536691Y-99379258D01*
X217539500Y-99343567D01*
X217539499Y-98852058D01*
X221799141Y-98852058D01*
X221818284Y-99009715D01*
X221832293Y-99046654D01*
X222026891Y-98852056D01*
X222203046Y-98852056D01*
X222222449Y-98949601D01*
X222277704Y-99032296D01*
X222360399Y-99087551D01*
X222433320Y-99102056D01*
X222482568Y-99102056D01*
X222555489Y-99087551D01*
X222638184Y-99032296D01*
X222693439Y-98949601D01*
X222712842Y-98852056D01*
X222712842Y-98852055D01*
X222888994Y-98852055D01*
X223083593Y-99046653D01*
X223097603Y-99009716D01*
X223097604Y-99009712D01*
X223107358Y-98929383D01*
X223960434Y-98929383D01*
X224154999Y-99123948D01*
X224155000Y-99123948D01*
X224349563Y-98929383D01*
X224234411Y-98901000D01*
X224075588Y-98901000D01*
X223960434Y-98929383D01*
X223107358Y-98929383D01*
X223116747Y-98852058D01*
X225193253Y-98852058D01*
X225212396Y-99009715D01*
X225226405Y-99046654D01*
X225421003Y-98852056D01*
X225597158Y-98852056D01*
X225616561Y-98949601D01*
X225671816Y-99032296D01*
X225754511Y-99087551D01*
X225827432Y-99102056D01*
X225876680Y-99102056D01*
X225949601Y-99087551D01*
X226032296Y-99032296D01*
X226087551Y-98949601D01*
X226106954Y-98852057D01*
X226283108Y-98852057D01*
X226477705Y-99046654D01*
X226477705Y-99046653D01*
X226491715Y-99009716D01*
X226491716Y-99009712D01*
X226510859Y-98852058D01*
X226510859Y-98852053D01*
X226491716Y-98694400D01*
X226491715Y-98694397D01*
X226477705Y-98657457D01*
X226283108Y-98852055D01*
X226283108Y-98852057D01*
X226106954Y-98852057D01*
X226106954Y-98852056D01*
X226087551Y-98754511D01*
X226032296Y-98671816D01*
X225949601Y-98616561D01*
X225876680Y-98602056D01*
X225827432Y-98602056D01*
X225754511Y-98616561D01*
X225671816Y-98671816D01*
X225616561Y-98754511D01*
X225597158Y-98852056D01*
X225421003Y-98852056D01*
X225421004Y-98852055D01*
X225226405Y-98657456D01*
X225226404Y-98657456D01*
X225212397Y-98694391D01*
X225212395Y-98694398D01*
X225193253Y-98852053D01*
X225193253Y-98852058D01*
X223116747Y-98852058D01*
X223116747Y-98852053D01*
X223097604Y-98694400D01*
X223097602Y-98694393D01*
X223083594Y-98657457D01*
X223083592Y-98657457D01*
X222888994Y-98852055D01*
X222712842Y-98852055D01*
X222693439Y-98754511D01*
X222638184Y-98671816D01*
X222555489Y-98616561D01*
X222482568Y-98602056D01*
X222433320Y-98602056D01*
X222360399Y-98616561D01*
X222277704Y-98671816D01*
X222222449Y-98754511D01*
X222203046Y-98852056D01*
X222026891Y-98852056D01*
X222026892Y-98852055D01*
X221832293Y-98657456D01*
X221832292Y-98657456D01*
X221818285Y-98694391D01*
X221818283Y-98694398D01*
X221799141Y-98852053D01*
X221799141Y-98852058D01*
X217539499Y-98852058D01*
X217539499Y-98466434D01*
X217536691Y-98430742D01*
X217492318Y-98278008D01*
X217492316Y-98278006D01*
X217492316Y-98278003D01*
X217461821Y-98226439D01*
X222263378Y-98226439D01*
X222457943Y-98421004D01*
X222457944Y-98421004D01*
X222652507Y-98226439D01*
X225657490Y-98226439D01*
X225852056Y-98421003D01*
X225852057Y-98421003D01*
X226046620Y-98226439D01*
X225931467Y-98198056D01*
X225772644Y-98198056D01*
X225657490Y-98226439D01*
X222652507Y-98226439D01*
X222537355Y-98198056D01*
X222378532Y-98198056D01*
X222263378Y-98226439D01*
X217461821Y-98226439D01*
X217411358Y-98141112D01*
X217411353Y-98141105D01*
X217298894Y-98028646D01*
X217298887Y-98028641D01*
X217161996Y-97947683D01*
X217009256Y-97903308D01*
X216973575Y-97900500D01*
X216096433Y-97900500D01*
X216060744Y-97903308D01*
X215908003Y-97947683D01*
X215771112Y-98028641D01*
X215771105Y-98028646D01*
X215767757Y-98031995D01*
X215705445Y-98066021D01*
X215678662Y-98068900D01*
X215125500Y-98068900D01*
X215057379Y-98048898D01*
X215010886Y-97995242D01*
X214999500Y-97942900D01*
X214999500Y-97780616D01*
X221560434Y-97780616D01*
X221675582Y-97808998D01*
X221675591Y-97809000D01*
X221834409Y-97809000D01*
X221834417Y-97808999D01*
X221949563Y-97780616D01*
X226360434Y-97780616D01*
X226475582Y-97808998D01*
X226475591Y-97809000D01*
X226634409Y-97809000D01*
X226634417Y-97808999D01*
X226749563Y-97780616D01*
X226749564Y-97780615D01*
X226555001Y-97586052D01*
X226555000Y-97586052D01*
X226360434Y-97780616D01*
X221949563Y-97780616D01*
X221949564Y-97780615D01*
X221755001Y-97586052D01*
X221755000Y-97586052D01*
X221560434Y-97780616D01*
X214999500Y-97780616D01*
X214999500Y-97742027D01*
X214999500Y-97742020D01*
X214984584Y-97628720D01*
X214926192Y-97487750D01*
X214833304Y-97366696D01*
X214712250Y-97273808D01*
X214706455Y-97271407D01*
X214651176Y-97226861D01*
X214628755Y-97159497D01*
X214629902Y-97155002D01*
X221096197Y-97155002D01*
X221115340Y-97312659D01*
X221129349Y-97349598D01*
X221323947Y-97155000D01*
X221500102Y-97155000D01*
X221519505Y-97252545D01*
X221574760Y-97335240D01*
X221657455Y-97390495D01*
X221730376Y-97405000D01*
X221779624Y-97405000D01*
X221852545Y-97390495D01*
X221935240Y-97335240D01*
X221990495Y-97252545D01*
X222009898Y-97155001D01*
X222186052Y-97155001D01*
X222380649Y-97349598D01*
X222380649Y-97349597D01*
X222394659Y-97312660D01*
X222394660Y-97312656D01*
X222413803Y-97155002D01*
X225896197Y-97155002D01*
X225915340Y-97312659D01*
X225929349Y-97349598D01*
X226123947Y-97155000D01*
X226300102Y-97155000D01*
X226319505Y-97252545D01*
X226374760Y-97335240D01*
X226457455Y-97390495D01*
X226530376Y-97405000D01*
X226579624Y-97405000D01*
X226652545Y-97390495D01*
X226735240Y-97335240D01*
X226790495Y-97252545D01*
X226809898Y-97155001D01*
X226986052Y-97155001D01*
X227180649Y-97349598D01*
X227180649Y-97349597D01*
X227194659Y-97312660D01*
X227194660Y-97312656D01*
X227213803Y-97155002D01*
X227213803Y-97154997D01*
X227194660Y-96997344D01*
X227194659Y-96997341D01*
X227180649Y-96960401D01*
X226986052Y-97154999D01*
X226986052Y-97155001D01*
X226809898Y-97155001D01*
X226809898Y-97155000D01*
X226790495Y-97057455D01*
X226735240Y-96974760D01*
X226652545Y-96919505D01*
X226579624Y-96905000D01*
X226530376Y-96905000D01*
X226457455Y-96919505D01*
X226374760Y-96974760D01*
X226319505Y-97057455D01*
X226300102Y-97155000D01*
X226123947Y-97155000D01*
X226123948Y-97154999D01*
X225929349Y-96960400D01*
X225929348Y-96960400D01*
X225915341Y-96997335D01*
X225915339Y-96997342D01*
X225896197Y-97154997D01*
X225896197Y-97155002D01*
X222413803Y-97155002D01*
X222413803Y-97154997D01*
X222394660Y-96997344D01*
X222394659Y-96997341D01*
X222380649Y-96960401D01*
X222186052Y-97154999D01*
X222186052Y-97155001D01*
X222009898Y-97155001D01*
X222009898Y-97155000D01*
X221990495Y-97057455D01*
X221935240Y-96974760D01*
X221852545Y-96919505D01*
X221779624Y-96905000D01*
X221730376Y-96905000D01*
X221657455Y-96919505D01*
X221574760Y-96974760D01*
X221519505Y-97057455D01*
X221500102Y-97155000D01*
X221323947Y-97155000D01*
X221323948Y-97154999D01*
X221129349Y-96960400D01*
X221129348Y-96960400D01*
X221115341Y-96997335D01*
X221115339Y-96997342D01*
X221096197Y-97154997D01*
X221096197Y-97155002D01*
X214629902Y-97155002D01*
X214646313Y-97090706D01*
X214698275Y-97042328D01*
X214706444Y-97038596D01*
X214712250Y-97036192D01*
X214833304Y-96943304D01*
X214926192Y-96822250D01*
X214984584Y-96681280D01*
X214999500Y-96567980D01*
X214999500Y-96529383D01*
X221560434Y-96529383D01*
X221754999Y-96723948D01*
X221755000Y-96723948D01*
X221949563Y-96529383D01*
X226360434Y-96529383D01*
X226554999Y-96723948D01*
X226555000Y-96723948D01*
X226749563Y-96529383D01*
X226634411Y-96501000D01*
X226475588Y-96501000D01*
X226360434Y-96529383D01*
X221949563Y-96529383D01*
X221834411Y-96501000D01*
X221675588Y-96501000D01*
X221560434Y-96529383D01*
X214999500Y-96529383D01*
X214999500Y-96384589D01*
X215986461Y-96384589D01*
X216060822Y-96406193D01*
X216096476Y-96408999D01*
X216973513Y-96408999D01*
X217009177Y-96406193D01*
X217083536Y-96384589D01*
X216782508Y-96083560D01*
X222263378Y-96083560D01*
X222378526Y-96111942D01*
X222378535Y-96111944D01*
X222537353Y-96111944D01*
X222537361Y-96111943D01*
X222652507Y-96083560D01*
X225657490Y-96083560D01*
X225772638Y-96111942D01*
X225772647Y-96111944D01*
X225931465Y-96111944D01*
X225931473Y-96111943D01*
X226046619Y-96083560D01*
X226046620Y-96083559D01*
X225852057Y-95888996D01*
X225852056Y-95888996D01*
X225657490Y-96083560D01*
X222652507Y-96083560D01*
X222652508Y-96083559D01*
X222457945Y-95888996D01*
X222457944Y-95888996D01*
X222263378Y-96083560D01*
X216782508Y-96083560D01*
X216535000Y-95836052D01*
X216534999Y-95836052D01*
X215986461Y-96384589D01*
X214999500Y-96384589D01*
X214999500Y-95843513D01*
X215531000Y-95843513D01*
X215533807Y-95879179D01*
X215533808Y-95879185D01*
X215555408Y-95953537D01*
X216103947Y-95404999D01*
X216966052Y-95404999D01*
X217514589Y-95953536D01*
X217536191Y-95879184D01*
X217536193Y-95879172D01*
X217538999Y-95843523D01*
X217538999Y-95457946D01*
X221799141Y-95457946D01*
X221818284Y-95615603D01*
X221832293Y-95652542D01*
X222026892Y-95457944D01*
X222203046Y-95457944D01*
X222222449Y-95555489D01*
X222277704Y-95638184D01*
X222360399Y-95693439D01*
X222433320Y-95707944D01*
X222482568Y-95707944D01*
X222555489Y-95693439D01*
X222638184Y-95638184D01*
X222693439Y-95555489D01*
X222712842Y-95457944D01*
X222712842Y-95457943D01*
X222888996Y-95457943D01*
X223083593Y-95652540D01*
X223097603Y-95615604D01*
X223097604Y-95615600D01*
X223116747Y-95457946D01*
X225193253Y-95457946D01*
X225212396Y-95615603D01*
X225226405Y-95652542D01*
X225421003Y-95457944D01*
X225597158Y-95457944D01*
X225616561Y-95555489D01*
X225671816Y-95638184D01*
X225754511Y-95693439D01*
X225827432Y-95707944D01*
X225876680Y-95707944D01*
X225949601Y-95693439D01*
X226032296Y-95638184D01*
X226087551Y-95555489D01*
X226106954Y-95457944D01*
X226283107Y-95457944D01*
X226477705Y-95652542D01*
X226477705Y-95652541D01*
X226491715Y-95615604D01*
X226491716Y-95615600D01*
X226510859Y-95457946D01*
X226510859Y-95457941D01*
X226491716Y-95300288D01*
X226491714Y-95300281D01*
X226477706Y-95263345D01*
X226477705Y-95263345D01*
X226283107Y-95457943D01*
X226283107Y-95457944D01*
X226106954Y-95457944D01*
X226087551Y-95360399D01*
X226032296Y-95277704D01*
X225949601Y-95222449D01*
X225876680Y-95207944D01*
X225827432Y-95207944D01*
X225754511Y-95222449D01*
X225671816Y-95277704D01*
X225616561Y-95360399D01*
X225597158Y-95457944D01*
X225421003Y-95457944D01*
X225421004Y-95457943D01*
X225226405Y-95263344D01*
X225226404Y-95263344D01*
X225212397Y-95300279D01*
X225212395Y-95300286D01*
X225193253Y-95457941D01*
X225193253Y-95457946D01*
X223116747Y-95457946D01*
X223116747Y-95457941D01*
X223107358Y-95380616D01*
X223960434Y-95380616D01*
X224075582Y-95408998D01*
X224075591Y-95409000D01*
X224234409Y-95409000D01*
X224234417Y-95408999D01*
X224349563Y-95380616D01*
X224349564Y-95380615D01*
X224155001Y-95186052D01*
X224155000Y-95186052D01*
X223960434Y-95380616D01*
X223107358Y-95380616D01*
X223097604Y-95300288D01*
X223097602Y-95300281D01*
X223083594Y-95263345D01*
X223083592Y-95263345D01*
X222888996Y-95457941D01*
X222888996Y-95457943D01*
X222712842Y-95457943D01*
X222693439Y-95360399D01*
X222638184Y-95277704D01*
X222555489Y-95222449D01*
X222482568Y-95207944D01*
X222433320Y-95207944D01*
X222360399Y-95222449D01*
X222277704Y-95277704D01*
X222222449Y-95360399D01*
X222203046Y-95457944D01*
X222026892Y-95457944D01*
X222026892Y-95457943D01*
X221832292Y-95263344D01*
X221818285Y-95300279D01*
X221818283Y-95300286D01*
X221799141Y-95457941D01*
X221799141Y-95457946D01*
X217538999Y-95457946D01*
X217538999Y-94966486D01*
X217536193Y-94930824D01*
X217536192Y-94930820D01*
X217514589Y-94856461D01*
X216966052Y-95404999D01*
X216103947Y-95404999D01*
X215555409Y-94856461D01*
X215533807Y-94930821D01*
X215533806Y-94930826D01*
X215531000Y-94966476D01*
X215531000Y-95843513D01*
X214999500Y-95843513D01*
X214999500Y-95842020D01*
X214984584Y-95728720D01*
X214926192Y-95587750D01*
X214833304Y-95466696D01*
X214712250Y-95373808D01*
X214571280Y-95315416D01*
X214571278Y-95315415D01*
X214457982Y-95300500D01*
X214457980Y-95300500D01*
X213532020Y-95300500D01*
X213532017Y-95300500D01*
X213418721Y-95315415D01*
X213277751Y-95373807D01*
X213277748Y-95373809D01*
X213156696Y-95466696D01*
X213063809Y-95587748D01*
X213063807Y-95587751D01*
X213005415Y-95728721D01*
X212990500Y-95842017D01*
X212990500Y-95942900D01*
X212970498Y-96011021D01*
X212916842Y-96057514D01*
X212864500Y-96068900D01*
X206510410Y-96068900D01*
X206442289Y-96048898D01*
X206417201Y-96025940D01*
X206416873Y-96026269D01*
X206354699Y-95964095D01*
X206320673Y-95901783D01*
X206325738Y-95830968D01*
X206354699Y-95785905D01*
X206411264Y-95729339D01*
X206411267Y-95729336D01*
X206462744Y-95642294D01*
X206495443Y-95587003D01*
X206495443Y-95587001D01*
X206495445Y-95586999D01*
X206541580Y-95428200D01*
X206544499Y-95391105D01*
X206544500Y-95391105D01*
X206544500Y-95258894D01*
X206544499Y-95258893D01*
X206541580Y-95221801D01*
X206499985Y-95078629D01*
X206495445Y-95063001D01*
X206495443Y-95062999D01*
X206495443Y-95062996D01*
X206411269Y-94920667D01*
X206411264Y-94920660D01*
X206354699Y-94864095D01*
X206320673Y-94801783D01*
X206325738Y-94730968D01*
X206354699Y-94685905D01*
X206411264Y-94629339D01*
X206411267Y-94629336D01*
X206462744Y-94542294D01*
X206495443Y-94487003D01*
X206495443Y-94487001D01*
X206495445Y-94486999D01*
X206541580Y-94328200D01*
X206544499Y-94291105D01*
X206544500Y-94291105D01*
X206544500Y-94158894D01*
X206544499Y-94158893D01*
X206541580Y-94121801D01*
X206541580Y-94121800D01*
X206495445Y-93963001D01*
X206495443Y-93962999D01*
X206495443Y-93962996D01*
X206411269Y-93820667D01*
X206411264Y-93820660D01*
X206354699Y-93764095D01*
X206320673Y-93701783D01*
X206325738Y-93630968D01*
X206354699Y-93585905D01*
X206411264Y-93529339D01*
X206411267Y-93529336D01*
X206495445Y-93386999D01*
X206520504Y-93300744D01*
X206558716Y-93240911D01*
X206623212Y-93211233D01*
X206693514Y-93221136D01*
X206747303Y-93267475D01*
X206767499Y-93335539D01*
X206767500Y-93335899D01*
X206767500Y-93387982D01*
X206782415Y-93501278D01*
X206836943Y-93632918D01*
X206840808Y-93642250D01*
X206933696Y-93763304D01*
X207054750Y-93856192D01*
X207195720Y-93914584D01*
X207255546Y-93922460D01*
X207320472Y-93951180D01*
X207359564Y-94010444D01*
X207365100Y-94047381D01*
X207365100Y-94268404D01*
X207346686Y-94331116D01*
X207346967Y-94331245D01*
X207346075Y-94333196D01*
X207345099Y-94336523D01*
X207343224Y-94339439D01*
X207282958Y-94471403D01*
X207270162Y-94560400D01*
X207262312Y-94615000D01*
X207282958Y-94758596D01*
X207343223Y-94890558D01*
X207438225Y-95000196D01*
X207560268Y-95078629D01*
X207699464Y-95119500D01*
X207844536Y-95119500D01*
X207983732Y-95078629D01*
X208105775Y-95000196D01*
X208200777Y-94890558D01*
X208261042Y-94758596D01*
X208281688Y-94615000D01*
X208261042Y-94471404D01*
X208240037Y-94425409D01*
X215986461Y-94425409D01*
X216534999Y-94973947D01*
X216535000Y-94973947D01*
X216676619Y-94832327D01*
X222263378Y-94832327D01*
X222457944Y-95026891D01*
X222457945Y-95026891D01*
X222652508Y-94832327D01*
X222537355Y-94803944D01*
X222378532Y-94803944D01*
X222263378Y-94832327D01*
X216676619Y-94832327D01*
X216753944Y-94755002D01*
X223496197Y-94755002D01*
X223515340Y-94912659D01*
X223529349Y-94949597D01*
X223529349Y-94949598D01*
X223723946Y-94755000D01*
X223900102Y-94755000D01*
X223919505Y-94852545D01*
X223974760Y-94935240D01*
X224057455Y-94990495D01*
X224130376Y-95005000D01*
X224179624Y-95005000D01*
X224252545Y-94990495D01*
X224335240Y-94935240D01*
X224390495Y-94852545D01*
X224409898Y-94755001D01*
X224586052Y-94755001D01*
X224780649Y-94949598D01*
X224780649Y-94949597D01*
X224794659Y-94912660D01*
X224794660Y-94912656D01*
X224804414Y-94832327D01*
X225657490Y-94832327D01*
X225852055Y-95026892D01*
X225852056Y-95026892D01*
X226046619Y-94832327D01*
X225931467Y-94803944D01*
X225772644Y-94803944D01*
X225657490Y-94832327D01*
X224804414Y-94832327D01*
X224813803Y-94755002D01*
X224813803Y-94754997D01*
X224794660Y-94597344D01*
X224794659Y-94597341D01*
X224780649Y-94560401D01*
X224586052Y-94754999D01*
X224586052Y-94755001D01*
X224409898Y-94755001D01*
X224409898Y-94755000D01*
X224390495Y-94657455D01*
X224335240Y-94574760D01*
X224252545Y-94519505D01*
X224179624Y-94505000D01*
X224130376Y-94505000D01*
X224057455Y-94519505D01*
X223974760Y-94574760D01*
X223919505Y-94657455D01*
X223900102Y-94755000D01*
X223723946Y-94755000D01*
X223723947Y-94754999D01*
X223723947Y-94754998D01*
X223529349Y-94560400D01*
X223529348Y-94560400D01*
X223515341Y-94597335D01*
X223515339Y-94597342D01*
X223496197Y-94754997D01*
X223496197Y-94755002D01*
X216753944Y-94755002D01*
X217083537Y-94425408D01*
X217009183Y-94403807D01*
X217009177Y-94403806D01*
X216973523Y-94401000D01*
X216096486Y-94401000D01*
X216060822Y-94403806D01*
X216060820Y-94403807D01*
X215986461Y-94425409D01*
X208240037Y-94425409D01*
X208200777Y-94339442D01*
X208200775Y-94339440D01*
X208200775Y-94339439D01*
X208198901Y-94336523D01*
X208197924Y-94333196D01*
X208197033Y-94331245D01*
X208197313Y-94331116D01*
X208178900Y-94268404D01*
X208178900Y-94129383D01*
X223960434Y-94129383D01*
X224154999Y-94323948D01*
X224155000Y-94323948D01*
X224349563Y-94129383D01*
X224234411Y-94101000D01*
X224075588Y-94101000D01*
X223960434Y-94129383D01*
X208178900Y-94129383D01*
X208178900Y-94047381D01*
X208198902Y-93979260D01*
X208252558Y-93932767D01*
X208288450Y-93922460D01*
X208348280Y-93914584D01*
X208489250Y-93856192D01*
X208610304Y-93763304D01*
X208703192Y-93642250D01*
X208761584Y-93501280D01*
X208776500Y-93387980D01*
X208776500Y-93387948D01*
X209308000Y-93387948D01*
X209308001Y-93387956D01*
X209322903Y-93501147D01*
X209322903Y-93501148D01*
X209381244Y-93641996D01*
X209381249Y-93642004D01*
X209474051Y-93762948D01*
X209594995Y-93855750D01*
X209595003Y-93855755D01*
X209735852Y-93914097D01*
X209849053Y-93928999D01*
X210007200Y-93928999D01*
X210007200Y-93329800D01*
X210616800Y-93329800D01*
X210616800Y-93928999D01*
X210774948Y-93928999D01*
X210774956Y-93928998D01*
X210888147Y-93914096D01*
X210888148Y-93914096D01*
X211028996Y-93855755D01*
X211029004Y-93855750D01*
X211149948Y-93762948D01*
X211242750Y-93642004D01*
X211242755Y-93641996D01*
X211301097Y-93501147D01*
X211315999Y-93387951D01*
X211316000Y-93387941D01*
X211316000Y-93329800D01*
X210616800Y-93329800D01*
X210007200Y-93329800D01*
X209308001Y-93329800D01*
X209308000Y-93387948D01*
X208776500Y-93387948D01*
X208776500Y-92662020D01*
X208761584Y-92548720D01*
X208703192Y-92407750D01*
X208610304Y-92286696D01*
X208489250Y-92193808D01*
X208483455Y-92191407D01*
X208428176Y-92146861D01*
X208405755Y-92079497D01*
X208423313Y-92010706D01*
X208475275Y-91962328D01*
X208483444Y-91958596D01*
X208489250Y-91956192D01*
X208610304Y-91863304D01*
X208703192Y-91742250D01*
X208758104Y-91609680D01*
X208802651Y-91554401D01*
X208870015Y-91531980D01*
X208874512Y-91531900D01*
X209209488Y-91531900D01*
X209277609Y-91551902D01*
X209324102Y-91605558D01*
X209325881Y-91609645D01*
X209380808Y-91742250D01*
X209473696Y-91863304D01*
X209594750Y-91956192D01*
X209601195Y-91958861D01*
X209656475Y-92003406D01*
X209678898Y-92070769D01*
X209661342Y-92139561D01*
X209609381Y-92187941D01*
X209601203Y-92191676D01*
X209595007Y-92194242D01*
X209594995Y-92194249D01*
X209474051Y-92287051D01*
X209381249Y-92407995D01*
X209381244Y-92408003D01*
X209322902Y-92548852D01*
X209308000Y-92662048D01*
X209308000Y-92720200D01*
X211315999Y-92720200D01*
X211315999Y-92662051D01*
X211315998Y-92662043D01*
X211301096Y-92548852D01*
X211301096Y-92548851D01*
X211242755Y-92408003D01*
X211242750Y-92407995D01*
X211149948Y-92287051D01*
X211029004Y-92194249D01*
X211028992Y-92194242D01*
X211022799Y-92191677D01*
X210967520Y-92147127D01*
X210945101Y-92079763D01*
X210962661Y-92010973D01*
X211014625Y-91962596D01*
X211022786Y-91958869D01*
X211029250Y-91956192D01*
X211150304Y-91863304D01*
X211243192Y-91742250D01*
X211301584Y-91601280D01*
X211316500Y-91487980D01*
X211316500Y-90762020D01*
X211301584Y-90648720D01*
X211243192Y-90507750D01*
X211150304Y-90386696D01*
X211029250Y-90293808D01*
X210888280Y-90235416D01*
X210888278Y-90235415D01*
X210774982Y-90220500D01*
X210774980Y-90220500D01*
X209849020Y-90220500D01*
X209849017Y-90220500D01*
X209735721Y-90235415D01*
X209594751Y-90293807D01*
X209594748Y-90293809D01*
X209473696Y-90386696D01*
X209380809Y-90507748D01*
X209380807Y-90507751D01*
X209364142Y-90547984D01*
X209325895Y-90640319D01*
X209281349Y-90695599D01*
X209213985Y-90718020D01*
X209209488Y-90718100D01*
X208874512Y-90718100D01*
X208806391Y-90698098D01*
X208759898Y-90644442D01*
X208758118Y-90640354D01*
X208703192Y-90507750D01*
X208610304Y-90386696D01*
X208489250Y-90293808D01*
X208348280Y-90235416D01*
X208348278Y-90235415D01*
X208296950Y-90228658D01*
X208288453Y-90227539D01*
X208223527Y-90198818D01*
X208184435Y-90139553D01*
X208178900Y-90102618D01*
X208178900Y-89140409D01*
X208198902Y-89072288D01*
X208252558Y-89025795D01*
X208288450Y-89015488D01*
X208348280Y-89007612D01*
X208489250Y-88949220D01*
X208610304Y-88856332D01*
X208703192Y-88735278D01*
X208707450Y-88724999D01*
X211101019Y-88724999D01*
X211120905Y-88952299D01*
X211179959Y-89172696D01*
X211179961Y-89172700D01*
X211276390Y-89379492D01*
X211296183Y-89407761D01*
X211670401Y-89033543D01*
X211684664Y-89074303D01*
X211780577Y-89226948D01*
X211908052Y-89354423D01*
X212060697Y-89450336D01*
X212101453Y-89464597D01*
X211727236Y-89838814D01*
X211755508Y-89858610D01*
X211962298Y-89955038D01*
X211962303Y-89955040D01*
X212182700Y-90014094D01*
X212410000Y-90033980D01*
X212637299Y-90014094D01*
X212857696Y-89955040D01*
X212857701Y-89955038D01*
X213064490Y-89858611D01*
X213092761Y-89838815D01*
X213092761Y-89838814D01*
X212718545Y-89464597D01*
X212759303Y-89450336D01*
X212911948Y-89354423D01*
X213039423Y-89226948D01*
X213135336Y-89074303D01*
X213149597Y-89033544D01*
X213523814Y-89407761D01*
X213523815Y-89407761D01*
X213543611Y-89379490D01*
X213640038Y-89172701D01*
X213640040Y-89172696D01*
X213699094Y-88952299D01*
X213718980Y-88724999D01*
X216101019Y-88724999D01*
X216120905Y-88952299D01*
X216179959Y-89172696D01*
X216179961Y-89172700D01*
X216276390Y-89379492D01*
X216296183Y-89407761D01*
X216670401Y-89033543D01*
X216684664Y-89074303D01*
X216780577Y-89226948D01*
X216908052Y-89354423D01*
X217060697Y-89450336D01*
X217101453Y-89464597D01*
X216727236Y-89838814D01*
X216755508Y-89858610D01*
X216962298Y-89955038D01*
X216962303Y-89955040D01*
X217182700Y-90014094D01*
X217410000Y-90033980D01*
X217637299Y-90014094D01*
X217857696Y-89955040D01*
X217857701Y-89955038D01*
X218064490Y-89858611D01*
X218092761Y-89838815D01*
X218092761Y-89838814D01*
X217718545Y-89464597D01*
X217759303Y-89450336D01*
X217911948Y-89354423D01*
X218039423Y-89226948D01*
X218135336Y-89074303D01*
X218149597Y-89033544D01*
X218523814Y-89407761D01*
X218523815Y-89407761D01*
X218543611Y-89379490D01*
X218640038Y-89172701D01*
X218640040Y-89172696D01*
X218699094Y-88952299D01*
X218718980Y-88724999D01*
X218699094Y-88497700D01*
X218640040Y-88277303D01*
X218640038Y-88277299D01*
X218543610Y-88070508D01*
X218543607Y-88070503D01*
X218523815Y-88042238D01*
X218523812Y-88042238D01*
X218149597Y-88416453D01*
X218135336Y-88375697D01*
X218039423Y-88223052D01*
X217911948Y-88095577D01*
X217759303Y-87999664D01*
X217718544Y-87985402D01*
X218092762Y-87611184D01*
X218064492Y-87591390D01*
X217857700Y-87494961D01*
X217857696Y-87494959D01*
X217637299Y-87435905D01*
X217409999Y-87416019D01*
X217182700Y-87435905D01*
X216962303Y-87494959D01*
X216962299Y-87494961D01*
X216755509Y-87591389D01*
X216727238Y-87611185D01*
X217101454Y-87985402D01*
X217060697Y-87999664D01*
X216908052Y-88095577D01*
X216780577Y-88223052D01*
X216684664Y-88375697D01*
X216670402Y-88416454D01*
X216296185Y-88042237D01*
X216276389Y-88070509D01*
X216179961Y-88277299D01*
X216179959Y-88277303D01*
X216120905Y-88497700D01*
X216101019Y-88724999D01*
X213718980Y-88724999D01*
X213699094Y-88497700D01*
X213640040Y-88277303D01*
X213640038Y-88277299D01*
X213543610Y-88070508D01*
X213543607Y-88070503D01*
X213523815Y-88042238D01*
X213523812Y-88042238D01*
X213149597Y-88416453D01*
X213135336Y-88375697D01*
X213039423Y-88223052D01*
X212911948Y-88095577D01*
X212759303Y-87999664D01*
X212718544Y-87985402D01*
X213092762Y-87611184D01*
X213064492Y-87591390D01*
X212857700Y-87494961D01*
X212857696Y-87494959D01*
X212637299Y-87435905D01*
X212409999Y-87416019D01*
X212182700Y-87435905D01*
X211962303Y-87494959D01*
X211962299Y-87494961D01*
X211755509Y-87591389D01*
X211727237Y-87611185D01*
X212101454Y-87985402D01*
X212060697Y-87999664D01*
X211908052Y-88095577D01*
X211780577Y-88223052D01*
X211684664Y-88375697D01*
X211670402Y-88416454D01*
X211296185Y-88042237D01*
X211276389Y-88070509D01*
X211179961Y-88277299D01*
X211179959Y-88277303D01*
X211120905Y-88497700D01*
X211101019Y-88724999D01*
X208707450Y-88724999D01*
X208761584Y-88594308D01*
X208776500Y-88481008D01*
X208776500Y-87755048D01*
X208761584Y-87641748D01*
X208703192Y-87500778D01*
X208610304Y-87379724D01*
X208489250Y-87286836D01*
X208483455Y-87284435D01*
X208428176Y-87239889D01*
X208405755Y-87172525D01*
X208423313Y-87103734D01*
X208475275Y-87055356D01*
X208483444Y-87051624D01*
X208489250Y-87049220D01*
X208610304Y-86956332D01*
X208703192Y-86835278D01*
X208761584Y-86694308D01*
X208776500Y-86581008D01*
X208776500Y-86262472D01*
X208796502Y-86194351D01*
X208850158Y-86147858D01*
X208902500Y-86136472D01*
X216329500Y-86136472D01*
X216397621Y-86156474D01*
X216444114Y-86210130D01*
X216455500Y-86262471D01*
X216455500Y-86285856D01*
X216470093Y-86415373D01*
X216506774Y-86520200D01*
X216527551Y-86579578D01*
X216527552Y-86579580D01*
X216620106Y-86726879D01*
X216620108Y-86726882D01*
X216743117Y-86849891D01*
X216743120Y-86849893D01*
X216890422Y-86942449D01*
X217054627Y-86999907D01*
X217184144Y-87014500D01*
X218935856Y-87014500D01*
X219065373Y-86999907D01*
X219229578Y-86942449D01*
X219229577Y-86942449D01*
X219236257Y-86940112D01*
X219236745Y-86941507D01*
X219298871Y-86931271D01*
X219364043Y-86959434D01*
X219403643Y-87018361D01*
X219409500Y-87056330D01*
X219409500Y-90640116D01*
X219446291Y-90943111D01*
X219446292Y-90943117D01*
X219519336Y-91239471D01*
X219627570Y-91524860D01*
X219627577Y-91524876D01*
X219769416Y-91795126D01*
X219769420Y-91795133D01*
X219942808Y-92046328D01*
X219942814Y-92046336D01*
X220145208Y-92274791D01*
X220373663Y-92477185D01*
X220373671Y-92477191D01*
X220373673Y-92477192D01*
X220373675Y-92477194D01*
X220386295Y-92485905D01*
X220624866Y-92650579D01*
X220624873Y-92650583D01*
X220895123Y-92792422D01*
X220895132Y-92792426D01*
X220895136Y-92792428D01*
X221180528Y-92900663D01*
X221476885Y-92973708D01*
X221779887Y-93010500D01*
X221876327Y-93010500D01*
X224107405Y-93010500D01*
X224153534Y-93010500D01*
X224156444Y-93010567D01*
X224534495Y-93028046D01*
X224540292Y-93028583D01*
X224652753Y-93044270D01*
X224913688Y-93080668D01*
X224919366Y-93081730D01*
X225286373Y-93168050D01*
X225291958Y-93169640D01*
X225403403Y-93206992D01*
X225649413Y-93289446D01*
X225654817Y-93291539D01*
X225999711Y-93443825D01*
X226004890Y-93446403D01*
X226334254Y-93629858D01*
X226339191Y-93632914D01*
X226650232Y-93845983D01*
X226654851Y-93849471D01*
X226771014Y-93945932D01*
X226944896Y-94090322D01*
X226949187Y-94094233D01*
X227215765Y-94360811D01*
X227219677Y-94365103D01*
X227366303Y-94541677D01*
X227460525Y-94655145D01*
X227464019Y-94659771D01*
X227652720Y-94935240D01*
X227677081Y-94970802D01*
X227680144Y-94975751D01*
X227863591Y-95305101D01*
X227866178Y-95310297D01*
X228017294Y-95652542D01*
X228018454Y-95655168D01*
X228020557Y-95660597D01*
X228140359Y-96018041D01*
X228141953Y-96023640D01*
X228220806Y-96358902D01*
X228228264Y-96390608D01*
X228229334Y-96396331D01*
X228281416Y-96769706D01*
X228281953Y-96775503D01*
X228297127Y-97103724D01*
X228296926Y-97112449D01*
X228295599Y-97126789D01*
X228295599Y-97126792D01*
X228295599Y-97126793D01*
X228298213Y-97155002D01*
X228298667Y-97159907D01*
X228298868Y-97168638D01*
X228281953Y-97534496D01*
X228281416Y-97540293D01*
X228229334Y-97913668D01*
X228228264Y-97919386D01*
X228198423Y-98046267D01*
X228141953Y-98286359D01*
X228140359Y-98291958D01*
X228020557Y-98649402D01*
X228018454Y-98654831D01*
X227866179Y-98999701D01*
X227863586Y-99004907D01*
X227831760Y-99062048D01*
X227680146Y-99334246D01*
X227677081Y-99339197D01*
X227464029Y-99650215D01*
X227460520Y-99654861D01*
X227219677Y-99944896D01*
X227215755Y-99949199D01*
X226949199Y-100215755D01*
X226944896Y-100219677D01*
X226654861Y-100460520D01*
X226650215Y-100464029D01*
X226339197Y-100677081D01*
X226334246Y-100680146D01*
X226145946Y-100785028D01*
X226004907Y-100863586D01*
X225999701Y-100866179D01*
X225654831Y-101018454D01*
X225649402Y-101020557D01*
X225291958Y-101140359D01*
X225286359Y-101141953D01*
X225152231Y-101173500D01*
X224919386Y-101228264D01*
X224913668Y-101229334D01*
X224540292Y-101281416D01*
X224534495Y-101281953D01*
X224156445Y-101299433D01*
X224153534Y-101299500D01*
X187451000Y-101299500D01*
X187382879Y-101279498D01*
X187336386Y-101225842D01*
X187325000Y-101173500D01*
X187325000Y-99787948D01*
X187845000Y-99787948D01*
X187845001Y-99787956D01*
X187859903Y-99901147D01*
X187859903Y-99901148D01*
X187918244Y-100041996D01*
X187918249Y-100042004D01*
X188011051Y-100162948D01*
X188131995Y-100255750D01*
X188132003Y-100255755D01*
X188272852Y-100314097D01*
X188386053Y-100328999D01*
X188544200Y-100328999D01*
X188544200Y-99729800D01*
X187845001Y-99729800D01*
X187845000Y-99787948D01*
X187325000Y-99787948D01*
X187325000Y-95554800D01*
X188074501Y-95554800D01*
X188074501Y-95712956D01*
X188089403Y-95826147D01*
X188089403Y-95826148D01*
X188147744Y-95966996D01*
X188147749Y-95967004D01*
X188240551Y-96087948D01*
X188361495Y-96180750D01*
X188361503Y-96180755D01*
X188502352Y-96239097D01*
X188615547Y-96253999D01*
X188673699Y-96253998D01*
X188673700Y-96253998D01*
X188673700Y-95554800D01*
X188074501Y-95554800D01*
X187325000Y-95554800D01*
X187325000Y-94945200D01*
X188074500Y-94945200D01*
X188673700Y-94945200D01*
X188673700Y-94246000D01*
X188673699Y-94245999D01*
X188615562Y-94246000D01*
X188615547Y-94246001D01*
X188502352Y-94260902D01*
X188502351Y-94260903D01*
X188361503Y-94319244D01*
X188361495Y-94319249D01*
X188240551Y-94412051D01*
X188147749Y-94532995D01*
X188147744Y-94533003D01*
X188089402Y-94673852D01*
X188074500Y-94787048D01*
X188074500Y-94945200D01*
X187325000Y-94945200D01*
X187325000Y-94667189D01*
X187345002Y-94599068D01*
X187361900Y-94578099D01*
X190741995Y-91198004D01*
X190804307Y-91163979D01*
X190831090Y-91161100D01*
X192632289Y-91161100D01*
X192700410Y-91181102D01*
X192746903Y-91234758D01*
X192757007Y-91305032D01*
X192727513Y-91369612D01*
X192667787Y-91407996D01*
X192667647Y-91408036D01*
X192642257Y-91415413D01*
X192627997Y-91419556D01*
X192485667Y-91503730D01*
X192485660Y-91503735D01*
X192368735Y-91620660D01*
X192368730Y-91620667D01*
X192284556Y-91762996D01*
X192238419Y-91921801D01*
X192235500Y-91958893D01*
X192235500Y-92091106D01*
X192238419Y-92128198D01*
X192284556Y-92287003D01*
X192368730Y-92429332D01*
X192368735Y-92429339D01*
X192425301Y-92485905D01*
X192459327Y-92548217D01*
X192454262Y-92619032D01*
X192425301Y-92664095D01*
X192368735Y-92720660D01*
X192368730Y-92720667D01*
X192284556Y-92862996D01*
X192238419Y-93021801D01*
X192235500Y-93058893D01*
X192235500Y-93191106D01*
X192238419Y-93228198D01*
X192284556Y-93387003D01*
X192368730Y-93529332D01*
X192368732Y-93529335D01*
X192368733Y-93529336D01*
X192425302Y-93585905D01*
X192459326Y-93648215D01*
X192454262Y-93719031D01*
X192425302Y-93764094D01*
X192368732Y-93820664D01*
X192368730Y-93820667D01*
X192284556Y-93962996D01*
X192238419Y-94121801D01*
X192235500Y-94158893D01*
X192235500Y-94291106D01*
X192238419Y-94328198D01*
X192284556Y-94487003D01*
X192368730Y-94629332D01*
X192368735Y-94629339D01*
X192425301Y-94685905D01*
X192459327Y-94748217D01*
X192454262Y-94819032D01*
X192425301Y-94864095D01*
X192368735Y-94920660D01*
X192368730Y-94920667D01*
X192284556Y-95062996D01*
X192238419Y-95221801D01*
X192235500Y-95258893D01*
X192235500Y-95391106D01*
X192238419Y-95428198D01*
X192284556Y-95587003D01*
X192368730Y-95729332D01*
X192368735Y-95729339D01*
X192391601Y-95752205D01*
X192425627Y-95814517D01*
X192420562Y-95885332D01*
X192378015Y-95942168D01*
X192311495Y-95966979D01*
X192302506Y-95967300D01*
X192295276Y-95967300D01*
X192227155Y-95947298D01*
X192206181Y-95930395D01*
X191819905Y-95544119D01*
X191785879Y-95481807D01*
X191783000Y-95455024D01*
X191783000Y-94787027D01*
X191783000Y-94787020D01*
X191768084Y-94673720D01*
X191709692Y-94532750D01*
X191618737Y-94414215D01*
X191593137Y-94347994D01*
X191592700Y-94337511D01*
X191592700Y-94219635D01*
X191604086Y-94167293D01*
X191607922Y-94158893D01*
X191624042Y-94123596D01*
X191644688Y-93980000D01*
X191624042Y-93836404D01*
X191563777Y-93704442D01*
X191468775Y-93594804D01*
X191468774Y-93594803D01*
X191366910Y-93529339D01*
X191346732Y-93516371D01*
X191346731Y-93516370D01*
X191346730Y-93516370D01*
X191207536Y-93475500D01*
X191062464Y-93475500D01*
X190923269Y-93516370D01*
X190923266Y-93516372D01*
X190801225Y-93594803D01*
X190706223Y-93704441D01*
X190645958Y-93836403D01*
X190625312Y-93980000D01*
X190642791Y-94101569D01*
X190632686Y-94171843D01*
X190586193Y-94225498D01*
X190519630Y-94245042D01*
X190519643Y-94245230D01*
X190518805Y-94245284D01*
X190518073Y-94245500D01*
X190515517Y-94245500D01*
X190402221Y-94260415D01*
X190261251Y-94318807D01*
X190261248Y-94318809D01*
X190140196Y-94411696D01*
X190047309Y-94532748D01*
X190047305Y-94532755D01*
X190044636Y-94539200D01*
X190000086Y-94594479D01*
X189932722Y-94616898D01*
X189863931Y-94599338D01*
X189815555Y-94547374D01*
X189811820Y-94539195D01*
X189809256Y-94533006D01*
X189809250Y-94532995D01*
X189716448Y-94412051D01*
X189595504Y-94319249D01*
X189595496Y-94319244D01*
X189454647Y-94260902D01*
X189341451Y-94246000D01*
X189283300Y-94246000D01*
X189283300Y-96253999D01*
X189341448Y-96253999D01*
X189341456Y-96253998D01*
X189454647Y-96239096D01*
X189454648Y-96239096D01*
X189595496Y-96180755D01*
X189595504Y-96180750D01*
X189716448Y-96087948D01*
X189809250Y-95967004D01*
X189809255Y-95966996D01*
X189811819Y-95960806D01*
X189856365Y-95905524D01*
X189923728Y-95883101D01*
X189992520Y-95900657D01*
X190040900Y-95952618D01*
X190044637Y-95960802D01*
X190047305Y-95967244D01*
X190047306Y-95967247D01*
X190047308Y-95967250D01*
X190140196Y-96088304D01*
X190261250Y-96181192D01*
X190402220Y-96239584D01*
X190515520Y-96254500D01*
X191183525Y-96254500D01*
X191251646Y-96274502D01*
X191272620Y-96291405D01*
X191386620Y-96405405D01*
X191420646Y-96467717D01*
X191415581Y-96538532D01*
X191373034Y-96595368D01*
X191306514Y-96620179D01*
X191297525Y-96620500D01*
X188386017Y-96620500D01*
X188272721Y-96635415D01*
X188131751Y-96693807D01*
X188131748Y-96693809D01*
X188010696Y-96786696D01*
X187917809Y-96907748D01*
X187917807Y-96907751D01*
X187859415Y-97048721D01*
X187844500Y-97162017D01*
X187844500Y-97887982D01*
X187859415Y-98001278D01*
X187917337Y-98141112D01*
X187917808Y-98142250D01*
X188010696Y-98263304D01*
X188131750Y-98356192D01*
X188138195Y-98358861D01*
X188193475Y-98403406D01*
X188215898Y-98470769D01*
X188198342Y-98539561D01*
X188146381Y-98587941D01*
X188138203Y-98591676D01*
X188132007Y-98594242D01*
X188131995Y-98594249D01*
X188011051Y-98687051D01*
X187918249Y-98807995D01*
X187918244Y-98808003D01*
X187859902Y-98948852D01*
X187845000Y-99062048D01*
X187845000Y-99120200D01*
X189027800Y-99120200D01*
X189095921Y-99140202D01*
X189142414Y-99193858D01*
X189153800Y-99246200D01*
X189153800Y-100328999D01*
X189311948Y-100328999D01*
X189311956Y-100328998D01*
X189425147Y-100314096D01*
X189425148Y-100314096D01*
X189565996Y-100255755D01*
X189566004Y-100255750D01*
X189686948Y-100162948D01*
X189779750Y-100042004D01*
X189779755Y-100041996D01*
X189812091Y-99963931D01*
X189856639Y-99908650D01*
X189924003Y-99886229D01*
X189992794Y-99903787D01*
X190041172Y-99955749D01*
X190044909Y-99963931D01*
X190077244Y-100041996D01*
X190077249Y-100042004D01*
X190170051Y-100162948D01*
X190290995Y-100255750D01*
X190291003Y-100255755D01*
X190431852Y-100314097D01*
X190545053Y-100328999D01*
X190703200Y-100328999D01*
X190703200Y-99729800D01*
X191312800Y-99729800D01*
X191312800Y-100328999D01*
X191470948Y-100328999D01*
X191470956Y-100328998D01*
X191584147Y-100314096D01*
X191584148Y-100314096D01*
X191724996Y-100255755D01*
X191725004Y-100255750D01*
X191822922Y-100180616D01*
X223960434Y-100180616D01*
X224075582Y-100208998D01*
X224075591Y-100209000D01*
X224234409Y-100209000D01*
X224234417Y-100208999D01*
X224349563Y-100180616D01*
X224349564Y-100180615D01*
X224155001Y-99986052D01*
X224155000Y-99986052D01*
X223960434Y-100180616D01*
X191822922Y-100180616D01*
X191845948Y-100162948D01*
X191938750Y-100042004D01*
X191938755Y-100041996D01*
X191997097Y-99901147D01*
X192011999Y-99787951D01*
X192012000Y-99787941D01*
X192012000Y-99729800D01*
X191312800Y-99729800D01*
X190703200Y-99729800D01*
X190703200Y-99246200D01*
X190723202Y-99178079D01*
X190776858Y-99131586D01*
X190829200Y-99120200D01*
X192011999Y-99120200D01*
X192011999Y-99062051D01*
X192011998Y-99062043D01*
X191997096Y-98948852D01*
X191997096Y-98948851D01*
X191989205Y-98929800D01*
X192310450Y-98929800D01*
X192369134Y-99029031D01*
X192485967Y-99145864D01*
X192485974Y-99145870D01*
X192628196Y-99229980D01*
X192786880Y-99276082D01*
X192823946Y-99278999D01*
X193085200Y-99278999D01*
X193085200Y-98929800D01*
X193694800Y-98929800D01*
X193694800Y-99278999D01*
X193956044Y-99278999D01*
X193993119Y-99276082D01*
X194151803Y-99229980D01*
X194294025Y-99145870D01*
X194294032Y-99145864D01*
X194410865Y-99029031D01*
X194469550Y-98929800D01*
X193694800Y-98929800D01*
X193085200Y-98929800D01*
X192310450Y-98929800D01*
X191989205Y-98929800D01*
X191938755Y-98808003D01*
X191938750Y-98807995D01*
X191845948Y-98687051D01*
X191725004Y-98594249D01*
X191724992Y-98594242D01*
X191718799Y-98591677D01*
X191663520Y-98547127D01*
X191641101Y-98479763D01*
X191658661Y-98410973D01*
X191710625Y-98362596D01*
X191718786Y-98358869D01*
X191725250Y-98356192D01*
X191846304Y-98263304D01*
X191939192Y-98142250D01*
X191973062Y-98060480D01*
X192017609Y-98005201D01*
X192084973Y-97982780D01*
X192089470Y-97982700D01*
X192303213Y-97982700D01*
X192371334Y-98002702D01*
X192417827Y-98056358D01*
X192427931Y-98126632D01*
X192398437Y-98191212D01*
X192392308Y-98197795D01*
X192369135Y-98220967D01*
X192369134Y-98220968D01*
X192310450Y-98320200D01*
X194469550Y-98320200D01*
X194410865Y-98220968D01*
X194354345Y-98164448D01*
X194320319Y-98102136D01*
X194325384Y-98031321D01*
X194354343Y-97986259D01*
X194411267Y-97929336D01*
X194495445Y-97786999D01*
X194541580Y-97628200D01*
X194544499Y-97591105D01*
X194544500Y-97591105D01*
X194544500Y-97458894D01*
X194544499Y-97458893D01*
X194541580Y-97421801D01*
X194525571Y-97366696D01*
X194495445Y-97263001D01*
X194495443Y-97262999D01*
X194495443Y-97262996D01*
X194411269Y-97120667D01*
X194411264Y-97120660D01*
X194354699Y-97064095D01*
X194320673Y-97001783D01*
X194325738Y-96930968D01*
X194354699Y-96885905D01*
X194411264Y-96829339D01*
X194411267Y-96829336D01*
X194453356Y-96758167D01*
X194495443Y-96687003D01*
X194495443Y-96687001D01*
X194495445Y-96686999D01*
X194541580Y-96528200D01*
X194544499Y-96491105D01*
X194544500Y-96491105D01*
X194544500Y-96358894D01*
X194544499Y-96358893D01*
X194541580Y-96321801D01*
X194541580Y-96321800D01*
X194495445Y-96163001D01*
X194495443Y-96162999D01*
X194495443Y-96162996D01*
X194411269Y-96020667D01*
X194411264Y-96020660D01*
X194354699Y-95964095D01*
X194320673Y-95901783D01*
X194325738Y-95830968D01*
X194354699Y-95785905D01*
X194416873Y-95723731D01*
X194417913Y-95724771D01*
X194468413Y-95688305D01*
X194510410Y-95681100D01*
X195149000Y-95681100D01*
X195174855Y-95683781D01*
X195184081Y-95685716D01*
X195217233Y-95681583D01*
X195225024Y-95681100D01*
X195228503Y-95681100D01*
X195228508Y-95681100D01*
X195249064Y-95677669D01*
X195251639Y-95677294D01*
X195261114Y-95676112D01*
X195302013Y-95671015D01*
X195302021Y-95671010D01*
X195309178Y-95668880D01*
X195316216Y-95666464D01*
X195316224Y-95666463D01*
X195360900Y-95642284D01*
X195363175Y-95641113D01*
X195408782Y-95618819D01*
X195408786Y-95618814D01*
X195414856Y-95614481D01*
X195420735Y-95609904D01*
X195420746Y-95609899D01*
X195455179Y-95572492D01*
X195456892Y-95570707D01*
X196050445Y-94977154D01*
X196070621Y-94960770D01*
X196078515Y-94955614D01*
X196099038Y-94929243D01*
X196104196Y-94923403D01*
X196106666Y-94920935D01*
X196118777Y-94903972D01*
X196120335Y-94901883D01*
X196149746Y-94864095D01*
X196151511Y-94861828D01*
X196151512Y-94861822D01*
X196155060Y-94855268D01*
X196158336Y-94848567D01*
X196158341Y-94848561D01*
X196172839Y-94799858D01*
X196173606Y-94797462D01*
X196190100Y-94749423D01*
X196190100Y-94749416D01*
X196191333Y-94742027D01*
X196192252Y-94734655D01*
X196190154Y-94683941D01*
X196190100Y-94681337D01*
X196190100Y-92792422D01*
X196190100Y-91720200D01*
X204310450Y-91720200D01*
X205085200Y-91720200D01*
X205085200Y-91371000D01*
X205694800Y-91371000D01*
X205694800Y-91720200D01*
X206469550Y-91720200D01*
X206410865Y-91620968D01*
X206294032Y-91504135D01*
X206294025Y-91504129D01*
X206151803Y-91420019D01*
X205993119Y-91373917D01*
X205956053Y-91371000D01*
X205694800Y-91371000D01*
X205085200Y-91371000D01*
X204823956Y-91371000D01*
X204786880Y-91373917D01*
X204628196Y-91420019D01*
X204485974Y-91504129D01*
X204485967Y-91504135D01*
X204369134Y-91620968D01*
X204310450Y-91720200D01*
X196190100Y-91720200D01*
X196190100Y-90854991D01*
X196192782Y-90829142D01*
X196194716Y-90819920D01*
X196190583Y-90786767D01*
X196190100Y-90778975D01*
X196190100Y-90775492D01*
X196186663Y-90754903D01*
X196186292Y-90752345D01*
X196181808Y-90716374D01*
X196180015Y-90701987D01*
X196180011Y-90701980D01*
X196177875Y-90694803D01*
X196175463Y-90687775D01*
X196154327Y-90648720D01*
X196151299Y-90643126D01*
X196150112Y-90640819D01*
X196127819Y-90595218D01*
X196123470Y-90589128D01*
X196118901Y-90583257D01*
X196118899Y-90583254D01*
X196114620Y-90579315D01*
X196081527Y-90548850D01*
X196079671Y-90547070D01*
X195486158Y-89953557D01*
X195469769Y-89933376D01*
X195464614Y-89925485D01*
X195464611Y-89925482D01*
X195438247Y-89904963D01*
X195432399Y-89899798D01*
X195429935Y-89897334D01*
X195412965Y-89885217D01*
X195410907Y-89883683D01*
X195370828Y-89852489D01*
X195370825Y-89852488D01*
X195370824Y-89852487D01*
X195364237Y-89848922D01*
X195357563Y-89845659D01*
X195308890Y-89831168D01*
X195306412Y-89830374D01*
X195258423Y-89813899D01*
X195251048Y-89812669D01*
X195243656Y-89811747D01*
X195199499Y-89813574D01*
X195192934Y-89813846D01*
X195190338Y-89813900D01*
X194302372Y-89813900D01*
X194234251Y-89793898D01*
X194187758Y-89740242D01*
X194177654Y-89669968D01*
X194207148Y-89605388D01*
X194238233Y-89579447D01*
X194275542Y-89557381D01*
X194294336Y-89546267D01*
X194411267Y-89429336D01*
X194453356Y-89358167D01*
X194495443Y-89287003D01*
X194495443Y-89287001D01*
X194495445Y-89286999D01*
X194541580Y-89128200D01*
X194544499Y-89091105D01*
X194544500Y-89091105D01*
X194544500Y-88958894D01*
X194544499Y-88958893D01*
X194542768Y-88936903D01*
X194541580Y-88921800D01*
X194495445Y-88763001D01*
X194495443Y-88762999D01*
X194495443Y-88762996D01*
X194411269Y-88620667D01*
X194411264Y-88620660D01*
X194354698Y-88564094D01*
X194320672Y-88501782D01*
X194325737Y-88430967D01*
X194354695Y-88385907D01*
X194411267Y-88329336D01*
X194474123Y-88223052D01*
X194495443Y-88187003D01*
X194495443Y-88187001D01*
X194495445Y-88186999D01*
X194541580Y-88028200D01*
X194544499Y-87991105D01*
X194544500Y-87991105D01*
X194544500Y-87858894D01*
X194544499Y-87858893D01*
X194541580Y-87821801D01*
X194529844Y-87781404D01*
X194495445Y-87663001D01*
X194495443Y-87662997D01*
X194495443Y-87662996D01*
X194411269Y-87520667D01*
X194411264Y-87520660D01*
X194354699Y-87464095D01*
X194320673Y-87401783D01*
X194325738Y-87330968D01*
X194354699Y-87285905D01*
X194411264Y-87229339D01*
X194411267Y-87229336D01*
X194474433Y-87122528D01*
X194495443Y-87087003D01*
X194495443Y-87087001D01*
X194495445Y-87086999D01*
X194541580Y-86928200D01*
X194544499Y-86891105D01*
X194544500Y-86891105D01*
X194544500Y-86758894D01*
X194544499Y-86758893D01*
X194541905Y-86725936D01*
X194541580Y-86721800D01*
X194495445Y-86563001D01*
X194495443Y-86562999D01*
X194495443Y-86562996D01*
X194411269Y-86420667D01*
X194411267Y-86420664D01*
X194354698Y-86364094D01*
X194320673Y-86301781D01*
X194325739Y-86230966D01*
X194354697Y-86185905D01*
X194411267Y-86129336D01*
X194495445Y-85986999D01*
X194541580Y-85828200D01*
X194544499Y-85791105D01*
X194544500Y-85791105D01*
X194544500Y-85658894D01*
X194544499Y-85658893D01*
X194541580Y-85621801D01*
X194504577Y-85494434D01*
X194495445Y-85463001D01*
X194495443Y-85462999D01*
X194495443Y-85462996D01*
X194411269Y-85320667D01*
X194411264Y-85320660D01*
X194354345Y-85263741D01*
X194320319Y-85201429D01*
X194325384Y-85130614D01*
X194354345Y-85085550D01*
X194410866Y-85029029D01*
X194469550Y-84929800D01*
X192310450Y-84929800D01*
X192369134Y-85029031D01*
X192425654Y-85085551D01*
X192459680Y-85147863D01*
X192454615Y-85218678D01*
X192425655Y-85263741D01*
X192368732Y-85320664D01*
X192368730Y-85320667D01*
X192284556Y-85462996D01*
X192238419Y-85621801D01*
X192235500Y-85658893D01*
X192235500Y-85791106D01*
X192238419Y-85828198D01*
X192284556Y-85987003D01*
X192368730Y-86129332D01*
X192368732Y-86129335D01*
X192368733Y-86129336D01*
X192425302Y-86185905D01*
X192459326Y-86248215D01*
X192454262Y-86319031D01*
X192425302Y-86364094D01*
X192368732Y-86420664D01*
X192368730Y-86420667D01*
X192284556Y-86562996D01*
X192238419Y-86721801D01*
X192235500Y-86758893D01*
X192235500Y-86891106D01*
X192238419Y-86928198D01*
X192284556Y-87087003D01*
X192368730Y-87229332D01*
X192368735Y-87229339D01*
X192425301Y-87285905D01*
X192459327Y-87348217D01*
X192454262Y-87419032D01*
X192425301Y-87464095D01*
X192368735Y-87520660D01*
X192368730Y-87520667D01*
X192284556Y-87662996D01*
X192238419Y-87821801D01*
X192235500Y-87858893D01*
X192235500Y-87991106D01*
X192238419Y-88028198D01*
X192284556Y-88187003D01*
X192368730Y-88329332D01*
X192368735Y-88329339D01*
X192425301Y-88385905D01*
X192459327Y-88448217D01*
X192454262Y-88519032D01*
X192425301Y-88564095D01*
X192368735Y-88620660D01*
X192368730Y-88620667D01*
X192284556Y-88762996D01*
X192238419Y-88921801D01*
X192235500Y-88958893D01*
X192235500Y-89091106D01*
X192238419Y-89128198D01*
X192284556Y-89287003D01*
X192368730Y-89429332D01*
X192368735Y-89429339D01*
X192485660Y-89546264D01*
X192485667Y-89546269D01*
X192541767Y-89579447D01*
X192590220Y-89631339D01*
X192602925Y-89701190D01*
X192575850Y-89766821D01*
X192517589Y-89807395D01*
X192477628Y-89813900D01*
X191896000Y-89813900D01*
X191827879Y-89793898D01*
X191781386Y-89740242D01*
X191770000Y-89687900D01*
X191770000Y-84320200D01*
X192310450Y-84320200D01*
X193085200Y-84320200D01*
X193085200Y-83971000D01*
X193694800Y-83971000D01*
X193694800Y-84320200D01*
X194469550Y-84320200D01*
X204310450Y-84320200D01*
X205085200Y-84320200D01*
X205085200Y-83971000D01*
X205694800Y-83971000D01*
X205694800Y-84320200D01*
X206469550Y-84320200D01*
X206410865Y-84220968D01*
X206294032Y-84104135D01*
X206294025Y-84104129D01*
X206151803Y-84020019D01*
X205993119Y-83973917D01*
X205956053Y-83971000D01*
X205694800Y-83971000D01*
X205085200Y-83971000D01*
X204823956Y-83971000D01*
X204786880Y-83973917D01*
X204628196Y-84020019D01*
X204485974Y-84104129D01*
X204485967Y-84104135D01*
X204369134Y-84220968D01*
X204310450Y-84320200D01*
X194469550Y-84320200D01*
X194410865Y-84220968D01*
X194294032Y-84104135D01*
X194294025Y-84104129D01*
X194151803Y-84020019D01*
X193993119Y-83973917D01*
X193956053Y-83971000D01*
X193694800Y-83971000D01*
X193085200Y-83971000D01*
X192823956Y-83971000D01*
X192786880Y-83973917D01*
X192628196Y-84020019D01*
X192485974Y-84104129D01*
X192485967Y-84104135D01*
X192369134Y-84220968D01*
X192310450Y-84320200D01*
X191770000Y-84320200D01*
X191770000Y-83872190D01*
X191790002Y-83804069D01*
X191806905Y-83783095D01*
X192368095Y-83221905D01*
X192430407Y-83187879D01*
X192457190Y-83185000D01*
X205740000Y-83185000D01*
X206200001Y-82724999D01*
X211101019Y-82724999D01*
X211120905Y-82952299D01*
X211179959Y-83172696D01*
X211179961Y-83172700D01*
X211276390Y-83379492D01*
X211296183Y-83407761D01*
X211670401Y-83033543D01*
X211684664Y-83074303D01*
X211780577Y-83226948D01*
X211908052Y-83354423D01*
X212060697Y-83450336D01*
X212101453Y-83464597D01*
X211727236Y-83838814D01*
X211755508Y-83858610D01*
X211962298Y-83955038D01*
X211962303Y-83955040D01*
X212182700Y-84014094D01*
X212410000Y-84033980D01*
X212637299Y-84014094D01*
X212857696Y-83955040D01*
X212857701Y-83955038D01*
X213064490Y-83858611D01*
X213092761Y-83838815D01*
X213092761Y-83838814D01*
X212718545Y-83464597D01*
X212759303Y-83450336D01*
X212911948Y-83354423D01*
X213039423Y-83226948D01*
X213135336Y-83074303D01*
X213149597Y-83033544D01*
X213523814Y-83407761D01*
X213523815Y-83407761D01*
X213543611Y-83379490D01*
X213640038Y-83172701D01*
X213640040Y-83172696D01*
X213699094Y-82952299D01*
X213718980Y-82725000D01*
X213718980Y-82724999D01*
X216101019Y-82724999D01*
X216120905Y-82952299D01*
X216179959Y-83172696D01*
X216179961Y-83172700D01*
X216276390Y-83379492D01*
X216296183Y-83407761D01*
X216670401Y-83033543D01*
X216684664Y-83074303D01*
X216780577Y-83226948D01*
X216908052Y-83354423D01*
X217060697Y-83450336D01*
X217101453Y-83464597D01*
X216727236Y-83838814D01*
X216755508Y-83858610D01*
X216962298Y-83955038D01*
X216962303Y-83955040D01*
X217182700Y-84014094D01*
X217409999Y-84033980D01*
X217637299Y-84014094D01*
X217857696Y-83955040D01*
X217857701Y-83955038D01*
X218064490Y-83858611D01*
X218092761Y-83838815D01*
X218092761Y-83838814D01*
X217718545Y-83464597D01*
X217759303Y-83450336D01*
X217911948Y-83354423D01*
X218039423Y-83226948D01*
X218135336Y-83074303D01*
X218149597Y-83033544D01*
X218523814Y-83407761D01*
X218523815Y-83407761D01*
X218543611Y-83379490D01*
X218640038Y-83172701D01*
X218640040Y-83172696D01*
X218699094Y-82952299D01*
X218718980Y-82725000D01*
X218699094Y-82497700D01*
X218640040Y-82277303D01*
X218640038Y-82277299D01*
X218543610Y-82070508D01*
X218543607Y-82070503D01*
X218523815Y-82042238D01*
X218523812Y-82042238D01*
X218149597Y-82416452D01*
X218135336Y-82375697D01*
X218039423Y-82223052D01*
X217911948Y-82095577D01*
X217759303Y-81999664D01*
X217718544Y-81985402D01*
X218092762Y-81611184D01*
X218064492Y-81591390D01*
X217857700Y-81494961D01*
X217857696Y-81494959D01*
X217637299Y-81435905D01*
X217410000Y-81416019D01*
X217182700Y-81435905D01*
X216962303Y-81494959D01*
X216962299Y-81494961D01*
X216755509Y-81591389D01*
X216727238Y-81611185D01*
X217101454Y-81985402D01*
X217060697Y-81999664D01*
X216908052Y-82095577D01*
X216780577Y-82223052D01*
X216684664Y-82375697D01*
X216670402Y-82416454D01*
X216296185Y-82042237D01*
X216276389Y-82070509D01*
X216179961Y-82277299D01*
X216179959Y-82277303D01*
X216120905Y-82497700D01*
X216101019Y-82724999D01*
X213718980Y-82724999D01*
X213699094Y-82497700D01*
X213640040Y-82277303D01*
X213640038Y-82277299D01*
X213543610Y-82070508D01*
X213543607Y-82070503D01*
X213523815Y-82042238D01*
X213523812Y-82042238D01*
X213149597Y-82416453D01*
X213135336Y-82375697D01*
X213039423Y-82223052D01*
X212911948Y-82095577D01*
X212759303Y-81999664D01*
X212718544Y-81985402D01*
X213092762Y-81611184D01*
X213064492Y-81591390D01*
X212857700Y-81494961D01*
X212857696Y-81494959D01*
X212637299Y-81435905D01*
X212410000Y-81416019D01*
X212182700Y-81435905D01*
X211962303Y-81494959D01*
X211962299Y-81494961D01*
X211755509Y-81591389D01*
X211727237Y-81611185D01*
X212101454Y-81985402D01*
X212060697Y-81999664D01*
X211908052Y-82095577D01*
X211780577Y-82223052D01*
X211684664Y-82375697D01*
X211670402Y-82416454D01*
X211296185Y-82042237D01*
X211276389Y-82070509D01*
X211179961Y-82277299D01*
X211179959Y-82277303D01*
X211120905Y-82497700D01*
X211101019Y-82724999D01*
X206200001Y-82724999D01*
X208243095Y-80681905D01*
X208305407Y-80647880D01*
X208332190Y-80645000D01*
X219287297Y-80645000D01*
X219355418Y-80665002D01*
G37*
%TD.AperFunction*%
%TD*%
%TA.AperFunction,Conductor*%
%TO.N,Net-(IC1-SW)*%
G36*
X99865221Y-76347002D02*
G01*
X99911714Y-76400658D01*
X99923100Y-76453000D01*
X99923100Y-80646000D01*
X99903098Y-80714121D01*
X99849442Y-80760614D01*
X99797100Y-80772000D01*
X94032190Y-80772000D01*
X93964069Y-80751998D01*
X93943095Y-80735095D01*
X91984905Y-78776905D01*
X91950879Y-78714593D01*
X91948000Y-78687810D01*
X91948000Y-77767774D01*
X91953904Y-77729657D01*
X91996346Y-77595929D01*
X91996347Y-77595928D01*
X91996347Y-77595927D01*
X91996348Y-77595924D01*
X92001598Y-77442266D01*
X91965196Y-77292890D01*
X91964168Y-77291061D01*
X91963561Y-77288745D01*
X91962035Y-77284874D01*
X91962500Y-77284690D01*
X91948000Y-77229312D01*
X91948000Y-76887189D01*
X91968002Y-76819068D01*
X91984896Y-76798103D01*
X92419097Y-76363902D01*
X92481407Y-76329879D01*
X92508190Y-76327000D01*
X99797100Y-76327000D01*
X99865221Y-76347002D01*
G37*
%TD.AperFunction*%
%TD*%
M02*
