STARTFONT 2.1
COMMENT
COMMENT Converted from OpenType font "DroidSansMono_NUMERIC.ttf" by "otf2bdf 3.0".
COMMENT
FONT -FreeType-Droid Sans Mono-Medium-R-Normal--39-280-100-100-P-174-ISO10646-1
SIZE 28 100 100
FONTBOUNDINGBOX 21 28 0 0
STARTPROPERTIES 19
FOUNDRY "FreeType"
FAMILY_NAME "Droid Sans Mono"
WEIGHT_NAME "Medium"
SLANT "R"
SETWIDTH_NAME "Normal"
ADD_STYLE_NAME ""
PIXEL_SIZE 39
POINT_SIZE 280
RESOLUTION_X 100
RESOLUTION_Y 100
SPACING "P"
AVERAGE_WIDTH 174
CHARSET_REGISTRY "ISO10646"
CHARSET_ENCODING "1"
FONT_ASCENT 36
FONT_DESCENT 9
COPYRIGHT "Digitized data copyright © 2007, Google Corporation."
_OTF_FONTFILE "DroidSansMono_NUMERIC.ttf"
_OTF_PSNAME "DroidSansMono"
ENDPROPERTIES
CHARS 10
STARTCHAR 0030
ENCODING 48
SWIDTH 591 0
DWIDTH 23 0
BBX 18 28 3 0
BITMAP
03F000
0FF800
1FFC00
3C1E00
780F00
780700
700780
F00780
F00380
F00380
E00380
E00380
E003C0
E003C0
E003C0
E003C0
E00380
E00380
F00380
F00380
F00780
700780
780700
380F00
3E1E00
1FFE00
0FF800
03F000
ENDCHAR
STARTCHAR 0031
ENCODING 49
SWIDTH 591 0
DWIDTH 23 0
BBX 10 28 4 0
BITMAP
01C0
03C0
0FC0
1FC0
3DC0
F9C0
71C0
21C0
01C0
01C0
01C0
01C0
01C0
01C0
01C0
01C0
01C0
01C0
01C0
01C0
01C0
01C0
01C0
01C0
01C0
01C0
01C0
01C0
ENDCHAR
STARTCHAR 0032
ENCODING 50
SWIDTH 591 0
DWIDTH 23 0
BBX 17 28 3 0
BITMAP
07F000
1FFC00
7FFE00
FC1E00
700F00
000F00
000700
000700
000700
000700
000F00
000E00
001E00
003C00
003C00
007800
00F000
01E000
03C000
078000
0F0000
1E0000
3C0000
780000
F00000
FFFF80
FFFF80
FFFF80
ENDCHAR
STARTCHAR 0033
ENCODING 51
SWIDTH 591 0
DWIDTH 23 0
BBX 18 28 2 0
BITMAP
07F800
1FFE00
7FFF00
7C1F00
200780
000780
000380
000380
000780
000780
000F00
003E00
07FC00
07F000
07FE00
001F80
000780
0003C0
0003C0
0001C0
0003C0
0003C0
0003C0
800780
F01F80
FFFF00
FFFC00
1FF000
ENDCHAR
STARTCHAR 0034
ENCODING 52
SWIDTH 591 0
DWIDTH 23 0
BBX 20 28 1 0
BITMAP
000F00
000F00
001F00
003F00
003F00
007700
00F700
00E700
01E700
01C700
038700
078700
070700
0E0700
1E0700
1C0700
380700
780700
700700
FFFFF0
FFFFF0
FFFFF0
000700
000700
000700
000700
000700
000700
ENDCHAR
STARTCHAR 0035
ENCODING 53
SWIDTH 591 0
DWIDTH 23 0
BBX 17 28 3 0
BITMAP
3FFE00
3FFE00
3FFE00
380000
380000
780000
780000
780000
700000
700000
700000
7FF000
7FFC00
7FFE00
003F00
000F00
000780
000780
000780
000380
000780
000780
000780
800F00
E03E00
FFFE00
FFF800
1FE000
ENDCHAR
STARTCHAR 0036
ENCODING 54
SWIDTH 591 0
DWIDTH 23 0
BBX 17 28 3 0
BITMAP
00FE00
03FE00
0FFE00
1F8000
1E0000
3C0000
380000
780000
700000
700000
F00000
F1F800
F7FE00
EFFF00
FC0F00
F80780
F00380
F00380
E00380
E00380
F00380
700380
780780
780780
3E1F00
1FFE00
0FFC00
03F000
ENDCHAR
STARTCHAR 0037
ENCODING 55
SWIDTH 591 0
DWIDTH 23 0
BBX 18 28 3 0
BITMAP
FFFFC0
FFFFC0
FFFFC0
000380
000780
000700
000700
000F00
000E00
001E00
001C00
003C00
003C00
003800
007800
007000
00F000
00E000
01E000
01E000
01C000
03C000
038000
078000
078000
0F0000
0F0000
0E0000
ENDCHAR
STARTCHAR 0038
ENCODING 56
SWIDTH 591 0
DWIDTH 23 0
BBX 17 28 3 0
BITMAP
07F000
1FFC00
3FFE00
3C1F00
780F00
700700
700780
700700
780700
380F00
3C1E00
1F7C00
0FF800
07F000
1FFC00
3E3E00
780F00
700780
F00380
E00380
E00380
E00380
F00380
F00780
7C0F00
3FFE00
1FFC00
07F000
ENDCHAR
STARTCHAR 0039
ENCODING 57
SWIDTH 591 0
DWIDTH 23 0
BBX 17 28 3 0
BITMAP
07E000
1FF800
3FFC00
7C1E00
780F00
F00700
F00780
E00380
E00380
E00380
E00380
F00780
700780
781F80
3FFB80
1FF380
07E380
000380
000780
000780
000700
000F00
000E00
001E00
007C00
3FF800
3FF000
3F8000
ENDCHAR
ENDFONT
