STARTFONT 2.1
COMMENT
COMMENT Converted from OpenType font "DroidSansMono_CLK.ttf" by "otf2bdf 3.0".
COMMENT
FONT -FreeType-Droid Sans Mono-Medium-R-Normal--19-140-100-100-P-82-ISO10646-1
SIZE 14 100 100
FONTBOUNDINGBOX 10 14 0 0
STARTPROPERTIES 19
FOUNDRY "FreeType"
FAMILY_NAME "Droid Sans Mono"
WEIGHT_NAME "Medium"
SLANT "R"
SETWIDTH_NAME "Normal"
ADD_STYLE_NAME ""
PIXEL_SIZE 19
POINT_SIZE 140
RESOLUTION_X 100
RESOLUTION_Y 100
SPACING "P"
AVERAGE_WIDTH 82
CHARSET_REGISTRY "ISO10646"
CHARSET_ENCODING "1"
FONT_ASCENT 17
FONT_DESCENT 4
COPYRIGHT "Digitized data copyright © 2007, Google Corporation."
_OTF_FONTFILE "DroidSansMono_CLK.ttf"
_OTF_PSNAME "DroidSansMono"
ENDPROPERTIES
CHARS 12
STARTCHAR 002F
ENCODING 47
SWIDTH 565 0
DWIDTH 11 0
BBX 7 14 2 0
BITMAP
02
06
04
0C
0C
18
18
10
30
20
60
60
40
C0
ENDCHAR
STARTCHAR 0030
ENCODING 48
SWIDTH 565 0
DWIDTH 11 0
BBX 9 14 1 0
BITMAP
1E00
3700
6100
4180
4180
C180
C180
C180
C180
4180
4180
6100
3700
1E00
ENDCHAR
STARTCHAR 0031
ENCODING 49
SWIDTH 565 0
DWIDTH 11 0
BBX 4 14 3 0
BITMAP
30
70
F0
B0
30
30
30
30
30
30
30
30
30
30
ENDCHAR
STARTCHAR 0032
ENCODING 50
SWIDTH 565 0
DWIDTH 11 0
BBX 9 14 1 0
BITMAP
3E00
7700
4300
0100
0100
0300
0300
0600
0C00
1800
3000
2000
6000
FF80
ENDCHAR
STARTCHAR 0033
ENCODING 51
SWIDTH 565 0
DWIDTH 11 0
BBX 9 14 1 0
BITMAP
3E00
E700
0300
0100
0300
0300
3C00
0700
0180
0180
0180
0180
E700
7E00
ENDCHAR
STARTCHAR 0034
ENCODING 52
SWIDTH 565 0
DWIDTH 11 0
BBX 9 14 1 0
BITMAP
0600
0600
0E00
1A00
1200
3200
6200
4200
C200
FF80
0200
0200
0200
0200
ENDCHAR
STARTCHAR 0035
ENCODING 53
SWIDTH 565 0
DWIDTH 11 0
BBX 8 14 2 0
BITMAP
FE
C0
C0
C0
C0
FC
CE
02
03
03
03
02
CE
F8
ENDCHAR
STARTCHAR 0036
ENCODING 54
SWIDTH 565 0
DWIDTH 11 0
BBX 9 14 1 0
BITMAP
0F00
3900
2000
6000
4000
5E00
F300
E180
C180
4180
4180
6180
3300
1E00
ENDCHAR
STARTCHAR 0037
ENCODING 55
SWIDTH 565 0
DWIDTH 11 0
BBX 9 14 1 0
BITMAP
FF80
0180
0180
0300
0300
0200
0600
0600
0C00
0C00
0800
1800
1800
3000
ENDCHAR
STARTCHAR 0038
ENCODING 56
SWIDTH 565 0
DWIDTH 11 0
BBX 9 14 1 0
BITMAP
1E00
7700
6100
6180
6100
3300
1C00
3600
6300
4180
C180
4180
7300
3E00
ENDCHAR
STARTCHAR 0039
ENCODING 57
SWIDTH 565 0
DWIDTH 11 0
BBX 9 14 1 0
BITMAP
3E00
7700
6100
4180
C180
C180
4180
7380
3D80
0180
0100
0300
4E00
7C00
ENDCHAR
STARTCHAR 003A
ENCODING 58
SWIDTH 565 0
DWIDTH 11 0
BBX 2 10 5 0
BITMAP
C0
C0
C0
00
00
00
00
C0
C0
C0
ENDCHAR
ENDFONT
