STARTFONT 2.1
COMMENT
COMMENT Converted from OpenType font "DroidSansMono_NUMERIC.ttf" by "otf2bdf 3.0".
COMMENT
FONT -FreeType-Droid Sans Mono-Medium-R-Normal--44-320-100-100-P-198-ISO10646-1
SIZE 32 100 100
FONTBOUNDINGBOX 24 31 0 0
STARTPROPERTIES 19
FOUNDRY "FreeType"
FAMILY_NAME "Droid Sans Mono"
WEIGHT_NAME "Medium"
SLANT "R"
SETWIDTH_NAME "Normal"
ADD_STYLE_NAME ""
PIXEL_SIZE 44
POINT_SIZE 320
RESOLUTION_X 100
RESOLUTION_Y 100
SPACING "P"
AVERAGE_WIDTH 198
CHARSET_REGISTRY "ISO10646"
CHARSET_ENCODING "1"
FONT_ASCENT 40
FONT_DESCENT 10
COPYRIGHT "Digitized data copyright © 2007, Google Corporation."
_OTF_FONTFILE "DroidSansMono_NUMERIC.ttf"
_OTF_PSNAME "DroidSansMono"
ENDPROPERTIES
CHARS 10
STARTCHAR 0030
ENCODING 48
SWIDTH 585 0
DWIDTH 26 0
BBX 20 31 3 0
BITMAP
01F800
07FE00
0FFF00
1F9F80
3E07C0
3C03C0
7801E0
7801E0
7800E0
7800F0
F000F0
F000F0
F000F0
F000F0
F000F0
F000F0
F000F0
F000F0
F000F0
F000F0
F000F0
7800F0
7800F0
7801E0
7801E0
3C03E0
3E07C0
1F8F80
0FFF80
07FE00
01FC00
ENDCHAR
STARTCHAR 0031
ENCODING 49
SWIDTH 585 0
DWIDTH 26 0
BBX 11 31 5 0
BITMAP
01E0
03E0
07E0
0FE0
3EE0
7CE0
F8E0
70E0
20E0
01E0
01E0
01E0
01E0
01E0
01E0
01E0
01E0
01E0
01E0
01E0
01E0
01E0
01E0
01E0
01E0
01E0
01E0
01E0
01E0
01E0
01E0
ENDCHAR
STARTCHAR 0032
ENCODING 50
SWIDTH 585 0
DWIDTH 26 0
BBX 20 31 3 0
BITMAP
03F800
0FFE00
3FFF80
7F1F80
7807C0
3003C0
0003E0
0001E0
0001E0
0001E0
0003C0
0003C0
0003C0
000780
000F80
000F00
001E00
003C00
007C00
00F800
01F000
03E000
07C000
0F8000
1F0000
3E0000
7C0000
7FFFF0
FFFFF0
FFFFF0
FFFFF0
ENDCHAR
STARTCHAR 0033
ENCODING 51
SWIDTH 585 0
DWIDTH 26 0
BBX 20 31 3 0
BITMAP
07F800
1FFF00
7FFF80
FE1FC0
7007C0
0003C0
0001E0
0001E0
0001E0
0003C0
0003C0
000780
001F00
07FE00
07F000
07FF00
007F80
0007C0
0001E0
0001E0
0000F0
0000F0
0000F0
0001F0
0001E0
0003E0
C007C0
FC3FC0
FFFF80
FFFE00
1FF000
ENDCHAR
STARTCHAR 0034
ENCODING 52
SWIDTH 585 0
DWIDTH 26 0
BBX 23 31 1 0
BITMAP
0003E0
0003E0
0007E0
000FE0
000FE0
001DE0
003DE0
0039E0
0079E0
00F1E0
01E1E0
01E1E0
03C1E0
0781E0
0781E0
0F01E0
1E01E0
1E01E0
3C01E0
7801E0
7801E0
FFFFFE
FFFFFE
FFFFFE
FFFFFE
0001E0
0001E0
0001E0
0001E0
0001E0
0001E0
ENDCHAR
STARTCHAR 0035
ENCODING 53
SWIDTH 585 0
DWIDTH 26 0
BBX 19 31 4 0
BITMAP
7FFF00
7FFF00
7FFF00
7FFF00
780000
780000
780000
780000
700000
700000
700000
700000
7FF000
FFFE00
FFFF00
387F80
000FC0
0007C0
0003C0
0003E0
0001E0
0001E0
0001E0
0003C0
0003C0
0007C0
800F80
F87F80
FFFF00
FFFC00
1FE000
ENDCHAR
STARTCHAR 0036
ENCODING 54
SWIDTH 585 0
DWIDTH 26 0
BBX 20 31 3 0
BITMAP
003FC0
01FFC0
03FFC0
07F0C0
0F8000
1F0000
3E0000
3C0000
3C0000
780000
780000
780000
78FE00
73FF80
F7FFC0
F707E0
FC01E0
F801F0
F800F0
F000F0
F000F0
7000F0
7000F0
7800F0
7800F0
3C01E0
3E03E0
1F9FC0
0FFF80
07FF00
01FC00
ENDCHAR
STARTCHAR 0037
ENCODING 55
SWIDTH 585 0
DWIDTH 26 0
BBX 20 31 3 0
BITMAP
FFFFF0
FFFFF0
FFFFF0
FFFFF0
0000F0
0001E0
0001E0
0001C0
0003C0
0003C0
000780
000780
000F00
000F00
001E00
001E00
001E00
003C00
003C00
007800
007800
00F000
00F000
01F000
01E000
01E000
03C000
03C000
078000
078000
0F8000
ENDCHAR
STARTCHAR 0038
ENCODING 56
SWIDTH 585 0
DWIDTH 26 0
BBX 20 31 3 0
BITMAP
01FC00
0FFF00
1FFF80
3F8FC0
3C03E0
3C01E0
7801E0
7801E0
7801E0
3C01E0
3C03C0
1E07C0
0F9F80
07FE00
03F800
07FE00
1FBF80
3E0FC0
3C03E0
7801E0
7800F0
F000F0
F000F0
F000F0
F000F0
7801F0
7C03E0
3F9FE0
1FFFC0
0FFF00
03FC00
ENDCHAR
STARTCHAR 0039
ENCODING 57
SWIDTH 585 0
DWIDTH 26 0
BBX 20 31 3 0
BITMAP
03F800
0FFE00
1FFF00
3F9F80
3C07C0
7803E0
7801E0
F000E0
F000F0
F000F0
F000F0
F000F0
7000F0
7801F0
7C03F0
3E0FF0
1FFEF0
0FFCF0
03F0F0
0000F0
0001E0
0001E0
0001E0
0003C0
0003C0
000780
000F80
007F00
1FFE00
1FF800
1FC000
ENDCHAR
ENDFONT
